<svg width="28" height="28" viewBox="0 0 28 28" fill="none" xmlns="http://www.w3.org/2000/svg">
<g clip-path="url(#clip0_254_547)">
<path d="M22.04 16.8091C21.714 16.8091 21.4574 16.9118 21.2703 17.117C21.0831 17.3223 20.9895 17.6031 20.9895 17.9593C20.9895 18.3185 21.0823 18.6 21.268 18.8038C21.4536 19.0076 21.7109 19.1095 22.04 19.1095C22.3661 19.1095 22.6234 19.0069 22.8121 18.8015C23.0007 18.5963 23.0951 18.3156 23.0951 17.9593C23.0951 17.6031 23.0007 17.3223 22.8121 17.117C22.6234 16.9118 22.366 16.8091 22.04 16.8091Z" fill="#262834"/>
<path d="M11.7563 16.791C11.4272 16.791 11.1684 16.8945 10.9797 17.1012C10.7911 17.308 10.6968 17.5911 10.6968 17.9502C10.6968 18.3065 10.7919 18.5872 10.9821 18.7925C11.1723 18.9978 11.4304 19.1004 11.7564 19.1004C12.0854 19.1004 12.3451 18.9978 12.5353 18.7925C12.7255 18.5872 12.8206 18.3065 12.8206 17.9502C12.8206 17.5941 12.7255 17.3118 12.5353 17.1035C12.345 16.8952 12.0854 16.791 11.7563 16.791Z" fill="#262834"/>
<path d="M26.3396 5.31551H1.63555C0.725662 5.31551 -0.0119629 6.05314 -0.0119629 6.96303V21.067C-0.0119629 21.9769 0.725662 22.7145 1.63555 22.7145H26.3396C27.2495 22.7145 27.9872 21.9769 27.9872 21.067V6.96303C27.9872 6.05314 27.2495 5.31551 26.3396 5.31551ZM20.12 8.85445L20.9175 8.61333V9.68914H22.086V10.3105H20.9175V12.731C20.9175 13.2875 21.0752 13.6028 21.5296 13.6028C21.7522 13.6028 21.882 13.5843 22.0025 13.5472L22.0396 14.1685C21.882 14.2242 21.6316 14.2798 21.3163 14.2798C20.936 14.2798 20.63 14.15 20.4352 13.9367C20.2126 13.6862 20.1199 13.2875 20.1199 12.7589V10.3105H19.4242V9.68914H20.1199V8.85445H20.12ZM8.42823 15.8447C8.18066 15.57 7.93391 15.3685 7.68787 15.2402C7.44172 15.1119 7.1784 15.0477 6.89764 15.0477C6.37838 15.0477 5.95805 15.225 5.63649 15.5798C5.31504 15.9346 5.15425 16.3971 5.15425 16.9677C5.15425 17.499 5.31799 17.9398 5.64551 18.2899C5.97309 18.6401 6.39041 18.8152 6.89758 18.8152C7.17835 18.8152 7.44167 18.7511 7.68782 18.6227C7.93385 18.4944 8.1806 18.2914 8.42817 18.0137V19.9925C8.14134 20.1314 7.85609 20.2356 7.57232 20.3049C7.28849 20.3743 7.00176 20.409 6.71197 20.409C6.34972 20.409 6.01531 20.3661 5.70895 20.28C5.40259 20.194 5.12106 20.0635 4.86447 19.8883C4.36938 19.5563 3.99198 19.1382 3.73243 18.634C3.47278 18.1299 3.343 17.5623 3.343 16.9314C3.343 16.4242 3.4252 15.9632 3.58975 15.5481C3.75431 15.133 4.00259 14.7564 4.33471 14.4182C4.64861 14.0953 5.00261 13.8538 5.39663 13.6937C5.79049 13.5338 6.22897 13.4537 6.71203 13.4537C7.00182 13.4537 7.28854 13.4885 7.57237 13.5578C7.85614 13.6273 8.14145 13.7314 8.42823 13.8703V15.8447ZM12.0058 7.86215C12.7292 7.86215 13.3042 8.01981 13.5731 8.14964L13.3691 8.80807C13.0353 8.65041 12.6179 8.53912 11.9873 8.53912C10.4663 8.53912 9.47402 9.48511 9.47402 11.0524C9.47402 12.6382 10.42 13.575 11.8852 13.575C12.4139 13.575 12.7756 13.5008 12.9611 13.4081V11.544H11.6997V10.8948H13.7586V13.8996C13.3969 14.0387 12.6735 14.2428 11.8296 14.2428C10.8836 14.2428 10.1046 14.0016 9.4925 13.4174C8.9546 12.898 8.62073 12.0633 8.62073 11.0896C8.62073 9.22545 9.90988 7.86215 12.0058 7.86215ZM14.2379 20.2415H12.7572V19.4989C12.5458 19.8158 12.3081 20.0483 12.044 20.1962C11.7798 20.3441 11.4696 20.4181 11.1134 20.4181C10.5036 20.4181 10.0161 20.1955 9.65082 19.7502C9.28551 19.3048 9.10291 18.7079 9.10291 17.9592C9.10291 17.2136 9.29377 16.6211 9.67571 16.1819C10.0576 15.7426 10.5715 15.523 11.2176 15.523C11.5618 15.523 11.8583 15.5963 12.1074 15.7426C12.3564 15.8891 12.57 16.1148 12.7482 16.4196V15.668H14.238V20.2415H14.2379ZM15.3628 7.91776C15.6596 7.91776 15.8636 8.14034 15.8636 8.42783C15.8636 8.70603 15.6689 8.92861 15.3442 8.92861C15.0474 8.92861 14.8528 8.70603 14.8528 8.42783C14.8527 8.14969 15.0568 7.91776 15.3628 7.91776ZM14.9547 9.6892H15.7708V14.1778H14.9547V9.6892ZM18.8522 17.0627C18.7555 17.0296 18.6604 17.0053 18.5669 16.9902C18.4733 16.9752 18.3827 16.9676 18.2952 16.9676C17.9027 16.9676 17.6001 17.0876 17.3874 17.3276C17.1745 17.5676 17.0681 17.908 17.0681 18.3487V20.2415H15.4651V15.668H16.9865V16.7457C17.1435 16.3533 17.3579 16.0589 17.6296 15.8627C17.9013 15.6665 18.2303 15.5684 18.6167 15.5684C18.6801 15.5684 18.7442 15.5706 18.8092 15.5752C18.8741 15.5797 18.9397 15.5865 19.0062 15.5956L18.8522 17.0627ZM19.1001 10.3105H18.015V14.1778H17.2081V10.3105H16.5868V9.68914H17.2081V9.47581C17.2081 8.84515 17.3565 8.27017 17.7275 7.90847C18.0335 7.61168 18.4417 7.49115 18.8219 7.49115C19.1187 7.49115 19.3598 7.55606 19.5174 7.62097L19.4061 8.25163C19.2856 8.19601 19.1279 8.14964 18.8868 8.14964C18.1913 8.14964 18.015 8.75246 18.015 9.44797V9.68914H19.1001V10.3105ZM24.526 20.2415H23.0408V19.4989C22.8355 19.8068 22.6045 20.0371 22.3479 20.1894C22.0913 20.3418 21.806 20.4181 21.4921 20.4181C20.8491 20.4181 20.3374 20.1962 19.9571 19.7525C19.5767 19.3087 19.3865 18.711 19.3865 17.9593C19.3865 17.2318 19.5759 16.6439 19.9548 16.1955C20.3336 15.7473 20.8279 15.5231 21.4378 15.5231C21.8241 15.5231 22.1389 15.5926 22.382 15.7315C22.6249 15.8704 22.8416 16.1028 23.0317 16.4288C23.0136 16.3201 23 16.1971 22.991 16.0597C22.9819 15.9224 22.9774 15.7737 22.9774 15.6137V13.2228H24.526V20.2415Z" fill="#262834"/>
</g>
<defs>
<clipPath id="clip0_254_547">
<rect width="28" height="28" fill="white"/>
</clipPath>
</defs>
</svg>
