<svg width="30" height="30" viewBox="0 0 30 30" fill="none" xmlns="http://www.w3.org/2000/svg">
<path d="M15.6249 3.75C12.4765 3.75331 9.45798 5.00548 7.2317 7.23176C5.00543 9.45804 3.75325 12.4766 3.74994 15.625C3.73879 18.559 4.82693 21.3909 6.79994 23.5625L3.93744 26.4375C3.84638 26.5212 3.78407 26.6315 3.75938 26.7527C3.73469 26.8739 3.74889 26.9998 3.79994 27.1125C3.84683 27.2266 3.92645 27.3243 4.02878 27.3933C4.1311 27.4623 4.25155 27.4994 4.37494 27.5H15.6249C18.7744 27.5 21.7948 26.2489 24.0218 24.0219C26.2488 21.7949 27.4999 18.7744 27.4999 15.625C27.4999 12.4756 26.2488 9.4551 24.0218 7.22811C21.7948 5.00111 18.7744 3.75 15.6249 3.75ZM10.6249 18.125C10.3777 18.125 10.136 18.0517 9.93048 17.9143C9.72492 17.777 9.5647 17.5818 9.47009 17.3534C9.37548 17.1249 9.35073 16.8736 9.39896 16.6311C9.44719 16.3887 9.56624 16.1659 9.74106 15.9911C9.91587 15.8163 10.1386 15.6972 10.3811 15.649C10.6236 15.6008 10.8749 15.6255 11.1033 15.7201C11.3317 15.8148 11.5269 15.975 11.6643 16.1805C11.8016 16.3861 11.8749 16.6278 11.8749 16.875C11.8749 17.2065 11.7432 17.5245 11.5088 17.7589C11.2744 17.9933 10.9565 18.125 10.6249 18.125ZM15.6249 18.125C15.3777 18.125 15.136 18.0517 14.9305 17.9143C14.7249 17.777 14.5647 17.5818 14.4701 17.3534C14.3755 17.1249 14.3507 16.8736 14.399 16.6311C14.4472 16.3887 14.5662 16.1659 14.7411 15.9911C14.9159 15.8163 15.1386 15.6972 15.3811 15.649C15.6236 15.6008 15.8749 15.6255 16.1033 15.7201C16.3317 15.8148 16.5269 15.975 16.6643 16.1805C16.8016 16.3861 16.8749 16.6278 16.8749 16.875C16.8749 17.2065 16.7432 17.5245 16.5088 17.7589C16.2744 17.9933 15.9565 18.125 15.6249 18.125ZM20.6249 18.125C20.3777 18.125 20.136 18.0517 19.9305 17.9143C19.7249 17.777 19.5647 17.5818 19.4701 17.3534C19.3755 17.1249 19.3507 16.8736 19.399 16.6311C19.4472 16.3887 19.5662 16.1659 19.7411 15.9911C19.9159 15.8163 20.1386 15.6972 20.3811 15.649C20.6236 15.6008 20.8749 15.6255 21.1033 15.7201C21.3317 15.8148 21.5269 15.975 21.6643 16.1805C21.8016 16.3861 21.8749 16.6278 21.8749 16.875C21.8749 17.2065 21.7432 17.5245 21.5088 17.7589C21.2744 17.9933 20.9565 18.125 20.6249 18.125Z" fill="#262834"/>
</svg>
