<svg width="30" height="30" viewBox="0 0 30 30" fill="none" xmlns="http://www.w3.org/2000/svg">
<g clip-path="url(#clip0_208_1123)">
<path fill-rule="evenodd" clip-rule="evenodd" d="M5.0225 21.31C3.8225 19.455 3.125 17.2438 3.125 14.8713C3.125 8.3175 8.44625 2.99625 15 2.99625C21.5537 2.99625 26.875 8.3175 26.875 14.8713C26.875 21.425 21.5537 26.7463 15 26.7463C12.7787 26.7463 10.7 26.135 8.92125 25.0725L3.125 27.0038L5.0225 21.31Z" fill="#F3F3F3"/>
<path fill-rule="evenodd" clip-rule="evenodd" d="M7.24387 20.38C6.13637 18.825 5.48512 16.9237 5.48512 14.8712C5.48512 9.61999 9.74887 5.35624 15.0001 5.35624C20.2514 5.35624 24.5151 9.61999 24.5151 14.8712C24.5151 20.1225 20.2514 24.385 15.0001 24.385C13.0126 24.385 11.1676 23.775 9.64012 22.7312L6.06262 23.9237L7.24387 20.38Z" fill="#00A82D"/>
<path fill-rule="evenodd" clip-rule="evenodd" d="M12.1425 17.3413C10.7375 15.6238 9.80001 13.5213 9.50626 11.2413C9.42751 10.6063 9.63876 9.96875 10.0825 9.5075C10.5263 9.04625 11.155 8.81 11.7925 8.86375L11.8538 8.87C11.8538 8.87 12.555 9.0575 12.9388 9.16125C13.0913 9.2025 13.2125 9.31625 13.2638 9.465C13.4363 9.9775 13.8438 11.1813 14.0363 11.7475C14.0988 11.9313 14.0413 12.135 13.8938 12.26C13.6025 12.505 13.1213 12.91 12.8213 13.1638C12.66 13.3 12.6088 13.5263 12.6963 13.7175C13.045 14.4775 13.49 15.1875 14.0175 15.83C14.56 16.4575 15.1838 17.0163 15.8738 17.4888C16.0488 17.6075 16.28 17.595 16.4413 17.4588C16.7425 17.2063 17.2238 16.8013 17.5138 16.5563C17.6625 16.4313 17.8725 16.41 18.0438 16.5025C18.5688 16.7875 19.6863 17.3925 20.1613 17.65C20.3 17.725 20.3925 17.865 20.4063 18.0213C20.4425 18.4175 20.51 19.14 20.51 19.14L20.505 19.2013C20.45 19.8388 20.1113 20.4188 19.5813 20.7775C19.0513 21.1375 18.3875 21.2375 17.775 21.0525C15.56 20.3712 13.6338 19.0763 12.1763 17.3813L12.1425 17.3413Z" fill="#F3F3F3"/>
</g>
<defs>
<clipPath id="clip0_208_1123">
<rect width="29.5312" height="29.5312" fill="white" transform="scale(1.01587)"/>
</clipPath>
</defs>
</svg>
