<svg width="33" height="33" viewBox="0 0 33 33" fill="none" xmlns="http://www.w3.org/2000/svg">
<path fill-rule="evenodd" clip-rule="evenodd" d="M14.1854 0.958745L11.7015 3.44258C11.5002 3.64388 11.2272 3.75698 10.9425 3.75698H7.03033C5.2225 3.75698 3.75698 5.2225 3.75698 7.03033V10.9425C3.75698 11.2272 3.64388 11.5002 3.44258 11.7015L0.958745 14.1854C-0.319581 15.4637 -0.319583 17.5363 0.958745 18.8146L3.44258 21.2984C3.64388 21.4997 3.75698 21.7727 3.75698 22.0574V25.9696C3.75698 27.7774 5.2225 29.243 7.03033 29.243H10.9425C11.2272 29.243 11.5002 29.3561 11.7015 29.5574L14.1854 32.0412C15.4637 33.3196 17.5363 33.3196 18.8146 32.0412L21.2984 29.5574C21.4997 29.3561 21.7727 29.243 22.0574 29.243H25.9696C27.7774 29.243 29.243 27.7774 29.243 25.9696V22.0574C29.243 21.7727 29.3561 21.4997 29.5574 21.2984L32.0412 18.8146C33.3196 17.5363 33.3196 15.4637 32.0412 14.1854L29.5574 11.7015C29.3561 11.5002 29.243 11.2272 29.243 10.9425V7.03033C29.243 5.2225 27.7774 3.75698 25.9696 3.75698H22.0574C21.7727 3.75698 21.4997 3.64388 21.2984 3.44258L18.8146 0.958745C17.5363 -0.319581 15.4637 -0.319583 14.1854 0.958745ZM10.2222 21.2222L21.2222 10.2222L22.7779 11.7778L11.7779 22.7779L10.2222 21.2222ZM11 11V13.2H13.2V11H11ZM19.8 22H22V19.8H19.8V22Z" fill="white"/>
</svg>
