<svg width="186" height="16" viewBox="0 0 186 16" fill="none" xmlns="http://www.w3.org/2000/svg">
<path d="M182.371 12.4168C181.526 12.4168 180.798 12.2304 180.185 11.8576C179.577 11.481 179.107 10.956 178.776 10.2827C178.449 9.60553 178.285 8.81806 178.285 7.92027C178.285 7.02248 178.449 6.2312 178.776 5.54644C179.107 4.85788 179.567 4.32149 180.157 3.93726C180.75 3.54923 181.443 3.35522 182.234 3.35522C182.69 3.35522 183.141 3.4313 183.586 3.58347C184.031 3.73564 184.436 3.98291 184.802 4.32529C185.167 4.66387 185.458 5.11276 185.675 5.67198C185.892 6.2312 186 6.91976 186 7.73767V8.3083H179.244V7.14421H184.63C184.63 6.64966 184.532 6.20837 184.334 5.82035C184.14 5.43232 183.862 5.12608 183.501 4.90163C183.143 4.67718 182.721 4.56496 182.234 4.56496C181.697 4.56496 181.233 4.69811 180.841 4.9644C180.453 5.22689 180.155 5.56927 179.946 5.99153C179.736 6.4138 179.632 6.8665 179.632 7.34964V8.1257C179.632 8.78763 179.746 9.34875 179.974 9.80906C180.206 10.2656 180.528 10.6136 180.938 10.8533C181.349 11.0892 181.827 11.2071 182.371 11.2071C182.725 11.2071 183.044 11.1576 183.329 11.0587C183.619 10.956 183.868 10.8039 184.077 10.6022C184.286 10.3968 184.448 10.1419 184.562 9.83759L185.863 10.2028C185.726 10.6441 185.496 11.0321 185.173 11.3669C184.849 11.6978 184.45 11.9565 183.974 12.1429C183.499 12.3255 182.964 12.4168 182.371 12.4168Z" fill="black"/>
<path d="M176.229 0.547761V12.2343H174.883V0.547761H176.229Z" fill="black"/>
<path d="M166.805 15.5211C166.577 15.5211 166.374 15.5021 166.195 15.464C166.016 15.4298 165.892 15.3955 165.824 15.3613L166.166 14.1744C166.493 14.2581 166.783 14.2885 167.034 14.2657C167.285 14.2429 167.507 14.1306 167.701 13.929C167.899 13.7312 168.08 13.4097 168.243 12.9647L168.494 12.2799L165.253 3.46936H166.714L169.134 10.4539H169.225L171.644 3.46936H173.105L169.385 13.5125C169.217 13.9652 169.01 14.3399 168.763 14.6366C168.515 14.9371 168.228 15.1597 167.901 15.3042C167.578 15.4488 167.212 15.5211 166.805 15.5211Z" fill="black"/>
<path d="M163.912 3.46932V4.61059H159.37V3.46932H163.912ZM160.694 1.3694H162.041V9.72344C162.041 10.1039 162.096 10.3892 162.206 10.5794C162.32 10.7658 162.465 10.8913 162.64 10.956C162.819 11.0169 163.007 11.0473 163.205 11.0473C163.353 11.0473 163.475 11.0397 163.57 11.0245C163.665 11.0055 163.741 10.9902 163.798 10.9788L164.072 12.1886C163.981 12.2228 163.853 12.257 163.69 12.2913C163.526 12.3293 163.319 12.3483 163.068 12.3483C162.687 12.3483 162.315 12.2666 161.949 12.103C161.588 11.9394 161.287 11.6902 161.048 11.3554C160.812 11.0207 160.694 10.5984 160.694 10.0886V1.3694Z" fill="black"/>
<path d="M156.427 3.46942C156.359 2.89119 156.081 2.44229 155.594 2.12274C155.107 1.80318 154.51 1.64341 153.802 1.64341C153.285 1.64341 152.832 1.7271 152.444 1.89448C152.06 2.06187 151.759 2.29202 151.542 2.58495C151.329 2.87787 151.223 3.21074 151.223 3.58355C151.223 3.8955 151.297 4.16369 151.445 4.38814C151.598 4.60878 151.792 4.79329 152.027 4.94165C152.263 5.08621 152.511 5.20604 152.769 5.30115C153.028 5.39245 153.266 5.46663 153.483 5.5237L154.67 5.84325C154.974 5.92314 155.312 6.03346 155.685 6.17422C156.062 6.31497 156.421 6.50708 156.764 6.75055C157.11 6.99022 157.395 7.29836 157.62 7.67497C157.844 8.05159 157.956 8.5138 157.956 9.06161C157.956 9.69311 157.791 10.2637 157.46 10.7735C157.133 11.2833 156.653 11.6884 156.022 11.9889C155.394 12.2895 154.631 12.4397 153.734 12.4397C152.897 12.4397 152.172 12.3047 151.56 12.0346C150.951 11.7645 150.472 11.3879 150.122 10.9047C149.775 10.4216 149.579 9.86049 149.534 9.22138H150.995C151.033 9.66267 151.181 10.0279 151.44 10.317C151.702 10.6023 152.033 10.8153 152.433 10.9561C152.836 11.0931 153.27 11.1615 153.734 11.1615C154.274 11.1615 154.759 11.074 155.189 10.899C155.619 10.7202 155.959 10.473 156.21 10.1572C156.461 9.83767 156.587 9.46485 156.587 9.03878C156.587 8.65075 156.478 8.335 156.262 8.09154C156.045 7.84807 155.759 7.65025 155.406 7.49808C155.052 7.34591 154.67 7.21276 154.259 7.09864L152.821 6.68778C151.908 6.42529 151.185 6.05058 150.652 5.56364C150.12 5.0767 149.853 4.4395 149.853 3.65203C149.853 2.9977 150.03 2.42707 150.384 1.94013C150.742 1.44939 151.221 1.06897 151.822 0.798872C152.427 0.524969 153.102 0.388018 153.848 0.388018C154.601 0.388018 155.271 0.523067 155.856 0.793166C156.442 1.05946 156.906 1.42466 157.249 1.88878C157.595 2.35289 157.778 2.87977 157.797 3.46942H156.427Z" fill="black"/>
<path d="M137.257 15.5211C137.028 15.5211 136.825 15.5021 136.646 15.464C136.467 15.4298 136.344 15.3955 136.275 15.3613L136.618 14.1744C136.945 14.2581 137.234 14.2885 137.485 14.2657C137.736 14.2429 137.959 14.1306 138.153 13.929C138.35 13.7312 138.531 13.4097 138.695 12.9647L138.946 12.2799L135.705 3.46936H137.165L139.585 10.4539H139.676L142.096 3.46936H143.556L139.836 13.5125C139.669 13.9652 139.461 14.3399 139.214 14.6366C138.967 14.9371 138.679 15.1597 138.352 15.3042C138.029 15.4488 137.664 15.5211 137.257 15.5211Z" fill="black"/>
<path d="M130.144 12.2343V3.46937H131.445V4.79323H131.536C131.696 4.35955 131.985 4.00766 132.403 3.73757C132.822 3.46747 133.294 3.33242 133.819 3.33242C133.918 3.33242 134.041 3.33432 134.19 3.33812C134.338 3.34193 134.45 3.34763 134.526 3.35524V4.72476C134.481 4.71334 134.376 4.69623 134.212 4.6734C134.053 4.64677 133.883 4.63346 133.705 4.63346C133.278 4.63346 132.898 4.72286 132.563 4.90165C132.232 5.07665 131.97 5.32012 131.776 5.63206C131.586 5.9402 131.49 6.29209 131.49 6.68773V12.2343H130.144Z" fill="black"/>
<path d="M124.466 12.4168C123.621 12.4168 122.893 12.2304 122.28 11.8576C121.672 11.481 121.202 10.956 120.871 10.2827C120.544 9.60553 120.38 8.81806 120.38 7.92027C120.38 7.02248 120.544 6.2312 120.871 5.54644C121.202 4.85788 121.662 4.32149 122.252 3.93726C122.845 3.54923 123.538 3.35522 124.329 3.35522C124.786 3.35522 125.236 3.4313 125.681 3.58347C126.127 3.73564 126.532 3.98291 126.897 4.32529C127.262 4.66387 127.553 5.11276 127.77 5.67198C127.987 6.2312 128.095 6.91976 128.095 7.73767V8.3083H121.339V7.14421H126.726C126.726 6.64966 126.627 6.20837 126.429 5.82035C126.235 5.43232 125.957 5.12608 125.596 4.90163C125.238 4.67718 124.816 4.56496 124.329 4.56496C123.793 4.56496 123.329 4.69811 122.937 4.9644C122.549 5.22689 122.25 5.56927 122.041 5.99153C121.832 6.4138 121.727 6.8665 121.727 7.34964V8.1257C121.727 8.78763 121.841 9.34875 122.069 9.80906C122.301 10.2656 122.623 10.6136 123.034 10.8533C123.445 11.0892 123.922 11.2071 124.466 11.2071C124.82 11.2071 125.139 11.1576 125.425 11.0587C125.714 10.956 125.963 10.8039 126.172 10.6022C126.381 10.3968 126.543 10.1419 126.657 9.83759L127.958 10.2028C127.821 10.6441 127.591 11.0321 127.268 11.3669C126.944 11.6978 126.545 11.9565 126.069 12.1429C125.594 12.3255 125.059 12.4168 124.466 12.4168Z" fill="black"/>
<path d="M119.327 3.46936L116.086 12.2342H114.717L111.476 3.46936H112.936L115.356 10.4539H115.447L117.867 3.46936H119.327Z" fill="black"/>
<path d="M102.739 12.2343V0.547761H109.792V1.80315H104.154V5.75191H109.427V7.0073H104.154V10.9789H109.884V12.2343H102.739Z" fill="black"/>
<path d="M92.0585 12.2343V3.46937H93.3595V4.79323H93.4508C93.6106 4.35955 93.8997 4.00766 94.3182 3.73757C94.7366 3.46747 95.2084 3.33242 95.7333 3.33242C95.8322 3.33242 95.9559 3.33432 96.1042 3.33812C96.2526 3.34193 96.3648 3.34763 96.4409 3.35524V4.72476C96.3953 4.71334 96.2906 4.69623 96.1271 4.6734C95.9673 4.64677 95.798 4.63346 95.6192 4.63346C95.1931 4.63346 94.8127 4.72286 94.4779 4.90165C94.147 5.07665 93.8845 5.32012 93.6905 5.63206C93.5003 5.9402 93.4052 6.29209 93.4052 6.68773V12.2343H92.0585Z" fill="black"/>
<path d="M86.0312 12.4168C85.2399 12.4168 84.5456 12.2285 83.9484 11.8519C83.3549 11.4753 82.8908 10.9484 82.556 10.2713C82.2251 9.59412 82.0596 8.80284 82.0596 7.89744C82.0596 6.98443 82.2251 6.18745 82.556 5.5065C82.8908 4.82555 83.3549 4.29676 83.9484 3.92015C84.5456 3.54353 85.2399 3.35522 86.0312 3.35522C86.8225 3.35522 87.5148 3.54353 88.1083 3.92015C88.7055 4.29676 89.1696 4.82555 89.5006 5.5065C89.8354 6.18745 90.0028 6.98443 90.0028 7.89744C90.0028 8.80284 89.8354 9.59412 89.5006 10.2713C89.1696 10.9484 88.7055 11.4753 88.1083 11.8519C87.5148 12.2285 86.8225 12.4168 86.0312 12.4168ZM86.0312 11.2071C86.6322 11.2071 87.1268 11.053 87.5148 10.7449C87.9028 10.4367 88.1901 10.0316 88.3765 9.52945C88.5629 9.02729 88.6561 8.48329 88.6561 7.89744C88.6561 7.31159 88.5629 6.76569 88.3765 6.25973C88.1901 5.75377 87.9028 5.34482 87.5148 5.03287C87.1268 4.72093 86.6322 4.56496 86.0312 4.56496C85.4301 4.56496 84.9356 4.72093 84.5475 5.03287C84.1595 5.34482 83.8723 5.75377 83.6859 6.25973C83.4995 6.76569 83.4063 7.31159 83.4063 7.89744C83.4063 8.48329 83.4995 9.02729 83.6859 9.52945C83.8723 10.0316 84.1595 10.4367 84.5475 10.7449C84.9356 11.053 85.4301 11.2071 86.0312 11.2071Z" fill="black"/>
<path d="M73.8653 12.2343V0.547761H80.8727V1.80315H75.2805V5.75191H80.3477V7.0073H75.2805V12.2343H73.8653Z" fill="black"/>
<path d="M62.4927 12.4169C61.7623 12.4169 61.1174 12.2324 60.5582 11.8634C59.999 11.4906 59.5615 10.9656 59.2458 10.2884C58.93 9.60748 58.7721 8.80289 58.7721 7.87466C58.7721 6.95404 58.93 6.15516 59.2458 5.47801C59.5615 4.80086 60.0009 4.27779 60.5639 3.90878C61.1269 3.53977 61.7775 3.35527 62.5155 3.35527C63.0861 3.35527 63.5369 3.45037 63.8679 3.64058C64.2026 3.82699 64.4575 4.04002 64.6325 4.27969C64.8113 4.51555 64.9502 4.70956 65.0491 4.86173H65.1632V0.547761H66.5099V12.2343H65.2089V10.8876H65.0491C64.9502 11.0474 64.8094 11.249 64.6268 11.4925C64.4442 11.7321 64.1836 11.9471 63.8451 12.1373C63.5065 12.3237 63.0557 12.4169 62.4927 12.4169ZM62.6753 11.2071C63.2155 11.2071 63.672 11.0664 64.0448 10.7849C64.4176 10.4996 64.701 10.1058 64.895 9.60367C65.089 9.09771 65.186 8.51377 65.186 7.85184C65.186 7.19751 65.0909 6.62498 64.9007 6.13424C64.7105 5.63969 64.429 5.25547 64.0562 4.98156C63.6834 4.70386 63.2231 4.565 62.6753 4.565C62.1046 4.565 61.6291 4.71146 61.2487 5.00439C60.8721 5.29351 60.5887 5.68724 60.3984 6.18559C60.212 6.68014 60.1188 7.23556 60.1188 7.85184C60.1188 8.47573 60.2139 9.04255 60.4042 9.55232C60.5982 10.0583 60.8835 10.4615 61.2601 10.7621C61.6405 11.0588 62.1122 11.2071 62.6753 11.2071Z" fill="black"/>
<path d="M53.471 12.2343V3.46937H54.772V4.79323H54.8633C55.0231 4.35955 55.3122 4.00766 55.7307 3.73757C56.1491 3.46747 56.6209 3.33242 57.1458 3.33242C57.2448 3.33242 57.3684 3.33432 57.5168 3.33812C57.6651 3.34193 57.7773 3.34763 57.8534 3.35524V4.72476C57.8078 4.71334 57.7032 4.69623 57.5396 4.6734C57.3798 4.64677 57.2105 4.63346 57.0317 4.63346C56.6056 4.63346 56.2252 4.72286 55.8905 4.90165C55.5595 5.07665 55.297 5.32012 55.103 5.63206C54.9128 5.9402 54.8177 6.29209 54.8177 6.68773V12.2343H53.471Z" fill="black"/>
<path d="M46.9957 12.4397C46.4403 12.4397 45.9363 12.335 45.4836 12.1258C45.0309 11.9128 44.6714 11.6065 44.4051 11.2071C44.1388 10.8039 44.0056 10.3169 44.0056 9.74629C44.0056 9.24413 44.1046 8.83708 44.3024 8.52514C44.5002 8.20939 44.7646 7.96211 45.0955 7.78332C45.4265 7.60452 45.7917 7.47137 46.1912 7.38387C46.5944 7.29257 46.9996 7.22029 47.4066 7.16704C47.9392 7.09856 48.371 7.0472 48.7019 7.01296C49.0367 6.97492 49.2802 6.91215 49.4323 6.82466C49.5883 6.73716 49.6663 6.58499 49.6663 6.36815V6.3225C49.6663 5.75948 49.5122 5.32199 49.2041 5.01005C48.8998 4.69811 48.4375 4.54213 47.8175 4.54213C47.1745 4.54213 46.6705 4.68289 46.3053 4.9644C45.9401 5.24591 45.6833 5.54644 45.5349 5.866L44.2567 5.40949C44.485 4.8769 44.7893 4.46224 45.1697 4.16552C45.554 3.86498 45.9724 3.65575 46.4251 3.53782C46.8816 3.41609 47.3305 3.35522 47.7718 3.35522C48.0533 3.35522 48.3767 3.38946 48.7419 3.45793C49.1109 3.52261 49.4666 3.65765 49.809 3.86308C50.1551 4.06851 50.4424 4.37855 50.6706 4.79321C50.8989 5.20787 51.013 5.76328 51.013 6.45945V12.2342H49.6663V11.0473H49.5978C49.5065 11.2375 49.3544 11.4411 49.1413 11.6579C48.9283 11.8747 48.6449 12.0592 48.2911 12.2114C47.9373 12.3636 47.5055 12.4397 46.9957 12.4397ZM47.2012 11.2299C47.7338 11.2299 48.1827 11.1253 48.5479 10.9161C48.9169 10.7068 49.1946 10.4368 49.381 10.1058C49.5712 9.77482 49.6663 9.42673 49.6663 9.06153V7.82897C49.6092 7.89744 49.4837 7.96021 49.2897 8.01727C49.0995 8.07053 48.8788 8.11809 48.6278 8.15993C48.3805 8.19798 48.1389 8.23221 47.9031 8.26265C47.671 8.28928 47.4827 8.3121 47.3381 8.33112C46.9881 8.37677 46.661 8.45095 46.3566 8.55367C46.0561 8.65258 45.8126 8.80284 45.6262 9.00447C45.4436 9.20229 45.3523 9.47238 45.3523 9.81476C45.3523 10.2827 45.5254 10.6365 45.8716 10.8761C46.2216 11.112 46.6648 11.2299 47.2012 11.2299Z" fill="black"/>
<path d="M42.3123 4.19983H40.8971C40.8134 3.79278 40.667 3.43519 40.4577 3.12705C40.2523 2.81891 40.0012 2.56022 39.7045 2.35099C39.4116 2.13795 39.0863 1.97818 38.7287 1.87166C38.3711 1.76514 37.9983 1.71188 37.6103 1.71188C36.9027 1.71188 36.2617 1.89068 35.6873 2.24827C35.1166 2.60587 34.662 3.13275 34.3235 3.82892C33.9887 4.52509 33.8213 5.37914 33.8213 6.39106C33.8213 7.40297 33.9887 8.25702 34.3235 8.95319C34.662 9.64936 35.1166 10.1762 35.6873 10.5338C36.2617 10.8914 36.9027 11.0702 37.6103 11.0702C37.9983 11.0702 38.3711 11.017 38.7287 10.9105C39.0863 10.8039 39.4116 10.6461 39.7045 10.4368C40.0012 10.2238 40.2523 9.9632 40.4577 9.65506C40.667 9.34312 40.8134 8.98552 40.8971 8.58228H42.3123C42.2058 9.17954 42.0118 9.71403 41.7302 10.1858C41.4487 10.6575 41.0987 11.0588 40.6803 11.3898C40.2618 11.7169 39.792 11.9661 39.2708 12.1373C38.7535 12.3085 38.1999 12.3941 37.6103 12.3941C36.6136 12.3941 35.7272 12.1506 34.9511 11.6637C34.1751 11.1767 33.5645 10.4844 33.1194 9.58659C32.6743 8.6888 32.4518 7.62362 32.4518 6.39106C32.4518 5.15849 32.6743 4.09331 33.1194 3.19552C33.5645 2.29773 34.1751 1.60536 34.9511 1.11843C35.7272 0.631487 36.6136 0.388018 37.6103 0.388018C38.1999 0.388018 38.7535 0.473613 39.2708 0.644802C39.792 0.815991 40.2618 1.06707 40.6803 1.39803C41.0987 1.7252 41.4487 2.12464 41.7302 2.59636C42.0118 3.06428 42.2058 3.59877 42.3123 4.19983Z" fill="black"/>
<path d="M26.1805 3.46932V4.61059H21.6383V3.46932H26.1805ZM22.9622 1.3694H24.3089V9.72344C24.3089 10.1039 24.364 10.3892 24.4743 10.5794C24.5885 10.7658 24.733 10.8913 24.908 10.956C25.0868 11.0169 25.2751 11.0473 25.473 11.0473C25.6213 11.0473 25.743 11.0397 25.8382 11.0245C25.9333 11.0055 26.0093 10.9902 26.0664 10.9788L26.3403 12.1886C26.249 12.2228 26.1216 12.257 25.958 12.2913C25.7944 12.3293 25.5871 12.3483 25.336 12.3483C24.9556 12.3483 24.5828 12.2666 24.2176 12.103C23.8562 11.9394 23.5556 11.6902 23.316 11.3554C23.0801 11.0207 22.9622 10.5984 22.9622 10.0886V1.3694Z" fill="black"/>
<path d="M20.4814 3.46944V4.6107H15.7565V3.46944H20.4814ZM17.1717 12.2343V2.2597C17.1717 1.75754 17.2896 1.33908 17.5255 1.00431C17.7613 0.66954 18.0676 0.418463 18.4442 0.251078C18.8208 0.0836925 19.2184 0 19.6368 0C19.9678 0 20.2379 0.0266296 20.4471 0.0798888C20.6563 0.133147 20.8123 0.182602 20.915 0.228253L20.527 1.39234C20.4585 1.36951 20.3634 1.34098 20.2417 1.30675C20.1238 1.27251 19.9678 1.25539 19.7738 1.25539C19.3287 1.25539 19.0072 1.36761 18.8094 1.59206C18.6154 1.81651 18.5184 2.14557 18.5184 2.57925V12.2343H17.1717Z" fill="black"/>
<path d="M12.765 12.2343V3.46938H14.1117V12.2343H12.765ZM13.4498 2.00857C13.1873 2.00857 12.9609 1.91917 12.7707 1.74037C12.5843 1.56157 12.4911 1.34663 12.4911 1.09556C12.4911 0.844478 12.5843 0.62954 12.7707 0.450742C12.9609 0.271945 13.1873 0.182546 13.4498 0.182546C13.7123 0.182546 13.9367 0.271945 14.1231 0.450742C14.3133 0.62954 14.4084 0.844478 14.4084 1.09556C14.4084 1.34663 14.3133 1.56157 14.1231 1.74037C13.9367 1.91917 13.7123 2.00857 13.4498 2.00857Z" fill="black"/>
<path d="M8.44534 4.19983C8.3198 3.81561 8.15432 3.47133 7.94889 3.16699C7.74727 2.85885 7.5057 2.59636 7.22419 2.37952C6.94648 2.16268 6.63073 1.9972 6.27694 1.88307C5.92315 1.76894 5.53512 1.71188 5.11285 1.71188C4.42049 1.71188 3.79089 1.89068 3.22406 2.24827C2.65724 2.60587 2.20644 3.13275 1.87167 3.82892C1.5369 4.52509 1.36951 5.37914 1.36951 6.39106C1.36951 7.40297 1.5388 8.25702 1.87738 8.95319C2.21595 9.64936 2.67436 10.1762 3.2526 10.5338C3.83084 10.8914 4.48136 11.0702 5.20415 11.0702C5.87369 11.0702 6.46335 10.9276 6.97311 10.6423C7.48668 10.3531 7.88612 9.94609 8.17143 9.42111C8.46055 8.89232 8.60511 8.27033 8.60511 7.55514L9.03879 7.64644H5.52371V6.39106H9.97463V7.64644C9.97463 8.60891 9.7692 9.44583 9.35835 10.1572C8.9513 10.8686 8.38827 11.4202 7.66928 11.812C6.95409 12.2001 6.13238 12.3941 5.20415 12.3941C4.16941 12.3941 3.2602 12.1506 2.47654 11.6637C1.69668 11.1767 1.088 10.4844 0.650519 9.58659C0.21684 8.6888 0 7.62362 0 6.39106C0 5.46663 0.123637 4.63541 0.37091 3.8974C0.621988 3.15558 0.975779 2.52408 1.43228 2.0029C1.88879 1.48173 2.42899 1.08229 3.05288 0.804579C3.67677 0.526871 4.36342 0.388018 5.11285 0.388018C5.72913 0.388018 6.30357 0.481221 6.83616 0.667627C7.37255 0.850229 7.84998 1.11082 8.26844 1.44939C8.69071 1.78416 9.0426 2.18551 9.32411 2.65342C9.60562 3.11754 9.79963 3.63301 9.90615 4.19983H8.44534Z" fill="black"/>
</svg>
