<svg width="326" height="16" viewBox="0 0 326 16" fill="none" xmlns="http://www.w3.org/2000/svg">
<path d="M325.841 5.23598L324.634 5.57746C324.558 5.37636 324.446 5.18096 324.298 4.99125C324.154 4.79775 323.957 4.63839 323.706 4.51318C323.456 4.38797 323.135 4.32537 322.745 4.32537C322.21 4.32537 321.764 4.44868 321.407 4.6953C321.054 4.93813 320.878 5.24736 320.878 5.62299C320.878 5.95688 320.999 6.22057 321.242 6.41408C321.485 6.60758 321.864 6.76884 322.38 6.89784L323.678 7.21656C324.46 7.40627 325.042 7.69652 325.425 8.08733C325.808 8.47434 326 8.97327 326 9.58414C326 10.085 325.856 10.5327 325.567 10.9273C325.283 11.3219 324.885 11.633 324.372 11.8607C323.86 12.0883 323.264 12.2021 322.585 12.2021C321.694 12.2021 320.956 12.0086 320.371 11.6216C319.787 11.2346 319.417 10.6693 319.261 9.92562L320.536 9.60691C320.658 10.0774 320.887 10.4303 321.225 10.6655C321.566 10.9007 322.012 11.0184 322.562 11.0184C323.188 11.0184 323.686 10.8856 324.054 10.62C324.425 10.3506 324.611 10.0281 324.611 9.65244C324.611 9.3489 324.505 9.09469 324.293 8.8898C324.08 8.68112 323.754 8.52556 323.314 8.42311L321.857 8.08164C321.056 7.89192 320.468 7.59787 320.092 7.19948C319.721 6.79729 319.535 6.29456 319.535 5.69128C319.535 5.19803 319.673 4.7617 319.95 4.38228C320.231 4.00286 320.612 3.70501 321.094 3.48874C321.58 3.27247 322.13 3.16434 322.745 3.16434C323.61 3.16434 324.289 3.35405 324.782 3.73347C325.279 4.11289 325.632 4.61373 325.841 5.23598Z" fill="white"/>
<path d="M313.411 15.4803C312.762 15.4803 312.204 15.3969 311.738 15.2299C311.271 15.0668 310.882 14.8505 310.571 14.5811C310.264 14.3155 310.019 14.031 309.837 13.7274L310.907 12.9762C311.028 13.1355 311.182 13.3176 311.368 13.5225C311.554 13.7312 311.808 13.9114 312.13 14.0632C312.457 14.2188 312.883 14.2966 313.411 14.2966C314.117 14.2966 314.699 14.1258 315.158 13.7843C315.617 13.4429 315.847 12.9079 315.847 12.1794V10.4037H315.733C315.634 10.563 315.494 10.7603 315.312 10.9956C315.133 11.227 314.875 11.4338 314.538 11.6159C314.204 11.7943 313.752 11.8834 313.183 11.8834C312.477 11.8834 311.844 11.7165 311.282 11.3826C310.725 11.0487 310.282 10.563 309.956 9.92562C309.634 9.28819 309.472 8.51418 309.472 7.60356C309.472 6.70813 309.63 5.92842 309.945 5.26443C310.26 4.59665 310.698 4.08064 311.259 3.7164C311.821 3.34836 312.47 3.16434 313.206 3.16434C313.775 3.16434 314.227 3.25919 314.56 3.4489C314.898 3.63482 315.156 3.8473 315.334 4.08633C315.517 4.32157 315.657 4.51508 315.756 4.66685H315.892V3.27816H317.19V12.2704C317.19 13.0217 317.019 13.6326 316.678 14.103C316.34 14.5773 315.885 14.9245 315.312 15.1446C314.743 15.3684 314.109 15.4803 313.411 15.4803ZM313.365 10.6769C313.904 10.6769 314.359 10.5536 314.731 10.3069C315.103 10.0603 315.386 9.70556 315.579 9.24266C315.773 8.77977 315.869 8.22582 315.869 7.5808C315.869 6.95096 315.775 6.39511 315.585 5.91324C315.395 5.43138 315.114 5.05386 314.743 4.78067C314.371 4.50749 313.912 4.3709 313.365 4.3709C312.796 4.3709 312.322 4.51508 311.942 4.80344C311.567 5.0918 311.284 5.47881 311.094 5.96447C310.909 6.45012 310.816 6.9889 310.816 7.5808C310.816 8.18787 310.91 8.72475 311.1 9.19144C311.294 9.65434 311.578 10.0186 311.954 10.2842C312.333 10.546 312.804 10.6769 313.365 10.6769Z" fill="white"/>
<path d="M301.85 6.76125V12.02H300.507V3.27816H301.805V4.64408H301.919C302.124 4.20016 302.435 3.8435 302.852 3.57411C303.269 3.30093 303.808 3.16434 304.468 3.16434C305.06 3.16434 305.578 3.28575 306.022 3.52858C306.466 3.76762 306.811 4.13186 307.058 4.62131C307.305 5.10697 307.428 5.72164 307.428 6.4653V12.02H306.085V6.55636C306.085 5.86961 305.906 5.33463 305.55 4.95141C305.193 4.5644 304.704 4.3709 304.081 4.3709C303.653 4.3709 303.269 4.46386 302.932 4.64977C302.598 4.83569 302.334 5.10697 302.141 5.46363C301.947 5.82029 301.85 6.25283 301.85 6.76125Z" fill="white"/>
<path d="M296.704 12.0201V3.2782H298.047V12.0201H296.704ZM297.387 1.82122C297.125 1.82122 296.899 1.73206 296.71 1.55373C296.524 1.3754 296.431 1.16103 296.431 0.910611C296.431 0.660193 296.524 0.44582 296.71 0.267491C296.899 0.0891638 297.125 0 297.387 0C297.649 0 297.873 0.0891638 298.059 0.267491C298.248 0.44582 298.343 0.660193 298.343 0.910611C298.343 1.16103 298.248 1.3754 298.059 1.55373C297.873 1.73206 297.649 1.82122 297.387 1.82122Z" fill="white"/>
<path d="M294.931 3.27818L291.698 12.02H290.333L287.1 3.27818H288.557L290.97 10.2443H291.061L293.474 3.27818H294.931Z" fill="white"/>
<path d="M281.638 12.2249C281.084 12.2249 280.581 12.1206 280.129 11.9119C279.678 11.6994 279.319 11.394 279.054 10.9956C278.788 10.5934 278.655 10.1077 278.655 9.53861C278.655 9.03778 278.754 8.6318 278.951 8.32067C279.149 8.00575 279.412 7.75913 279.742 7.5808C280.073 7.40247 280.437 7.26967 280.835 7.18241C281.237 7.09135 281.641 7.01926 282.047 6.96614C282.579 6.89784 283.009 6.84662 283.339 6.81247C283.673 6.77453 283.916 6.71192 284.068 6.62466C284.223 6.53739 284.301 6.38562 284.301 6.16935V6.12382C284.301 5.56228 284.147 5.12594 283.84 4.81482C283.537 4.50369 283.076 4.34813 282.457 4.34813C281.816 4.34813 281.313 4.48852 280.949 4.76929C280.585 5.05006 280.329 5.3498 280.181 5.66852L278.906 5.21321C279.133 4.68202 279.437 4.26845 279.816 3.97251C280.2 3.67276 280.617 3.46408 281.068 3.34646C281.524 3.22505 281.972 3.16434 282.412 3.16434C282.692 3.16434 283.015 3.19849 283.379 3.26678C283.747 3.33128 284.102 3.46598 284.443 3.67086C284.789 3.87575 285.075 4.18498 285.303 4.59855C285.53 5.01212 285.644 5.56607 285.644 6.26041V12.02H284.301V10.8362H284.233C284.142 11.0259 283.99 11.2289 283.778 11.4452C283.565 11.6615 283.282 11.8455 282.93 11.9973C282.577 12.149 282.146 12.2249 281.638 12.2249ZM281.843 11.0184C282.374 11.0184 282.821 10.914 283.186 10.7053C283.554 10.4967 283.831 10.2273 284.017 9.89717C284.206 9.56707 284.301 9.2199 284.301 8.85565V7.62633C284.244 7.69463 284.119 7.75723 283.926 7.81414C283.736 7.86726 283.516 7.91469 283.265 7.95643C283.019 7.99437 282.778 8.02852 282.543 8.05887C282.311 8.08543 282.123 8.10819 281.979 8.12717C281.63 8.1727 281.304 8.24668 281 8.34913C280.7 8.44778 280.458 8.59765 280.272 8.79874C280.09 8.99604 279.999 9.26543 279.999 9.60691C279.999 10.0736 280.171 10.4265 280.516 10.6655C280.866 10.9007 281.308 11.0184 281.843 11.0184Z" fill="white"/>
<path d="M275.401 3.27824C275.333 2.70152 275.056 2.25381 274.57 1.93509C274.085 1.61638 273.489 1.45702 272.783 1.45702C272.267 1.45702 271.816 1.54049 271.429 1.70744C271.046 1.87438 270.746 2.10393 270.53 2.39609C270.317 2.68824 270.211 3.02024 270.211 3.39207C270.211 3.70319 270.285 3.97069 270.433 4.19454C270.585 4.41461 270.778 4.59863 271.013 4.7466C271.249 4.89078 271.495 5.0103 271.753 5.10515C272.011 5.19622 272.248 5.2702 272.465 5.32712L273.648 5.64583C273.952 5.72551 274.29 5.83554 274.661 5.97593C275.037 6.11631 275.396 6.30792 275.737 6.55075C276.082 6.78978 276.367 7.09712 276.591 7.47274C276.815 7.84837 276.927 8.30937 276.927 8.85573C276.927 9.48557 276.762 10.0547 276.432 10.5631C276.105 11.0716 275.627 11.4756 274.997 11.7754C274.371 12.0751 273.61 12.225 272.715 12.225C271.88 12.225 271.158 12.0903 270.547 11.8209C269.94 11.5515 269.462 11.1759 269.112 10.694C268.767 10.2122 268.572 9.65252 268.526 9.01509H269.983C270.021 9.45522 270.169 9.81946 270.427 10.1078C270.689 10.3924 271.019 10.6049 271.417 10.7452C271.82 10.8818 272.252 10.9501 272.715 10.9501C273.254 10.9501 273.738 10.8629 274.166 10.6883C274.595 10.51 274.935 10.2634 275.185 9.94847C275.436 9.62975 275.561 9.25792 275.561 8.83297C275.561 8.44596 275.453 8.13104 275.236 7.88821C275.02 7.64538 274.735 7.44808 274.383 7.29631C274.03 7.14454 273.648 7.01175 273.239 6.89792L271.804 6.48814C270.894 6.22634 270.173 5.85261 269.642 5.36696C269.111 4.8813 268.845 4.24577 268.845 3.46036C268.845 2.80776 269.021 2.23863 269.374 1.75297C269.731 1.26352 270.209 0.884096 270.808 0.614707C271.412 0.341523 272.085 0.204932 272.829 0.204932C273.58 0.204932 274.248 0.339626 274.832 0.609015C275.417 0.87461 275.879 1.23885 276.221 1.70175C276.566 2.16464 276.748 2.69014 276.767 3.27824H275.401Z" fill="white"/>
<path d="M262.317 3.27814V4.41641H257.787V3.27814H262.317ZM259.107 1.18374H260.45V9.51582C260.45 9.89525 260.505 10.1798 260.615 10.3695C260.729 10.5554 260.873 10.6806 261.048 10.7451C261.226 10.8059 261.414 10.8362 261.611 10.8362C261.759 10.8362 261.881 10.8286 261.976 10.8134C262.07 10.7945 262.146 10.7793 262.203 10.7679L262.476 11.9745C262.385 12.0086 262.258 12.0428 262.095 12.0769C261.932 12.1149 261.725 12.1338 261.475 12.1338C261.095 12.1338 260.723 12.0523 260.359 11.8891C259.999 11.726 259.699 11.4774 259.46 11.1435C259.225 10.8097 259.107 10.3885 259.107 9.88007V1.18374Z" fill="white"/>
<path d="M252.004 12.02V3.27819H253.302V4.59857H253.393C253.552 4.16603 253.841 3.81507 254.258 3.54568C254.676 3.27629 255.146 3.1416 255.67 3.1416C255.768 3.1416 255.892 3.14349 256.04 3.14729C256.187 3.15108 256.299 3.15677 256.375 3.16436V4.53028C256.33 4.51889 256.225 4.50182 256.062 4.47905C255.903 4.4525 255.734 4.43922 255.556 4.43922C255.131 4.43922 254.751 4.52838 254.417 4.70671C254.087 4.88124 253.826 5.12407 253.632 5.4352C253.442 5.74253 253.348 6.09349 253.348 6.48809V12.02H252.004Z" fill="white"/>
<path d="M245.546 12.2249C244.992 12.2249 244.489 12.1206 244.038 11.9119C243.586 11.6994 243.228 11.394 242.962 10.9956C242.697 10.5934 242.564 10.1077 242.564 9.53861C242.564 9.03778 242.663 8.6318 242.86 8.32067C243.057 8.00575 243.321 7.75913 243.651 7.5808C243.981 7.40247 244.345 7.26967 244.744 7.18241C245.146 7.09135 245.55 7.01926 245.956 6.96614C246.487 6.89784 246.918 6.84662 247.248 6.81247C247.582 6.77453 247.825 6.71192 247.976 6.62466C248.132 6.53739 248.21 6.38562 248.21 6.16935V6.12382C248.21 5.56228 248.056 5.12594 247.749 4.81482C247.445 4.50369 246.984 4.34813 246.366 4.34813C245.724 4.34813 245.222 4.48852 244.857 4.76929C244.493 5.05006 244.237 5.3498 244.089 5.66852L242.814 5.21321C243.042 4.68202 243.346 4.26845 243.725 3.97251C244.108 3.67276 244.526 3.46408 244.977 3.34646C245.432 3.22505 245.88 3.16434 246.32 3.16434C246.601 3.16434 246.923 3.19849 247.288 3.26678C247.656 3.33128 248.01 3.46598 248.352 3.67086C248.697 3.87575 248.984 4.18498 249.211 4.59855C249.439 5.01212 249.553 5.56607 249.553 6.26041V12.02H248.21V10.8362H248.141C248.05 11.0259 247.899 11.2289 247.686 11.4452C247.474 11.6615 247.191 11.8455 246.838 11.9973C246.485 12.149 246.055 12.2249 245.546 12.2249ZM245.751 11.0184C246.282 11.0184 246.73 10.914 247.094 10.7053C247.462 10.4967 247.739 10.2273 247.925 9.89717C248.115 9.56707 248.21 9.2199 248.21 8.85565V7.62633C248.153 7.69463 248.028 7.75723 247.834 7.81414C247.644 7.86726 247.424 7.91469 247.174 7.95643C246.927 7.99437 246.686 8.02852 246.451 8.05887C246.22 8.08543 246.032 8.10819 245.888 8.12717C245.539 8.1727 245.212 8.24668 244.909 8.34913C244.609 8.44778 244.366 8.59765 244.18 8.79874C243.998 8.99604 243.907 9.26543 243.907 9.60691C243.907 10.0736 244.08 10.4265 244.425 10.6655C244.774 10.9007 245.216 11.0184 245.751 11.0184Z" fill="white"/>
<path d="M229.044 12.02V3.27816H230.342V4.64408H230.456C230.638 4.17739 230.932 3.81505 231.338 3.55704C231.744 3.29524 232.231 3.16434 232.8 3.16434C233.377 3.16434 233.857 3.29524 234.24 3.55704C234.627 3.81505 234.929 4.17739 235.145 4.64408H235.236C235.46 4.19257 235.796 3.83402 236.244 3.56842C236.691 3.29903 237.228 3.16434 237.854 3.16434C238.636 3.16434 239.275 3.40906 239.772 3.89852C240.269 4.38418 240.518 5.14112 240.518 6.16935V12.02H239.175V6.16935C239.175 5.52434 238.998 5.06334 238.645 4.78636C238.293 4.50939 237.877 4.3709 237.399 4.3709C236.784 4.3709 236.308 4.55681 235.97 4.92865C235.633 5.29668 235.464 5.76337 235.464 6.32871V12.02H234.098V6.03276C234.098 5.53572 233.937 5.13543 233.614 4.83189C233.292 4.52456 232.876 4.3709 232.368 4.3709C232.019 4.3709 231.693 4.46386 231.389 4.64977C231.089 4.83569 230.846 5.09369 230.661 5.42379C230.478 5.75009 230.387 6.12762 230.387 6.55636V12.02H229.044Z" fill="white"/>
<path d="M225.38 3.27824C225.312 2.70152 225.035 2.25381 224.549 1.93509C224.064 1.61638 223.468 1.45702 222.762 1.45702C222.246 1.45702 221.795 1.54049 221.408 1.70744C221.025 1.87438 220.725 2.10393 220.509 2.39609C220.296 2.68824 220.19 3.02024 220.19 3.39207C220.19 3.70319 220.264 3.97069 220.412 4.19454C220.564 4.41461 220.757 4.59863 220.992 4.7466C221.228 4.89078 221.474 5.0103 221.732 5.10515C221.99 5.19622 222.227 5.2702 222.444 5.32712L223.627 5.64583C223.931 5.72551 224.269 5.83554 224.641 5.97593C225.016 6.11631 225.375 6.30792 225.716 6.55075C226.061 6.78978 226.346 7.09712 226.57 7.47274C226.794 7.84837 226.906 8.30937 226.906 8.85573C226.906 9.48557 226.741 10.0547 226.411 10.5631C226.084 11.0716 225.606 11.4756 224.976 11.7754C224.35 12.0751 223.59 12.225 222.694 12.225C221.859 12.225 221.137 12.0903 220.526 11.8209C219.919 11.5515 219.441 11.1759 219.091 10.694C218.746 10.2122 218.551 9.65252 218.505 9.01509H219.962C220 9.45522 220.148 9.81946 220.406 10.1078C220.668 10.3924 220.998 10.6049 221.396 10.7452C221.799 10.8818 222.231 10.9501 222.694 10.9501C223.233 10.9501 223.717 10.8629 224.145 10.6883C224.574 10.51 224.914 10.2634 225.164 9.94847C225.415 9.62975 225.54 9.25792 225.54 8.83297C225.54 8.44596 225.432 8.13104 225.215 7.88821C224.999 7.64538 224.714 7.44808 224.362 7.29631C224.009 7.14454 223.627 7.01175 223.218 6.89792L221.783 6.48814C220.873 6.22634 220.152 5.85261 219.621 5.36696C219.09 4.8813 218.824 4.24577 218.824 3.46036C218.824 2.80776 219 2.23863 219.353 1.75297C219.71 1.26352 220.188 0.884096 220.787 0.614707C221.391 0.341523 222.064 0.204932 222.808 0.204932C223.559 0.204932 224.227 0.339626 224.811 0.609015C225.396 0.87461 225.858 1.23885 226.2 1.70175C226.545 2.16464 226.727 2.69014 226.746 3.27824H225.38Z" fill="white"/>
<path d="M206.191 6.76129V12.0201H204.848V0.364255H206.191V4.64413H206.305C206.509 4.19261 206.817 3.83406 207.227 3.56847C207.64 3.29908 208.19 3.16438 208.877 3.16438C209.473 3.16438 209.994 3.2839 210.442 3.52294C210.89 3.75818 211.237 4.12052 211.484 4.60998C211.734 5.09564 211.859 5.71409 211.859 6.46535V12.0201H210.516V6.55641C210.516 5.86207 210.336 5.32519 209.975 4.94577C209.619 4.56255 209.124 4.37094 208.49 4.37094C208.05 4.37094 207.655 4.4639 207.306 4.64982C206.961 4.83573 206.688 5.10702 206.487 5.46367C206.289 5.82033 206.191 6.25287 206.191 6.76129Z" fill="white"/>
<path d="M202.639 3.27814V4.41641H198.109V3.27814H202.639ZM199.429 1.18374H200.773V9.51582C200.773 9.89525 200.828 10.1798 200.938 10.3695C201.051 10.5554 201.196 10.6806 201.37 10.7451C201.548 10.8059 201.736 10.8362 201.934 10.8362C202.082 10.8362 202.203 10.8286 202.298 10.8134C202.393 10.7945 202.469 10.7793 202.525 10.7679L202.799 11.9745C202.708 12.0086 202.58 12.0428 202.417 12.0769C202.254 12.1149 202.047 12.1338 201.797 12.1338C201.418 12.1338 201.046 12.0523 200.681 11.8891C200.321 11.726 200.021 11.4774 199.782 11.1435C199.547 10.8097 199.429 10.3885 199.429 9.88007V1.18374Z" fill="white"/>
<path d="M195.034 12.0201V3.2782H196.377V12.0201H195.034ZM195.717 1.82122C195.455 1.82122 195.23 1.73206 195.04 1.55373C194.854 1.3754 194.761 1.16103 194.761 0.910611C194.761 0.660193 194.854 0.44582 195.04 0.267491C195.23 0.0891638 195.455 0 195.717 0C195.979 0 196.203 0.0891638 196.389 0.267491C196.579 0.44582 196.673 0.660193 196.673 0.910611C196.673 1.16103 196.579 1.3754 196.389 1.55373C196.203 1.73206 195.979 1.82122 195.717 1.82122Z" fill="white"/>
<path d="M183.993 12.02L181.33 3.27818H182.741L184.631 9.97116H184.722L186.588 3.27818H188.023L189.867 9.9484H189.958L191.847 3.27818H193.259L190.595 12.02H189.275L187.362 5.30428H187.226L185.314 12.02H183.993Z" fill="white"/>
<path d="M169.449 15.2982C169.221 15.2982 169.018 15.2793 168.84 15.2413C168.662 15.2072 168.538 15.173 168.47 15.1389L168.812 13.9551C169.138 14.0386 169.426 14.0689 169.677 14.0461C169.927 14.0234 170.149 13.9115 170.343 13.7104C170.54 13.5131 170.72 13.1924 170.883 12.7485L171.134 12.0656L167.901 3.27818H169.358L171.771 10.2443H171.862L174.275 3.27818H175.732L172.021 13.2949C171.855 13.7464 171.648 14.1201 171.401 14.4161C171.154 14.7158 170.868 14.9378 170.542 15.082C170.219 15.2261 169.855 15.2982 169.449 15.2982Z" fill="white"/>
<path d="M163.187 12.2021C162.345 12.2021 161.618 12.0162 161.007 11.6444C160.4 11.2688 159.932 10.7452 159.602 10.0736C159.275 9.39823 159.112 8.61283 159.112 7.71739C159.112 6.82196 159.275 6.03276 159.602 5.3498C159.932 4.66305 160.391 4.12807 160.979 3.74485C161.571 3.35784 162.261 3.16434 163.051 3.16434C163.506 3.16434 163.955 3.24022 164.399 3.39199C164.843 3.54376 165.247 3.79038 165.612 4.13186C165.976 4.46955 166.266 4.91726 166.482 5.47501C166.699 6.03276 166.807 6.71951 166.807 7.53527V8.1044H160.068V6.94337H165.441C165.441 6.45012 165.342 6.01 165.145 5.62299C164.951 5.23598 164.674 4.93054 164.314 4.70668C163.957 4.48283 163.536 4.3709 163.051 4.3709C162.516 4.3709 162.053 4.50369 161.662 4.76929C161.275 5.03109 160.977 5.37257 160.768 5.79373C160.56 6.21488 160.455 6.66639 160.455 7.14826V7.92228C160.455 8.58247 160.569 9.14212 160.797 9.60122C161.028 10.0565 161.349 10.4037 161.759 10.6427C162.168 10.878 162.645 10.9956 163.187 10.9956C163.54 10.9956 163.859 10.9463 164.143 10.8476C164.432 10.7452 164.68 10.5934 164.889 10.3923C165.097 10.1874 165.259 9.93321 165.373 9.62967L166.67 9.99392C166.534 10.434 166.304 10.8211 165.982 11.1549C165.659 11.485 165.261 11.743 164.786 11.929C164.312 12.1111 163.779 12.2021 163.187 12.2021Z" fill="white"/>
<path d="M151.49 6.76125V12.02H150.147V3.27816H151.444V4.64408H151.558C151.763 4.20016 152.074 3.8435 152.492 3.57411C152.909 3.30093 153.448 3.16434 154.108 3.16434C154.7 3.16434 155.218 3.28575 155.662 3.52858C156.106 3.76762 156.451 4.13186 156.698 4.62131C156.944 5.10697 157.068 5.72164 157.068 6.4653V12.02H155.724V6.55636C155.724 5.86961 155.546 5.33463 155.189 4.95141C154.833 4.5644 154.343 4.3709 153.721 4.3709C153.292 4.3709 152.909 4.46386 152.571 4.64977C152.237 4.83569 151.974 5.10697 151.78 5.46363C151.587 5.82029 151.49 6.25283 151.49 6.76125Z" fill="white"/>
<path d="M144.184 12.02V3.27819H145.481V4.59857H145.572C145.732 4.16603 146.02 3.81507 146.438 3.54568C146.855 3.27629 147.325 3.1416 147.849 3.1416C147.948 3.1416 148.071 3.14349 148.219 3.14729C148.367 3.15108 148.479 3.15677 148.555 3.16436V4.53028C148.509 4.51889 148.405 4.50182 148.242 4.47905C148.082 4.4525 147.914 4.43922 147.735 4.43922C147.31 4.43922 146.931 4.52838 146.597 4.70671C146.267 4.88124 146.005 5.12407 145.812 5.4352C145.622 5.74253 145.527 6.09349 145.527 6.48809V12.02H144.184Z" fill="white"/>
<path d="M140.381 8.44589V3.27818H141.724V12.02H140.381V10.5403H140.29C140.085 10.9842 139.766 11.3617 139.333 11.6729C138.901 11.9802 138.354 12.1339 137.694 12.1339C137.148 12.1339 136.662 12.0143 136.237 11.7753C135.812 11.5325 135.478 11.1682 135.236 10.6826C134.993 10.1931 134.871 9.57657 134.871 8.8329V3.27818H136.215V8.74184C136.215 9.37927 136.393 9.88769 136.75 10.2671C137.11 10.6465 137.569 10.8362 138.127 10.8362C138.461 10.8362 138.8 10.7509 139.146 10.5801C139.495 10.4094 139.787 10.1476 140.022 9.79473C140.261 9.44187 140.381 8.99226 140.381 8.44589Z" fill="white"/>
<path d="M128.86 12.2021C128.071 12.2021 127.378 12.0143 126.783 11.6387C126.191 11.2631 125.728 10.7376 125.394 10.0622C125.064 9.38684 124.899 8.59765 124.899 7.69463C124.899 6.78401 125.064 5.98913 125.394 5.30996C125.728 4.6308 126.191 4.10341 126.783 3.72778C127.378 3.35215 128.071 3.16434 128.86 3.16434C129.649 3.16434 130.34 3.35215 130.932 3.72778C131.527 4.10341 131.99 4.6308 132.32 5.30996C132.654 5.98913 132.821 6.78401 132.821 7.69463C132.821 8.59765 132.654 9.38684 132.32 10.0622C131.99 10.7376 131.527 11.2631 130.932 11.6387C130.34 12.0143 129.649 12.2021 128.86 12.2021ZM128.86 10.9956C129.459 10.9956 129.953 10.8419 130.34 10.5346C130.727 10.2273 131.013 9.82318 131.199 9.32234C131.385 8.82151 131.478 8.27893 131.478 7.69463C131.478 7.11032 131.385 6.56585 131.199 6.06122C131.013 5.55659 130.727 5.14871 130.34 4.83758C129.953 4.52646 129.459 4.3709 128.86 4.3709C128.26 4.3709 127.767 4.52646 127.38 4.83758C126.993 5.14871 126.707 5.55659 126.521 6.06122C126.335 6.56585 126.242 7.11032 126.242 7.69463C126.242 8.27893 126.335 8.82151 126.521 9.32234C126.707 9.82318 126.993 10.2273 127.38 10.5346C127.767 10.8419 128.26 10.9956 128.86 10.9956Z" fill="white"/>
<path d="M121.251 0.364255H122.662V8.69634C122.662 9.44001 122.526 10.0717 122.252 10.5916C121.979 11.1114 121.594 11.506 121.097 11.7753C120.6 12.0447 120.014 12.1794 119.338 12.1794C118.701 12.1794 118.134 12.0637 117.637 11.8323C117.14 11.597 116.749 11.2631 116.464 10.8306C116.18 10.398 116.037 9.88393 116.037 9.28824H117.426C117.426 9.61833 117.508 9.9067 117.671 10.1533C117.838 10.3961 118.065 10.5859 118.354 10.7225C118.642 10.859 118.97 10.9273 119.338 10.9273C119.744 10.9273 120.09 10.842 120.374 10.6712C120.659 10.5005 120.875 10.2501 121.023 9.91998C121.175 9.58608 121.251 9.17821 121.251 8.69634V0.364255Z" fill="white"/>
<path d="M104.043 15.2982C103.815 15.2982 103.612 15.2793 103.434 15.2413C103.256 15.2072 103.132 15.173 103.064 15.1389L103.406 13.9551C103.732 14.0386 104.02 14.0689 104.271 14.0461C104.521 14.0234 104.743 13.9115 104.936 13.7104C105.134 13.5131 105.314 13.1924 105.477 12.7485L105.728 12.0656L102.495 3.27818H103.952L106.365 10.2443H106.456L108.869 3.27818H110.326L106.615 13.2949C106.448 13.7464 106.242 14.1201 105.995 14.4161C105.748 14.7158 105.462 14.9378 105.136 15.082C104.813 15.2261 104.449 15.2982 104.043 15.2982Z" fill="white"/>
<path d="M96.9487 12.02V3.27819H98.2463V4.59857H98.3374C98.4968 4.16603 98.7851 3.81507 99.2025 3.54568C99.6198 3.27629 100.09 3.1416 100.614 3.1416C100.713 3.1416 100.836 3.14349 100.984 3.14729C101.132 3.15108 101.244 3.15677 101.32 3.16436V4.53028C101.274 4.51889 101.17 4.50182 101.007 4.47905C100.847 4.4525 100.678 4.43922 100.5 4.43922C100.075 4.43922 99.6957 4.52838 99.3618 4.70671C99.0317 4.88124 98.7699 5.12407 98.5764 5.4352C98.3867 5.74253 98.2919 6.09349 98.2919 6.48809V12.02H96.9487Z" fill="white"/>
<path d="M91.2859 12.2021C90.4435 12.2021 89.717 12.0162 89.1061 11.6444C88.499 11.2688 88.0304 10.7452 87.7003 10.0736C87.374 9.39823 87.2109 8.61283 87.2109 7.71739C87.2109 6.82196 87.374 6.03276 87.7003 5.3498C88.0304 4.66305 88.4895 4.12807 89.0776 3.74485C89.6695 3.35784 90.3601 3.16434 91.1493 3.16434C91.6046 3.16434 92.0542 3.24022 92.4981 3.39199C92.942 3.54376 93.3461 3.79038 93.7104 4.13186C94.0746 4.46955 94.3649 4.91726 94.5811 5.47501C94.7974 6.03276 94.9055 6.71951 94.9055 7.53527V8.1044H88.167V6.94337H93.5396C93.5396 6.45012 93.441 6.01 93.2437 5.62299C93.0502 5.23598 92.7732 4.93054 92.4127 4.70668C92.0561 4.48283 91.6349 4.3709 91.1493 4.3709C90.6143 4.3709 90.1514 4.50369 89.7606 4.76929C89.3736 5.03109 89.0757 5.37257 88.867 5.79373C88.6584 6.21488 88.554 6.66639 88.554 7.14826V7.92228C88.554 8.58247 88.6679 9.14212 88.8955 9.60122C89.127 10.0565 89.4476 10.4037 89.8573 10.6427C90.2671 10.878 90.7433 10.9956 91.2859 10.9956C91.6387 10.9956 91.9574 10.9463 92.242 10.8476C92.5304 10.7452 92.7789 10.5934 92.9876 10.3923C93.1962 10.1874 93.3575 9.93321 93.4713 9.62967L94.7689 9.99392C94.6324 10.434 94.4028 10.8211 94.0803 11.1549C93.7578 11.485 93.3594 11.743 92.8851 11.929C92.4108 12.1111 91.8778 12.2021 91.2859 12.2021Z" fill="white"/>
<path d="M86.1608 3.27818L82.9282 12.02H81.5623L78.3296 3.27818H79.7866L82.1997 10.2443H82.2907L84.7039 3.27818H86.1608Z" fill="white"/>
<path d="M69.6162 12.0201V0.364255H76.6506V1.61634H71.0276V5.55474H76.2864V6.80682H71.0276V10.768H76.7417V12.0201H69.6162Z" fill="white"/>
<path d="M59.2637 12.2021C58.4214 12.2021 57.6948 12.0162 57.0839 11.6444C56.4768 11.2688 56.0082 10.7452 55.6781 10.0736C55.3518 9.39823 55.1887 8.61283 55.1887 7.71739C55.1887 6.82196 55.3518 6.03276 55.6781 5.3498C56.0082 4.66305 56.4673 4.12807 57.0554 3.74485C57.6473 3.35784 58.3379 3.16434 59.1271 3.16434C59.5824 3.16434 60.032 3.24022 60.4759 3.39199C60.9198 3.54376 61.3239 3.79038 61.6882 4.13186C62.0524 4.46955 62.3427 4.91726 62.5589 5.47501C62.7752 6.03276 62.8833 6.71951 62.8833 7.53527V8.1044H56.1448V6.94337H61.5174C61.5174 6.45012 61.4188 6.01 61.2215 5.62299C61.028 5.23598 60.751 4.93054 60.3906 4.70668C60.0339 4.48283 59.6127 4.3709 59.1271 4.3709C58.5921 4.3709 58.1292 4.50369 57.7384 4.76929C57.3514 5.03109 57.0535 5.37257 56.8449 5.79373C56.6362 6.21488 56.5318 6.66639 56.5318 7.14826V7.92228C56.5318 8.58247 56.6457 9.14212 56.8733 9.60122C57.1048 10.0565 57.4254 10.4037 57.8352 10.6427C58.2449 10.878 58.7211 10.9956 59.2637 10.9956C59.6165 10.9956 59.9352 10.9463 60.2198 10.8476C60.5082 10.7452 60.7567 10.5934 60.9654 10.3923C61.1741 10.1874 61.3353 9.93321 61.4491 9.62967L62.7468 9.99392C62.6102 10.434 62.3806 10.8211 62.0581 11.1549C61.7356 11.485 61.3372 11.743 60.8629 11.929C60.3887 12.1111 59.8556 12.2021 59.2637 12.2021Z" fill="white"/>
<path d="M50.1974 12.2021C49.3779 12.2021 48.6721 12.0086 48.0802 11.6216C47.4883 11.2346 47.033 10.7015 46.7143 10.0224C46.3956 9.34321 46.2362 8.56729 46.2362 7.69463C46.2362 6.80678 46.3994 6.02328 46.7257 5.34411C47.0558 4.66115 47.5149 4.12807 48.103 3.74485C48.6949 3.35784 49.3854 3.16434 50.1746 3.16434C50.7893 3.16434 51.3433 3.27816 51.8365 3.50582C52.3298 3.73347 52.7338 4.05218 53.0488 4.46196C53.3637 4.87173 53.5591 5.3498 53.635 5.89617H52.2918C52.1894 5.49778 51.9617 5.14492 51.6089 4.83758C51.2598 4.52646 50.7893 4.3709 50.1974 4.3709C49.6738 4.3709 49.2147 4.50749 48.8201 4.78067C48.4293 5.05006 48.1239 5.43138 47.9038 5.92463C47.6875 6.41408 47.5794 6.9889 47.5794 7.6491C47.5794 8.32447 47.6856 8.91257 47.8981 9.4134C48.1144 9.91424 48.4179 10.3031 48.8087 10.5801C49.2033 10.8571 49.6662 10.9956 50.1974 10.9956C50.5465 10.9956 50.8633 10.9349 51.1479 10.8135C51.4324 10.6921 51.6734 10.5175 51.8707 10.2899C52.068 10.0622 52.2083 9.78903 52.2918 9.47032H53.635C53.5591 9.98633 53.3713 10.4511 53.0715 10.8647C52.7756 11.2745 52.3829 11.6008 51.8934 11.8436C51.4078 12.0826 50.8424 12.2021 50.1974 12.2021Z" fill="white"/>
<path d="M38.6142 6.76125V12.02H37.271V3.27816H38.5686V4.64408H38.6824C38.8873 4.20016 39.1985 3.8435 39.6158 3.57411C40.0332 3.30093 40.572 3.16434 41.2322 3.16434C41.8241 3.16434 42.342 3.28575 42.7859 3.52858C43.2298 3.76762 43.5751 4.13186 43.8217 4.62131C44.0683 5.10697 44.1916 5.72164 44.1916 6.4653V12.02H42.8485V6.55636C42.8485 5.86961 42.6702 5.33463 42.3135 4.95141C41.9569 4.5644 41.4674 4.3709 40.8451 4.3709C40.4164 4.3709 40.0332 4.46386 39.6955 4.64977C39.3616 4.83569 39.0979 5.10697 38.9044 5.46363C38.7109 5.82029 38.6142 6.25283 38.6142 6.76125Z" fill="white"/>
<path d="M30.8128 12.2249C30.2588 12.2249 29.7561 12.1206 29.3046 11.9119C28.8531 11.6994 28.4945 11.394 28.2289 10.9956C27.9633 10.5934 27.8305 10.1077 27.8305 9.53861C27.8305 9.03778 27.9292 8.6318 28.1265 8.32067C28.3238 8.00575 28.5875 7.75913 28.9176 7.5808C29.2477 7.40247 29.6119 7.26967 30.0103 7.18241C30.4125 7.09135 30.8166 7.01926 31.2226 6.96614C31.7537 6.89784 32.1844 6.84662 32.5145 6.81247C32.8484 6.77453 33.0912 6.71192 33.243 6.62466C33.3985 6.53739 33.4763 6.38562 33.4763 6.16935V6.12382C33.4763 5.56228 33.3227 5.12594 33.0153 4.81482C32.7118 4.50369 32.2508 4.34813 31.6323 4.34813C30.9911 4.34813 30.4884 4.48852 30.1241 4.76929C29.7599 5.05006 29.5038 5.3498 29.3558 5.66852L28.081 5.21321C28.3086 4.68202 28.6121 4.26845 28.9916 3.97251C29.3748 3.67276 29.7921 3.46408 30.2436 3.34646C30.699 3.22505 31.1467 3.16434 31.5868 3.16434C31.8676 3.16434 32.1901 3.19849 32.5543 3.26678C32.9224 3.33128 33.2771 3.46598 33.6186 3.67086C33.9639 3.87575 34.2503 4.18498 34.478 4.59855C34.7056 5.01212 34.8195 5.56607 34.8195 6.26041V12.02H33.4763V10.8362H33.408C33.317 11.0259 33.1652 11.2289 32.9527 11.4452C32.7402 11.6615 32.4576 11.8455 32.1047 11.9973C31.7518 12.149 31.3212 12.2249 30.8128 12.2249ZM31.0177 11.0184C31.5489 11.0184 31.9966 10.914 32.3608 10.7053C32.7289 10.4967 33.0058 10.2273 33.1918 9.89717C33.3815 9.56707 33.4763 9.2199 33.4763 8.85565V7.62633C33.4194 7.69463 33.2942 7.75723 33.1007 7.81414C32.911 7.86726 32.6909 7.91469 32.4405 7.95643C32.1939 7.99437 31.9529 8.02852 31.7177 8.05887C31.4863 8.08543 31.2984 8.10819 31.1543 8.12717C30.8052 8.1727 30.4789 8.24668 30.1754 8.34913C29.8756 8.44778 29.6328 8.59765 29.4469 8.79874C29.2647 8.99604 29.1737 9.26543 29.1737 9.60691C29.1737 10.0736 29.3463 10.4265 29.6916 10.6655C30.0407 10.9007 30.4827 11.0184 31.0177 11.0184Z" fill="white"/>
<path d="M20.1145 6.76129V12.0201H18.7714V0.364255H20.1145V4.64413H20.2284C20.4332 4.19261 20.7406 3.83406 21.1503 3.56847C21.5639 3.29908 22.1141 3.16438 22.8008 3.16438C23.3965 3.16438 23.9182 3.2839 24.3659 3.52294C24.8137 3.75818 25.1608 4.12052 25.4075 4.60998C25.6579 5.09564 25.7831 5.71409 25.7831 6.46535V12.0201H24.4399V6.55641C24.4399 5.86207 24.2597 5.32519 23.8993 4.94577C23.5426 4.56255 23.0475 4.37094 22.4138 4.37094C21.9737 4.37094 21.5791 4.4639 21.23 4.64982C20.8848 4.83573 20.6116 5.10702 20.4105 5.46367C20.2132 5.82033 20.1145 6.25287 20.1145 6.76129Z" fill="white"/>
<path d="M10.7395 6.76125V12.02H9.39636V3.27816H10.694V4.64408H10.8078C11.0127 4.20016 11.3238 3.8435 11.7412 3.57411C12.1585 3.30093 12.6973 3.16434 13.3575 3.16434C13.9494 3.16434 14.4673 3.28575 14.9112 3.52858C15.3552 3.76762 15.7004 4.13186 15.9471 4.62131C16.1937 5.10697 16.317 5.72164 16.317 6.4653V12.02H14.9738V6.55636C14.9738 5.86961 14.7955 5.33463 14.4389 4.95141C14.0822 4.5644 13.5928 4.3709 12.9705 4.3709C12.5418 4.3709 12.1585 4.46386 11.8209 4.64977C11.487 4.83569 11.2233 5.10697 11.0298 5.46363C10.8363 5.82029 10.7395 6.25283 10.7395 6.76125Z" fill="white"/>
<path d="M0 12.0201V0.364255H7.03447V1.61634H1.41145V5.55474H6.67022V6.80682H1.41145V10.768H7.12553V12.0201H0Z" fill="white"/>
</svg>
