<svg width="44" height="44" viewBox="0 0 44 44" fill="none" xmlns="http://www.w3.org/2000/svg">
<circle cx="22" cy="22" r="22" fill="#F1F1F1"/>
<path fill-rule="evenodd" clip-rule="evenodd" d="M28 17.5H27V15.5C27 12.7 24.8 10.5 22 10.5C19.2 10.5 17 12.7 17 15.5V17.5H16C14.9 17.5 14 18.4 14 19.5V29.5C14 30.6 14.9 31.5 16 31.5H28C29.1 31.5 30 30.6 30 29.5V19.5C30 18.4 29.1 17.5 28 17.5ZM22 26.5C20.9 26.5 20 25.6 20 24.5C20 23.4 20.9 22.5 22 22.5C23.1 22.5 24 23.4 24 24.5C24 25.6 23.1 26.5 22 26.5ZM25.1 17.5H18.9V15.5C18.9 13.8 20.3 12.4 22 12.4C23.7 12.4 25.1 13.8 25.1 15.5V17.5Z" fill="#262834"/>
</svg>
