<svg width="56" height="11" viewBox="0 0 56 11" fill="none" xmlns="http://www.w3.org/2000/svg">
<path d="M56 5.26035C56 6.34043 55.805 7.27382 55.415 8.06054C55.0249 8.84726 54.4899 9.45397 53.8099 9.88066C53.1298 10.3074 52.3531 10.5207 51.4797 10.5207C50.6063 10.5207 49.8296 10.3074 49.1495 9.88066C48.4695 9.45397 47.9345 8.84726 47.5444 8.06054C47.1544 7.27382 46.9594 6.34043 46.9594 5.26035C46.9594 4.18028 47.1544 3.24688 47.5444 2.46017C47.9345 1.67345 48.4695 1.06674 49.1495 0.640043C49.8296 0.213348 50.6063 0 51.4797 0C52.3531 0 53.1298 0.213348 53.8099 0.640043C54.4899 1.06674 55.0249 1.67345 55.415 2.46017C55.805 3.24688 56 4.18028 56 5.26035ZM54.7999 5.26035C54.7999 4.37363 54.6516 3.62524 54.3549 3.0152C54.0615 2.40516 53.6632 1.94346 53.1598 1.63011C52.6598 1.31676 52.0997 1.16008 51.4797 1.16008C50.8597 1.16008 50.2979 1.31676 49.7946 1.63011C49.2945 1.94346 48.8962 2.40516 48.5995 3.0152C48.3062 3.62524 48.1595 4.37363 48.1595 5.26035C48.1595 6.14708 48.3062 6.89546 48.5995 7.5055C48.8962 8.11554 49.2945 8.57724 49.7946 8.8906C50.2979 9.20395 50.8597 9.36063 51.4797 9.36063C52.0997 9.36063 52.6598 9.20395 53.1598 8.8906C53.6632 8.57724 54.0615 8.11554 54.3549 7.5055C54.6516 6.89546 54.7999 6.14708 54.7999 5.26035Z" fill="white"/>
<path d="M38.2013 10.3807V0.140026H41.7815C42.4949 0.140026 43.0833 0.263368 43.5467 0.510051C44.01 0.7534 44.3551 1.08176 44.5817 1.49512C44.8084 1.90514 44.9218 2.36017 44.9218 2.86021C44.9218 3.30024 44.8434 3.6636 44.6867 3.95028C44.5334 4.23697 44.3301 4.46365 44.0767 4.63033C43.8267 4.797 43.555 4.92035 43.2616 5.00035V5.10036C43.575 5.12036 43.89 5.23037 44.2067 5.43038C44.5234 5.63039 44.7884 5.91708 45.0018 6.29044C45.2151 6.6638 45.3218 7.12049 45.3218 7.66053C45.3218 8.1739 45.2051 8.6356 44.9718 9.04562C44.7384 9.45565 44.3701 9.78067 43.8667 10.0207C43.3633 10.2607 42.7083 10.3807 41.9016 10.3807H38.2013ZM39.4414 9.28064H41.9016C42.7116 9.28064 43.2867 9.12396 43.6267 8.81061C43.97 8.49392 44.1417 8.11056 44.1417 7.66053C44.1417 7.31384 44.0534 6.99382 43.8767 6.70047C43.7 6.40378 43.4483 6.1671 43.1216 5.99042C42.7949 5.81041 42.4083 5.7204 41.9616 5.7204H39.4414V9.28064ZM39.4414 4.64033H41.7415C42.1149 4.64033 42.4516 4.56699 42.7516 4.42031C43.055 4.27364 43.295 4.06696 43.4717 3.80027C43.6517 3.53359 43.7417 3.22023 43.7417 2.86021C43.7417 2.41018 43.585 2.02849 43.2716 1.71513C42.9583 1.39844 42.4616 1.2401 41.7815 1.2401H39.4414V4.64033Z" fill="white"/>
<path d="M35.7149 0.140026V10.3807H34.4748V0.140026H35.7149Z" fill="white"/>
<path d="M25.3167 10.3807V0.140026H28.8969C29.6103 0.140026 30.1987 0.263368 30.6621 0.510051C31.1254 0.7534 31.4704 1.08176 31.6971 1.49512C31.9238 1.90514 32.0371 2.36017 32.0371 2.86021C32.0371 3.30024 31.9588 3.6636 31.8021 3.95028C31.6488 4.23697 31.4454 4.46365 31.1921 4.63033C30.9421 4.797 30.6704 4.92035 30.377 5.00035V5.10036C30.6904 5.12036 31.0054 5.23037 31.3221 5.43038C31.6388 5.63039 31.9038 5.91708 32.1172 6.29044C32.3305 6.6638 32.4372 7.12049 32.4372 7.66053C32.4372 8.1739 32.3205 8.6356 32.0872 9.04562C31.8538 9.45565 31.4854 9.78067 30.9821 10.0207C30.4787 10.2607 29.8237 10.3807 29.0169 10.3807H25.3167ZM26.5568 9.28064H29.0169C29.827 9.28064 30.402 9.12396 30.7421 8.81061C31.0854 8.49392 31.2571 8.11056 31.2571 7.66053C31.2571 7.31384 31.1688 6.99382 30.9921 6.70047C30.8154 6.40378 30.5637 6.1671 30.237 5.99042C29.9103 5.81041 29.5236 5.7204 29.0769 5.7204H26.5568V9.28064ZM26.5568 4.64033H28.8569C29.2303 4.64033 29.567 4.56699 29.867 4.42031C30.1704 4.27364 30.4104 4.06696 30.587 3.80027C30.7671 3.53359 30.8571 3.22023 30.8571 2.86021C30.8571 2.41018 30.7004 2.02849 30.387 1.71513C30.0737 1.39844 29.577 1.2401 28.8969 1.2401H26.5568V4.64033Z" fill="white"/>
<path d="M22.8303 0.140026V10.3807H21.5902V0.140026H22.8303Z" fill="white"/>
<path d="M19.5051 5.26035C19.5051 6.34043 19.31 7.27382 18.92 8.06054C18.53 8.84726 17.995 9.45397 17.3149 9.88066C16.6349 10.3074 15.8581 10.5207 14.9848 10.5207C14.1114 10.5207 13.3346 10.3074 12.6546 9.88066C11.9746 9.45397 11.4395 8.84726 11.0495 8.06054C10.6595 7.27382 10.4645 6.34043 10.4645 5.26035C10.4645 4.18028 10.6595 3.24688 11.0495 2.46017C11.4395 1.67345 11.9746 1.06674 12.6546 0.640043C13.3346 0.213348 14.1114 0 14.9848 0C15.8581 0 16.6349 0.213348 17.3149 0.640043C17.995 1.06674 18.53 1.67345 18.92 2.46017C19.31 3.24688 19.5051 4.18028 19.5051 5.26035ZM18.305 5.26035C18.305 4.37363 18.1566 3.62524 17.8599 3.0152C17.5666 2.40516 17.1682 1.94346 16.6649 1.63011C16.1648 1.31676 15.6048 1.16008 14.9848 1.16008C14.3647 1.16008 13.803 1.31676 13.2996 1.63011C12.7996 1.94346 12.4012 2.40516 12.1046 3.0152C11.8112 3.62524 11.6645 4.37363 11.6645 5.26035C11.6645 6.14708 11.8112 6.89546 12.1046 7.5055C12.4012 8.11554 12.7996 8.57724 13.2996 8.8906C13.803 9.20395 14.3647 9.36063 14.9848 9.36063C15.6048 9.36063 16.1648 9.20395 16.6649 8.8906C17.1682 8.57724 17.5666 8.11554 17.8599 7.5055C18.1566 6.89546 18.305 6.14708 18.305 5.26035Z" fill="white"/>
<path d="M7.4005 3.34022C7.29049 3.00353 7.14548 2.70185 6.96547 2.43516C6.78879 2.16514 6.57711 1.93513 6.33042 1.74512C6.08707 1.5551 5.81039 1.41009 5.50037 1.31009C5.19035 1.21008 4.85032 1.16008 4.4803 1.16008C3.87359 1.16008 3.32189 1.31676 2.82519 1.63011C2.32849 1.94346 1.93346 2.40516 1.64011 3.0152C1.34676 3.62524 1.20008 4.37363 1.20008 5.26035C1.20008 6.14708 1.34842 6.89546 1.64511 7.5055C1.9418 8.11554 2.34349 8.57724 2.85019 8.8906C3.35689 9.20395 3.92693 9.36063 4.56031 9.36063C5.14701 9.36063 5.66371 9.23562 6.11041 8.9856C6.56044 8.73225 6.91046 8.37556 7.16048 7.91553C7.41383 7.45217 7.54051 6.90713 7.54051 6.28042L7.92053 6.36043H4.84032V5.26035H8.74059V6.36043C8.74059 7.20382 8.56057 7.9372 8.20055 8.56057C7.84386 9.18395 7.35049 9.66731 6.72045 10.0107C6.09374 10.3507 5.37369 10.5207 4.56031 10.5207C3.65358 10.5207 2.85686 10.3074 2.17015 9.88066C1.48677 9.45397 0.953397 8.84726 0.570038 8.06054C0.190013 7.27382 0 6.34043 0 5.26035C0 4.4503 0.108341 3.72192 0.325022 3.07521C0.545037 2.42516 0.855057 1.87179 1.25508 1.4151C1.65511 0.958398 2.12848 0.608375 2.67518 0.365025C3.22188 0.121675 3.82359 0 4.4803 0C5.02034 0 5.5237 0.081672 5.9904 0.245016C6.46043 0.405027 6.87879 0.633375 7.24549 0.930062C7.61551 1.22341 7.92386 1.57511 8.17055 1.98513C8.41723 2.39183 8.58724 2.84352 8.68058 3.34022H7.4005Z" fill="white"/>
</svg>
