<svg width="43" height="64" viewBox="0 0 43 64" fill="none" xmlns="http://www.w3.org/2000/svg">
<path d="M37.9662 -4.32025e-07C39.4895 1.26251 40.5199 1.69917 40.7037 2.35903C41.398 4.81294 42.2572 7.30867 42.3115 9.86304C42.6832 16.703 40.807 23.0604 37.8586 29.1457C32.8544 39.5279 25.4416 47.9849 16.9169 55.6342C16.0065 56.4545 15.1785 57.2957 14.2472 58.1983C14.2263 58.2807 14.2671 58.4662 14.3694 58.755C16.3092 58.7215 18.3315 58.7089 20.2505 58.7577C21.282 58.8441 22.4368 59.1371 23.343 59.7174C23.8786 60.0285 24.4737 61.1432 24.3275 61.7193C24.1396 62.4601 23.3326 63.219 22.6706 63.752C22.1538 64.0589 21.3906 63.9529 20.689 63.9501C15.427 63.9292 10.1232 64.073 4.79955 63.9489C0.260007 63.8486 -0.78715 62.0936 0.525237 57.9586C1.87939 53.659 3.06855 49.3175 4.31934 45.0793C4.73592 43.7833 5.33835 42.4468 5.87918 41.0071C8.9466 43.4498 8.9466 43.4498 6.80103 57.0978C13.459 52.6544 18.5101 47.2777 23.3556 41.6736C28.2011 36.0696 32.0578 29.8643 35.0292 22.9963C38.0632 15.8814 38.436 8.52942 37.9662 -4.32025e-07Z" fill="#FB5543"/>
</svg>
