<svg width="14" height="19" viewBox="0 0 14 19" fill="none" xmlns="http://www.w3.org/2000/svg">
<path d="M9.33333 0V4.66667H14L9.33333 0ZM10.5 9.33333H3.5V11.6667H10.5V9.33333ZM8.16667 4.66667V0H1.75C0.78349 0 0 0.78349 0 1.75V16.9167C0 17.8828 0.78349 18.6667 1.75 18.6667H12.25C13.2165 18.6667 14 17.8832 14 16.9167V5.83333H9.36615C8.68802 5.83333 8.16667 5.31198 8.16667 4.66667ZM2.33333 2.625C2.33333 2.46568 2.46568 2.33333 2.625 2.33333H5.54167C5.70208 2.33333 5.83333 2.46568 5.83333 2.625V3.20833C5.83333 3.36802 5.70208 3.5 5.54167 3.5H2.625C2.46568 3.5 2.33333 3.36802 2.33333 3.20833V2.625ZM2.33333 4.95833C2.33333 4.79792 2.46568 4.66667 2.625 4.66667H5.54167C5.70208 4.66667 5.83333 4.79792 5.83333 4.95833V5.54167C5.83333 5.70208 5.70208 5.83333 5.54167 5.83333H2.625C2.46568 5.83333 2.33333 5.70208 2.33333 5.54167V4.95833ZM11.6667 16.0417C11.6667 16.2012 11.5345 16.3333 11.375 16.3333H8.45833C8.29792 16.3333 8.16667 16.2021 8.16667 16.0417V15.4583C8.16667 15.2988 8.29883 15.1667 8.45833 15.1667H11.375C11.5345 15.1667 11.6667 15.2988 11.6667 15.4583V16.0417ZM11.6667 8.75V12.25C11.6667 12.5736 11.4069 12.8333 11.0833 12.8333H2.91667C2.59328 12.8333 2.33333 12.5745 2.33333 12.25V8.75C2.33333 8.42552 2.59328 8.16667 2.91667 8.16667H11.0833C11.4078 8.16667 11.6667 8.42552 11.6667 8.75Z" fill="white"/>
</svg>
