<svg width="16" height="11" viewBox="0 0 16 11" fill="none" xmlns="http://www.w3.org/2000/svg">
<path d="M14.6483 3.36922C14.5373 3.02961 14.3911 2.7253 14.2095 2.4563C14.0313 2.18394 13.8177 1.95193 13.5689 1.76027C13.3235 1.5686 13.0444 1.42233 12.7317 1.32146C12.4189 1.22059 12.076 1.17015 11.7027 1.17015C11.0908 1.17015 10.5343 1.32819 10.0333 1.64426C9.53225 1.96033 9.13379 2.42604 8.83789 3.04138C8.54199 3.65671 8.39404 4.41159 8.39404 5.30601C8.39404 6.20044 8.54367 6.95532 8.84294 7.57065C9.1422 8.18599 9.54738 8.6517 10.0585 8.96777C10.5696 9.28384 11.1446 9.44188 11.7834 9.44188C12.3752 9.44188 12.8964 9.31579 13.347 9.0636C13.8009 8.80805 14.154 8.44826 14.4062 7.98424C14.6617 7.51685 14.7895 6.96709 14.7895 6.33494L15.1728 6.41564H12.0659V5.30601H16V6.41564C16 7.26635 15.8184 8.0061 15.4553 8.63488C15.0955 9.26367 14.5978 9.75123 13.9623 10.0976C13.3302 10.4405 12.6039 10.612 11.7834 10.612C10.8688 10.612 10.0652 10.3968 9.37253 9.96643C8.68322 9.53603 8.14522 8.92406 7.75853 8.13051C7.37521 7.33696 7.18355 6.39546 7.18355 5.30601C7.18355 4.48893 7.29283 3.75422 7.51139 3.1019C7.73331 2.44621 8.04603 1.88804 8.44952 1.42738C8.85302 0.966717 9.3305 0.613656 9.88195 0.368193C10.4334 0.122731 11.0403 0 11.7027 0C12.2475 0 12.7552 0.0823809 13.2259 0.247143C13.7001 0.408543 14.1221 0.638873 14.4919 0.938135C14.8652 1.23403 15.1762 1.58878 15.425 2.00236C15.6738 2.41259 15.8453 2.86821 15.9395 3.36922H14.6483Z" fill="white"/>
<path d="M0 10.4708V0.14118H1.25085V9.36114H6.05249V10.4708H0Z" fill="white"/>
</svg>
