<svg width="70" height="11" viewBox="0 0 70 11" fill="none" xmlns="http://www.w3.org/2000/svg">
<path d="M68.6565 3.34879C68.5462 3.01124 68.4008 2.70878 68.2203 2.44141C68.0432 2.1707 67.831 1.94009 67.5837 1.74959C67.3397 1.55909 67.0623 1.41371 66.7515 1.31345C66.4407 1.21318 66.0998 1.16305 65.7288 1.16305C65.1205 1.16305 64.5674 1.32013 64.0694 1.63429C63.5715 1.94845 63.1754 2.41133 62.8813 3.02294C62.5872 3.63454 62.4402 4.38484 62.4402 5.27385C62.4402 6.16285 62.5889 6.91315 62.8863 7.52475C63.1838 8.13636 63.5865 8.59924 64.0945 8.9134C64.6025 9.22756 65.174 9.38464 65.809 9.38464C66.3972 9.38464 66.9152 9.25931 67.3631 9.00865C67.8143 8.75465 68.1652 8.39704 68.4158 7.93583C68.6698 7.47128 68.7968 6.92485 68.7968 6.29653L69.1778 6.37674H66.0897V5.27385H70V6.37674C70 7.22229 69.8195 7.95756 69.4586 8.58253C69.101 9.20751 68.6063 9.69211 67.9747 10.0363C67.3464 10.3772 66.6245 10.5477 65.809 10.5477C64.8999 10.5477 64.1012 10.3338 63.4127 9.90601C62.7276 9.47822 62.1928 8.86995 61.8085 8.08121C61.4275 7.29248 61.237 6.35669 61.237 5.27385C61.237 4.46171 61.3456 3.73146 61.5629 3.08309C61.7834 2.43138 62.0942 1.87659 62.4953 1.41872C62.8964 0.960856 63.3709 0.609935 63.919 0.365961C64.4671 0.121987 65.0704 0 65.7288 0C66.2702 0 66.7749 0.0818815 67.2428 0.245645C67.714 0.406066 68.1334 0.635 68.5011 0.932447C68.872 1.22655 69.1812 1.57915 69.4285 1.99022C69.6758 2.39796 69.8463 2.85082 69.9398 3.34879H68.6565Z" fill="white"/>
<path d="M59.1503 0.140324V10.4073H57.9471L52.3524 2.34611H52.2522V10.4073H51.0089V0.140324H52.2121L57.8268 8.22154H57.9271V0.140324H59.1503Z" fill="white"/>
<path d="M47.2829 0.140324H48.5261V6.93817C48.5261 7.64001 48.3607 8.26666 48.0298 8.8181C47.7023 9.36621 47.2394 9.79901 46.6412 10.1165C46.043 10.4307 45.3411 10.5878 44.5357 10.5878C43.7302 10.5878 43.0284 10.4307 42.4301 10.1165C41.8319 9.79901 41.3673 9.36621 41.0365 8.8181C40.7089 8.26666 40.5452 7.64001 40.5452 6.93817V0.140324H41.7884V6.83791C41.7884 7.33922 41.8987 7.78539 42.1193 8.17642C42.3399 8.5641 42.6541 8.86991 43.0618 9.09383C43.4729 9.31441 43.9642 9.4247 44.5357 9.4247C45.1072 9.4247 45.5985 9.31441 46.0095 9.09383C46.4206 8.86991 46.7348 8.5641 46.952 8.17642C47.1726 7.78539 47.2829 7.33922 47.2829 6.83791V0.140324Z" fill="white"/>
<path d="M37.1575 2.70711C37.0974 2.19911 36.8534 1.80474 36.4256 1.524C35.9978 1.24326 35.4731 1.1029 34.8515 1.1029C34.397 1.1029 33.9993 1.17642 33.6584 1.32347C33.3208 1.47053 33.0568 1.67272 32.8663 1.93007C32.6791 2.18741 32.5855 2.47984 32.5855 2.80737C32.5855 3.08142 32.6507 3.31704 32.7811 3.51423C32.9147 3.70807 33.0852 3.87016 33.2924 4.0005C33.4996 4.1275 33.7168 4.23278 33.9441 4.31633C34.1714 4.39654 34.3803 4.46171 34.5708 4.51184L35.6135 4.79258C35.8809 4.86277 36.1783 4.95969 36.5058 5.08334C36.8367 5.207 37.1525 5.37578 37.4533 5.58967C37.7575 5.80023 38.0081 6.07094 38.2053 6.40181C38.4025 6.73267 38.5011 7.13874 38.5011 7.62C38.5011 8.17479 38.3557 8.67611 38.0649 9.12395C37.7775 9.57179 37.3564 9.92773 36.8016 10.1918C36.2502 10.4558 35.5801 10.5878 34.7913 10.5878C34.0561 10.5878 33.4194 10.4692 32.8813 10.2319C32.3466 9.99457 31.9255 9.6637 31.618 9.23925C31.3139 8.81481 31.1418 8.32185 31.1016 7.76037H32.385C32.4184 8.14806 32.5488 8.4689 32.776 8.7229C33.0066 8.97356 33.2974 9.16072 33.6483 9.28437C34.0026 9.40469 34.3836 9.46485 34.7913 9.46485C35.2659 9.46485 35.692 9.38798 36.0697 9.23424C36.4473 9.07716 36.7465 8.85993 36.967 8.58253C37.1876 8.30179 37.2979 7.97427 37.2979 7.59995C37.2979 7.25906 37.2027 6.98166 37.0122 6.76777C36.8217 6.55387 36.571 6.38008 36.2602 6.2464C35.9494 6.11271 35.6135 5.99574 35.2525 5.89548L33.9892 5.53453C33.1871 5.30392 32.5521 4.97473 32.0842 4.54694C31.6163 4.11915 31.3824 3.55934 31.3824 2.86753C31.3824 2.29269 31.5378 1.79137 31.8486 1.36358C32.1628 0.932448 32.5839 0.598237 33.1119 0.360948C33.6433 0.120316 34.2365 0 34.8916 0C35.5533 0 36.1415 0.118644 36.6562 0.355934C37.1709 0.589881 37.5786 0.910724 37.8794 1.31846C38.1836 1.7262 38.344 2.18908 38.3607 2.70711H37.1575Z" fill="white"/>
<path d="M18.9836 0.140324H20.4675L23.9566 8.6627H24.077L27.5661 0.140324H29.05V10.4073H27.887V2.6068H27.7867L24.5783 10.4073H23.4553L20.2469 2.6068H20.1466V10.4073H18.9836V0.140324Z" fill="white"/>
<path d="M9.86465 10.4073H8.56122L12.3311 0.140324H13.6145L17.3844 10.4073H16.081L13.0129 1.76459H12.9327L9.86465 10.4073ZM10.3459 6.39675H15.5997V7.49964H10.3459V6.39675Z" fill="white"/>
<path d="M6.0559 2.70711C5.99574 2.19911 5.75177 1.80474 5.32398 1.524C4.89619 1.24326 4.37148 1.1029 3.74984 1.1029C3.29532 1.1029 2.89761 1.17642 2.55671 1.32347C2.21916 1.47053 1.95513 1.67272 1.76463 1.93007C1.57747 2.18741 1.4839 2.47984 1.4839 2.80737C1.4839 3.08142 1.54907 3.31704 1.67941 3.51423C1.81309 3.70807 1.98354 3.87016 2.19075 4.0005C2.39796 4.1275 2.6152 4.23278 2.84246 4.31633C3.06973 4.39654 3.27861 4.46171 3.46911 4.51184L4.51184 4.79258C4.77921 4.86277 5.07666 4.95969 5.40419 5.08334C5.73506 5.207 6.05088 5.37578 6.35167 5.58967C6.65581 5.80023 6.90646 6.07094 7.10365 6.40181C7.30083 6.73267 7.39942 7.13874 7.39942 7.62C7.39942 8.17479 7.25404 8.67611 6.96328 9.12395C6.67586 9.57179 6.25475 9.92773 5.69996 10.1918C5.14852 10.4558 4.47842 10.5878 3.68969 10.5878C2.95442 10.5878 2.31775 10.4692 1.77967 10.2319C1.24493 9.99457 0.823829 9.6637 0.516356 9.23925C0.212224 8.81481 0.0401053 8.32185 0 7.76037H1.28337C1.31679 8.14806 1.44713 8.4689 1.6744 8.7229C1.905 8.97356 2.19576 9.16072 2.54669 9.28437C2.90095 9.40469 3.28195 9.46485 3.68969 9.46485C4.16427 9.46485 4.59038 9.38798 4.96804 9.23424C5.3457 9.07716 5.64482 8.85993 5.8654 8.58253C6.08598 8.30179 6.19627 7.97427 6.19627 7.59995C6.19627 7.25906 6.10102 6.98166 5.91052 6.76777C5.72002 6.55387 5.46936 6.38008 5.15854 6.2464C4.84773 6.11271 4.51184 5.99574 4.1509 5.89548L2.88758 5.53453C2.08547 5.30392 1.45047 4.97473 0.982579 4.54694C0.514684 4.11915 0.280737 3.55934 0.280737 2.86753C0.280737 2.29269 0.436145 1.79137 0.746961 1.36358C1.06112 0.932448 1.48222 0.598237 2.01028 0.360948C2.54167 0.120316 3.1349 0 3.78995 0C4.45169 0 5.0399 0.118644 5.55458 0.355934C6.06927 0.589881 6.477 0.910724 6.77779 1.31846C7.08192 1.7262 7.24235 2.18908 7.25906 2.70711H6.0559Z" fill="white"/>
</svg>
