<svg width="89" height="20" viewBox="0 0 89 20" fill="none" xmlns="http://www.w3.org/2000/svg">
<path d="M89 4.42153C88.1693 5.84132 88.093 6.64442 87.4022 7.00704C84.838 8.36234 82.2942 9.83563 79.3449 10.8323C71.5423 13.6412 63.3594 14.8755 55.0438 15.3428C40.8674 16.1562 27.9219 14.7515 15.4502 12.3534C14.1143 12.0985 12.7886 11.9027 11.3482 11.6659C11.2437 11.684 11.0448 11.7792 10.7517 11.9515C11.6035 13.1408 12.4655 14.3891 13.2127 15.5965C13.5443 16.2682 13.6873 17.0941 13.3917 17.8744C13.2542 18.3236 12.2066 19.1125 11.475 19.2392C10.5344 19.402 9.31324 19.1881 8.41584 18.9788C7.8422 18.7743 7.64579 18.2615 7.35506 17.8257C5.17459 14.5575 2.78508 11.3254 0.698914 7.98013C-1.08631 5.12958 0.516862 3.81913 5.87781 3.0734C11.4478 2.29148 16.9973 1.39156 22.4526 0.568744C24.135 0.338257 25.9424 0.207671 27.8442 -5.03599e-06C26.2873 2.82148 26.2873 2.82148 9.50888 6.63736C17.4684 9.08748 25.8405 10.1902 34.391 11.0797C42.9415 11.9692 51.7773 12.0195 61.0132 11.2714C70.5626 10.469 79.2728 7.92821 89 4.42153Z" fill="#AEDC1A"/>
</svg>
