<svg width="21" height="22" viewBox="0 0 21 22" fill="none" xmlns="http://www.w3.org/2000/svg">
<path d="M5.75416 6.47817L8.35232 1.13514C9.05534 -0.310588 11.0844 -0.393327 11.9028 0.990357L14.9798 6.19274C15.173 6.51948 15.4545 6.78506 15.792 6.95895L19.9068 9.07945C21.3647 9.83076 21.3642 11.9154 19.906 12.6661L15.4373 14.9667C15.0857 15.1477 14.795 15.4281 14.6015 15.773L11.88 20.6229C11.0831 22.043 9.01874 21.9823 8.30661 20.5179L5.81071 15.3852C5.58845 14.9281 5.20183 14.5717 4.72817 14.3874L1.28581 13.0478C-0.325972 12.4205 -0.45277 10.1887 1.0776 9.38289L4.87982 7.38096C5.25997 7.18081 5.56628 6.86452 5.75416 6.47817Z" fill="#262834"/>
</svg>
