<svg width="98" height="21" viewBox="0 0 98 21" fill="none" xmlns="http://www.w3.org/2000/svg">
<path d="M88.6456 20.7496C88.2596 20.7496 87.9023 20.7183 87.5737 20.6557C87.2503 20.5984 86.9921 20.5306 86.7991 20.4523L87.4563 18.2459C87.8684 18.3659 88.2361 18.4232 88.5595 18.418C88.8829 18.4128 89.1672 18.3111 89.4124 18.1129C89.6627 17.9199 89.874 17.5965 90.0461 17.1427L90.2887 16.4933L85.9306 4.22504H88.9351L91.7048 13.301H91.83L94.6076 4.22504H97.6199L92.808 17.6982C92.5837 18.3346 92.2864 18.8797 91.9161 19.3335C91.5457 19.7925 91.0919 20.142 90.5547 20.3819C90.0226 20.627 89.3863 20.7496 88.6456 20.7496Z" fill="black"/>
<path d="M77.7837 16.2429V4.22504H80.53V6.22802H80.6552C80.8743 5.53428 81.2498 4.99963 81.7819 4.62407C82.3191 4.24329 82.932 4.05291 83.6205 4.05291C83.777 4.05291 83.9518 4.06073 84.1447 4.07638C84.343 4.08681 84.5073 4.10507 84.6377 4.13115V6.73659C84.5177 6.69486 84.3273 6.65834 84.0665 6.62705C83.8109 6.59054 83.5632 6.57228 83.3232 6.57228C82.8068 6.57228 82.3426 6.68443 81.9305 6.90872C81.5237 7.12779 81.2029 7.43294 80.9681 7.82414C80.7334 8.21535 80.6161 8.66654 80.6161 9.17772V16.2429H77.7837Z" fill="black"/>
<path d="M69.6212 16.4776C68.4476 16.4776 67.4304 16.2194 66.5698 15.7031C65.7091 15.1867 65.0414 14.4642 64.5668 13.5358C64.0973 12.6073 63.8626 11.5224 63.8626 10.2809C63.8626 9.03949 64.0973 7.95194 64.5668 7.01826C65.0414 6.08458 65.7091 5.35954 66.5698 4.84314C67.4304 4.32675 68.4476 4.06855 69.6212 4.06855C70.7948 4.06855 71.8119 4.32675 72.6726 4.84314C73.5333 5.35954 74.1983 6.08458 74.6678 7.01826C75.1424 7.95194 75.3798 9.03949 75.3798 10.2809C75.3798 11.5224 75.1424 12.6073 74.6678 13.5358C74.1983 14.4642 73.5333 15.1867 72.6726 15.7031C71.8119 16.2194 70.7948 16.4776 69.6212 16.4776ZM69.6368 14.2086C70.2732 14.2086 70.8052 14.0339 71.233 13.6844C71.6607 13.3297 71.9789 12.8551 72.1875 12.2604C72.4014 11.6658 72.5083 11.0034 72.5083 10.2731C72.5083 9.53763 72.4014 8.87258 72.1875 8.27794C71.9789 7.67809 71.6607 7.20082 71.233 6.84613C70.8052 6.49143 70.2732 6.31408 69.6368 6.31408C68.9848 6.31408 68.4423 6.49143 68.0094 6.84613C67.5817 7.20082 67.2609 7.67809 67.047 8.27794C66.8384 8.87258 66.7341 9.53763 66.7341 10.2731C66.7341 11.0034 66.8384 11.6658 67.047 12.2604C67.2609 12.8551 67.5817 13.3297 68.0094 13.6844C68.4423 14.0339 68.9848 14.2086 69.6368 14.2086Z" fill="black"/>
<path d="M55.835 21C54.8179 21 53.9442 20.8618 53.214 20.5853C52.4837 20.3141 51.8969 19.949 51.4535 19.4899C51.0102 19.0309 50.7024 18.5224 50.5303 17.9642L53.0809 17.3461C53.1957 17.5808 53.3626 17.813 53.5817 18.0425C53.8008 18.2772 54.0955 18.4702 54.4658 18.6215C54.8414 18.7779 55.3134 18.8562 55.882 18.8562C56.6853 18.8562 57.3503 18.6606 57.8771 18.2694C58.404 17.8834 58.6674 17.247 58.6674 16.3603V14.0835H58.5265C58.3805 14.3756 58.1666 14.6755 57.885 14.9832C57.6085 15.291 57.2408 15.5492 56.7818 15.7578C56.328 15.9665 55.7568 16.0708 55.0683 16.0708C54.145 16.0708 53.3078 15.8543 52.5567 15.4214C51.8108 14.9832 51.2162 14.3312 50.7728 13.4654C50.3347 12.5943 50.1156 11.5041 50.1156 10.1949C50.1156 8.87519 50.3347 7.76155 50.7728 6.85395C51.2162 5.94113 51.8134 5.25 52.5645 4.78055C53.3157 4.30589 54.1529 4.06855 55.0761 4.06855C55.7803 4.06855 56.3593 4.18852 56.8131 4.42846C57.2721 4.66319 57.6372 4.94747 57.9084 5.2813C58.1797 5.60991 58.3857 5.92027 58.5265 6.21237H58.683V4.22504H61.4762V16.4385C61.4762 17.4661 61.2311 18.3163 60.7408 18.9892C60.2505 19.6621 59.5802 20.1654 58.73 20.4993C57.8798 20.8331 56.9148 21 55.835 21ZM55.8585 13.8487C56.4584 13.8487 56.9695 13.7027 57.392 13.4106C57.8145 13.1185 58.1353 12.6986 58.3544 12.1509C58.5735 11.6032 58.683 10.946 58.683 10.1792C58.683 9.42288 58.5735 8.76043 58.3544 8.19188C58.1406 7.62332 57.8224 7.18256 57.3999 6.8696C56.9826 6.55142 56.4688 6.39232 55.8585 6.39232C55.2274 6.39232 54.7005 6.55663 54.278 6.88524C53.8555 7.21386 53.5374 7.66505 53.3235 8.23882C53.1096 8.80738 53.0027 9.45417 53.0027 10.1792C53.0027 10.9147 53.1096 11.5589 53.3235 12.1118C53.5426 12.6595 53.8634 13.0872 54.2859 13.3949C54.7136 13.6975 55.2378 13.8487 55.8585 13.8487Z" fill="black"/>
<path d="M42.8685 16.4776C41.6636 16.4776 40.623 16.2273 39.7466 15.7265C38.8756 15.2206 38.2053 14.506 37.7358 13.5827C37.2664 12.6542 37.0317 11.5615 37.0317 10.3044C37.0317 9.06818 37.2664 7.98323 37.7358 7.04955C38.2105 6.11066 38.873 5.3804 39.7232 4.85879C40.5734 4.33197 41.5723 4.06855 42.7198 4.06855C43.4605 4.06855 44.1595 4.18852 44.8167 4.42846C45.4791 4.66319 46.0633 5.02832 46.5693 5.52385C47.0805 6.01937 47.4821 6.65052 47.7742 7.41729C48.0663 8.17884 48.2124 9.08644 48.2124 10.1401V11.0086H38.3618V9.09948H45.4974C45.4922 8.557 45.3748 8.07452 45.1453 7.65201C44.9158 7.22429 44.595 6.88785 44.1829 6.6427C43.7761 6.39754 43.3014 6.27496 42.7589 6.27496C42.18 6.27496 41.6714 6.4158 41.2332 6.69747C40.7951 6.97392 40.4534 7.33905 40.2083 7.79285C39.9683 8.24143 39.8458 8.73435 39.8405 9.27161V10.9382C39.8405 11.6371 39.9683 12.237 40.2239 12.7377C40.4795 13.2332 40.8368 13.614 41.2958 13.88C41.7548 14.1408 42.2921 14.2712 42.9076 14.2712C43.3197 14.2712 43.6926 14.2139 44.0265 14.0991C44.3603 13.9791 44.6498 13.8044 44.8949 13.5749C45.1401 13.3454 45.3253 13.0611 45.4504 12.7221L48.095 13.0194C47.9281 13.7183 47.6099 14.3286 47.1405 14.8502C46.6762 15.3666 46.0816 15.7683 45.3566 16.0551C44.6315 16.3368 43.8022 16.4776 42.8685 16.4776Z" fill="black"/>
<path d="M35.3084 4.22504V6.4158H28.3997V4.22504H35.3084ZM30.1053 1.34575H32.9377V12.6282C32.9377 13.0089 32.9951 13.301 33.1098 13.5045C33.2298 13.7027 33.3863 13.8383 33.5793 13.9113C33.7723 13.9844 33.9861 14.0209 34.2208 14.0209C34.3982 14.0209 34.5599 14.0078 34.7059 13.9817C34.8572 13.9557 34.972 13.9322 35.0502 13.9113L35.5275 16.1256C35.3762 16.1777 35.1597 16.2351 34.8781 16.2977C34.6016 16.3603 34.2626 16.3968 33.8609 16.4072C33.1515 16.4281 32.5126 16.3212 31.944 16.0864C31.3755 15.8465 30.9243 15.4762 30.5904 14.9754C30.2618 14.4747 30.1001 13.8487 30.1053 13.0976V1.34575Z" fill="black"/>
<path d="M20.1139 16.4855C19.3524 16.4855 18.6664 16.3499 18.0562 16.0786C17.4511 15.8022 16.9712 15.3953 16.6165 14.858C16.267 14.3208 16.0923 13.6583 16.0923 12.8707C16.0923 12.1926 16.2175 11.6319 16.4679 11.1885C16.7182 10.7452 17.0599 10.3905 17.4928 10.1244C17.9258 9.85842 18.4135 9.6576 18.9559 9.52198C19.5036 9.38115 20.0696 9.27943 20.6538 9.21684C21.358 9.14382 21.9291 9.07861 22.3673 9.02124C22.8054 8.95864 23.1236 8.86475 23.3218 8.73957C23.5252 8.60917 23.627 8.40835 23.627 8.13711V8.09016C23.627 7.50075 23.4522 7.04434 23.1027 6.72094C22.7533 6.39754 22.2499 6.23584 21.5927 6.23584C20.8989 6.23584 20.3486 6.38711 19.9418 6.68964C19.5401 6.99218 19.2689 7.34948 19.1281 7.76155L16.4835 7.38599C16.6922 6.65574 17.0364 6.04545 17.5163 5.55514C17.9962 5.05961 18.583 4.68927 19.2767 4.44411C19.9705 4.19374 20.7372 4.06855 21.577 4.06855C22.156 4.06855 22.7324 4.13636 23.3062 4.27198C23.8799 4.4076 24.4042 4.63189 24.8788 4.94486C25.3535 5.25261 25.7343 5.6725 26.0211 6.20455C26.3132 6.73659 26.4593 7.40164 26.4593 8.1997V16.2429H23.7365V14.592H23.6426C23.4705 14.9259 23.2279 15.2388 22.915 15.5309C22.6072 15.8178 22.2186 16.0499 21.7492 16.2273C21.2849 16.3994 20.7398 16.4855 20.1139 16.4855ZM20.8494 14.4042C21.4179 14.4042 21.9109 14.2921 22.3281 14.0678C22.7454 13.8383 23.0662 13.5358 23.2905 13.1602C23.52 12.7846 23.6348 12.3752 23.6348 11.9318V10.5156C23.5461 10.5887 23.3948 10.6565 23.181 10.7191C22.9723 10.7817 22.7376 10.8364 22.4768 10.8834C22.216 10.9303 21.9578 10.9721 21.7022 11.0086C21.4466 11.0451 21.2249 11.0764 21.0372 11.1025C20.6147 11.1598 20.2365 11.2537 19.9027 11.3841C19.5688 11.5145 19.3054 11.6971 19.1124 11.9318C18.9194 12.1613 18.8229 12.4586 18.8229 12.8238C18.8229 13.3454 19.0133 13.7392 19.3941 14.0052C19.7749 14.2712 20.26 14.4042 20.8494 14.4042Z" fill="black"/>
<path d="M14.1226 5.62556H11.1963C11.1129 5.14568 10.959 4.72057 10.7347 4.35022C10.5104 3.97467 10.2314 3.65648 9.89754 3.39568C9.56371 3.13487 9.18294 2.93927 8.75522 2.80887C8.33271 2.67325 7.8763 2.60544 7.38599 2.60544C6.5149 2.60544 5.74292 2.82452 5.07004 3.26267C4.39717 3.6956 3.87034 4.33197 3.48957 5.17176C3.10879 6.00633 2.91841 7.02608 2.91841 8.231C2.91841 9.45678 3.10879 10.4896 3.48957 11.3294C3.87556 12.1639 4.40238 12.7951 5.07004 13.2228C5.74292 13.6453 6.51229 13.8566 7.37817 13.8566C7.85805 13.8566 8.30663 13.794 8.72392 13.6688C9.14642 13.5384 9.52459 13.348 9.85842 13.0976C10.1975 12.8472 10.4817 12.5395 10.7113 12.1744C10.946 11.8092 11.1077 11.392 11.1963 10.9225L14.1226 10.9382C14.013 11.6997 13.7757 12.4143 13.4106 13.082C13.0507 13.7496 12.5786 14.339 11.9944 14.8502C11.4102 15.3562 10.7269 15.7526 9.94449 16.0395C9.16207 16.3212 8.29359 16.462 7.33905 16.462C5.9307 16.462 4.67362 16.136 3.56781 15.484C2.462 14.832 1.59091 13.8905 0.954545 12.6595C0.318182 11.4285 0 9.95231 0 8.231C0 6.50447 0.32079 5.02832 0.96237 3.80253C1.60395 2.57154 2.47765 1.63003 3.58346 0.978017C4.68927 0.326006 5.94113 0 7.33905 0C8.231 0 9.06036 0.125186 9.82712 0.375558C10.5939 0.625932 11.2772 0.993667 11.877 1.47876C12.4769 1.95864 12.9698 2.54806 13.3558 3.24702C13.747 3.94076 14.0026 4.73361 14.1226 5.62556Z" fill="black"/>
</svg>
