<svg width="48" height="8" viewBox="0 0 48 8" fill="none" xmlns="http://www.w3.org/2000/svg">
<path d="M42.7573 4.94253C42.7573 4.37557 42.8707 3.87864 43.0975 3.45176C43.3309 3.0182 43.6511 2.68469 44.058 2.45124C44.4648 2.21779 44.9317 2.10106 45.4587 2.10106C46.1257 2.10106 46.676 2.26114 47.1095 2.58131C47.5498 2.8948 47.8466 3.34503 48 3.932H46.7694C46.6693 3.65853 46.5092 3.44509 46.2891 3.29167C46.069 3.13826 45.7922 3.06155 45.4587 3.06155C44.9918 3.06155 44.6183 3.22831 44.3381 3.56181C44.0646 3.88865 43.9279 4.34889 43.9279 4.94253C43.9279 5.53617 44.0646 5.99974 44.3381 6.33324C44.6183 6.66675 44.9918 6.8335 45.4587 6.8335C46.119 6.8335 46.5559 6.54335 46.7694 5.96305H48C47.8399 6.52334 47.5398 6.97024 47.0995 7.30374C46.6593 7.63058 46.1124 7.794 45.4587 7.794C44.9317 7.794 44.4648 7.67727 44.058 7.44382C43.6511 7.20369 43.3309 6.87019 43.0975 6.4433C42.8707 6.00974 42.7573 5.50948 42.7573 4.94253Z" fill="black"/>
<path d="M41.0797 1.46075C40.8729 1.46075 40.6995 1.39072 40.5595 1.25065C40.4194 1.11057 40.3493 0.93715 40.3493 0.730377C40.3493 0.523604 40.4194 0.350181 40.5595 0.210109C40.6995 0.0700362 40.8729 0 41.0797 0C41.2798 0 41.4499 0.0700362 41.59 0.210109C41.7301 0.350181 41.8001 0.523604 41.8001 0.730377C41.8001 0.93715 41.7301 1.11057 41.59 1.25065C41.4499 1.39072 41.2798 1.46075 41.0797 1.46075ZM41.64 2.19113V7.70398H40.4994V2.19113H41.64Z" fill="black"/>
<path d="M36.7834 2.10106C37.2169 2.10106 37.6038 2.19111 37.944 2.3712C38.2908 2.55129 38.5609 2.8181 38.7544 3.17161C38.9478 3.52513 39.0445 3.95201 39.0445 4.45227V7.70395H37.9139V4.62236C37.9139 4.12877 37.7905 3.75191 37.5437 3.49178C37.297 3.22497 36.9601 3.09157 36.5332 3.09157C36.1063 3.09157 35.7662 3.22497 35.5127 3.49178C35.2659 3.75191 35.1425 4.12877 35.1425 4.62236V7.70395H34.0019V2.19111H35.1425V2.82143C35.3293 2.59465 35.5661 2.41789 35.8529 2.29116C36.1464 2.16443 36.4565 2.10106 36.7834 2.10106Z" fill="black"/>
<path d="M30.0129 7.794C29.4926 7.794 29.0224 7.67727 28.6022 7.44382C28.182 7.20369 27.8518 6.87019 27.6117 6.4433C27.3715 6.00974 27.2515 5.50948 27.2515 4.94253C27.2515 4.38224 27.3749 3.88531 27.6217 3.45176C27.8685 3.0182 28.2053 2.68469 28.6322 2.45124C29.0591 2.21779 29.536 2.10106 30.0629 2.10106C30.5899 2.10106 31.0668 2.21779 31.4937 2.45124C31.9206 2.68469 32.2574 3.0182 32.5042 3.45176C32.751 3.88531 32.8744 4.38224 32.8744 4.94253C32.8744 5.50281 32.7477 5.99974 32.4942 6.43329C32.2407 6.86685 31.8939 7.20369 31.4537 7.44382C31.0201 7.67727 30.5399 7.794 30.0129 7.794ZM30.0129 6.80349C30.3064 6.80349 30.5799 6.73345 30.8333 6.59338C31.0935 6.4533 31.3036 6.2432 31.4637 5.96305C31.6237 5.68291 31.7038 5.34273 31.7038 4.94253C31.7038 4.54232 31.6271 4.20548 31.4737 3.932C31.3203 3.65186 31.1168 3.44175 30.8634 3.30168C30.6099 3.16161 30.3364 3.09157 30.0429 3.09157C29.7494 3.09157 29.476 3.16161 29.2225 3.30168C28.9757 3.44175 28.7789 3.65186 28.6322 3.932C28.4855 4.20548 28.4121 4.54232 28.4121 4.94253C28.4121 5.53617 28.5622 5.9964 28.8623 6.32324C29.1691 6.6434 29.5527 6.80349 30.0129 6.80349Z" fill="black"/>
<path d="M24.9224 2.99152C25.0891 2.71137 25.3093 2.4946 25.5827 2.34118C25.8629 2.1811 26.193 2.10106 26.5732 2.10106V3.28167H26.2831C25.8362 3.28167 25.496 3.39506 25.2626 3.62184C25.0358 3.84863 24.9224 4.24216 24.9224 4.80245V7.70395H23.7818V2.19111H24.9224V2.99152Z" fill="black"/>
<path d="M21.3899 3.12156V6.17313C21.3899 6.3799 21.4366 6.52998 21.5299 6.62336C21.63 6.71008 21.7967 6.75343 22.0302 6.75343H22.7306V7.70392H21.8301C21.3165 7.70392 20.923 7.58386 20.6495 7.34374C20.376 7.10361 20.2393 6.71341 20.2393 6.17313V3.12156H19.5889V2.19108H20.2393V0.82037H21.3899V2.19108H22.7306V3.12156H21.3899Z" fill="black"/>
<path d="M13.6798 4.94253C13.6798 4.37557 13.7932 3.87864 14.02 3.45176C14.2534 3.0182 14.5736 2.68469 14.9805 2.45124C15.3873 2.21779 15.8542 2.10106 16.3812 2.10106C17.0482 2.10106 17.5985 2.26114 18.032 2.58131C18.4723 2.8948 18.7691 3.34503 18.9225 3.932H17.6919C17.5918 3.65853 17.4317 3.44509 17.2116 3.29167C16.9915 3.13826 16.7147 3.06155 16.3812 3.06155C15.9143 3.06155 15.5407 3.22831 15.2606 3.56181C14.9871 3.88865 14.8504 4.34889 14.8504 4.94253C14.8504 5.53617 14.9871 5.99974 15.2606 6.33324C15.5407 6.66675 15.9143 6.8335 16.3812 6.8335C17.0415 6.8335 17.4784 6.54335 17.6919 5.96305H18.9225C18.7624 6.52334 18.4623 6.97024 18.022 7.30374C17.5818 7.63058 17.0349 7.794 16.3812 7.794C15.8542 7.794 15.3873 7.67727 14.9805 7.44382C14.5736 7.20369 14.2534 6.87019 14.02 6.4433C13.7932 6.00974 13.6798 5.50948 13.6798 4.94253Z" fill="black"/>
<path d="M12.9375 4.81246C12.9375 5.01923 12.9242 5.20599 12.8975 5.37275H8.68534C8.71869 5.81297 8.8821 6.16649 9.17559 6.43329C9.46907 6.7001 9.82926 6.8335 10.2561 6.8335C10.8698 6.8335 11.3034 6.5767 11.5568 6.0631H12.7875C12.6207 6.57003 12.3172 6.98691 11.877 7.31375C11.4434 7.63391 10.9031 7.794 10.2561 7.794C9.72921 7.794 9.25563 7.67727 8.83541 7.44382C8.42187 7.20369 8.09503 6.87019 7.85491 6.4433C7.62145 6.00974 7.50473 5.50948 7.50473 4.94253C7.50473 4.37557 7.61812 3.87864 7.8449 3.45176C8.07836 3.0182 8.40186 2.68469 8.8154 2.45124C9.23562 2.21779 9.71587 2.10106 10.2561 2.10106C10.7764 2.10106 11.24 2.21445 11.6469 2.44123C12.0537 2.66802 12.3706 2.98818 12.5974 3.40173C12.8241 3.80861 12.9375 4.27885 12.9375 4.81246ZM11.7469 4.45227C11.7402 4.03206 11.5902 3.69522 11.2967 3.44175C11.0032 3.18829 10.6397 3.06155 10.2061 3.06155C9.81258 3.06155 9.47574 3.18829 9.1956 3.44175C8.91545 3.68854 8.7487 4.02539 8.69534 4.45227H11.7469Z" fill="black"/>
<path d="M6.38744 0.300204V7.70402H5.24685V0.300204H6.38744Z" fill="black"/>
<path d="M1.14059 1.67085V3.71191H3.54183V4.64239H1.14059V6.77349H3.84198V7.70397H0V0.740372H3.84198V1.67085H1.14059Z" fill="black"/>
</svg>
