<svg width="22" height="23" viewBox="0 0 22 23" fill="none" xmlns="http://www.w3.org/2000/svg">
<path d="M6.07105 6.83362L8.84228 1.13469C9.54502 -0.310466 11.5733 -0.393172 12.3913 0.98997L15.6702 6.5337C15.8634 6.86031 16.1448 7.12578 16.4821 7.29961L20.9072 9.58C22.3645 10.331 22.3641 12.4149 20.9064 13.1653L16.1131 15.633C15.7616 15.8139 15.471 16.0942 15.2776 16.439L12.3685 21.623C11.572 23.0426 9.50844 22.982 8.79659 21.5181L6.12759 16.0294C5.90541 15.5725 5.51894 15.2163 5.04547 15.032L1.28531 13.5687C-0.325844 12.9417 -0.452595 10.7107 1.07718 9.90525L5.19706 7.73606C5.57706 7.53599 5.88325 7.21983 6.07105 6.83362Z" fill="black"/>
</svg>
