<svg width="227" height="25" viewBox="0 0 227 25" fill="none" xmlns="http://www.w3.org/2000/svg">
<path d="M226.689 9.4848L223.222 9.69814C223.163 9.40183 223.035 9.13515 222.84 8.8981C222.644 8.65513 222.386 8.46253 222.066 8.3203C221.752 8.17214 221.376 8.09806 220.937 8.09806C220.351 8.09806 219.856 8.22251 219.453 8.47141C219.05 8.71439 218.848 9.04033 218.848 9.44924C218.848 9.77518 218.979 10.0508 219.24 10.2759C219.5 10.5011 219.948 10.6819 220.582 10.8182L223.053 11.316C224.381 11.5886 225.37 12.0271 226.022 12.6316C226.674 13.2361 227 14.0302 227 15.014C227 15.9088 226.736 16.694 226.209 17.3696C225.687 18.0452 224.97 18.5726 224.058 18.9519C223.151 19.3253 222.105 19.512 220.92 19.512C219.112 19.512 217.672 19.1356 216.599 18.383C215.533 17.6245 214.908 16.5933 214.724 15.2895L218.448 15.094C218.561 15.6451 218.834 16.0659 219.266 16.3562C219.699 16.6407 220.253 16.7829 220.929 16.7829C221.592 16.7829 222.126 16.6555 222.529 16.4007C222.938 16.1399 223.145 15.8051 223.151 15.3962C223.145 15.0525 223 14.771 222.715 14.5517C222.431 14.3265 221.992 14.1547 221.4 14.0361L219.035 13.565C217.702 13.2983 216.709 12.8361 216.057 12.1783C215.411 11.5205 215.088 10.6819 215.088 9.66258C215.088 8.7855 215.325 8.02991 215.799 7.39581C216.279 6.7617 216.952 6.27279 217.817 5.92907C218.688 5.58535 219.708 5.41349 220.875 5.41349C222.6 5.41349 223.957 5.77795 224.947 6.50687C225.942 7.2358 226.523 8.22844 226.689 9.4848Z" fill="black"/>
<path d="M205.639 24.65C204.412 24.65 203.36 24.4811 202.483 24.1433C201.612 23.8114 200.919 23.3581 200.403 22.7832C199.888 22.2084 199.553 21.5624 199.399 20.8454L202.901 20.3742C203.008 20.6468 203.177 20.9017 203.408 21.1387C203.639 21.3757 203.944 21.5654 204.323 21.7076C204.709 21.8558 205.177 21.9299 205.728 21.9299C206.552 21.9299 207.23 21.7284 207.764 21.3254C208.303 20.9283 208.572 20.2616 208.572 19.3253V16.8274H208.412C208.247 17.2067 207.998 17.5652 207.666 17.903C207.334 18.2408 206.907 18.5164 206.386 18.7297C205.864 18.943 205.242 19.0497 204.519 19.0497C203.494 19.0497 202.56 18.8127 201.719 18.3386C200.883 17.8585 200.216 17.1267 199.719 16.1429C199.227 15.1532 198.981 13.9028 198.981 12.3916C198.981 10.8449 199.233 9.55295 199.736 8.51586C200.24 7.47877 200.91 6.70244 201.745 6.18686C202.587 5.67128 203.508 5.41349 204.51 5.41349C205.274 5.41349 205.915 5.54386 206.43 5.80462C206.946 6.05944 207.361 6.37946 207.675 6.76466C207.995 7.14394 208.241 7.51729 208.412 7.88472H208.555V5.59127H212.315V19.3786C212.315 20.5402 212.03 21.5121 211.461 22.2943C210.893 23.0766 210.104 23.6633 209.097 24.0544C208.095 24.4515 206.943 24.65 205.639 24.65ZM205.719 16.2051C206.329 16.2051 206.845 16.054 207.266 15.7518C207.692 15.4436 208.018 15.0051 208.244 14.4362C208.475 13.8613 208.59 13.1739 208.59 12.3738C208.59 11.5738 208.478 10.8804 208.252 10.2937C208.027 9.7011 207.701 9.24182 207.275 8.91588C206.848 8.58994 206.329 8.42697 205.719 8.42697C205.097 8.42697 204.572 8.59586 204.146 8.93366C203.719 9.26553 203.396 9.72777 203.177 10.3204C202.957 10.913 202.848 11.5975 202.848 12.3738C202.848 13.162 202.957 13.8435 203.177 14.4184C203.402 14.9873 203.725 15.4288 204.146 15.7429C204.572 16.051 205.097 16.2051 205.719 16.2051Z" fill="black"/>
<path d="M187.703 11.3516V19.2453H183.916V5.59127H187.525V8.00028H187.685C187.987 7.20617 188.494 6.57799 189.205 6.11574C189.916 5.64757 190.778 5.41349 191.792 5.41349C192.74 5.41349 193.567 5.6209 194.272 6.03574C194.977 6.45057 195.525 7.0432 195.916 7.8136C196.307 8.57809 196.503 9.49072 196.503 10.5515V19.2453H192.716V11.2271C192.722 10.3915 192.509 9.73962 192.076 9.27145C191.643 8.79736 191.048 8.56031 190.289 8.56031C189.78 8.56031 189.329 8.66994 188.938 8.88921C188.553 9.10848 188.251 9.4285 188.031 9.84926C187.818 10.2641 187.708 10.7649 187.703 11.3516Z" fill="black"/>
<path d="M177.095 19.2454V5.59139H180.882V19.2454H177.095ZM178.998 3.8313C178.435 3.8313 177.952 3.64462 177.549 3.27127C177.152 2.89199 176.953 2.43864 176.953 1.91121C176.953 1.3897 177.152 0.942269 177.549 0.568918C177.952 0.189639 178.435 0 178.998 0C179.561 0 180.041 0.189639 180.438 0.568918C180.841 0.942269 181.042 1.3897 181.042 1.91121C181.042 2.43864 180.841 2.89199 180.438 3.27127C180.041 3.64462 179.561 3.8313 178.998 3.8313Z" fill="black"/>
<path d="M175.157 5.59121L170.384 19.2452H166.117L161.343 5.59121H165.344L168.179 15.3606H168.322L171.148 5.59121H175.157Z" fill="black"/>
<path d="M152.29 19.5031C151.419 19.5031 150.642 19.3519 149.961 19.0497C149.279 18.7415 148.74 18.2882 148.343 17.6896C147.952 17.0852 147.756 16.3325 147.756 15.4318C147.756 14.6732 147.895 14.0361 148.174 13.5206C148.452 13.005 148.832 12.5901 149.312 12.276C149.792 11.962 150.337 11.7249 150.947 11.5649C151.564 11.4049 152.21 11.2923 152.885 11.2271C153.679 11.1441 154.319 11.0671 154.805 10.996C155.291 10.9189 155.644 10.8063 155.863 10.6582C156.082 10.51 156.192 10.2908 156.192 10.0004V9.94704C156.192 9.38405 156.014 8.94847 155.659 8.64031C155.309 8.33215 154.811 8.17807 154.165 8.17807C153.484 8.17807 152.942 8.32918 152.539 8.63142C152.136 8.92773 151.869 9.30108 151.739 9.75148L148.236 9.46702C148.414 8.63735 148.764 7.92028 149.285 7.3158C149.807 6.7054 150.479 6.23723 151.303 5.91129C152.133 5.57942 153.093 5.41349 154.183 5.41349C154.942 5.41349 155.668 5.50238 156.361 5.68017C157.06 5.85795 157.68 6.13352 158.219 6.50687C158.764 6.88023 159.194 7.36025 159.508 7.94694C159.822 8.52771 159.979 9.22404 159.979 10.0359V19.2453H156.388V17.3518H156.281C156.062 17.7785 155.768 18.1549 155.401 18.4808C155.034 18.8008 154.592 19.0527 154.076 19.2364C153.561 19.4142 152.965 19.5031 152.29 19.5031ZM153.374 16.8896C153.931 16.8896 154.423 16.78 154.85 16.5607C155.276 16.3355 155.611 16.0333 155.854 15.654C156.097 15.2747 156.219 14.8451 156.219 14.365V12.9161C156.1 12.9931 155.937 13.0642 155.73 13.1294C155.528 13.1887 155.3 13.245 155.045 13.2983C154.791 13.3457 154.536 13.3902 154.281 13.4317C154.026 13.4672 153.795 13.4998 153.588 13.5294C153.143 13.5946 152.755 13.6983 152.423 13.8406C152.091 13.9828 151.833 14.1754 151.65 14.4184C151.466 14.6554 151.374 14.9517 151.374 15.3073C151.374 15.8229 151.561 16.217 151.934 16.4896C152.313 16.7563 152.793 16.8896 153.374 16.8896Z" fill="black"/>
<path d="M141.94 6.27577C141.869 5.5587 141.564 5.00164 141.025 4.60458C140.485 4.20752 139.754 4.009 138.829 4.009C138.201 4.009 137.67 4.09789 137.238 4.27568C136.805 4.44754 136.473 4.68755 136.242 4.99571C136.017 5.30388 135.904 5.65352 135.904 6.04465C135.893 6.37059 135.961 6.65505 136.109 6.89803C136.263 7.141 136.473 7.35138 136.74 7.52917C137.007 7.70103 137.315 7.85215 137.665 7.98252C138.014 8.10698 138.388 8.21365 138.785 8.30254L140.42 8.69367C141.214 8.87146 141.943 9.10851 142.607 9.40482C143.271 9.70113 143.846 10.0656 144.332 10.4982C144.817 10.9308 145.194 11.4405 145.46 12.0272C145.733 12.6139 145.872 13.2865 145.878 14.045C145.872 15.1592 145.588 16.1251 145.025 16.943C144.468 17.7549 143.662 18.386 142.607 18.8364C141.558 19.2809 140.293 19.5031 138.811 19.5031C137.342 19.5031 136.061 19.2779 134.971 18.8275C133.887 18.3771 133.039 17.7104 132.429 16.8274C131.824 15.9385 131.507 14.8392 131.478 13.5295H135.202C135.244 14.1399 135.418 14.6495 135.727 15.0584C136.041 15.4614 136.459 15.7666 136.98 15.974C137.507 16.1755 138.103 16.2763 138.767 16.2763C139.419 16.2763 139.985 16.1814 140.465 15.9918C140.951 15.8022 141.327 15.5385 141.594 15.2007C141.86 14.8629 141.994 14.4747 141.994 14.0362C141.994 13.6272 141.872 13.2835 141.629 13.005C141.392 12.7265 141.042 12.4894 140.58 12.2938C140.124 12.0983 139.564 11.9205 138.9 11.7605L136.918 11.2627C135.383 10.8893 134.171 10.3056 133.282 9.51149C132.393 8.71737 131.952 7.64769 131.958 6.30244C131.952 5.20017 132.245 4.23716 132.838 3.41341C133.436 2.58967 134.257 1.94667 135.3 1.48443C136.343 1.02218 137.528 0.791061 138.856 0.791061C140.207 0.791061 141.386 1.02218 142.394 1.48443C143.407 1.94667 144.195 2.58967 144.758 3.41341C145.321 4.23716 145.612 5.19128 145.629 6.27577H141.94Z" fill="black"/>
<path d="M113.87 24.3655C113.39 24.3655 112.94 24.3269 112.519 24.2499C112.104 24.1788 111.76 24.0869 111.488 23.9743L112.341 21.1475C112.786 21.2838 113.186 21.3579 113.541 21.3698C113.903 21.3816 114.214 21.2986 114.475 21.1209C114.741 20.9431 114.957 20.6408 115.123 20.2141L115.346 19.6363L110.448 5.59121H114.43L117.257 15.6184H117.399L120.253 5.59121H124.262L118.955 20.7208C118.7 21.4557 118.353 22.0957 117.915 22.6409C117.482 23.1921 116.934 23.6158 116.27 23.9121C115.606 24.2143 114.806 24.3655 113.87 24.3655Z" fill="black"/>
<path d="M109.594 5.59121L104.821 19.2452H100.554L95.7803 5.59121H99.7804L102.616 15.3606H102.758L105.585 5.59121H109.594Z" fill="black"/>
<path d="M86.7265 19.5031C85.8553 19.5031 85.079 19.3519 84.3975 19.0497C83.7159 18.7415 83.1767 18.2882 82.7796 17.6896C82.3885 17.0852 82.1929 16.3325 82.1929 15.4318C82.1929 14.6732 82.3322 14.0361 82.6107 13.5206C82.8892 13.005 83.2685 12.5901 83.7485 12.276C84.2286 11.962 84.7738 11.7249 85.3842 11.5649C86.0005 11.4049 86.6465 11.2923 87.3221 11.2271C88.1162 11.1441 88.7562 11.0671 89.2421 10.996C89.7281 10.9189 90.0807 10.8063 90.3 10.6582C90.5192 10.51 90.6289 10.2908 90.6289 10.0004V9.94704C90.6289 9.38405 90.4511 8.94847 90.0955 8.64031C89.7459 8.33215 89.2481 8.17807 88.6021 8.17807C87.9206 8.17807 87.3784 8.32918 86.9754 8.63142C86.5724 8.92773 86.3057 9.30108 86.1753 9.75148L82.6729 9.46702C82.8507 8.63735 83.2004 7.92028 83.7219 7.3158C84.2434 6.7054 84.916 6.23723 85.7398 5.91129C86.5694 5.57942 87.5295 5.41349 88.6199 5.41349C89.3785 5.41349 90.1044 5.50238 90.7978 5.68017C91.4971 5.85795 92.1164 6.13352 92.6556 6.50687C93.2009 6.88023 93.6305 7.36025 93.9446 7.94694C94.2587 8.52771 94.4157 9.22404 94.4157 10.0359V19.2453H90.8244V17.3518H90.7178C90.4985 17.7785 90.2052 18.1549 89.8377 18.4808C89.4703 18.8008 89.0288 19.0527 88.5132 19.2364C87.9976 19.4142 87.4021 19.5031 86.7265 19.5031ZM87.811 16.8896C88.368 16.8896 88.8599 16.78 89.2866 16.5607C89.7133 16.3355 90.0481 16.0333 90.2911 15.654C90.5341 15.2747 90.6555 14.8451 90.6555 14.365V12.9161C90.537 12.9931 90.3741 13.0642 90.1666 13.1294C89.9651 13.1887 89.737 13.245 89.4822 13.2983C89.2273 13.3457 88.9725 13.3902 88.7177 13.4317C88.4629 13.4672 88.2317 13.4998 88.0243 13.5294C87.5798 13.5946 87.1917 13.6983 86.8598 13.8406C86.5279 13.9828 86.2701 14.1754 86.0864 14.4184C85.9027 14.6554 85.8109 14.9517 85.8109 15.3073C85.8109 15.8229 85.9975 16.217 86.3709 16.4896C86.7502 16.7563 87.2302 16.8896 87.811 16.8896Z" fill="black"/>
<path d="M76.3771 6.27577C76.306 5.5587 76.0008 5.00164 75.4615 4.60458C74.9222 4.20752 74.1903 4.009 73.2658 4.009C72.6376 4.009 72.1072 4.09789 71.6746 4.27568C71.242 4.44754 70.9101 4.68755 70.679 4.99571C70.4538 5.30388 70.3412 5.65352 70.3412 6.04465C70.3294 6.37059 70.3975 6.65505 70.5457 6.89803C70.6998 7.141 70.9101 7.35138 71.1768 7.52917C71.4435 7.70103 71.7517 7.85215 72.1013 7.98252C72.451 8.10698 72.8243 8.21365 73.2214 8.30254L74.857 8.69367C75.6511 8.87146 76.38 9.10851 77.0438 9.40482C77.7075 9.70113 78.2824 10.0656 78.7683 10.4982C79.2543 10.9308 79.6306 11.4405 79.8972 12.0272C80.1699 12.6139 80.3091 13.2865 80.315 14.045C80.3091 15.1592 80.0247 16.1251 79.4617 16.943C78.9046 17.7549 78.0986 18.386 77.0438 18.8364C75.9948 19.2809 74.7296 19.5031 73.248 19.5031C71.7783 19.5031 70.4983 19.2779 69.4078 18.8275C68.3233 18.3771 67.4759 17.7104 66.8655 16.8274C66.261 15.9385 65.944 14.8392 65.9143 13.5295H69.639C69.6805 14.1399 69.8553 14.6495 70.1634 15.0584C70.4775 15.4614 70.8953 15.7666 71.4168 15.974C71.9443 16.1755 72.5399 16.2763 73.2036 16.2763C73.8555 16.2763 74.4214 16.1814 74.9015 15.9918C75.3874 15.8022 75.7637 15.5385 76.0304 15.2007C76.2971 14.8629 76.4304 14.4747 76.4304 14.0362C76.4304 13.6272 76.3089 13.2835 76.066 13.005C75.8289 12.7265 75.4793 12.4894 75.017 12.2938C74.5607 12.0983 74.0007 11.9205 73.3369 11.7605L71.3546 11.2627C69.8197 10.8893 68.6078 10.3056 67.7189 9.51149C66.8299 8.71737 66.3884 7.64769 66.3944 6.30244C66.3884 5.20017 66.6818 4.23716 67.2744 3.41341C67.873 2.58967 68.6937 1.94667 69.7368 1.48443C70.7798 1.02218 71.965 0.791061 73.2925 0.791061C74.6437 0.791061 75.823 1.02218 76.8304 1.48443C77.8438 1.94667 78.632 2.58967 79.195 3.41341C79.758 4.23716 80.0484 5.19128 80.0661 6.27577H76.3771Z" fill="black"/>
<path d="M48.8024 11.3515V19.2453H45.0155V1.03992H48.6957V8.00026H48.8557C49.1639 7.19429 49.6617 6.56315 50.3491 6.10683C51.0366 5.64459 51.8988 5.41347 52.9359 5.41347C53.8841 5.41347 54.7108 5.62088 55.416 6.03572C56.1272 6.44463 56.6783 7.03429 57.0694 7.80469C57.4665 8.56918 57.6621 9.48478 57.6561 10.5515V19.2453H53.8693V11.2271C53.8752 10.3856 53.6619 9.73071 53.2293 9.26254C52.8026 8.79437 52.204 8.56029 51.4336 8.56029C50.918 8.56029 50.4617 8.66992 50.0647 8.88919C49.6735 9.10846 49.3654 9.42848 49.1402 9.84924C48.9209 10.2641 48.8083 10.7648 48.8024 11.3515Z" fill="black"/>
<path d="M36.4929 19.512C35.0943 19.512 33.8913 19.2156 32.8838 18.623C31.8823 18.0245 31.1119 17.1948 30.5726 16.134C30.0392 15.0732 29.7726 13.8524 29.7726 12.4716C29.7726 11.073 30.0422 9.8463 30.5815 8.79143C31.1267 7.73064 31.9001 6.90393 32.9016 6.31131C33.9031 5.71276 35.0943 5.41349 36.4751 5.41349C37.6663 5.41349 38.7093 5.62979 39.6042 6.06241C40.499 6.49502 41.2072 7.10246 41.7287 7.88472C42.2502 8.66698 42.5376 9.58554 42.591 10.6404H39.0175C38.9167 9.95889 38.65 9.41072 38.2174 8.99588C37.7907 8.57512 37.2307 8.36474 36.5373 8.36474C35.9506 8.36474 35.438 8.52475 34.9995 8.84477C34.5669 9.15886 34.2291 9.61814 33.9861 10.2226C33.7431 10.8271 33.6216 11.559 33.6216 12.4183C33.6216 13.2894 33.7402 14.0302 33.9772 14.6406C34.2202 15.251 34.5609 15.7162 34.9995 16.0362C35.438 16.3562 35.9506 16.5163 36.5373 16.5163C36.97 16.5163 37.3581 16.4274 37.7018 16.2496C38.0515 16.0718 38.3389 15.814 38.5641 15.4762C38.7952 15.1325 38.9463 14.7206 39.0175 14.2406H42.591C42.5317 15.2836 42.2472 16.2022 41.7376 16.9963C41.2339 17.7845 40.5375 18.4008 39.6486 18.8453C38.7597 19.2897 37.7078 19.512 36.4929 19.512Z" fill="black"/>
<path d="M21.5855 19.512C20.181 19.512 18.972 19.2275 17.9586 18.6586C16.9512 18.0837 16.1749 17.2718 15.6296 16.2229C15.0844 15.168 14.8118 13.9206 14.8118 12.4805C14.8118 11.076 15.0844 9.84333 15.6296 8.78254C16.1749 7.72175 16.9423 6.89504 17.932 6.30242C18.9276 5.7098 20.095 5.41349 21.4344 5.41349C22.3352 5.41349 23.1737 5.55868 23.9501 5.84906C24.7323 6.13352 25.4138 6.56317 25.9946 7.13802C26.5813 7.71286 27.0376 8.43586 27.3636 9.30701C27.6895 10.1722 27.8525 11.1856 27.8525 12.3472V13.3872H16.323V11.0404H24.2878C24.2878 10.4952 24.1693 10.0122 23.9323 9.59147C23.6952 9.17071 23.3663 8.8418 22.9456 8.60475C22.5307 8.36178 22.0477 8.24029 21.4966 8.24029C20.9218 8.24029 20.4121 8.37363 19.9676 8.64031C19.5291 8.90106 19.1854 9.25367 18.9365 9.69814C18.6876 10.1367 18.5602 10.6256 18.5542 11.1649V13.3961C18.5542 14.0717 18.6787 14.6554 18.9276 15.1473C19.1824 15.6392 19.5409 16.0184 20.0032 16.2851C20.4654 16.5518 21.0136 16.6852 21.6477 16.6852C22.0685 16.6852 22.4537 16.6259 22.8033 16.5074C23.153 16.3888 23.4523 16.2111 23.7012 15.974C23.9501 15.737 24.1397 15.4466 24.2701 15.1029L27.7725 15.334C27.5947 16.1755 27.2302 16.9103 26.6791 17.5385C26.1339 18.1608 25.4286 18.6467 24.5634 18.9964C23.7041 19.3401 22.7115 19.512 21.5855 19.512Z" fill="black"/>
<path d="M0 4.21341V1.03992H14.9518V4.21341H9.37824V19.2453H5.57361V4.21341H0Z" fill="black"/>
</svg>
