<svg width="34" height="34" viewBox="0 0 34 34" fill="none" xmlns="http://www.w3.org/2000/svg">
<g clip-path="url(#clip0_630_4094)">
<path d="M28.3333 8.5H25.2379C25.3937 8.05375 25.5 7.58625 25.5 7.08333C25.5 4.73875 23.5946 2.83334 21.25 2.83334C19.7696 2.83334 18.4662 3.59125 17.7083 4.73875L17 5.70209L16.2917 4.73875C15.5337 3.59125 14.2304 2.83334 12.75 2.83334C10.4054 2.83334 8.49998 4.73875 8.49998 7.08333C8.49998 7.58625 8.59915 8.05375 8.76207 8.5H5.66665C4.10123 8.5 2.84748 9.76792 2.84748 11.3333L2.83331 26.9167C2.83331 28.4821 4.10123 29.75 5.66665 29.75H28.3333C29.8987 29.75 31.1667 28.4821 31.1667 26.9167V11.3333C31.1667 9.76792 29.8987 8.5 28.3333 8.5ZM21.25 5.66667C22.0292 5.66667 22.6667 6.30417 22.6667 7.08333C22.6667 7.8625 22.0292 8.5 21.25 8.5C20.4708 8.5 19.8333 7.8625 19.8333 7.08333C19.8333 6.30417 20.4708 5.66667 21.25 5.66667ZM12.75 5.66667C13.5292 5.66667 14.1667 6.30417 14.1667 7.08333C14.1667 7.8625 13.5292 8.5 12.75 8.5C11.9708 8.5 11.3333 7.8625 11.3333 7.08333C11.3333 6.30417 11.9708 5.66667 12.75 5.66667ZM28.3333 26.9167H5.66665V24.0833H28.3333V26.9167ZM28.3333 19.8333H5.66665V11.3333H12.8633L9.91665 15.3496L12.2187 17L15.5833 12.4171L17 10.4904L18.4167 12.4171L21.7812 17L24.0833 15.3496L21.1367 11.3333H28.3333V19.8333Z" fill="#5E7077"/>
</g>
<defs>
<clipPath id="clip0_630_4094">
<rect width="34" height="34" fill="white"/>
</clipPath>
</defs>
</svg>
