<svg width="25" height="13" viewBox="0 0 25 13" fill="none" xmlns="http://www.w3.org/2000/svg">
<path d="M7.16615 0.263624C7.24968 0.346475 7.31598 0.445046 7.36123 0.553651C7.40648 0.662255 7.42977 0.778744 7.42977 0.896397C7.42977 1.01405 7.40648 1.13054 7.36123 1.23914C7.31598 1.34775 7.24968 1.44632 7.16615 1.52917L3.06649 5.62882H24.046C24.2824 5.62882 24.5091 5.72272 24.6762 5.88986C24.8434 6.057 24.9373 6.28368 24.9373 6.52005C24.9373 6.75642 24.8434 6.98311 24.6762 7.15025C24.5091 7.31738 24.2824 7.41128 24.046 7.41128H3.08432L7.16615 11.4842C7.33214 11.6512 7.42531 11.8771 7.42531 12.1125C7.42531 12.348 7.33214 12.5738 7.16615 12.7408C6.99917 12.9068 6.77328 13 6.53783 13C6.30238 13 6.0765 12.9068 5.90951 12.7408L0.241298 7.07261C0.165007 6.99942 0.104305 6.91155 0.0628374 6.8143C0.021368 6.71704 -7.7709e-06 6.61241 -7.7709e-06 6.50668C-7.7709e-06 6.40096 0.021368 6.29632 0.0628374 6.19907C0.104305 6.10182 0.165007 6.01395 0.241298 5.94075L5.9006 0.263624C5.98345 0.180091 6.08202 0.113788 6.19063 0.0685419C6.29923 0.0232954 6.41572 0 6.53338 0C6.65103 0 6.76752 0.0232954 6.87612 0.0685419C6.98473 0.113788 7.0833 0.180091 7.16615 0.263624Z" fill="#272935"/>
</svg>
