<svg width="27" height="27" viewBox="0 0 27 27" fill="none" xmlns="http://www.w3.org/2000/svg">
<path d="M13.4999 17.8201C15.8858 17.8201 17.8199 15.8859 17.8199 13.5001C17.8199 11.1142 15.8858 9.18006 13.4999 9.18006C11.1141 9.18006 9.17994 11.1142 9.17994 13.5001C9.17994 15.8859 11.1141 17.8201 13.4999 17.8201Z" fill="white"/>
<path d="M19.44 0H7.56C5.55497 0 3.63205 0.796498 2.21427 2.21427C0.796498 3.63205 0 5.55497 0 7.56V19.44C0 21.445 0.796498 23.368 2.21427 24.7857C3.63205 26.2035 5.55497 27 7.56 27H19.44C21.445 27 23.368 26.2035 24.7857 24.7857C26.2035 23.368 27 21.445 27 19.44V7.56C27 5.55497 26.2035 3.63205 24.7857 2.21427C23.368 0.796498 21.445 0 19.44 0ZM13.5 19.98C12.2184 19.98 10.9655 19.6 9.89991 18.8879C8.83428 18.1759 8.00372 17.1639 7.51326 15.9798C7.02281 14.7957 6.89448 13.4928 7.14451 12.2358C7.39455 10.9788 8.01171 9.8242 8.91795 8.91795C9.8242 8.01171 10.9788 7.39455 12.2358 7.14451C13.4928 6.89448 14.7957 7.02281 15.9798 7.51326C17.1639 8.00372 18.1759 8.83428 18.8879 9.89991C19.6 10.9655 19.98 12.2184 19.98 13.5C19.98 15.2186 19.2973 16.8668 18.0821 18.0821C16.8668 19.2973 15.2186 19.98 13.5 19.98ZM20.52 8.1C20.1996 8.1 19.8864 8.00499 19.62 7.82698C19.3536 7.64898 19.1459 7.39597 19.0233 7.09995C18.9007 6.80393 18.8686 6.4782 18.9311 6.16396C18.9936 5.84971 19.1479 5.56105 19.3745 5.33449C19.6011 5.10793 19.8897 4.95364 20.204 4.89113C20.5182 4.82862 20.8439 4.8607 21.14 4.98332C21.436 5.10593 21.689 5.31357 21.867 5.57998C22.045 5.84639 22.14 6.1596 22.14 6.48C22.14 6.90965 21.9693 7.32171 21.6655 7.62552C21.3617 7.92932 20.9497 8.1 20.52 8.1Z" fill="white"/>
</svg>
