<svg width="233" height="16" viewBox="0 0 233 16" fill="none" xmlns="http://www.w3.org/2000/svg">
<path d="M232.84 5.42409L231.633 5.76594C231.557 5.56463 231.445 5.36902 231.296 5.1791C231.152 4.98539 230.955 4.82586 230.704 4.70052C230.453 4.57518 230.132 4.51251 229.741 4.51251C229.206 4.51251 228.759 4.63595 228.402 4.88284C228.049 5.12593 227.872 5.43549 227.872 5.81152C227.872 6.14577 227.994 6.40975 228.237 6.60346C228.48 6.79717 228.86 6.9586 229.376 7.08774L230.675 7.40679C231.458 7.59671 232.041 7.88728 232.425 8.2785C232.808 8.66592 233 9.1654 233 9.77692C233 10.2783 232.856 10.7265 232.567 11.1215C232.282 11.5165 231.883 11.828 231.371 12.0559C230.858 12.2838 230.261 12.3977 229.582 12.3977C228.689 12.3977 227.95 12.204 227.365 11.8166C226.78 11.4292 226.41 10.8632 226.254 10.1188L227.53 9.79971C227.652 10.2707 227.882 10.6239 228.22 10.8594C228.562 11.0949 229.008 11.2127 229.559 11.2127C230.185 11.2127 230.683 11.0797 231.051 10.8138C231.424 10.5442 231.61 10.2213 231.61 9.84529C231.61 9.54142 231.503 9.28694 231.291 9.08183C231.078 8.87293 230.751 8.7172 230.311 8.61465L228.852 8.2728C228.051 8.08289 227.462 7.78852 227.086 7.3897C226.714 6.98708 226.528 6.48381 226.528 5.87989C226.528 5.38611 226.666 4.94931 226.944 4.56948C227.225 4.18965 227.606 3.89149 228.089 3.67499C228.575 3.45849 229.126 3.35023 229.741 3.35023C230.607 3.35023 231.287 3.54015 231.781 3.91998C232.278 4.2998 232.632 4.80118 232.84 5.42409Z" fill="white"/>
<path d="M219.981 12.3975C219.252 12.3975 218.608 12.2133 218.05 11.8449C217.492 11.4726 217.055 10.9485 216.74 10.2724C216.424 9.5925 216.267 8.78917 216.267 7.86239C216.267 6.9432 216.424 6.14557 216.74 5.46947C217.055 4.79338 217.494 4.27112 218.056 3.90268C218.618 3.53425 219.267 3.35004 220.004 3.35004C220.574 3.35004 221.024 3.44499 221.354 3.63491C221.689 3.82102 221.943 4.03372 222.118 4.27302C222.296 4.50851 222.435 4.70222 222.534 4.85415H222.648V0.546907H223.992V12.2152H222.693V10.8706H222.534C222.435 11.0301 222.295 11.2315 222.112 11.4745C221.93 11.7138 221.67 11.9284 221.332 12.1184C220.994 12.3045 220.544 12.3975 219.981 12.3975ZM220.164 11.1897C220.703 11.1897 221.159 11.0491 221.531 10.7681C221.903 10.4832 222.186 10.0901 222.38 9.5887C222.574 9.08353 222.671 8.5005 222.671 7.8396C222.671 7.18629 222.576 6.61465 222.386 6.12468C222.196 5.6309 221.915 5.24727 221.543 4.9738C221.17 4.69652 220.711 4.55789 220.164 4.55789C219.594 4.55789 219.119 4.70412 218.739 4.99659C218.363 5.28526 218.08 5.67838 217.89 6.17595C217.704 6.66973 217.611 7.22428 217.611 7.8396C217.611 8.46251 217.706 9.02846 217.896 9.53743C218.09 10.0426 218.375 10.4452 218.751 10.7453C219.131 11.0415 219.602 11.1897 220.164 11.1897Z" fill="white"/>
<path d="M210.974 12.2154V3.46421H212.273V4.78601H212.364C212.523 4.353 212.812 4.00166 213.23 3.73198C213.648 3.46231 214.119 3.32747 214.643 3.32747C214.742 3.32747 214.865 3.32937 215.013 3.33317C215.161 3.33696 215.273 3.34266 215.349 3.35026V4.71764C215.304 4.70624 215.199 4.68915 215.036 4.66636C214.877 4.63977 214.708 4.62648 214.529 4.62648C214.104 4.62648 213.724 4.71574 213.39 4.89426C213.059 5.06898 212.797 5.31207 212.603 5.62353C212.413 5.93119 212.318 6.28253 212.318 6.67755V12.2154H210.974Z" fill="white"/>
<path d="M204.509 12.4205C203.954 12.4205 203.451 12.3161 202.999 12.1072C202.547 11.8945 202.188 11.5887 201.922 11.1899C201.656 10.7873 201.523 10.3011 201.523 9.73134C201.523 9.22997 201.622 8.82355 201.819 8.51209C202.017 8.19683 202.281 7.94995 202.611 7.77143C202.942 7.59291 203.307 7.45997 203.705 7.37261C204.108 7.28145 204.512 7.20928 204.919 7.15611C205.451 7.08774 205.882 7.03646 206.212 7.00228C206.546 6.96429 206.79 6.90162 206.941 6.81426C207.097 6.7269 207.175 6.57497 207.175 6.35847V6.31289C207.175 5.75074 207.021 5.31394 206.714 5.00248C206.41 4.69103 205.948 4.5353 205.329 4.5353C204.687 4.5353 204.184 4.67583 203.819 4.95691C203.455 5.23798 203.198 5.53804 203.05 5.8571L201.774 5.4013C202.002 4.86954 202.306 4.45553 202.685 4.15927C203.069 3.8592 203.487 3.6503 203.939 3.53255C204.395 3.41101 204.843 3.35023 205.284 3.35023C205.565 3.35023 205.887 3.38442 206.252 3.45279C206.621 3.51736 206.976 3.6522 207.317 3.8573C207.663 4.06241 207.95 4.37197 208.178 4.78598C208.406 5.19999 208.52 5.75454 208.52 6.44963V12.2154H207.175V11.0303H207.107C207.016 11.2203 206.864 11.4235 206.651 11.64C206.438 11.8565 206.155 12.0407 205.802 12.1926C205.449 12.3446 205.018 12.4205 204.509 12.4205ZM204.714 11.2127C205.246 11.2127 205.694 11.1082 206.058 10.8993C206.427 10.6904 206.704 10.4207 206.89 10.0903C207.08 9.75983 207.175 9.41228 207.175 9.04765V7.81701C207.118 7.88538 206.993 7.94805 206.799 8.00502C206.609 8.0582 206.389 8.10568 206.138 8.14746C205.891 8.18544 205.65 8.21962 205.415 8.25001C205.183 8.2766 204.995 8.29939 204.851 8.31838C204.501 8.36396 204.174 8.43802 203.871 8.54058C203.57 8.63933 203.327 8.78937 203.141 8.99067C202.959 9.18818 202.868 9.45786 202.868 9.79971C202.868 10.2669 203.041 10.6201 203.386 10.8594C203.736 11.0949 204.178 11.2127 204.714 11.2127Z" fill="white"/>
<path d="M199.833 4.19341H198.42C198.336 3.78699 198.19 3.42995 197.981 3.12229C197.776 2.81463 197.525 2.55635 197.229 2.34745C196.936 2.13474 196.612 1.97521 196.255 1.86886C195.897 1.76251 195.525 1.70934 195.138 1.70934C194.431 1.70934 193.791 1.88785 193.218 2.24489C192.648 2.60193 192.194 3.12799 191.856 3.82308C191.522 4.51816 191.355 5.37087 191.355 6.38121C191.355 7.39156 191.522 8.24427 191.856 8.93935C192.194 9.63444 192.648 10.1605 193.218 10.5175C193.791 10.8746 194.431 11.0531 195.138 11.0531C195.525 11.0531 195.897 10.9999 196.255 10.8936C196.612 10.7872 196.936 10.6296 197.229 10.4207C197.525 10.208 197.776 9.9478 197.981 9.64014C198.19 9.32868 198.336 8.97164 198.42 8.56902H199.833C199.726 9.16535 199.532 9.69901 199.251 10.17C198.97 10.641 198.621 11.0417 198.203 11.3721C197.785 11.6988 197.316 11.9476 196.796 12.1185C196.279 12.2894 195.727 12.3749 195.138 12.3749C194.143 12.3749 193.258 12.1318 192.483 11.6456C191.708 11.1594 191.098 10.4682 190.654 9.57177C190.21 8.67537 189.987 7.61186 189.987 6.38121C189.987 5.15057 190.21 4.08706 190.654 3.19066C191.098 2.29427 191.708 1.60298 192.483 1.1168C193.258 0.630625 194.143 0.387535 195.138 0.387535C195.727 0.387535 196.279 0.472997 196.796 0.643919C197.316 0.814842 197.785 1.06553 198.203 1.39598C198.621 1.72263 198.97 2.12145 199.251 2.59243C199.532 3.05962 199.726 3.59328 199.833 4.19341Z" fill="white"/>
<path d="M183.726 3.46416V4.60364H179.191V3.46416H183.726ZM180.513 1.36751H181.857V9.70853C181.857 10.0884 181.912 10.3732 182.022 10.5631C182.136 10.7493 182.281 10.8746 182.455 10.9392C182.634 10.9999 182.822 11.0303 183.019 11.0303C183.168 11.0303 183.289 11.0227 183.384 11.0075C183.479 10.9885 183.555 10.9734 183.612 10.962L183.885 12.1698C183.794 12.204 183.667 12.2382 183.504 12.2724C183.34 12.3103 183.133 12.3293 182.883 12.3293C182.503 12.3293 182.131 12.2477 181.766 12.0843C181.405 11.921 181.105 11.6722 180.866 11.338C180.63 11.0037 180.513 10.5821 180.513 10.0732V1.36751Z" fill="white"/>
<path d="M178.036 3.46403V4.60351H173.318V3.46403H178.036ZM174.731 12.2153V2.25618C174.731 1.7548 174.849 1.33699 175.084 1.00274C175.32 0.668496 175.626 0.41781 176.002 0.250686C176.378 0.0835621 176.775 0 177.192 0C177.523 0 177.793 0.0265881 178.001 0.0797643C178.21 0.13294 178.366 0.182317 178.469 0.227897L178.081 1.39017C178.013 1.36738 177.918 1.33889 177.796 1.30471C177.679 1.27052 177.523 1.25343 177.329 1.25343C176.885 1.25343 176.564 1.36548 176.366 1.58958C176.173 1.81368 176.076 2.14223 176.076 2.57523V12.2153H174.731Z" fill="white"/>
<path d="M170.331 12.2153V3.46409H171.676V12.2153H170.331ZM171.015 2.00556C170.753 2.00556 170.527 1.9163 170.337 1.73778C170.151 1.55926 170.058 1.34466 170.058 1.09397C170.058 0.843284 170.151 0.628681 170.337 0.450162C170.527 0.271643 170.753 0.182384 171.015 0.182384C171.277 0.182384 171.501 0.271643 171.687 0.450162C171.877 0.628681 171.972 0.843284 171.972 1.09397C171.972 1.34466 171.877 1.55926 171.687 1.73778C171.501 1.9163 171.277 2.00556 171.015 2.00556Z" fill="white"/>
<path d="M166.018 4.19341C165.893 3.80978 165.728 3.46604 165.523 3.16218C165.321 2.85452 165.08 2.59243 164.799 2.37593C164.522 2.15943 164.207 1.99421 163.853 1.88026C163.5 1.76631 163.113 1.70934 162.691 1.70934C162 1.70934 161.371 1.88785 160.805 2.24489C160.239 2.60193 159.789 3.12799 159.455 3.82308C159.121 4.51816 158.954 5.37087 158.954 6.38121C158.954 7.39156 159.123 8.24427 159.461 8.93935C159.799 9.63444 160.256 10.1605 160.834 10.5175C161.411 10.8746 162.061 11.0531 162.782 11.0531C163.451 11.0531 164.039 10.9107 164.548 10.6258C165.061 10.3371 165.46 9.9307 165.745 9.40654C166.034 8.87858 166.178 8.25756 166.178 7.54349L166.611 7.63465H163.101V6.38121H167.545V7.63465C167.545 8.59561 167.34 9.43123 166.93 10.1415C166.524 10.8518 165.961 11.4025 165.244 11.7938C164.529 12.1812 163.709 12.3749 162.782 12.3749C161.749 12.3749 160.841 12.1318 160.059 11.6456C159.28 11.1594 158.673 10.4682 158.236 9.57177C157.803 8.67537 157.586 7.61186 157.586 6.38121C157.586 5.45823 157.71 4.62831 157.957 3.89144C158.207 3.15078 158.56 2.52027 159.016 1.9999C159.472 1.47954 160.011 1.08072 160.634 0.803447C161.257 0.526173 161.943 0.387535 162.691 0.387535C163.306 0.387535 163.88 0.480593 164.412 0.666709C164.947 0.849026 165.424 1.10921 165.842 1.44725C166.263 1.7815 166.615 2.18222 166.896 2.64941C167.177 3.1128 167.371 3.62746 167.477 4.19341H166.018Z" fill="white"/>
<path d="M145.213 6.9508V12.2152H143.868V0.546907H145.213V4.83136H145.327C145.532 4.37937 145.84 4.02043 146.25 3.75455C146.664 3.48487 147.215 3.35004 147.902 3.35004C148.498 3.35004 149.021 3.46968 149.469 3.70897C149.917 3.94447 150.265 4.3072 150.511 4.79718C150.762 5.28336 150.887 5.90248 150.887 6.65454V12.2152H149.543V6.74569C149.543 6.05061 149.362 5.51315 149.002 5.13333C148.645 4.7497 148.149 4.55789 147.515 4.55789C147.074 4.55789 146.679 4.65094 146.33 4.83706C145.984 5.02318 145.71 5.29475 145.509 5.65179C145.312 6.00883 145.213 6.44183 145.213 6.9508Z" fill="white"/>
<path d="M141.658 3.46416V4.60364H137.123V3.46416H141.658ZM138.444 1.36751H139.789V9.70853C139.789 10.0884 139.844 10.3732 139.954 10.5631C140.068 10.7493 140.212 10.8746 140.387 10.9392C140.566 10.9999 140.754 11.0303 140.951 11.0303C141.099 11.0303 141.221 11.0227 141.316 11.0075C141.411 10.9885 141.487 10.9734 141.544 10.962L141.817 12.1698C141.726 12.204 141.599 12.2382 141.435 12.2724C141.272 12.3103 141.065 12.3293 140.814 12.3293C140.435 12.3293 140.062 12.2477 139.698 12.0843C139.337 11.921 139.037 11.6722 138.798 11.338C138.562 11.0037 138.444 10.5821 138.444 10.0732V1.36751Z" fill="white"/>
<path d="M134.044 12.2153V3.46409H135.389V12.2153H134.044ZM134.728 2.00556C134.466 2.00556 134.24 1.9163 134.05 1.73778C133.864 1.55926 133.771 1.34466 133.771 1.09397C133.771 0.843284 133.864 0.628681 134.05 0.450162C134.24 0.271643 134.466 0.182384 134.728 0.182384C134.99 0.182384 135.214 0.271643 135.4 0.450162C135.59 0.628681 135.685 0.843284 135.685 1.09397C135.685 1.34466 135.59 1.55926 135.4 1.73778C135.214 1.9163 134.99 2.00556 134.728 2.00556Z" fill="white"/>
<path d="M122.991 12.2153L120.325 3.46407H121.738L123.63 10.1642H123.721L125.59 3.46407H127.025L128.871 10.1414H128.962L130.854 3.46407H132.267L129.6 12.2153H128.279L126.364 5.49235H126.228L124.313 12.2153H122.991Z" fill="white"/>
<path d="M110.828 12.3977C109.984 12.3977 109.257 12.2116 108.645 11.8394C108.038 11.4634 107.569 10.9392 107.238 10.2669C106.911 9.5908 106.748 8.80456 106.748 7.90817C106.748 7.01177 106.911 6.22173 107.238 5.53804C107.569 4.85055 108.028 4.315 108.617 3.93137C109.209 3.54395 109.901 3.35023 110.691 3.35023C111.147 3.35023 111.597 3.4262 112.041 3.57813C112.485 3.73006 112.89 3.97695 113.255 4.3188C113.619 4.65684 113.91 5.10504 114.126 5.66338C114.343 6.22173 114.451 6.90922 114.451 7.72585V8.29559H107.705V7.13332H113.084C113.084 6.63954 112.985 6.19894 112.787 5.81152C112.594 5.42409 112.316 5.11833 111.956 4.89423C111.599 4.67014 111.177 4.55809 110.691 4.55809C110.155 4.55809 109.692 4.69103 109.301 4.95691C108.913 5.21899 108.615 5.56083 108.406 5.98244C108.197 6.40405 108.093 6.85604 108.093 7.33842V8.11327C108.093 8.77417 108.207 9.33442 108.435 9.79401C108.666 10.2498 108.987 10.5973 109.397 10.8366C109.808 11.0721 110.284 11.1899 110.828 11.1899C111.181 11.1899 111.5 11.1405 111.785 11.0417C112.073 10.9392 112.322 10.7873 112.531 10.586C112.74 10.3808 112.901 10.1264 113.015 9.8225L114.314 10.1871C114.178 10.6277 113.948 11.0152 113.625 11.3494C113.302 11.6799 112.903 11.9381 112.428 12.1243C111.954 12.3066 111.42 12.3977 110.828 12.3977Z" fill="white"/>
<path d="M99.1179 6.951V12.2154H97.7733V3.46418H99.0723V4.83156H99.1863C99.3914 4.38716 99.7028 4.03013 100.121 3.76045C100.538 3.48697 101.078 3.35023 101.739 3.35023C102.331 3.35023 102.85 3.47178 103.294 3.71487C103.739 3.95416 104.084 4.3188 104.331 4.80877C104.578 5.29495 104.701 5.91027 104.701 6.65474V12.2154H103.357V6.74589C103.357 6.05841 103.178 5.52285 102.821 5.13922C102.464 4.7518 101.974 4.55809 101.351 4.55809C100.922 4.55809 100.538 4.65114 100.2 4.83726C99.8662 5.02338 99.6022 5.29495 99.4085 5.65199C99.2148 6.00903 99.1179 6.44203 99.1179 6.951Z" fill="white"/>
<path d="M93.966 12.2153V3.46409H95.3106V12.2153H93.966ZM94.6497 2.00556C94.3876 2.00556 94.1616 1.9163 93.9717 1.73778C93.7856 1.55926 93.6925 1.34466 93.6925 1.09397C93.6925 0.843284 93.7856 0.628681 93.9717 0.450162C94.1616 0.271643 94.3876 0.182384 94.6497 0.182384C94.9118 0.182384 95.1359 0.271643 95.322 0.450162C95.5119 0.628681 95.6069 0.843284 95.6069 1.09397C95.6069 1.34466 95.5119 1.55926 95.322 1.73778C95.1359 1.9163 94.9118 2.00556 94.6497 2.00556Z" fill="white"/>
<path d="M91.7825 5.42409L90.5746 5.76594C90.4987 5.56463 90.3866 5.36902 90.2385 5.1791C90.0942 4.98539 89.8966 4.82586 89.646 4.70052C89.3953 4.57518 89.0743 4.51251 88.6831 4.51251C88.1475 4.51251 87.7012 4.63595 87.3442 4.88284C86.991 5.12593 86.8143 5.43549 86.8143 5.81152C86.8143 6.14577 86.9359 6.40975 87.179 6.60346C87.4221 6.79717 87.8019 6.9586 88.3185 7.08774L89.6175 7.40679C90.3999 7.59671 90.9829 7.88728 91.3666 8.2785C91.7502 8.66592 91.942 9.1654 91.942 9.77692C91.942 10.2783 91.7977 10.7265 91.509 11.1215C91.2241 11.5165 90.8253 11.828 90.3126 12.0559C89.7998 12.2838 89.2035 12.3977 88.5236 12.3977C87.631 12.3977 86.8922 12.204 86.3073 11.8166C85.7223 11.4292 85.352 10.8632 85.1963 10.1188L86.4725 9.79971C86.594 10.2707 86.8238 10.6239 87.1619 10.8594C87.5037 11.0949 87.95 11.2127 88.5008 11.2127C89.1275 11.2127 89.6251 11.0797 89.9935 10.8138C90.3657 10.5442 90.5518 10.2213 90.5518 9.84529C90.5518 9.54142 90.4455 9.28694 90.2328 9.08183C90.0201 8.87293 89.6934 8.7172 89.2528 8.61465L87.7943 8.2728C86.9929 8.08289 86.4041 7.78852 86.0281 7.3897C85.6559 6.98708 85.4698 6.48381 85.4698 5.87989C85.4698 5.38611 85.6084 4.94931 85.8857 4.56948C86.1667 4.18965 86.5485 3.89149 87.0308 3.67499C87.517 3.45849 88.0678 3.35023 88.6831 3.35023C89.5491 3.35023 90.229 3.54015 90.7228 3.91998C91.2203 4.2998 91.5736 4.80118 91.7825 5.42409Z" fill="white"/>
<path d="M81.7764 12.2153V3.46409H83.121V12.2153H81.7764ZM82.4601 2.00556C82.198 2.00556 81.972 1.9163 81.7821 1.73778C81.596 1.55926 81.5029 1.34466 81.5029 1.09397C81.5029 0.843284 81.596 0.628681 81.7821 0.450162C81.972 0.271643 82.198 0.182384 82.4601 0.182384C82.7222 0.182384 82.9463 0.271643 83.1324 0.450162C83.3223 0.628681 83.4173 0.843284 83.4173 1.09397C83.4173 1.34466 83.3223 1.55926 83.1324 1.73778C82.9463 1.9163 82.7222 2.00556 82.4601 2.00556Z" fill="white"/>
<path d="M77.9691 8.63732V3.46407H79.3137V12.2153H77.9691V10.734H77.8779C77.6728 11.1784 77.3538 11.5563 76.9208 11.8678C76.4878 12.1754 75.9408 12.3292 75.2799 12.3292C74.733 12.3292 74.2468 12.2096 73.8214 11.9703C73.396 11.7272 73.0617 11.3626 72.8186 10.8764C72.5756 10.3864 72.454 9.76921 72.454 9.02475V3.46407H73.7986V8.93359C73.7986 9.5717 73.9771 10.0807 74.3341 10.4605C74.695 10.8403 75.1546 11.0302 75.7129 11.0302C76.0472 11.0302 76.3871 10.9448 76.7328 10.7739C77.0822 10.6029 77.3747 10.3409 77.6102 9.98761C77.8495 9.63437 77.9691 9.18428 77.9691 8.63732Z" fill="white"/>
<path d="M70.3531 4.19341H68.9401C68.8566 3.78699 68.7103 3.42995 68.5014 3.12229C68.2963 2.81463 68.0456 2.55635 67.7494 2.34745C67.4569 2.13474 67.1321 1.97521 66.7751 1.86886C66.4181 1.76251 66.0458 1.70934 65.6584 1.70934C64.9519 1.70934 64.3119 1.88785 63.7384 2.24489C63.1686 2.60193 62.7147 3.12799 62.3767 3.82308C62.0424 4.51816 61.8753 5.37087 61.8753 6.38121C61.8753 7.39156 62.0424 8.24427 62.3767 8.93935C62.7147 9.63444 63.1686 10.1605 63.7384 10.5175C64.3119 10.8746 64.9519 11.0531 65.6584 11.0531C66.0458 11.0531 66.4181 10.9999 66.7751 10.8936C67.1321 10.7872 67.4569 10.6296 67.7494 10.4207C68.0456 10.208 68.2963 9.9478 68.5014 9.64014C68.7103 9.32868 68.8566 8.97164 68.9401 8.56902H70.3531C70.2467 9.16535 70.053 9.69901 69.7719 10.17C69.4909 10.641 69.1414 11.0417 68.7236 11.3721C68.3058 11.6988 67.8367 11.9476 67.3164 12.1185C66.7998 12.2894 66.2471 12.3749 65.6584 12.3749C64.6633 12.3749 63.7783 12.1318 63.0034 11.6456C62.2286 11.1594 61.6189 10.4682 61.1745 9.57177C60.7301 8.67537 60.5079 7.61186 60.5079 6.38121C60.5079 5.15057 60.7301 4.08706 61.1745 3.19066C61.6189 2.29427 62.2286 1.60298 63.0034 1.1168C63.7783 0.630625 64.6633 0.387535 65.6584 0.387535C66.2471 0.387535 66.7998 0.472997 67.3164 0.643919C67.8367 0.814842 68.3058 1.06553 68.7236 1.39598C69.1414 1.72263 69.4909 2.12145 69.7719 2.59243C70.053 3.05962 70.2467 3.59328 70.3531 4.19341Z" fill="white"/>
<path d="M50.6002 12.3977C49.7569 12.3977 49.0296 12.2116 48.418 11.8394C47.8103 11.4634 47.3412 10.9392 47.0108 10.2669C46.6841 9.5908 46.5208 8.80456 46.5208 7.90817C46.5208 7.01177 46.6841 6.22173 47.0108 5.53804C47.3412 4.85055 47.8008 4.315 48.3896 3.93137C48.9821 3.54395 49.6734 3.35023 50.4634 3.35023C50.9192 3.35023 51.3693 3.4262 51.8137 3.57813C52.2581 3.73006 52.6626 3.97695 53.0273 4.3188C53.3919 4.65684 53.6825 5.10504 53.899 5.66338C54.1155 6.22173 54.2237 6.90922 54.2237 7.72585V8.29559H47.478V7.13332H52.8563C52.8563 6.63954 52.7576 6.19894 52.5601 5.81152C52.3664 5.42409 52.0891 5.11833 51.7282 4.89423C51.3712 4.67014 50.9496 4.55809 50.4634 4.55809C49.9279 4.55809 49.4645 4.69103 49.0732 4.95691C48.6858 5.21899 48.3877 5.56083 48.1788 5.98244C47.9698 6.40405 47.8654 6.85604 47.8654 7.33842V8.11327C47.8654 8.77417 47.9793 9.33442 48.2072 9.79401C48.4389 10.2498 48.7599 10.5973 49.1701 10.8366C49.5803 11.0721 50.057 11.1899 50.6002 11.1899C50.9534 11.1899 51.2724 11.1405 51.5573 11.0417C51.846 10.9392 52.0948 10.7873 52.3037 10.586C52.5126 10.3808 52.674 10.1264 52.788 9.8225L54.087 10.1871C53.9502 10.6277 53.7204 11.0152 53.3976 11.3494C53.0747 11.6799 52.6759 11.9381 52.2011 12.1243C51.7263 12.3066 51.1927 12.3977 50.6002 12.3977Z" fill="white"/>
<path d="M41.2279 12.2154V3.46421H42.5269V4.78601H42.6181C42.7776 4.353 43.0663 4.00166 43.4841 3.73198C43.9019 3.46231 44.3729 3.32747 44.897 3.32747C44.9958 3.32747 45.1192 3.32937 45.2674 3.33317C45.4155 3.33696 45.5276 3.34266 45.6035 3.35026V4.71764C45.5579 4.70624 45.4535 4.68915 45.2902 4.66636C45.1306 4.63977 44.9616 4.62648 44.7831 4.62648C44.3577 4.62648 43.9779 4.71574 43.6436 4.89426C43.3132 5.06898 43.0511 5.31207 42.8574 5.62353C42.6675 5.93119 42.5725 6.28253 42.5725 6.67755V12.2154H41.2279Z" fill="white"/>
<path d="M35.21 12.3977C34.42 12.3977 33.7268 12.2097 33.1305 11.8337C32.5379 11.4577 32.0745 10.9316 31.7403 10.2555C31.4098 9.57941 31.2446 8.78937 31.2446 7.88538C31.2446 6.97379 31.4098 6.17805 31.7403 5.49816C32.0745 4.81827 32.5379 4.29031 33.1305 3.91428C33.7268 3.53825 34.42 3.35023 35.21 3.35023C36.0001 3.35023 36.6913 3.53825 37.2839 3.91428C37.8802 4.29031 38.3436 4.81827 38.674 5.49816C39.0083 6.17805 39.1754 6.97379 39.1754 7.88538C39.1754 8.78937 39.0083 9.57941 38.674 10.2555C38.3436 10.9316 37.8802 11.4577 37.2839 11.8337C36.6913 12.2097 36.0001 12.3977 35.21 12.3977ZM35.21 11.1899C35.8101 11.1899 36.3039 11.036 36.6913 10.7284C37.0788 10.4207 37.3655 10.0162 37.5517 9.51484C37.7378 9.01346 37.8308 8.47031 37.8308 7.88538C37.8308 7.30044 37.7378 6.75539 37.5517 6.25022C37.3655 5.74505 37.0788 5.33673 36.6913 5.02527C36.3039 4.71382 35.8101 4.55809 35.21 4.55809C34.6099 4.55809 34.1161 4.71382 33.7287 5.02527C33.3413 5.33673 33.0545 5.74505 32.8684 6.25022C32.6823 6.75539 32.5892 7.30044 32.5892 7.88538C32.5892 8.47031 32.6823 9.01346 32.8684 9.51484C33.0545 10.0162 33.3413 10.4207 33.7287 10.7284C34.1161 11.036 34.6099 11.1899 35.21 11.1899Z" fill="white"/>
<path d="M29.1921 0.546907V12.2152H27.8475V0.546907H29.1921Z" fill="white"/>
<path d="M18.0708 15.4971V3.46418H19.3698V4.85435H19.5293C19.6281 4.70242 19.7648 4.50871 19.9395 4.27322C20.118 4.03392 20.3725 3.82122 20.703 3.63511C21.0372 3.44519 21.4892 3.35023 22.059 3.35023C22.7958 3.35023 23.4453 3.53445 24.0075 3.90288C24.5696 4.27132 25.0083 4.79358 25.3236 5.46967C25.6388 6.14577 25.7965 6.9434 25.7965 7.86259C25.7965 8.78937 25.6388 9.5927 25.3236 10.2726C25.0083 10.9487 24.5715 11.4728 24.0132 11.8451C23.4548 12.2135 22.811 12.3977 22.0817 12.3977C21.5196 12.3977 21.0695 12.3047 20.7315 12.1186C20.3934 11.9286 20.1332 11.714 19.9509 11.4747C19.7686 11.2317 19.6281 11.0303 19.5293 10.8708H19.4154V15.4971H18.0708ZM19.3926 7.8398C19.3926 8.5007 19.4894 9.08373 19.6831 9.5889C19.8768 10.0903 20.1598 10.4834 20.532 10.7683C20.9043 11.0493 21.3601 11.1899 21.8994 11.1899C22.4616 11.1899 22.9307 11.0417 23.3067 10.7455C23.6865 10.4454 23.9714 10.0428 24.1613 9.53763C24.355 9.02866 24.4519 8.46271 24.4519 7.8398C24.4519 7.22448 24.3569 6.66993 24.167 6.17615C23.9809 5.67858 23.6979 5.28546 23.3181 4.99679C22.9421 4.70432 22.4692 4.55809 21.8994 4.55809C21.3525 4.55809 20.8929 4.69672 20.5207 4.974C20.1484 5.24747 19.8674 5.6311 19.6774 6.12487C19.4875 6.61485 19.3926 7.18649 19.3926 7.8398Z" fill="white"/>
<path d="M10.4092 3.46407L12.5058 7.04205L14.6025 3.46407H16.1522L13.3263 7.83969L16.1522 12.2153H14.6025L12.5058 8.81964L10.4092 12.2153H8.85949L11.6398 7.83969L8.85949 3.46407H10.4092Z" fill="white"/>
<path d="M0 12.2152V0.546907H7.042V1.80034H1.41296V5.74295H6.67737V6.99638H1.41296V10.9618H7.13316V12.2152H0Z" fill="white"/>
</svg>
