<svg width="26" height="26" viewBox="0 0 26 26" fill="none" xmlns="http://www.w3.org/2000/svg">
<path d="M13.0001 2.16666C10.8575 2.16666 8.76294 2.80202 6.98141 3.9924C5.19988 5.18278 3.81134 6.87472 2.99139 8.85425C2.17144 10.8338 1.95691 13.012 2.37491 15.1135C2.79292 17.2149 3.82469 19.1452 5.33976 20.6603C6.85483 22.1754 8.78515 23.2072 10.8866 23.6252C12.9881 24.0432 15.1663 23.8286 17.1458 23.0087C19.1254 22.1887 20.8173 20.8002 22.0077 19.0187C23.1981 17.2371 23.8334 15.1426 23.8334 13C23.8334 11.5773 23.5532 10.1686 23.0088 8.85425C22.4644 7.53989 21.6664 6.34563 20.6604 5.33967C19.6544 4.3337 18.4602 3.53572 17.1458 2.99129C15.8315 2.44687 14.4227 2.16666 13.0001 2.16666ZM12.4584 5.41666C12.7798 5.41666 13.094 5.51196 13.3612 5.69052C13.6285 5.86908 13.8367 6.12287 13.9597 6.4198C14.0827 6.71673 14.1149 7.04346 14.0522 7.35868C13.9895 7.6739 13.8347 7.96345 13.6075 8.19071C13.3802 8.41797 13.0907 8.57273 12.7754 8.63543C12.4602 8.69813 12.1335 8.66595 11.8366 8.54296C11.5396 8.41997 11.2858 8.21169 11.1073 7.94446C10.9287 7.67723 10.8334 7.36305 10.8334 7.04166C10.8334 6.61068 11.0046 6.19735 11.3094 5.89261C11.6141 5.58786 12.0274 5.41666 12.4584 5.41666ZM15.1668 19.5H14.0834C13.5088 19.5 12.9577 19.2717 12.5514 18.8654C12.145 18.4591 11.9168 17.908 11.9168 17.3333V13C11.6294 13 11.3539 12.8859 11.1507 12.6827C10.9476 12.4795 10.8334 12.204 10.8334 11.9167C10.8334 11.6293 10.9476 11.3538 11.1507 11.1506C11.3539 10.9475 11.6294 10.8333 11.9168 10.8333H13.0001C13.2874 10.8333 13.563 10.9475 13.7661 11.1506C13.9693 11.3538 14.0834 11.6293 14.0834 11.9167V17.3333H15.1668C15.4541 17.3333 15.7296 17.4475 15.9328 17.6506C16.136 17.8538 16.2501 18.1293 16.2501 18.4167C16.2501 18.704 16.136 18.9795 15.9328 19.1827C15.7296 19.3859 15.4541 19.5 15.1668 19.5Z" fill="#262834"/>
</svg>
