<svg width="74" height="19" viewBox="0 0 74 19" fill="none" xmlns="http://www.w3.org/2000/svg">
<path d="M65.3105 5.22558L67.9618 10.075L70.6559 5.22558H73.9316L69.9717 11.794L74 18.3625H70.7414L67.9618 13.6329L65.2078 18.3625H61.9236L65.9263 11.794L62.0262 5.22558H65.3105Z" fill="black"/>
<path d="M56.4991 18.3626V5.22569H59.5951V18.3626H56.4991ZM58.0556 3.36121C57.5653 3.36121 57.1434 3.19871 56.7899 2.8737C56.4363 2.543 56.2596 2.14672 56.2596 1.68488C56.2596 1.21733 56.4363 0.821058 56.7899 0.496055C57.1434 0.165352 57.5653 0 58.0556 0C58.5517 0 58.9736 0.165352 59.3214 0.496055C59.675 0.821058 59.8517 1.21733 59.8517 1.68488C59.8517 2.14672 59.675 2.543 59.3214 2.8737C58.9736 3.19871 58.5517 3.36121 58.0556 3.36121Z" fill="black"/>
<path d="M53.3153 0.846716V18.3626H50.2193V0.846716H53.3153Z" fill="black"/>
<path d="M47.7946 5.22576V7.62051H40.0287V5.22576H47.7946ZM41.9702 18.3627V3.98562C41.9702 3.10184 42.1526 2.36631 42.5175 1.77903C42.8882 1.19174 43.3842 0.752704 44.0057 0.461912C44.6272 0.171121 45.3171 0.0257249 46.0755 0.0257249C46.6114 0.0257249 47.0875 0.0684887 47.5038 0.154016C47.92 0.239543 48.2279 0.316517 48.4275 0.384939L47.8117 2.77969C47.6805 2.73978 47.5152 2.69987 47.3156 2.65995C47.116 2.61434 46.8937 2.59153 46.6485 2.59153C46.0726 2.59153 45.6649 2.73123 45.4255 3.01061C45.1917 3.2843 45.0748 3.67772 45.0748 4.19088V18.3627H41.9702Z" fill="black"/>
<path d="M38.5512 5.22571V7.62047H30.9992V5.22571H38.5512ZM32.8637 2.07833H35.9598V14.4113C35.9598 14.8275 36.0225 15.1468 36.1479 15.3692C36.2791 15.5859 36.4501 15.7341 36.6611 15.8139C36.8721 15.8938 37.1058 15.9337 37.3624 15.9337C37.5563 15.9337 37.733 15.9194 37.8927 15.8909C38.058 15.8624 38.1835 15.8368 38.269 15.8139L38.7907 18.2344C38.6254 18.2914 38.3887 18.3541 38.0808 18.4225C37.7786 18.4909 37.408 18.5308 36.969 18.5423C36.1936 18.5651 35.4951 18.4482 34.8736 18.1916C34.2521 17.9293 33.7589 17.5245 33.394 16.9771C33.0348 16.4297 32.858 15.7455 32.8637 14.9245V2.07833Z" fill="black"/>
<path d="M23.5306 18.6191C22.2135 18.6191 21.076 18.3455 20.1181 17.7981C19.1659 17.245 18.4332 16.4639 17.92 15.4546C17.4069 14.4397 17.1503 13.2452 17.1503 11.8711C17.1503 10.5197 17.4069 9.33377 17.92 8.31315C18.4389 7.28682 19.163 6.48857 20.0924 5.91839C21.0218 5.34251 22.1137 5.05457 23.3681 5.05457C24.1777 5.05457 24.9418 5.18571 25.6602 5.448C26.3843 5.70458 27.0229 6.1037 27.576 6.64537C28.1348 7.18704 28.5738 7.87696 28.8931 8.71512C29.2124 9.54759 29.3721 10.5397 29.3721 11.6915V12.6408H18.6042V10.554H26.4043C26.3986 9.96096 26.2703 9.43355 26.0194 8.9717C25.7685 8.50416 25.4179 8.13639 24.9674 7.86841C24.5227 7.60042 24.0038 7.46643 23.4109 7.46643C22.778 7.46643 22.222 7.62038 21.7431 7.92828C21.2641 8.23047 20.8907 8.6296 20.6227 9.12565C20.3604 9.61601 20.2264 10.1548 20.2207 10.7421V12.5638C20.2207 13.3279 20.3604 13.9836 20.6398 14.531C20.9192 15.0726 21.3097 15.4889 21.8115 15.7796C22.3133 16.0647 22.9005 16.2073 23.5734 16.2073C24.0238 16.2073 24.4315 16.1446 24.7964 16.0191C25.1613 15.888 25.4778 15.697 25.7457 15.4461C26.0137 15.1952 26.2161 14.8845 26.353 14.5138L29.2438 14.8388C29.0613 15.6029 28.7135 16.27 28.2004 16.8402C27.6929 17.4047 27.0429 17.8437 26.2504 18.1573C25.4578 18.4652 24.5512 18.6191 23.5306 18.6191Z" fill="black"/>
<path d="M14.3942 0.846716V18.3626H11.5718L3.31844 6.43162H3.17305V18.3626H0V0.846716H2.83949L11.0843 12.7863H11.2382V0.846716H14.3942Z" fill="black"/>
</svg>
