<svg width="22" height="25" viewBox="0 0 22 25" fill="none" xmlns="http://www.w3.org/2000/svg">
<g clip-path="url(#clip0_202_504)">
<path d="M7.26786 14.0625H5.30357C4.97946 14.0625 4.71429 13.7988 4.71429 13.4766V11.5234C4.71429 11.2012 4.97946 10.9375 5.30357 10.9375H7.26786C7.59196 10.9375 7.85714 11.2012 7.85714 11.5234V13.4766C7.85714 13.7988 7.59196 14.0625 7.26786 14.0625ZM12.5714 13.4766V11.5234C12.5714 11.2012 12.3062 10.9375 11.9821 10.9375H10.0179C9.69375 10.9375 9.42857 11.2012 9.42857 11.5234V13.4766C9.42857 13.7988 9.69375 14.0625 10.0179 14.0625H11.9821C12.3062 14.0625 12.5714 13.7988 12.5714 13.4766ZM17.2857 13.4766V11.5234C17.2857 11.2012 17.0205 10.9375 16.6964 10.9375H14.7321C14.408 10.9375 14.1429 11.2012 14.1429 11.5234V13.4766C14.1429 13.7988 14.408 14.0625 14.7321 14.0625H16.6964C17.0205 14.0625 17.2857 13.7988 17.2857 13.4766ZM12.5714 18.1641V16.2109C12.5714 15.8887 12.3062 15.625 11.9821 15.625H10.0179C9.69375 15.625 9.42857 15.8887 9.42857 16.2109V18.1641C9.42857 18.4863 9.69375 18.75 10.0179 18.75H11.9821C12.3062 18.75 12.5714 18.4863 12.5714 18.1641ZM7.85714 18.1641V16.2109C7.85714 15.8887 7.59196 15.625 7.26786 15.625H5.30357C4.97946 15.625 4.71429 15.8887 4.71429 16.2109V18.1641C4.71429 18.4863 4.97946 18.75 5.30357 18.75H7.26786C7.59196 18.75 7.85714 18.4863 7.85714 18.1641ZM17.2857 18.1641V16.2109C17.2857 15.8887 17.0205 15.625 16.6964 15.625H14.7321C14.408 15.625 14.1429 15.8887 14.1429 16.2109V18.1641C14.1429 18.4863 14.408 18.75 14.7321 18.75H16.6964C17.0205 18.75 17.2857 18.4863 17.2857 18.1641ZM22 5.46875V22.6562C22 23.9502 20.9442 25 19.6429 25H2.35714C1.0558 25 0 23.9502 0 22.6562V5.46875C0 4.1748 1.0558 3.125 2.35714 3.125H4.71429V0.585938C4.71429 0.263672 4.97946 0 5.30357 0H7.26786C7.59196 0 7.85714 0.263672 7.85714 0.585938V3.125H14.1429V0.585938C14.1429 0.263672 14.408 0 14.7321 0H16.6964C17.0205 0 17.2857 0.263672 17.2857 0.585938V3.125H19.6429C20.9442 3.125 22 4.1748 22 5.46875ZM19.6429 22.3633V7.8125H2.35714V22.3633C2.35714 22.5244 2.48973 22.6562 2.65179 22.6562H19.3482C19.5103 22.6562 19.6429 22.5244 19.6429 22.3633Z" fill="#262834"/>
</g>
<defs>
<clipPath id="clip0_202_504">
<rect width="22" height="25" fill="white"/>
</clipPath>
</defs>
</svg>
