<svg width="387" height="50" viewBox="0 0 387 50" fill="none" xmlns="http://www.w3.org/2000/svg">
<g filter="url(#filter0_d_156_679)">
<path d="M0 25C0 11.1929 11.1929 0 25 0H362C375.807 0 387 11.1929 387 25C387 38.8071 375.807 50 362 50H25C11.1929 50 0 38.8071 0 25Z" fill="white"/>
</g>
<g filter="url(#filter1_d_156_679)">
<path fill-rule="evenodd" clip-rule="evenodd" d="M362 1H25C11.7452 1 1 11.7452 1 25C1 38.2548 11.7452 49 25 49H362C375.255 49 386 38.2548 386 25C386 11.7452 375.255 1 362 1ZM25 0C11.1929 0 0 11.1929 0 25C0 38.8071 11.1929 50 25 50H362C375.807 50 387 38.8071 387 25C387 11.1929 375.807 0 362 0H25Z" fill="white"/>
</g>
<path d="M186.349 17.3636V18.3864C186.349 18.697 186.293 19.0284 186.179 19.3807C186.069 19.7292 185.906 20.0682 185.69 20.3977C185.478 20.7235 185.221 21.0076 184.918 21.25L184.366 20.7671C184.651 20.4337 184.891 20.0644 185.088 19.6591C185.285 19.25 185.384 18.8315 185.384 18.4034V17.3636H186.349ZM189.02 17.3636V18.3864C189.02 18.697 188.963 19.0284 188.849 19.3807C188.74 19.7292 188.577 20.0682 188.361 20.3977C188.149 20.7235 187.891 21.0076 187.588 21.25L187.031 20.7671C187.319 20.4337 187.56 20.0644 187.753 19.6591C187.95 19.25 188.048 18.8315 188.048 18.4034V17.3636H189.02Z" fill="#262834"/>
<path d="M178.758 29.1818C178.043 29.1818 177.416 28.9924 176.878 28.6136C176.34 28.2349 175.919 27.7065 175.616 27.0284C175.317 26.3504 175.168 25.5606 175.168 24.6591C175.168 23.7614 175.317 22.9754 175.616 22.3011C175.919 21.6231 176.342 21.0966 176.883 20.7216C177.425 20.3428 178.056 20.1534 178.776 20.1534C179.306 20.1534 179.747 20.2481 180.099 20.4375C180.452 20.6231 180.734 20.8542 180.946 21.1307C181.158 21.4072 181.323 21.6761 181.44 21.9375H181.531V17.3636H182.548V29H181.56V27.3807H181.44C181.323 27.6458 181.156 27.9186 180.94 28.1989C180.724 28.4754 180.438 28.7083 180.082 28.8977C179.73 29.0871 179.289 29.1818 178.758 29.1818ZM178.878 28.2557C179.442 28.2557 179.923 28.1023 180.321 27.7955C180.719 27.4849 181.022 27.0587 181.23 26.5171C181.442 25.9716 181.548 25.3466 181.548 24.6421C181.548 23.9451 181.444 23.3296 181.236 22.7955C181.027 22.2576 180.724 21.8371 180.327 21.5341C179.929 21.2273 179.446 21.0739 178.878 21.0739C178.294 21.0739 177.802 21.233 177.401 21.5511C177.003 21.8655 176.7 22.2917 176.491 22.8296C176.287 23.3674 176.185 23.9716 176.185 24.6421C176.185 25.3201 176.289 25.9318 176.497 26.4773C176.705 27.0227 177.008 27.4565 177.406 27.7784C177.808 28.0966 178.298 28.2557 178.878 28.2557Z" fill="#262834"/>
<path d="M167.362 23.5455V29H166.351V20.2727H167.334V21.642H167.425C167.629 21.1951 167.947 20.8371 168.379 20.5682C168.815 20.2955 169.353 20.1591 169.993 20.1591C170.58 20.1591 171.095 20.2822 171.538 20.5284C171.985 20.7708 172.332 21.1288 172.578 21.6023C172.828 22.0758 172.953 22.6572 172.953 23.3466V29H171.942V23.4091C171.942 22.6932 171.741 22.1269 171.339 21.7102C170.942 21.2936 170.408 21.0852 169.737 21.0852C169.279 21.0852 168.872 21.1837 168.516 21.3807C168.16 21.5776 167.877 21.8617 167.669 22.233C167.464 22.6004 167.362 23.0379 167.362 23.5455Z" fill="#262834"/>
<path d="M159.882 29.1989C159.356 29.1989 158.875 29.0966 158.439 28.892C158.003 28.6837 157.657 28.3845 157.399 27.9943C157.142 27.6004 157.013 27.1231 157.013 26.5625C157.013 26.1307 157.094 25.767 157.257 25.4716C157.42 25.1761 157.651 24.9337 157.95 24.7443C158.25 24.5549 158.604 24.4053 159.013 24.2955C159.422 24.1856 159.873 24.1004 160.365 24.0398C160.854 23.9792 161.267 23.9261 161.604 23.8807C161.945 23.8352 162.204 23.7633 162.382 23.6648C162.56 23.5663 162.649 23.4072 162.649 23.1875V22.983C162.649 22.3883 162.471 21.9205 162.115 21.5795C161.763 21.2349 161.255 21.0625 160.592 21.0625C159.964 21.0625 159.45 21.2008 159.053 21.4773C158.659 21.7538 158.382 22.0795 158.223 22.4545L157.263 22.108C157.46 21.6307 157.732 21.25 158.081 20.9659C158.429 20.678 158.82 20.4716 159.251 20.3466C159.683 20.2178 160.121 20.1534 160.564 20.1534C160.897 20.1534 161.244 20.197 161.604 20.2841C161.967 20.3712 162.304 20.5227 162.615 20.7386C162.926 20.9508 163.178 21.2481 163.371 21.6307C163.564 22.0095 163.66 22.4905 163.66 23.0739V29H162.649V27.6193H162.587C162.465 27.8769 162.285 28.1269 162.047 28.3693C161.808 28.6117 161.509 28.8106 161.149 28.9659C160.789 29.1212 160.367 29.1989 159.882 29.1989ZM160.018 28.2727C160.556 28.2727 161.022 28.1534 161.416 27.9148C161.81 27.6761 162.113 27.3599 162.325 26.9659C162.541 26.5682 162.649 26.1307 162.649 25.6534V24.392C162.573 24.464 162.446 24.5284 162.268 24.5852C162.094 24.642 161.892 24.6932 161.66 24.7386C161.433 24.7803 161.206 24.8163 160.979 24.8466C160.751 24.8769 160.547 24.9034 160.365 24.9261C159.873 24.9867 159.452 25.0814 159.104 25.2102C158.755 25.339 158.488 25.517 158.303 25.7443C158.117 25.9678 158.024 26.2557 158.024 26.608C158.024 27.1383 158.214 27.5492 158.592 27.8409C158.971 28.1288 159.446 28.2727 160.018 28.2727Z" fill="#262834"/>
<path d="M151.741 29V20.2727H152.724V21.6136H152.798C152.973 21.1742 153.276 20.8201 153.707 20.5511C154.143 20.2784 154.635 20.142 155.185 20.142C155.268 20.142 155.361 20.1439 155.463 20.1477C155.565 20.1515 155.651 20.1553 155.719 20.1591V21.1875C155.673 21.1799 155.594 21.1686 155.48 21.1534C155.366 21.1383 155.243 21.1307 155.111 21.1307C154.656 21.1307 154.251 21.2273 153.895 21.4205C153.543 21.6098 153.264 21.8731 153.06 22.2102C152.855 22.5473 152.753 22.9318 152.753 23.3636V29H151.741Z" fill="#262834"/>
<path d="M141.592 29V17.3636H145.518C146.276 17.3636 146.907 17.4962 147.41 17.7614C147.918 18.0265 148.299 18.3883 148.553 18.8466C148.806 19.3049 148.933 19.8258 148.933 20.4091C148.933 20.894 148.852 21.3087 148.689 21.6534C148.526 21.9981 148.304 22.2765 148.024 22.4886C147.744 22.7008 147.431 22.8542 147.087 22.9489V23.0398C147.462 23.0663 147.825 23.1989 148.178 23.4375C148.53 23.6724 148.82 24.0019 149.047 24.4261C149.274 24.8504 149.388 25.358 149.388 25.9489C149.388 26.536 149.257 27.0606 148.996 27.5227C148.734 27.9811 148.333 28.3428 147.791 28.608C147.253 28.8693 146.568 29 145.734 29H141.592ZM142.655 28.0455H145.734C146.632 28.0455 147.295 27.8466 147.723 27.4489C148.155 27.0511 148.371 26.5511 148.371 25.9489C148.371 25.5057 148.263 25.1042 148.047 24.7443C147.835 24.3807 147.534 24.0928 147.143 23.8807C146.757 23.6686 146.303 23.5625 145.78 23.5625H142.655V28.0455ZM142.655 22.6193H145.615C146.073 22.6193 146.475 22.5246 146.82 22.3352C147.164 22.1458 147.433 21.8845 147.626 21.5511C147.82 21.2178 147.916 20.8371 147.916 20.4091C147.916 19.7917 147.715 19.2898 147.314 18.9034C146.912 18.5133 146.314 18.3182 145.518 18.3182H142.655V22.6193Z" fill="#262834"/>
<path d="M135.122 21V19.9773C135.122 19.6667 135.177 19.3371 135.287 18.9886C135.401 18.6364 135.563 18.2974 135.776 17.9716C135.991 17.6421 136.251 17.3561 136.554 17.1136L137.111 17.5966C136.823 17.9299 136.58 18.3011 136.384 18.7102C136.19 19.1155 136.094 19.5322 136.094 19.9602V21H135.122ZM137.787 21V19.9773C137.787 19.6667 137.842 19.3371 137.952 18.9886C138.065 18.6364 138.228 18.2974 138.44 17.9716C138.656 17.6421 138.916 17.3561 139.219 17.1136L139.776 17.5966C139.488 17.9299 139.245 18.3011 139.048 18.7102C138.855 19.1155 138.759 19.5322 138.759 19.9602V21H137.787Z" fill="#262834"/>
<path d="M125.476 29V20.2727H126.459V21.6136H126.533C126.707 21.1742 127.01 20.8201 127.442 20.5511C127.877 20.2784 128.37 20.142 128.919 20.142C129.002 20.142 129.095 20.1439 129.197 20.1477C129.3 20.1515 129.385 20.1553 129.453 20.1591V21.1875C129.408 21.1799 129.328 21.1686 129.214 21.1534C129.101 21.1383 128.978 21.1307 128.845 21.1307C128.391 21.1307 127.985 21.2273 127.629 21.4205C127.277 21.6098 126.999 21.8731 126.794 22.2102C126.589 22.5473 126.487 22.9318 126.487 23.3636V29H125.476Z" fill="#262834"/>
<path d="M119.415 29.1818C118.661 29.1818 117.994 28.9905 117.415 28.608C116.839 28.2254 116.388 27.697 116.062 27.0227C115.737 26.3447 115.574 25.5625 115.574 24.6761C115.574 23.7822 115.737 22.9962 116.062 22.3182C116.388 21.6364 116.839 21.1061 117.415 20.7273C117.994 20.3447 118.661 20.1534 119.415 20.1534C120.169 20.1534 120.833 20.3447 121.409 20.7273C121.985 21.1099 122.436 21.6402 122.761 22.3182C123.091 22.9962 123.256 23.7822 123.256 24.6761C123.256 25.5625 123.093 26.3447 122.767 27.0227C122.441 27.697 121.989 28.2254 121.409 28.608C120.833 28.9905 120.169 29.1818 119.415 29.1818ZM119.415 28.2557C120.021 28.2557 120.534 28.0928 120.955 27.767C121.375 27.4413 121.693 27.0076 121.909 26.4659C122.129 25.9242 122.239 25.3277 122.239 24.6761C122.239 24.0246 122.129 23.4261 121.909 22.8807C121.693 22.3352 121.375 21.8977 120.955 21.5682C120.534 21.2386 120.021 21.0739 119.415 21.0739C118.812 21.0739 118.299 21.2386 117.875 21.5682C117.455 21.8977 117.134 22.3352 116.915 22.8807C116.699 23.4261 116.591 24.0246 116.591 24.6761C116.591 25.3277 116.699 25.9242 116.915 26.4659C117.134 27.0076 117.455 27.4413 117.875 27.767C118.295 28.0928 118.809 28.2557 119.415 28.2557Z" fill="#262834"/>
<path d="M114.364 20.2727V21.1534H110.074V20.2727H114.364ZM111.415 29V18.9943C111.415 18.5246 111.523 18.1288 111.739 17.8068C111.958 17.4849 112.244 17.2405 112.597 17.0739C112.949 16.9072 113.322 16.8239 113.716 16.8239C113.981 16.8239 114.201 16.8466 114.375 16.892C114.553 16.9337 114.693 16.9754 114.795 17.017L114.5 17.9034C114.424 17.8807 114.331 17.8542 114.222 17.8239C114.112 17.7936 113.973 17.7784 113.807 17.7784C113.367 17.7784 113.028 17.9015 112.79 18.1477C112.551 18.3939 112.432 18.7462 112.432 19.2045L112.426 29H111.415Z" fill="#262834"/>
<path d="M97.9559 23.5455V29H96.9446V17.3636H97.9559V21.6421H98.0469C98.2514 21.1913 98.5677 20.8315 98.9957 20.5625C99.4275 20.2936 99.973 20.1591 100.632 20.1591C101.223 20.1591 101.742 20.2803 102.189 20.5227C102.636 20.7652 102.984 21.1231 103.234 21.5966C103.484 22.0701 103.609 22.6534 103.609 23.3466V29H102.592V23.4091C102.592 22.6894 102.392 22.1231 101.99 21.7102C101.592 21.2936 101.054 21.0852 100.376 21.0852C99.9105 21.0852 99.4957 21.1837 99.1321 21.3807C98.7684 21.5777 98.4806 21.8618 98.2684 22.233C98.0601 22.6004 97.9559 23.0379 97.9559 23.5455Z" fill="#262834"/>
<path d="M91.4474 29.1818C90.6671 29.1818 89.9872 28.9867 89.4077 28.5966C88.8319 28.2064 88.3849 27.6724 88.0667 26.9943C87.7486 26.3163 87.5895 25.5436 87.5895 24.6761C87.5895 23.8011 87.7505 23.0227 88.0724 22.3409C88.3982 21.6591 88.8489 21.125 89.4247 20.7386C90.0005 20.3485 90.669 20.1534 91.4304 20.1534C92.0137 20.1534 92.5421 20.267 93.0156 20.4943C93.4891 20.7178 93.8793 21.0341 94.1861 21.4432C94.4967 21.8485 94.6918 22.322 94.7713 22.8636H93.7486C93.6425 22.3712 93.3868 21.9508 92.9815 21.6023C92.58 21.25 92.0686 21.0739 91.4474 21.0739C90.8906 21.0739 90.3982 21.2254 89.9702 21.5284C89.5421 21.8277 89.2069 22.2462 88.9645 22.7841C88.7258 23.3182 88.6065 23.9375 88.6065 24.642C88.6065 25.3504 88.7239 25.9773 88.9588 26.5227C89.1936 27.0644 89.5232 27.4886 89.9474 27.7955C90.3755 28.1023 90.8755 28.2557 91.4474 28.2557C91.8338 28.2557 92.1861 28.1837 92.5042 28.0398C92.8262 27.892 93.0952 27.6837 93.3111 27.4148C93.5308 27.1458 93.6785 26.8258 93.7542 26.4545H94.777C94.7012 26.9811 94.5137 27.4508 94.2145 27.8636C93.919 28.2727 93.5346 28.5947 93.0611 28.8295C92.5914 29.0644 92.0535 29.1818 91.4474 29.1818Z" fill="#262834"/>
<path d="M82.6008 29V20.2727H83.5838V21.6136H83.6576C83.8319 21.1742 84.1349 20.8201 84.5667 20.5511C85.0023 20.2784 85.4948 20.142 86.044 20.142C86.1273 20.142 86.2201 20.1439 86.3224 20.1477C86.4247 20.1515 86.5099 20.1553 86.5781 20.1591V21.1875C86.5326 21.1799 86.4531 21.1686 86.3395 21.1534C86.2258 21.1383 86.1027 21.1307 85.9701 21.1307C85.5156 21.1307 85.1103 21.2273 84.7542 21.4205C84.402 21.6098 84.1236 21.8731 83.919 22.2102C83.7145 22.5473 83.6122 22.9318 83.6122 23.3636V29H82.6008Z" fill="#262834"/>
<path d="M76.1321 29.1989C75.6056 29.1989 75.1245 29.0966 74.6889 28.892C74.2533 28.6837 73.9067 28.3845 73.6491 27.9943C73.3916 27.6004 73.2628 27.1231 73.2628 26.5625C73.2628 26.1307 73.3442 25.767 73.5071 25.4716C73.67 25.1761 73.901 24.9337 74.2003 24.7443C74.4995 24.5549 74.8537 24.4053 75.2628 24.2955C75.6719 24.1856 76.1226 24.1004 76.615 24.0398C77.1037 23.9792 77.5166 23.9261 77.8537 23.8807C78.1946 23.8352 78.4541 23.7633 78.6321 23.6648C78.8101 23.5663 78.8991 23.4072 78.8991 23.1875V22.983C78.8991 22.3883 78.7211 21.9205 78.365 21.5795C78.0128 21.2349 77.5052 21.0625 76.8423 21.0625C76.2135 21.0625 75.7003 21.2008 75.3025 21.4773C74.9086 21.7538 74.6321 22.0795 74.473 22.4545L73.5128 22.108C73.7097 21.6307 73.9825 21.25 74.331 20.9659C74.6794 20.678 75.0696 20.4716 75.5014 20.3466C75.9332 20.2178 76.3707 20.1534 76.8139 20.1534C77.1472 20.1534 77.4938 20.197 77.8537 20.2841C78.2173 20.3712 78.5544 20.5227 78.865 20.7386C79.1756 20.9508 79.4275 21.2481 79.6207 21.6307C79.8139 22.0095 79.9105 22.4905 79.9105 23.0739V29H78.8991V27.6193H78.8366C78.7154 27.8769 78.5355 28.1269 78.2969 28.3693C78.0582 28.6117 77.759 28.8106 77.3991 28.9659C77.0393 29.1212 76.6169 29.1989 76.1321 29.1989ZM76.2685 28.2727C76.8063 28.2727 77.2722 28.1534 77.6662 27.9148C78.0601 27.6761 78.3632 27.3599 78.5753 26.9659C78.7912 26.5682 78.8991 26.1307 78.8991 25.6534V24.392C78.8234 24.464 78.6965 24.5284 78.5185 24.5852C78.3442 24.642 78.1416 24.6932 77.9105 24.7386C77.6832 24.7803 77.456 24.8163 77.2287 24.8466C77.0014 24.8769 76.7969 24.9034 76.615 24.9261C76.1226 24.9867 75.7022 25.0814 75.3537 25.2102C75.0052 25.339 74.7381 25.517 74.5525 25.7443C74.3669 25.9678 74.2741 26.2557 74.2741 26.608C74.2741 27.1383 74.4635 27.5492 74.8423 27.8409C75.2211 28.1288 75.6965 28.2727 76.2685 28.2727Z" fill="#262834"/>
<path d="M67.9261 29.1818C67.1117 29.1818 66.4072 28.9924 65.8125 28.6136C65.2178 28.2311 64.7576 27.7027 64.4318 27.0284C64.1098 26.3504 63.9489 25.5701 63.9489 24.6875C63.9489 23.8087 64.1098 23.0284 64.4318 22.3466C64.7576 21.661 65.2064 21.125 65.7784 20.7386C66.3542 20.3485 67.0189 20.1534 67.7727 20.1534C68.2462 20.1534 68.7026 20.2405 69.142 20.4148C69.5814 20.5852 69.9754 20.8485 70.3239 21.2045C70.6761 21.5568 70.9545 22.0019 71.1591 22.5398C71.3636 23.0739 71.4659 23.7064 71.4659 24.4375V24.9375H64.6477V24.0455H70.4318C70.4318 23.4849 70.3182 22.9811 70.0909 22.5341C69.8674 22.0833 69.5549 21.7273 69.1534 21.4659C68.7557 21.2045 68.2954 21.0739 67.7727 21.0739C67.2197 21.0739 66.7329 21.2216 66.3125 21.517C65.892 21.8125 65.5625 22.2027 65.3239 22.6875C65.089 23.1724 64.9697 23.7027 64.9659 24.2784V24.8125C64.9659 25.5057 65.0852 26.1117 65.3239 26.6307C65.5663 27.1458 65.9091 27.5455 66.3523 27.8295C66.7954 28.1136 67.3201 28.2557 67.9261 28.2557C68.339 28.2557 68.7007 28.1913 69.0114 28.0625C69.3257 27.9337 69.589 27.7614 69.8011 27.5455C70.017 27.3258 70.1799 27.0852 70.2898 26.8239L71.25 27.1364C71.1174 27.5038 70.8996 27.8428 70.5966 28.1534C70.2973 28.464 69.9223 28.714 69.4716 28.9034C69.0246 29.089 68.5095 29.1818 67.9261 29.1818Z" fill="#262834"/>
<path d="M60.8636 20.2727C60.7992 19.625 60.5132 19.1099 60.0057 18.7273C59.4981 18.3447 58.8598 18.1534 58.0909 18.1534C57.5492 18.1534 57.072 18.2462 56.6591 18.4318C56.25 18.6174 55.928 18.875 55.6932 19.2045C55.4621 19.5303 55.3466 19.9015 55.3466 20.3182C55.3466 20.625 55.4129 20.8939 55.5454 21.125C55.678 21.3561 55.856 21.5549 56.0795 21.7216C56.3068 21.8845 56.5568 22.0246 56.8295 22.142C57.106 22.2595 57.3845 22.358 57.6648 22.4375L58.892 22.7898C59.2632 22.892 59.6345 23.0227 60.0057 23.1818C60.3769 23.3409 60.7159 23.5417 61.0227 23.7841C61.3333 24.0227 61.5814 24.3163 61.767 24.6648C61.9564 25.0095 62.0511 25.4242 62.0511 25.9091C62.0511 26.5303 61.8901 27.089 61.5682 27.5852C61.2462 28.0814 60.7841 28.4754 60.1818 28.767C59.5795 29.0549 58.8579 29.1989 58.017 29.1989C57.2254 29.1989 56.5379 29.0682 55.9545 28.8068C55.3712 28.5417 54.9129 28.1761 54.5795 27.7102C54.2462 27.2443 54.0587 26.7045 54.017 26.0909H55.1079C55.1458 26.5492 55.2973 26.9375 55.5625 27.2557C55.8276 27.5739 56.1723 27.8163 56.5966 27.983C57.0208 28.1458 57.4943 28.2273 58.017 28.2273C58.5966 28.2273 59.1117 28.1307 59.5625 27.9375C60.017 27.7405 60.3731 27.4678 60.6307 27.1193C60.892 26.767 61.0227 26.358 61.0227 25.892C61.0227 25.4981 60.9204 25.1686 60.7159 24.9034C60.5113 24.6345 60.2254 24.4091 59.8579 24.2273C59.4943 24.0455 59.072 23.8845 58.5909 23.7443L57.1988 23.3352C56.286 23.0625 55.5776 22.6856 55.0738 22.2045C54.5701 21.7235 54.3182 21.1099 54.3182 20.3636C54.3182 19.7386 54.4848 19.1894 54.8182 18.7159C55.1553 18.2386 55.6098 17.8674 56.1818 17.6023C56.7576 17.3333 57.4034 17.1989 58.1193 17.1989C58.8428 17.1989 59.4829 17.3314 60.0398 17.5966C60.5966 17.8617 61.0379 18.2273 61.3636 18.6932C61.6932 19.1553 61.8693 19.6818 61.892 20.2727H60.8636Z" fill="#262834"/>
<path fill-rule="evenodd" clip-rule="evenodd" d="M29.3333 19C26.9401 19 25 20.9401 25 23.3333C25 25.7266 26.9401 27.6667 29.3333 27.6667C31.7266 27.6667 33.6667 25.7266 33.6667 23.3333C33.6667 20.9401 31.7266 19 29.3333 19ZM23 23.3333C23 19.8355 25.8355 17 29.3333 17C32.8311 17 35.6667 19.8355 35.6667 23.3333C35.6667 26.8311 32.8311 29.6667 29.3333 29.6667C25.8355 29.6667 23 26.8311 23 23.3333Z" fill="#262834"/>
<path fill-rule="evenodd" clip-rule="evenodd" d="M32.3929 26.3929C32.7834 26.0024 33.4166 26.0024 33.8071 26.3929L36.7071 29.2929C37.0976 29.6834 37.0976 30.3166 36.7071 30.7071C36.3166 31.0976 35.6834 31.0976 35.2929 30.7071L32.3929 27.8071C32.0024 27.4166 32.0024 26.7834 32.3929 26.3929Z" fill="#262834"/>
<defs>
<filter id="filter0_d_156_679" x="-64" y="-60" width="515" height="178" filterUnits="userSpaceOnUse" color-interpolation-filters="sRGB">
<feFlood flood-opacity="0" result="BackgroundImageFix"/>
<feColorMatrix in="SourceAlpha" type="matrix" values="0 0 0 0 0 0 0 0 0 0 0 0 0 0 0 0 0 0 127 0" result="hardAlpha"/>
<feOffset dy="4"/>
<feGaussianBlur stdDeviation="32"/>
<feComposite in2="hardAlpha" operator="out"/>
<feColorMatrix type="matrix" values="0 0 0 0 0.695833 0 0 0 0 0.695833 0 0 0 0 0.695833 0 0 0 0.25 0"/>
<feBlend mode="normal" in2="BackgroundImageFix" result="effect1_dropShadow_156_679"/>
<feBlend mode="normal" in="SourceGraphic" in2="effect1_dropShadow_156_679" result="shape"/>
</filter>
<filter id="filter1_d_156_679" x="-64" y="-60" width="515" height="178" filterUnits="userSpaceOnUse" color-interpolation-filters="sRGB">
<feFlood flood-opacity="0" result="BackgroundImageFix"/>
<feColorMatrix in="SourceAlpha" type="matrix" values="0 0 0 0 0 0 0 0 0 0 0 0 0 0 0 0 0 0 127 0" result="hardAlpha"/>
<feOffset dy="4"/>
<feGaussianBlur stdDeviation="32"/>
<feComposite in2="hardAlpha" operator="out"/>
<feColorMatrix type="matrix" values="0 0 0 0 0.695833 0 0 0 0 0.695833 0 0 0 0 0.695833 0 0 0 0.25 0"/>
<feBlend mode="normal" in2="BackgroundImageFix" result="effect1_dropShadow_156_679"/>
<feBlend mode="normal" in="SourceGraphic" in2="effect1_dropShadow_156_679" result="shape"/>
</filter>
</defs>
</svg>
