<svg width="14" height="15" viewBox="0 0 14 15" fill="none" xmlns="http://www.w3.org/2000/svg">
<path d="M3.53446 3.98841L4.91954 1.14005C5.6256 -0.311941 7.66343 -0.395037 8.48536 0.994644L10.1473 3.80452C10.3414 4.13267 10.6241 4.3994 10.963 4.57405L12.902 5.57328C14.3662 6.32785 14.3658 8.42156 12.9013 9.17552L10.7089 10.3042C10.3557 10.486 10.0638 10.7676 9.86938 11.1141L8.46247 13.6213C7.66211 15.0475 5.58884 14.9866 4.87363 13.5158L3.59126 10.8786C3.36803 10.4196 2.97973 10.0617 2.50402 9.87657L1.29139 9.40466C-0.327384 8.77469 -0.454733 6.53314 1.08227 5.72389L2.65633 4.89512C3.03812 4.6941 3.34577 4.37644 3.53446 3.98841Z" fill="#0F7BD5"/>
</svg>
