<svg width="66" height="117" viewBox="0 0 66 117" fill="none" xmlns="http://www.w3.org/2000/svg">
<path d="M19.2266 106.259C19.8085 106.4 19.99 106.549 20.2249 106.559C35.8551 103.693 48.6164 96.0499 57.4725 82.5931C59.7172 79.2006 61.0436 75.2982 61.5106 71.1488C62.5883 62.2638 57.9879 54.1022 49.916 50.469C45.7199 48.5514 41.3695 47.4565 36.7163 48.4098C35.6661 50.3339 34.6854 52.2844 33.5497 54.0157C31.6835 56.8312 29.1283 58.7434 25.6969 59.2002C23.1621 59.5977 21.0802 58.8052 20.396 57.2627C19.4981 55.2382 20.244 53.2784 21.7589 52.012C23.8606 50.2477 26.1865 48.7291 28.5286 47.3769C30.0491 46.5132 31.8367 45.9916 33.4855 45.4172C35.316 37.0591 29.1692 30.8732 19.0341 30.7818C18.3303 31.796 17.5998 32.8802 16.8265 33.868C13.8668 37.4692 10.1003 39.6415 5.37696 39.5265C3.56768 39.4789 1.75279 39.0285 0.92427 37.0304C0.309539 35.5143 1.05547 33.5545 2.91176 32.0174C5.88828 29.6245 9.42066 28.4849 13.0547 27.7046C14.3354 27.4709 15.6161 27.2371 16.8702 27.0734C20.1443 14.2966 12.5522 1.47057 3.17905e-05 2.3022C0.415752 1.41872 0.639391 0.622393 1.07682 0.308099C1.6103 -0.0497721 2.48024 -0.039182 3.1581 0.0585626C9.48319 1.1839 14.6992 3.97054 17.5584 10.027C19.7335 14.5409 20.5318 19.3321 20.3536 24.3927C20.322 25.1018 20.2905 25.811 20.3283 26.5466C20.3016 26.6166 20.4138 26.7394 20.6115 27.055C21.2627 27.2228 22.0261 27.5133 22.8427 27.6639C32.7015 29.7336 36.6004 34.1023 37.573 44.4889C38.5124 44.5259 39.5905 44.6158 40.6259 44.6092C46.6622 44.8233 52.0591 46.7172 56.7795 50.5973C64.4742 56.8916 67.2611 66.6866 64.2093 76.5832C62.5583 81.9647 59.738 86.6607 55.9995 90.8469C46.917 100.932 35.8789 107.388 22.3187 109.199C21.6303 109.337 20.8991 109.379 20.2107 109.518C20.1147 109.562 19.992 109.675 19.624 110.016C21.7704 111.474 24.0711 112.109 26.3451 112.814C28.5231 113.563 30.8237 114.199 33.2366 114.957C32.3357 116.697 31.0977 117.027 29.7581 116.998C28.2103 116.89 26.6092 116.922 25.1946 116.463C21.3939 115.177 17.5503 113.794 13.8133 112.131C10.9091 110.786 10.6891 108.859 12.9401 106.911C17.7568 102.815 22.6428 98.7446 27.5289 94.6746C28.3344 94.0196 29.2254 93.5574 30.3617 92.8681C31.0942 94.9098 30.1128 95.8183 29.2274 96.6833C25.8457 99.7232 22.6722 102.842 19.2266 106.259ZM3.80542 35.7231C8.83365 36.9157 12.9899 34.9719 14.8498 30.7116C10.8583 31.5963 7.0855 32.3239 3.80542 35.7231ZM23.1328 55.4998C27.6002 56.0784 30.609 54.0183 31.8177 49.5903C28.328 50.8263 25.2387 52.0544 23.1328 55.4998Z" fill="#2725EA"/>
</svg>
