<svg width="28" height="28" viewBox="0 0 28 28" fill="none" xmlns="http://www.w3.org/2000/svg">
<path d="M8.74977 7.87497C8.83178 7.95632 8.89687 8.05309 8.9413 8.15972C8.98572 8.26635 9.00859 8.38071 9.00859 8.49622C9.00859 8.61173 8.98572 8.7261 8.9413 8.83273C8.89687 8.93936 8.83178 9.03613 8.74977 9.11747L4.72477 13.1425H25.3223C25.5543 13.1425 25.7769 13.2347 25.941 13.3988C26.1051 13.5628 26.1973 13.7854 26.1973 14.0175C26.1973 14.2495 26.1051 14.4721 25.941 14.6362C25.7769 14.8003 25.5543 14.8925 25.3223 14.8925H4.74227L8.74977 18.8912C8.91273 19.0552 9.00421 19.2769 9.00421 19.5081C9.00421 19.7393 8.91273 19.961 8.74977 20.125C8.58582 20.2879 8.36405 20.3794 8.13289 20.3794C7.90173 20.3794 7.67996 20.2879 7.51602 20.125L1.95102 14.56C1.87611 14.4881 1.81652 14.4018 1.7758 14.3064C1.73509 14.2109 1.7141 14.1081 1.7141 14.0043C1.7141 13.9005 1.73509 13.7978 1.7758 13.7023C1.81652 13.6069 1.87611 13.5206 1.95102 13.4487L7.50727 7.87497C7.58861 7.79296 7.68538 7.72787 7.79201 7.68344C7.89864 7.63902 8.01301 7.61615 8.12852 7.61615C8.24403 7.61615 8.35839 7.63902 8.46502 7.68344C8.57165 7.72787 8.66842 7.79296 8.74977 7.87497Z" fill="white"/>
</svg>
