<svg width="122" height="18" viewBox="0 0 122 18" fill="none" xmlns="http://www.w3.org/2000/svg">
<path d="M114.166 10.0438V17.028H110.816V0.92022H114.072V7.07861H114.213C114.486 6.36551 114.927 5.80708 115.535 5.40334C116.143 4.99435 116.906 4.78986 117.823 4.78986C118.662 4.78986 119.394 4.97338 120.018 5.34042C120.647 5.70222 121.135 6.22393 121.481 6.90558C121.832 7.58198 122.005 8.39209 122 9.3359V17.028H118.649V9.93365C118.655 9.18909 118.466 8.60969 118.083 8.19546C117.706 7.78123 117.176 7.57412 116.494 7.57412C116.038 7.57412 115.634 7.67112 115.283 7.86512C114.937 8.05913 114.664 8.34228 114.465 8.71456C114.271 9.0816 114.171 9.52467 114.166 10.0438Z" fill="black"/>
<path d="M108.374 4.94716V7.464H101.098V4.94716H108.374ZM102.75 2.0528H106.101V13.3157C106.101 13.625 106.148 13.8662 106.242 14.0392C106.336 14.207 106.468 14.325 106.635 14.3932C106.808 14.4613 107.008 14.4954 107.233 14.4954C107.39 14.4954 107.548 14.4823 107.705 14.4561C107.862 14.4246 107.983 14.401 108.067 14.3853L108.594 16.8786C108.426 16.931 108.19 16.9913 107.886 17.0595C107.582 17.1329 107.212 17.1774 106.777 17.1932C105.969 17.2246 105.262 17.1171 104.653 16.8707C104.05 16.6243 103.581 16.2415 103.245 15.7224C102.91 15.2033 102.745 14.5479 102.75 13.7561V2.0528Z" fill="black"/>
<path d="M95.9132 17.028V4.94716H99.2638V17.028H95.9132ZM97.5964 3.38987C97.0982 3.38987 96.6709 3.2247 96.3143 2.89437C95.963 2.55879 95.7874 2.15767 95.7874 1.691C95.7874 1.22958 95.963 0.833704 96.3143 0.503369C96.6709 0.16779 97.0982 0 97.5964 0C98.0945 0 98.5192 0.16779 98.8705 0.503369C99.2271 0.833704 99.4053 1.22958 99.4053 1.691C99.4053 2.15767 99.2271 2.55879 98.8705 2.89437C98.5192 3.2247 98.0945 3.38987 97.5964 3.38987Z" fill="black"/>
<path d="M75.7117 17.028V4.94716H78.9049V7.07861H79.0465C79.2982 6.37075 79.7176 5.81233 80.3049 5.40334C80.8921 4.99435 81.5948 4.78986 82.4127 4.78986C83.2412 4.78986 83.9464 4.99698 84.5285 5.4112C85.1105 5.82019 85.4985 6.37599 85.6925 7.07861H85.8183C86.0648 6.38648 86.5105 5.8333 87.1554 5.41907C87.8056 4.9996 88.5738 4.78986 89.4599 4.78986C90.5872 4.78986 91.5022 5.14903 92.2048 5.86738C92.9127 6.58049 93.2666 7.59247 93.2666 8.90332V17.028H89.9239V9.56399C89.9239 8.89283 89.7457 8.38947 89.3891 8.05389C89.0326 7.71831 88.5869 7.55052 88.052 7.55052C87.4438 7.55052 86.9693 7.74453 86.6284 8.13254C86.2876 8.51531 86.1172 9.0213 86.1172 9.65051V17.028H82.8689V9.49321C82.8689 8.9007 82.6985 8.42879 82.3577 8.07748C82.0221 7.72617 81.579 7.55052 81.0285 7.55052C80.6562 7.55052 80.3206 7.6449 80.0217 7.83366C79.7281 8.01718 79.4948 8.27673 79.3217 8.61231C79.1487 8.94265 79.0622 9.33066 79.0622 9.77635V17.028H75.7117Z" fill="black"/>
<path d="M69.9996 5.55278C69.9367 4.91832 69.6666 4.42544 69.1895 4.07413C68.7123 3.72282 68.0648 3.54717 67.2468 3.54717C66.691 3.54717 66.2217 3.62582 65.839 3.78313C65.4562 3.93518 65.1626 4.14754 64.9581 4.4202C64.7588 4.69286 64.6592 5.00222 64.6592 5.34829C64.6487 5.63667 64.709 5.88836 64.8401 6.10334C64.9764 6.31832 65.1626 6.50446 65.3985 6.66176C65.6345 6.81382 65.9071 6.94753 66.2165 7.06288C66.5258 7.17299 66.8562 7.26738 67.2075 7.34603L68.6547 7.69209C69.3573 7.84939 70.0022 8.05913 70.5895 8.3213C71.1768 8.58347 71.6854 8.90594 72.1153 9.28871C72.5453 9.67148 72.8782 10.1224 73.1142 10.6415C73.3554 11.1606 73.4786 11.7557 73.4839 12.4269C73.4786 13.4127 73.2269 14.2673 72.7288 14.9909C72.2359 15.7093 71.5228 16.2677 70.5895 16.6662C69.6614 17.0595 68.5419 17.2561 67.2311 17.2561C65.9307 17.2561 64.7981 17.0568 63.8333 16.6583C62.8738 16.2598 62.124 15.6699 61.5839 14.8887C61.0491 14.1022 60.7686 13.1295 60.7424 11.9707H64.0378C64.0745 12.5108 64.2292 12.9617 64.5019 13.3235C64.7798 13.6801 65.1494 13.9501 65.6109 14.1336C66.0775 14.3119 66.6045 14.401 67.1918 14.401C67.7685 14.401 68.2693 14.3171 68.694 14.1494C69.124 13.9816 69.4569 13.7482 69.6929 13.4494C69.9288 13.1505 70.0468 12.807 70.0468 12.419C70.0468 12.0572 69.9393 11.7531 69.7243 11.5067C69.5146 11.2602 69.2052 11.0505 68.7962 10.8775C68.3925 10.7044 67.897 10.5471 67.3097 10.4056L65.5558 9.96511C64.1978 9.63478 63.1255 9.1183 62.339 8.41568C61.5525 7.71307 61.1618 6.76663 61.1671 5.57637C61.1618 4.6011 61.4214 3.74904 61.9457 3.02021C62.4753 2.29137 63.2015 1.72246 64.1244 1.31348C65.0472 0.904489 66.0959 0.699996 67.2704 0.699996C68.4659 0.699996 69.5093 0.904489 70.4007 1.31348C71.2974 1.72246 71.9947 2.29137 72.4929 3.02021C72.991 3.74904 73.2479 4.59323 73.2636 5.55278H69.9996Z" fill="black"/>
<path d="M46.6697 17.2561C45.8989 17.2561 45.212 17.1224 44.609 16.855C44.006 16.5823 43.5289 16.1812 43.1776 15.6516C42.8315 15.1168 42.6585 14.4509 42.6585 13.6539C42.6585 12.9827 42.7817 12.419 43.0281 11.9629C43.2746 11.5067 43.6101 11.1396 44.0349 10.8617C44.4596 10.5838 44.942 10.3741 45.482 10.2325C46.0274 10.091 46.5989 9.99133 47.1966 9.93365C47.8993 9.86024 48.4656 9.79208 48.8955 9.72916C49.3255 9.66099 49.6375 9.56137 49.8315 9.43028C50.0255 9.2992 50.1225 9.10519 50.1225 8.84826V8.80107C50.1225 8.30295 49.9652 7.91756 49.6506 7.6449C49.3412 7.37224 48.9008 7.23591 48.3292 7.23591C47.7262 7.23591 47.2465 7.36962 46.8899 7.63704C46.5334 7.89921 46.2974 8.22954 46.182 8.62804L43.0832 8.37636C43.2405 7.64228 43.5498 7.00783 44.0113 6.473C44.4727 5.93292 45.0678 5.51869 45.7967 5.23031C46.5307 4.93668 47.3802 4.78986 48.345 4.78986C49.0161 4.78986 49.6584 4.86851 50.2719 5.02581C50.8906 5.18312 51.4386 5.42694 51.9157 5.75727C52.3981 6.08761 52.7783 6.51232 53.0562 7.03142C53.3341 7.54528 53.473 8.16138 53.473 8.87973V17.028H50.2955V15.3527H50.2011C50.0071 15.7302 49.7476 16.0632 49.4225 16.3516C49.0974 16.6347 48.7067 16.8576 48.2506 17.0201C47.7944 17.1774 47.2674 17.2561 46.6697 17.2561ZM47.6292 14.9437C48.1221 14.9437 48.5573 14.8467 48.9348 14.6527C49.3124 14.4535 49.6086 14.1861 49.8236 13.8505C50.0386 13.5149 50.1461 13.1348 50.1461 12.71V11.428C50.0412 11.4962 49.897 11.5591 49.7135 11.6168C49.5352 11.6692 49.3333 11.719 49.1079 11.7662C48.8824 11.8082 48.6569 11.8475 48.4315 11.8842C48.206 11.9157 48.0015 11.9445 47.818 11.9707C47.4247 12.0284 47.0813 12.1202 46.7877 12.246C46.494 12.3718 46.2659 12.5423 46.1034 12.7572C45.9408 12.967 45.8596 13.2291 45.8596 13.5437C45.8596 13.9999 46.0247 14.3486 46.3551 14.5898C46.6907 14.8258 47.1154 14.9437 47.6292 14.9437Z" fill="black"/>
<path d="M32.7976 10.0438V17.028H29.447V4.94716H32.6403V7.07861H32.7818C33.0493 6.37599 33.4976 5.82019 34.1268 5.4112C34.756 4.99698 35.5189 4.78986 36.4155 4.78986C37.2545 4.78986 37.9859 4.97338 38.6099 5.34042C39.2339 5.70746 39.7189 6.2318 40.0649 6.91344C40.411 7.58985 40.584 8.39733 40.584 9.3359V17.028H37.2335V9.93365C37.2387 9.19433 37.05 8.61755 36.6672 8.20332C36.2844 7.78385 35.7575 7.57411 35.0863 7.57411C34.6354 7.57411 34.2369 7.67112 33.8908 7.86512C33.55 8.05913 33.2826 8.34228 33.0886 8.71456C32.8998 9.0816 32.8028 9.52467 32.7976 10.0438Z" fill="black"/>
<path d="M23.4125 17.028V4.94716H26.7631V17.028H23.4125ZM25.0956 3.38987C24.5975 3.38987 24.1702 3.2247 23.8136 2.89437C23.4623 2.55879 23.2867 2.15767 23.2867 1.691C23.2867 1.22958 23.4623 0.833704 23.8136 0.503369C24.1702 0.16779 24.5975 0 25.0956 0C25.5938 0 26.0185 0.16779 26.3698 0.503369C26.7263 0.833704 26.9046 1.22958 26.9046 1.691C26.9046 2.15767 26.7263 2.55879 26.3698 2.89437C26.0185 3.2247 25.5938 3.38987 25.0956 3.38987Z" fill="black"/>
<path d="M20.7285 0.92022V17.028H17.378V0.92022H20.7285Z" fill="black"/>
<path d="M3.64942 17.028H0L5.56064 0.92022H9.94938L15.5022 17.028H11.8527L7.81793 4.6011H7.69209L3.64942 17.028ZM3.42133 10.6966H12.0415V13.355H3.42133V10.6966Z" fill="black"/>
</svg>
