<svg width="26" height="11" viewBox="0 0 26 11" fill="none" xmlns="http://www.w3.org/2000/svg">
<path d="M24.7659 0H26V6.74788C26 7.44457 25.8358 8.06661 25.5073 8.614C25.1822 9.15808 24.7227 9.5877 24.1289 9.90287C23.5351 10.2147 22.8384 10.3706 22.0389 10.3706C21.2393 10.3706 20.5426 10.2147 19.9488 9.90287C19.355 9.5877 18.8938 9.15808 18.5654 8.614C18.2403 8.06661 18.0777 7.44457 18.0777 6.74788V0H19.3118V6.64836C19.3118 7.14599 19.4213 7.58888 19.6403 7.97703C19.8592 8.36187 20.1711 8.66542 20.5758 8.8877C20.9839 9.10666 21.4716 9.21613 22.0389 9.21613C22.6062 9.21613 23.0938 9.10666 23.5019 8.8877C23.9099 8.66542 24.2218 8.36187 24.4374 7.97703C24.6564 7.58888 24.7659 7.14599 24.7659 6.64836V0Z" fill="white"/>
<path d="M9.11412 10.1915V0H12.5577C13.3539 0 14.0075 0.136019 14.5184 0.408058C15.0293 0.676779 15.4075 1.04668 15.653 1.51778C15.8985 1.98887 16.0212 2.52465 16.0212 3.12513C16.0212 3.7256 15.8985 4.25807 15.653 4.72252C15.4075 5.18698 15.031 5.55191 14.5234 5.81731C14.0158 6.0794 13.3672 6.21044 12.5776 6.21044H9.7909V5.09575H12.5378C13.0819 5.09575 13.5198 5.01613 13.8516 4.85688C14.1866 4.69764 14.4288 4.47205 14.5781 4.1801C14.7307 3.88484 14.807 3.53318 14.807 3.12513C14.807 2.71707 14.7307 2.36043 14.5781 2.05522C14.4255 1.75 14.1817 1.51446 13.8466 1.34858C13.5115 1.17939 13.0686 1.09479 12.5179 1.09479H10.3482V10.1915H9.11412ZM13.9113 5.61328L16.4194 10.1915H14.9862L12.5179 5.61328H13.9113Z" fill="white"/>
<path d="M0 10.1915V0H3.56304C4.273 0 4.85854 0.122749 5.31968 0.368248C5.78082 0.610428 6.12419 0.937206 6.34978 1.34858C6.57537 1.75664 6.68817 2.20948 6.68817 2.70712C6.68817 3.14503 6.61021 3.50664 6.45428 3.79195C6.30167 4.07726 6.0993 4.30285 5.84717 4.46873C5.59835 4.63461 5.32797 4.75736 5.03603 4.83698V4.9365C5.34788 4.95641 5.66139 5.06589 5.97655 5.26494C6.29172 5.46399 6.55547 5.7493 6.76779 6.12087C6.98011 6.49243 7.08627 6.94694 7.08627 7.48438C7.08627 7.99528 6.97016 8.45476 6.73793 8.86282C6.5057 9.27088 6.13911 9.59434 5.63816 9.8332C5.13722 10.0721 4.48532 10.1915 3.68247 10.1915H0ZM1.23413 9.0967H3.68247C4.48864 9.0967 5.06091 8.94078 5.3993 8.62893C5.74101 8.31376 5.91186 7.93225 5.91186 7.48438C5.91186 7.13935 5.82395 6.82087 5.64812 6.52893C5.47229 6.23366 5.22181 5.99812 4.89669 5.82229C4.57157 5.64314 4.18674 5.55357 3.74219 5.55357H1.23413V9.0967ZM1.23413 4.47868H3.52323C3.8948 4.47868 4.22987 4.4057 4.52845 4.25973C4.83034 4.11375 5.06921 3.90807 5.24504 3.64266C5.42418 3.37726 5.51376 3.06541 5.51376 2.70712C5.51376 2.25925 5.35783 1.87939 5.04598 1.56754C4.73413 1.25237 4.23982 1.09479 3.56304 1.09479H1.23413V4.47868Z" fill="white"/>
</svg>
