<svg width="38" height="8" viewBox="0 0 38 8" fill="none" xmlns="http://www.w3.org/2000/svg">
<path d="M35.7288 2.11034C36.1643 2.11034 36.5529 2.20078 36.8946 2.38167C37.2429 2.56256 37.5143 2.83054 37.7086 3.18561C37.9028 3.54069 38 3.96946 38 4.47193V7.73796H36.8644V4.64277C36.8644 4.147 36.7405 3.76848 36.4926 3.50719C36.2447 3.23921 35.9064 3.10522 35.4776 3.10522C35.0488 3.10522 34.7072 3.23921 34.4526 3.50719C34.2047 3.76848 34.0808 4.147 34.0808 4.64277V7.73796H32.9351V2.20078H34.0808V2.83389C34.2683 2.6061 34.5062 2.42856 34.7943 2.30127C35.089 2.17398 35.4006 2.11034 35.7288 2.11034Z" fill="black"/>
<path d="M28.9285 7.82841C28.4059 7.82841 27.9336 7.71116 27.5116 7.47668C27.0895 7.2355 26.7579 6.90052 26.5167 6.47175C26.2755 6.03628 26.1549 5.53381 26.1549 4.96435C26.1549 4.40158 26.2788 3.90247 26.5267 3.467C26.7746 3.03152 27.1129 2.69655 27.5417 2.46206C27.9705 2.22758 28.4495 2.11034 28.9788 2.11034C29.508 2.11034 29.987 2.22758 30.4158 2.46206C30.8446 2.69655 31.1829 3.03152 31.4308 3.467C31.6787 3.90247 31.8026 4.40158 31.8026 4.96435C31.8026 5.52711 31.6753 6.02623 31.4207 6.4617C31.1662 6.89717 30.8178 7.2355 30.3756 7.47668C29.9401 7.71116 29.4578 7.82841 28.9285 7.82841ZM28.9285 6.83352C29.2233 6.83352 29.498 6.76318 29.7526 6.62249C30.0138 6.4818 30.2249 6.27076 30.3857 5.98938C30.5465 5.708 30.6268 5.36632 30.6268 4.96435C30.6268 4.56237 30.5498 4.22405 30.3957 3.94936C30.2416 3.66798 30.0373 3.45695 29.7827 3.31626C29.5281 3.17557 29.2534 3.10522 28.9587 3.10522C28.6639 3.10522 28.3892 3.17557 28.1346 3.31626C27.8867 3.45695 27.6891 3.66798 27.5417 3.94936C27.3943 4.22405 27.3206 4.56237 27.3206 4.96435C27.3206 5.56061 27.4714 6.02288 27.7728 6.35116C28.081 6.67273 28.4662 6.83352 28.9285 6.83352Z" fill="black"/>
<path d="M24.4599 1.4672C24.2522 1.4672 24.078 1.39686 23.9373 1.25617C23.7966 1.11548 23.7263 0.941288 23.7263 0.733602C23.7263 0.525915 23.7966 0.351727 23.9373 0.211036C24.078 0.0703454 24.2522 0 24.4599 0C24.6608 0 24.8317 0.0703454 24.9724 0.211036C25.1131 0.351727 25.1834 0.525915 25.1834 0.733602C25.1834 0.941288 25.1131 1.11548 24.9724 1.25617C24.8317 1.39686 24.6608 1.4672 24.4599 1.4672ZM25.0226 2.2008V7.73799H23.877V2.2008H25.0226Z" fill="black"/>
<path d="M20.2149 2.11041C20.6369 2.11041 21.0121 2.20085 21.3404 2.38174C21.6754 2.56263 21.9367 2.83061 22.1242 3.18569C22.3185 3.54076 22.4157 3.96954 22.4157 4.472V7.73804H21.2801V4.64284C21.2801 4.14707 21.1562 3.76855 20.9083 3.50727C20.6604 3.23928 20.3221 3.10529 19.8933 3.10529C19.4645 3.10529 19.1228 3.23928 18.8683 3.50727C18.6204 3.76855 18.4964 4.14707 18.4964 4.64284V7.73804H17.3508V0.301529H18.4964V2.84401C18.6907 2.60953 18.9353 2.42864 19.23 2.30135C19.5315 2.17406 19.8598 2.11041 20.2149 2.11041Z" fill="black"/>
<path d="M13.9925 7.82841C13.5571 7.82841 13.1651 7.75136 12.8168 7.59727C12.4751 7.43648 12.2038 7.2221 12.0028 6.95412C11.8018 6.67943 11.6946 6.3746 11.6812 6.03963H12.867C12.8871 6.27411 12.9977 6.47175 13.1986 6.63254C13.4063 6.78663 13.6643 6.86367 13.9724 6.86367C14.294 6.86367 14.5419 6.80338 14.7161 6.68278C14.897 6.55549 14.9874 6.3947 14.9874 6.20042C14.9874 5.99273 14.8869 5.83864 14.6859 5.73815C14.4917 5.63765 14.1801 5.52711 13.7514 5.40652C13.336 5.29263 12.9977 5.18208 12.7364 5.07489C12.4751 4.9677 12.2473 4.80356 12.053 4.58247C11.8654 4.36139 11.7716 4.06996 11.7716 3.70818C11.7716 3.4134 11.8587 3.14542 12.0329 2.90423C12.2071 2.65635 12.455 2.46206 12.7766 2.32137C13.1048 2.18068 13.48 2.11034 13.9021 2.11034C14.5318 2.11034 15.0377 2.27112 15.4195 2.5927C15.8081 2.90758 16.0158 3.3397 16.0426 3.88907H14.897C14.8769 3.64118 14.7764 3.44355 14.5955 3.29616C14.4146 3.14877 14.1701 3.07507 13.8619 3.07507C13.5604 3.07507 13.3293 3.13202 13.1685 3.24591C13.0077 3.3598 12.9273 3.51054 12.9273 3.69813C12.9273 3.84552 12.9809 3.96946 13.0881 4.06996C13.1953 4.17045 13.3259 4.25084 13.48 4.31114C13.6341 4.36474 13.8619 4.43508 14.1634 4.52218C14.5653 4.62937 14.8936 4.73991 15.1482 4.8538C15.4095 4.961 15.6339 5.12179 15.8215 5.33617C16.0091 5.55056 16.1062 5.83529 16.1129 6.19037C16.1129 6.50525 16.0259 6.78663 15.8517 7.03451C15.6775 7.28239 15.4296 7.47668 15.108 7.61737C14.7931 7.75806 14.4213 7.82841 13.9925 7.82841Z" fill="black"/>
<path d="M4.79 4.94425C4.79 4.38818 4.90389 3.89577 5.13167 3.467C5.36616 3.03822 5.68104 2.7066 6.07631 2.47211C6.47828 2.23093 6.92045 2.11034 7.40282 2.11034C7.83829 2.11034 8.21682 2.19743 8.5384 2.37162C8.86668 2.53911 9.12796 2.75014 9.32225 3.00473V2.20078H10.4779V7.73796H9.32225V6.91392C9.12796 7.1752 8.86333 7.39294 8.52835 7.56712C8.19337 7.74131 7.8115 7.82841 7.38272 7.82841C6.90705 7.82841 6.47158 7.70782 6.07631 7.46663C5.68104 7.21875 5.36616 6.87707 5.13167 6.4416C4.90389 5.99943 4.79 5.50031 4.79 4.94425ZM9.32225 4.96435C9.32225 4.58247 9.24185 4.25084 9.08106 3.96946C8.92697 3.68808 8.72264 3.4737 8.46805 3.32631C8.21347 3.17891 7.93879 3.10522 7.64401 3.10522C7.34923 3.10522 7.07454 3.17891 6.81996 3.32631C6.56538 3.467 6.35769 3.67803 6.1969 3.95941C6.04281 4.2341 5.96577 4.56237 5.96577 4.94425C5.96577 5.32612 6.04281 5.6611 6.1969 5.94918C6.35769 6.23726 6.56538 6.45835 6.81996 6.61244C7.08124 6.75983 7.35593 6.83352 7.64401 6.83352C7.93879 6.83352 8.21347 6.75983 8.46805 6.61244C8.72264 6.46505 8.92697 6.25066 9.08106 5.96928C9.24185 5.6812 9.32225 5.34622 9.32225 4.96435Z" fill="black"/>
<path d="M4.11018 0.7537V1.68829H1.14562V3.7484H3.45697V4.68299H1.14562V7.73799H0V0.7537H4.11018Z" fill="black"/>
</svg>
