<svg width="24" height="8" viewBox="0 0 24 8" fill="none" xmlns="http://www.w3.org/2000/svg">
<path d="M18.1399 4.78335C18.1399 4.21046 18.2572 3.70313 18.4919 3.26138C18.7335 2.81962 19.0579 2.47796 19.4651 2.23637C19.8793 1.98789 20.3383 1.86364 20.8422 1.86364C21.2149 1.86364 21.5807 1.94647 21.9396 2.11213C22.3055 2.27089 22.5954 2.48486 22.8093 2.75405V0H24V7.66165H22.8093V6.8023C22.6161 7.0784 22.3469 7.30618 22.0018 7.48564C21.6635 7.6651 21.2736 7.75483 20.8318 7.75483C20.3348 7.75483 19.8793 7.63059 19.4651 7.3821C19.0579 7.12671 18.7335 6.77469 18.4919 6.32604C18.2572 5.87048 18.1399 5.35625 18.1399 4.78335ZM22.8093 4.80406C22.8093 4.41063 22.7265 4.06896 22.5608 3.77906C22.4021 3.48916 22.1916 3.26828 21.9293 3.11643C21.667 2.96457 21.384 2.88865 21.0803 2.88865C20.7766 2.88865 20.4936 2.96457 20.2313 3.11643C19.969 3.26138 19.755 3.4788 19.5894 3.7687C19.4306 4.0517 19.3512 4.38992 19.3512 4.78335C19.3512 5.17679 19.4306 5.52191 19.5894 5.81871C19.755 6.11551 19.969 6.34329 20.2313 6.50205C20.5005 6.6539 20.7835 6.72983 21.0803 6.72983C21.384 6.72983 21.667 6.6539 21.9293 6.50205C22.1916 6.3502 22.4021 6.12932 22.5608 5.83942C22.7265 5.54262 22.8093 5.1975 22.8093 4.80406Z" fill="black"/>
<path d="M14.4054 7.75488C13.867 7.75488 13.3804 7.63409 12.9455 7.39251C12.5107 7.14402 12.169 6.7989 11.9205 6.35715C11.672 5.90849 11.5478 5.39081 11.5478 4.80411C11.5478 4.22431 11.6755 3.71008 11.9309 3.26143C12.1863 2.81277 12.5348 2.46765 12.9766 2.22607C13.4184 1.98449 13.9119 1.86369 14.4572 1.86369C15.0024 1.86369 15.496 1.98449 15.9377 2.22607C16.3795 2.46765 16.728 2.81277 16.9834 3.26143C17.2388 3.71008 17.3665 4.22431 17.3665 4.80411C17.3665 5.38391 17.2354 5.89814 16.9731 6.34679C16.7108 6.79545 16.3519 7.14402 15.8963 7.39251C15.4477 7.63409 14.9507 7.75488 14.4054 7.75488ZM14.4054 6.72988C14.7091 6.72988 14.9921 6.6574 15.2544 6.51245C15.5236 6.3675 15.741 6.15008 15.9067 5.86018C16.0723 5.57028 16.1551 5.21825 16.1551 4.80411C16.1551 4.38997 16.0758 4.0414 15.917 3.7584C15.7583 3.4685 15.5477 3.25107 15.2854 3.10612C15.0232 2.96117 14.7402 2.8887 14.4365 2.8887C14.1327 2.8887 13.8498 2.96117 13.5875 3.10612C13.3321 3.25107 13.1285 3.4685 12.9766 3.7584C12.8247 4.0414 12.7488 4.38997 12.7488 4.80411C12.7488 5.41842 12.9041 5.89469 13.2147 6.23291C13.5322 6.56422 13.9291 6.72988 14.4054 6.72988Z" fill="black"/>
<path d="M7.80296 7.75488C7.26458 7.75488 6.77796 7.63409 6.34311 7.39251C5.90826 7.14402 5.56659 6.7989 5.3181 6.35715C5.06962 5.90849 4.94538 5.39081 4.94538 4.80411C4.94538 4.22431 5.07307 3.71008 5.32846 3.26143C5.58385 2.81277 5.93242 2.46765 6.37417 2.22607C6.81592 1.98449 7.30944 1.86369 7.85473 1.86369C8.40002 1.86369 8.89354 1.98449 9.33529 2.22607C9.77705 2.46765 10.1256 2.81277 10.381 3.26143C10.6364 3.71008 10.7641 4.22431 10.7641 4.80411C10.7641 5.38391 10.6329 5.89814 10.3707 6.34679C10.1084 6.79545 9.74944 7.14402 9.29388 7.39251C8.84522 7.63409 8.34825 7.75488 7.80296 7.75488ZM7.80296 6.72988C8.10667 6.72988 8.38967 6.6574 8.65196 6.51245C8.92115 6.3675 9.13858 6.15008 9.30423 5.86018C9.46989 5.57028 9.55272 5.21825 9.55272 4.80411C9.55272 4.38997 9.47334 4.0414 9.31459 3.7584C9.15583 3.4685 8.94531 3.25107 8.68302 3.10612C8.42073 2.96117 8.13773 2.8887 7.83402 2.8887C7.53032 2.8887 7.24732 2.96117 6.98503 3.10612C6.72964 3.25107 6.52602 3.4685 6.37417 3.7584C6.22232 4.0414 6.14639 4.38997 6.14639 4.80411C6.14639 5.41842 6.3017 5.89469 6.6123 6.23291C6.92981 6.56422 7.3267 6.72988 7.80296 6.72988Z" fill="black"/>
<path d="M4.23461 0.465861V1.42874H1.18031V3.55123H3.56163V4.51411H1.18031V7.6616H0V0.465861H4.23461Z" fill="black"/>
</svg>
