<svg width="68" height="13" viewBox="0 0 68 13" fill="none" xmlns="http://www.w3.org/2000/svg">
<path d="M59.7605 12.2905V0.572119H68V3.13551H62.9419V5.14961H67.4965V7.713H62.9419V12.2905H59.7605Z" fill="#34991B"/>
<path d="M50.3509 12.2905V0.572119H58.5904V3.13551H53.5323V5.14961H58.0869V7.713H53.5323V12.2905H50.3509Z" fill="#34991B"/>
<path d="M48.879 6.43146C48.879 7.73604 48.6253 8.83655 48.118 9.73297C47.6106 10.6256 46.9259 11.3027 46.0638 11.7642C45.2017 12.222 44.2404 12.4509 43.18 12.4509C42.1119 12.4509 41.1468 12.2201 40.2847 11.7585C39.4264 11.2931 38.7436 10.6141 38.2363 9.72153C37.7328 8.82511 37.481 7.72842 37.481 6.43146C37.481 5.12688 37.7328 4.02828 38.2363 3.13567C38.7436 2.23924 39.4264 1.56216 40.2847 1.10441C41.1468 0.642845 42.1119 0.412063 43.18 0.412063C44.2404 0.412063 45.2017 0.642845 46.0638 1.10441C46.9259 1.56216 47.6106 2.23924 48.118 3.13567C48.6253 4.02828 48.879 5.12688 48.879 6.43146ZM45.6061 6.43146C45.6061 5.72958 45.5126 5.13832 45.3257 4.65768C45.1426 4.17323 44.8698 3.80703 44.5075 3.55909C44.1489 3.30732 43.7064 3.18144 43.18 3.18144C42.6536 3.18144 42.2092 3.30732 41.8468 3.55909C41.4882 3.80703 41.2155 4.17323 41.0286 4.65768C40.8455 5.13832 40.7539 5.72958 40.7539 6.43146C40.7539 7.13334 40.8455 7.72651 41.0286 8.21096C41.2155 8.6916 41.4882 9.05779 41.8468 9.30956C42.2092 9.5575 42.6536 9.68148 43.18 9.68148C43.7064 9.68148 44.1489 9.5575 44.5075 9.30956C44.8698 9.05779 45.1426 8.6916 45.3257 8.21096C45.5126 7.72651 45.6061 7.13334 45.6061 6.43146Z" fill="#34991B"/>
<path d="M26.6953 10.0934V9.4754C26.6953 8.97951 26.8021 8.52176 27.0158 8.10215C27.2332 7.68255 27.5479 7.34496 27.9599 7.08938C28.3718 6.83381 28.8734 6.70602 29.4647 6.70602C30.0712 6.70602 30.5805 6.8319 30.9924 7.08366C31.4082 7.33543 31.7229 7.67111 31.9366 8.09071C32.1502 8.51031 32.257 8.97188 32.257 9.4754V10.0934C32.257 10.5893 32.1483 11.047 31.9308 11.4666C31.7172 11.8862 31.4025 12.2238 30.9867 12.4794C30.5709 12.735 30.0636 12.8627 29.4647 12.8627C28.8658 12.8627 28.3604 12.735 27.9484 12.4794C27.5364 12.2238 27.2236 11.8862 27.01 11.4666C26.8002 11.047 26.6953 10.5893 26.6953 10.0934ZM28.6865 9.4754V10.0934C28.6865 10.3108 28.7399 10.5263 28.8467 10.7399C28.9574 10.9497 29.1634 11.0546 29.4647 11.0546C29.7813 11.0546 29.9892 10.9516 30.0884 10.7457C30.1914 10.5397 30.2429 10.3222 30.2429 10.0934V9.4754C30.2429 9.24653 30.1952 9.02528 30.0998 8.81166C30.0045 8.59805 29.7928 8.49124 29.4647 8.49124C29.1634 8.49124 28.9574 8.59805 28.8467 8.81166C28.7399 9.02528 28.6865 9.24653 28.6865 9.4754ZM20.5615 3.38734V2.76938C20.5615 2.26586 20.6702 1.80429 20.8876 1.38469C21.1089 0.965087 21.4255 0.629405 21.8375 0.377643C22.2494 0.125881 22.7472 0 23.3309 0C23.9374 0 24.4466 0.125881 24.8586 0.377643C25.2744 0.629405 25.5891 0.965087 25.8027 1.38469C26.0163 1.80429 26.1231 2.26586 26.1231 2.76938V3.38734C26.1231 3.89087 26.0144 4.35052 25.797 4.76631C25.5834 5.1821 25.2687 5.51397 24.8529 5.76191C24.4371 6.00986 23.9298 6.13383 23.3309 6.13383C22.732 6.13383 22.2266 6.00795 21.8146 5.75619C21.4026 5.50443 21.0898 5.17065 20.8762 4.75487C20.6664 4.33908 20.5615 3.88324 20.5615 3.38734ZM22.5756 2.76938V3.38734C22.5756 3.61622 22.629 3.83365 22.7358 4.03963C22.8426 4.24562 23.041 4.34861 23.3309 4.34861C23.6475 4.34861 23.8554 4.24562 23.9546 4.03963C24.0575 3.83365 24.109 3.61622 24.109 3.38734V2.76938C24.109 2.54051 24.0614 2.31926 23.966 2.10564C23.8706 1.89203 23.6589 1.78522 23.3309 1.78522C23.0295 1.78522 22.8273 1.89584 22.7244 2.11709C22.6252 2.33452 22.5756 2.55195 22.5756 2.76938ZM21.5342 12.2906L29.5906 0.572186H31.2156L23.1592 12.2906H21.5342Z" fill="#34991B"/>
<path d="M13.3233 12.6111C12.2591 12.6073 11.3398 12.3612 10.5654 11.8729C9.79105 11.3847 9.19407 10.6809 8.77446 9.76158C8.35486 8.84227 8.14697 7.73986 8.15078 6.45435C8.15459 5.16502 8.3644 4.07024 8.78018 3.17C9.19979 2.26976 9.79486 1.58504 10.5654 1.11585C11.3398 0.64666 12.2591 0.412063 13.3233 0.412063C14.3876 0.412063 15.3069 0.648567 16.0813 1.12157C16.8556 1.59077 17.4526 2.27548 17.8722 3.17572C18.2918 4.07596 18.4997 5.16884 18.4959 6.45435C18.4959 7.74749 18.2861 8.85371 17.8665 9.77303C17.4469 10.6923 16.8499 11.3961 16.0756 11.8844C15.305 12.3688 14.3876 12.6111 13.3233 12.6111ZM13.3233 10.0248C13.8726 10.0248 14.3228 9.7387 14.6737 9.16651C15.0285 8.59051 15.2039 7.68646 15.2001 6.45435C15.2001 5.64947 15.12 4.99146 14.9598 4.48031C14.7996 3.96915 14.5783 3.59151 14.2961 3.34738C14.0138 3.09943 13.6895 2.97546 13.3233 2.97546C12.774 2.97546 12.3258 3.25392 11.9787 3.81085C11.6316 4.36778 11.4542 5.24894 11.4466 6.45435C11.4428 7.27448 11.521 7.94966 11.6812 8.47989C11.8414 9.0063 12.0626 9.39538 12.3449 9.64715C12.631 9.89891 12.9571 10.0248 13.3233 10.0248Z" fill="#34991B"/>
<path d="M5.81341 0.572119V12.2905H2.63206V3.50171H2.56339L0 5.03517V2.33445L2.88382 0.572119H5.81341Z" fill="#34991B"/>
</svg>
