<svg width="119" height="153" viewBox="0 0 119 153" fill="none" xmlns="http://www.w3.org/2000/svg">
<g filter="url(#filter0_d_252_551)">
<path fill-rule="evenodd" clip-rule="evenodd" d="M99 1H20C9.50659 1 1 9.50659 1 20V133C1 143.493 9.50659 152 20 152H99C109.493 152 118 143.493 118 133V20C118 9.50659 109.493 1 99 1ZM20 0C8.95431 0 0 8.9543 0 20V133C0 144.046 8.9543 153 20 153H99C110.046 153 119 144.046 119 133V20C119 8.95431 110.046 0 99 0H20Z" fill="white"/>
</g>
<defs>
<filter id="filter0_d_252_551" x="-64" y="-60" width="247" height="281" filterUnits="userSpaceOnUse" color-interpolation-filters="sRGB">
<feFlood flood-opacity="0" result="BackgroundImageFix"/>
<feColorMatrix in="SourceAlpha" type="matrix" values="0 0 0 0 0 0 0 0 0 0 0 0 0 0 0 0 0 0 127 0" result="hardAlpha"/>
<feOffset dy="4"/>
<feGaussianBlur stdDeviation="32"/>
<feComposite in2="hardAlpha" operator="out"/>
<feColorMatrix type="matrix" values="0 0 0 0 0.633333 0 0 0 0 0.633333 0 0 0 0 0.633333 0 0 0 0.25 0"/>
<feBlend mode="normal" in2="BackgroundImageFix" result="effect1_dropShadow_252_551"/>
<feBlend mode="normal" in="SourceGraphic" in2="effect1_dropShadow_252_551" result="shape"/>
</filter>
</defs>
</svg>
