<svg width="28" height="28" viewBox="0 0 28 28" fill="none" xmlns="http://www.w3.org/2000/svg">
<path d="M19.25 7.87497C19.168 7.95632 19.1029 8.05309 19.0585 8.15972C19.014 8.26635 18.9912 8.38071 18.9912 8.49622C18.9912 8.61173 19.014 8.7261 19.0585 8.83273C19.1029 8.93936 19.168 9.03613 19.25 9.11747L23.275 13.1425H2.67749C2.44543 13.1425 2.22287 13.2347 2.05877 13.3988C1.89468 13.5628 1.80249 13.7854 1.80249 14.0175C1.80249 14.2495 1.89468 14.4721 2.05877 14.6362C2.22287 14.8003 2.44543 14.8925 2.67749 14.8925H23.2575L19.25 18.8912C19.087 19.0552 18.9955 19.2769 18.9955 19.5081C18.9955 19.7393 19.087 19.961 19.25 20.125C19.4139 20.2879 19.6357 20.3794 19.8669 20.3794C20.098 20.3794 20.3198 20.2879 20.4837 20.125L26.0487 14.56C26.1236 14.4881 26.1832 14.4018 26.224 14.3064C26.2647 14.2109 26.2857 14.1081 26.2857 14.0043C26.2857 13.9005 26.2647 13.7978 26.224 13.7023C26.1832 13.6069 26.1236 13.5206 26.0487 13.4487L20.4925 7.87497C20.4111 7.79296 20.3144 7.72787 20.2077 7.68344C20.1011 7.63902 19.9867 7.61615 19.8712 7.61615C19.7557 7.61615 19.6414 7.63902 19.5347 7.68344C19.4281 7.72787 19.3313 7.79296 19.25 7.87497Z" fill="white"/>
</svg>
