<svg width="20" height="20" viewBox="0 0 20 20" fill="none" xmlns="http://www.w3.org/2000/svg">
<g clip-path="url(#clip0_208_1831)">
<path d="M18.3334 14.1684C18.333 15.308 17.9435 16.4133 17.2293 17.3014C16.515 18.1894 15.519 18.8069 14.4059 19.0517L13.8742 17.4567C14.3611 17.3765 14.8241 17.1893 15.2299 16.9086C15.6357 16.6279 15.9742 16.2607 16.2209 15.8334H14.1667C13.7247 15.8334 13.3008 15.6578 12.9882 15.3452C12.6757 15.0326 12.5001 14.6087 12.5001 14.1667V10.8334C12.5001 10.3913 12.6757 9.9674 12.9882 9.65484C13.3008 9.34228 13.7247 9.16669 14.1667 9.16669H16.6151C16.4117 7.55577 15.6275 6.07442 14.4096 5.00058C13.1917 3.92675 11.6238 3.33425 10.0001 3.33425C8.37637 3.33425 6.80847 3.92675 5.59056 5.00058C4.37265 6.07442 3.58844 7.55577 3.38508 9.16669H5.83341C6.27544 9.16669 6.69936 9.34228 7.01192 9.65484C7.32449 9.9674 7.50008 10.3913 7.50008 10.8334V14.1667C7.50008 14.6087 7.32449 15.0326 7.01192 15.3452C6.69936 15.6578 6.27544 15.8334 5.83341 15.8334H3.33341C2.89139 15.8334 2.46746 15.6578 2.1549 15.3452C1.84234 15.0326 1.66675 14.6087 1.66675 14.1667V10C1.66675 5.39752 5.39758 1.66669 10.0001 1.66669C14.6026 1.66669 18.3334 5.39752 18.3334 10V14.1684Z" fill="white"/>
</g>
<defs>
<clipPath id="clip0_208_1831">
<rect width="20" height="20" fill="white"/>
</clipPath>
</defs>
</svg>
