<svg width="85" height="11" viewBox="0 0 85 11" fill="none" xmlns="http://www.w3.org/2000/svg">
<path d="M77.5352 10.3312H76.2413L79.9837 0.139298H81.2577L85 10.3312H83.7061L80.6605 1.75169H80.5809L77.5352 10.3312ZM78.013 6.34998H83.2284V7.44481H78.013V6.34998Z" fill="white"/>
<path d="M70.6689 10.3312H67.5237V0.139298H70.8082C71.7969 0.139298 72.6429 0.343335 73.3463 0.751409C74.0496 1.15616 74.5887 1.73842 74.9636 2.49816C75.3385 3.25459 75.526 4.16032 75.526 5.21534C75.526 6.27699 75.3369 7.19101 74.9587 7.95739C74.5804 8.72046 74.0297 9.30768 73.3064 9.71908C72.5832 10.1271 71.704 10.3312 70.6689 10.3312ZM68.7579 9.23635H70.5893C71.432 9.23635 72.1303 9.07379 72.6844 8.74866C73.2384 8.42353 73.6515 7.96071 73.9235 7.36021C74.1956 6.75971 74.3316 6.04475 74.3316 5.21534C74.3316 4.39255 74.1972 3.68423 73.9285 3.09037C73.6598 2.49319 73.2583 2.03535 72.7242 1.71685C72.1901 1.39504 71.5249 1.23413 70.7286 1.23413H68.7579V9.23635Z" fill="white"/>
<path d="M65.0542 0.139298V10.3312H63.8598L58.306 2.32896H58.2065V10.3312H56.9723V0.139298H58.1667L63.7404 8.16143H63.8399V0.139298H65.0542Z" fill="white"/>
<path d="M47.92 10.3312H46.6261L50.3685 0.139298H51.6425L55.3848 10.3312H54.0909L51.0453 1.75169H50.9657L47.92 10.3312ZM48.3978 6.34998H53.6132V7.44481H48.3978V6.34998Z" fill="white"/>
<path d="M39.6466 10.3312V0.139298H43.0903C43.8899 0.139298 44.5435 0.283616 45.0511 0.572254C45.562 0.857574 45.9402 1.24408 46.1857 1.73178C46.4312 2.21948 46.554 2.76358 46.554 3.36408C46.554 3.96457 46.4312 4.51033 46.1857 5.00135C45.9435 5.49236 45.5686 5.88385 45.061 6.1758C44.5534 6.46444 43.9032 6.60876 43.1102 6.60876H40.6419V5.51393H43.0704C43.6178 5.51393 44.0574 5.41937 44.3892 5.23027C44.721 5.04116 44.9615 4.7857 45.1108 4.46388C45.2634 4.13875 45.3397 3.77215 45.3397 3.36408C45.3397 2.956 45.2634 2.59106 45.1108 2.26924C44.9615 1.94743 44.7193 1.69529 44.3842 1.51281C44.0491 1.32702 43.6046 1.23413 43.0505 1.23413H40.8808V10.3312H39.6466Z" fill="white"/>
<path d="M32.7193 10.3312H29.5741V0.139298H32.8586C33.8473 0.139298 34.6933 0.343335 35.3967 0.751409C36.1 1.15616 36.6391 1.73842 37.014 2.49816C37.3889 3.25459 37.5764 4.16032 37.5764 5.21534C37.5764 6.27699 37.3873 7.19101 37.009 7.95739C36.6308 8.72046 36.0801 9.30768 35.3568 9.71908C34.6336 10.1271 33.7544 10.3312 32.7193 10.3312ZM30.8083 9.23635H32.6397C33.4824 9.23635 34.1807 9.07379 34.7348 8.74866C35.2888 8.42353 35.7019 7.96071 35.9739 7.36021C36.246 6.75971 36.382 6.04475 36.382 5.21534C36.382 4.39255 36.2476 3.68423 35.9789 3.09037C35.7102 2.49319 35.3087 2.03535 34.7746 1.71685C34.2405 1.39504 33.5753 1.23413 32.779 1.23413H30.8083V9.23635Z" fill="white"/>
<path d="M27.4989 5.23529C27.4989 6.31021 27.3049 7.23916 26.9167 8.02213C26.5285 8.8051 25.996 9.40892 25.3192 9.83358C24.6424 10.2582 23.8694 10.4706 23.0002 10.4706C22.1309 10.4706 21.3579 10.2582 20.6811 9.83358C20.0043 9.40892 19.4718 8.8051 19.0837 8.02213C18.6955 7.23916 18.5014 6.31021 18.5014 5.23529C18.5014 4.16036 18.6955 3.23141 19.0837 2.44844C19.4718 1.66547 20.0043 1.06166 20.6811 0.636993C21.3579 0.212331 22.1309 0 23.0002 0C23.8694 0 24.6424 0.212331 25.3192 0.636993C25.996 1.06166 26.5285 1.66547 26.9167 2.44844C27.3049 3.23141 27.4989 4.16036 27.4989 5.23529ZM26.3046 5.23529C26.3046 4.35279 26.1569 3.60797 25.8617 3.00083C25.5697 2.3937 25.1733 1.9342 24.6723 1.62234C24.1746 1.31048 23.6173 1.15455 23.0002 1.15455C22.3831 1.15455 21.8241 1.31048 21.3231 1.62234C20.8254 1.9342 20.429 2.3937 20.1337 3.00083C19.8418 3.60797 19.6958 4.35279 19.6958 5.23529C19.6958 6.11779 19.8418 6.86261 20.1337 7.46974C20.429 8.07687 20.8254 8.53637 21.3231 8.84823C21.8241 9.16009 22.3831 9.31602 23.0002 9.31602C23.6173 9.31602 24.1746 9.16009 24.6723 8.84823C25.1733 8.53637 25.5697 8.07687 25.8617 7.46974C26.1569 6.86261 26.3046 6.11779 26.3046 5.23529Z" fill="white"/>
<path d="M16.8243 5.23529C16.8243 6.31021 16.6302 7.23916 16.2421 8.02213C15.8539 8.8051 15.3214 9.40892 14.6446 9.83358C13.9678 10.2582 13.1948 10.4706 12.3256 10.4706C11.4563 10.4706 10.6833 10.2582 10.0065 9.83358C9.32971 9.40892 8.79722 8.8051 8.40906 8.02213C8.02089 7.23916 7.8268 6.31021 7.8268 5.23529C7.8268 4.16036 8.02089 3.23141 8.40906 2.44844C8.79722 1.66547 9.32971 1.06166 10.0065 0.636993C10.6833 0.212331 11.4563 0 12.3256 0C13.1948 0 13.9678 0.212331 14.6446 0.636993C15.3214 1.06166 15.8539 1.66547 16.2421 2.44844C16.6302 3.23141 16.8243 4.16036 16.8243 5.23529ZM15.63 5.23529C15.63 4.35279 15.4823 3.60797 15.1871 3.00083C14.8951 2.3937 14.4986 1.9342 13.9977 1.62234C13.5 1.31048 12.9427 1.15455 12.3256 1.15455C11.7085 1.15455 11.1495 1.31048 10.6485 1.62234C10.1508 1.9342 9.75437 2.3937 9.4591 3.00083C9.16714 3.60797 9.02117 4.35279 9.02117 5.23529C9.02117 6.11779 9.16714 6.86261 9.4591 7.46974C9.75437 8.07687 10.1508 8.53637 10.6485 8.84823C11.1495 9.16009 11.7085 9.31602 12.3256 9.31602C12.9427 9.31602 13.5 9.16009 13.9977 8.84823C14.4986 8.53637 14.8951 8.07687 15.1871 7.46974C15.4823 6.86261 15.63 6.11779 15.63 5.23529Z" fill="white"/>
<path d="M0 10.3312V0.139298H6.11115V1.23413H1.23417V4.67787H5.65331V5.77271H1.23417V10.3312H0Z" fill="white"/>
</svg>
