<svg width="28" height="28" viewBox="0 0 28 28" fill="none" xmlns="http://www.w3.org/2000/svg">
<path d="M8.74999 7.875C8.83201 7.95635 8.8971 8.05312 8.94152 8.15975C8.98595 8.26638 9.00882 8.38074 9.00882 8.49625C9.00882 8.61176 8.98595 8.72613 8.94152 8.83276C8.8971 8.93939 8.83201 9.03616 8.74999 9.1175L4.72499 13.1425H25.3225C25.5546 13.1425 25.7771 13.2347 25.9412 13.3988C26.1053 13.5629 26.1975 13.7854 26.1975 14.0175C26.1975 14.2496 26.1053 14.4721 25.9412 14.6362C25.7771 14.8003 25.5546 14.8925 25.3225 14.8925H4.7425L8.74999 18.8913C8.91296 19.0552 9.00444 19.277 9.00444 19.5081C9.00444 19.7393 8.91296 19.9611 8.74999 20.125C8.58605 20.288 8.36428 20.3794 8.13312 20.3794C7.90196 20.3794 7.68019 20.288 7.51624 20.125L1.95124 14.56C1.87634 14.4881 1.81675 14.4019 1.77603 14.3064C1.73532 14.2109 1.71433 14.1082 1.71433 14.0044C1.71433 13.9006 1.73532 13.7979 1.77603 13.7024C1.81675 13.6069 1.87634 13.5206 1.95124 13.4488L7.5075 7.875C7.58884 7.79299 7.68561 7.7279 7.79224 7.68347C7.89887 7.63905 8.01324 7.61618 8.12875 7.61618C8.24426 7.61618 8.35862 7.63905 8.46525 7.68347C8.57188 7.7279 8.66865 7.79299 8.74999 7.875Z" fill="#272935"/>
</svg>
