<svg width="28" height="28" viewBox="0 0 28 28" fill="none" xmlns="http://www.w3.org/2000/svg">
<path d="M14 24.2667V26.1333C16.1859 26.1333 17.9219 25.3372 19.2481 24.2667H14Z" fill="#262834"/>
<path d="M4.66675 14.9333V16.8C4.66675 19.1333 6.53341 19.6 6.53341 19.6C6.53341 19.6 8.40008 25.2 14.0001 25.2" stroke="#262834" stroke-width="2" stroke-miterlimit="10" stroke-linecap="round"/>
<path d="M24.2667 15.8666H21.4667C21.4667 10.0426 18.6667 7.46664 18.6667 7.46664C15.8667 14 6.5334 9.3333 6.5334 15.8666H3.7334C3.7334 15.8666 3.7334 15.7565 3.7334 12.1333C3.7334 5.59997 9.3334 1.86664 14.0001 1.86664C17.7334 1.86664 18.6667 3.7333 18.6667 3.7333C22.4001 3.7333 24.2667 8.39997 24.2667 12.1333V15.8666Z" fill="#262834"/>
<path d="M14.4666 19.6C14.3024 19.6 13.6976 19.6 13.5333 19.6C12.7605 19.6 12.1333 20.2272 12.1333 21C12.1333 21.7728 12.7605 22.4 13.5333 22.4C13.6976 22.4 14.3024 22.4 14.4666 22.4C15.2394 22.4 15.8666 21.7728 15.8666 21C15.8666 20.2272 15.2394 19.6 14.4666 19.6Z" fill="#262834"/>
<path d="M14.9333 21.4667H19.6C21.6617 21.4667 23.3333 19.7951 23.3333 17.7333V14.9333" stroke="#262834" stroke-width="2" stroke-miterlimit="10" stroke-linecap="round"/>
<path d="M23.3332 18.6667H21.4666V14H23.3332C24.3646 14 25.1999 14.8353 25.1999 15.8667V16.8C25.1999 17.8313 24.3646 18.6667 23.3332 18.6667Z" fill="#262834"/>
</svg>
