<svg width="32" height="32" viewBox="0 0 32 32" fill="none" xmlns="http://www.w3.org/2000/svg">
<path d="M16.0002 1.33334C13.0994 1.33334 10.2637 2.19353 7.8518 3.80512C5.43988 5.41672 3.56002 7.70733 2.44994 10.3873C1.33985 13.0673 1.0494 16.0163 1.61532 18.8613C2.18123 21.7064 3.5781 24.3197 5.62927 26.3709C7.68044 28.4221 10.2938 29.8189 13.1388 30.3849C15.9839 30.9508 18.9329 30.6603 21.6129 29.5502C24.2928 28.4402 26.5835 26.5603 28.1951 24.1484C29.8066 21.7364 30.6668 18.9008 30.6668 16C30.6668 12.1102 29.1216 8.37964 26.3711 5.62911C23.6205 2.87858 19.89 1.33334 16.0002 1.33334ZM20.9428 20.9427C20.6928 21.1926 20.3537 21.3331 20.0002 21.3331C19.6466 21.3331 19.3075 21.1926 19.0575 20.9427L15.0575 16.9427C14.8074 16.6927 14.6669 16.3536 14.6668 16V8.00001C14.6668 7.64639 14.8073 7.30725 15.0574 7.0572C15.3074 6.80715 15.6465 6.66668 16.0002 6.66668C16.3538 6.66668 16.6929 6.80715 16.943 7.0572C17.193 7.30725 17.3335 7.64639 17.3335 8.00001V15.448L20.9428 19.0573C21.1928 19.3074 21.3332 19.6465 21.3332 20C21.3332 20.3536 21.1928 20.6926 20.9428 20.9427Z" fill="#262834"/>
</svg>
