<svg width="30" height="27" viewBox="0 0 30 27" fill="none" xmlns="http://www.w3.org/2000/svg">
<g clip-path="url(#clip0_630_4082)">
<path d="M25.1823 13.5C24.5469 13.5 23.9271 13.3945 23.3333 13.21V20.25H6.66143V13.21C6.06768 13.3945 5.44268 13.5 4.80987 13.5C4.52602 13.5 4.24216 13.4789 3.91143 13.442C3.7406 13.4156 3.54268 13.3312 3.33331 13.2732L3.33383 24.4688C3.33383 25.8667 4.4531 27 5.78695 27H24.1255C25.5062 27 26.5786 25.8667 26.5786 24.4688L26.5805 13.2732C26.3645 13.3303 26.1592 13.4161 25.9346 13.4463C25.75 13.4789 25.4687 13.5 25.1823 13.5ZM28.5208 5.47383L25.5354 0.691876C25.2695 0.262091 24.7953 -0.000526428 24.289 -0.000526428H5.70831C5.20222 -0.000526428 4.7281 0.262038 4.46195 0.691876L1.4755 5.47383C-0.0656494 7.94338 1.29789 11.3748 4.17862 11.7703C4.38591 11.7967 4.59893 11.8125 4.81039 11.8125C6.17185 11.8125 7.37758 11.2124 8.20571 10.2848C9.03123 11.2113 10.2448 11.8125 11.5989 11.8125C12.9604 11.8125 14.1661 11.2124 14.9942 10.2848C15.8229 11.2113 17.0312 11.8125 18.3906 11.8125C19.7536 11.8125 20.9578 11.2124 21.7859 10.2848C22.6146 11.2113 23.8229 11.8125 25.1771 11.8125C25.3927 11.8125 25.5996 11.7981 25.8067 11.7707C28.6979 11.3801 30.0677 7.94707 28.5208 5.47383Z" fill="#5E7077"/>
</g>
<defs>
<clipPath id="clip0_630_4082">
<rect width="30" height="27" fill="white"/>
</clipPath>
</defs>
</svg>
