<svg width="77" height="24" viewBox="0 0 77 24" fill="none" xmlns="http://www.w3.org/2000/svg">
<path d="M67.2058 23.2515C66.7846 23.2515 66.3946 23.2173 66.036 23.149C65.683 23.0864 65.4013 23.0124 65.1906 22.927L65.9079 20.519C66.3576 20.6499 66.7589 20.7125 67.1119 20.7068C67.4648 20.7012 67.7751 20.5901 68.0426 20.3738C68.3159 20.1632 68.5464 19.8103 68.7343 19.315L68.999 18.6063L64.2428 5.21719H67.5218L70.5446 15.1224H70.6812L73.7125 5.21719H77L71.7485 19.9213C71.5038 20.6158 71.1793 21.2106 70.7751 21.7059C70.3709 22.2069 69.8757 22.5883 69.2893 22.8501C68.7087 23.1177 68.0142 23.2515 67.2058 23.2515Z" fill="black"/>
<path d="M57.2131 18.5892C55.8981 18.5892 54.7624 18.316 53.8061 17.7695C52.8554 17.2173 52.1239 16.4374 51.6116 15.4298C51.0992 14.4165 50.8431 13.2239 50.8431 11.852C50.8431 10.5028 51.0992 9.31878 51.6116 8.29979C52.1296 7.27512 52.8526 6.47815 53.7805 5.90889C54.7084 5.33393 55.7985 5.04645 57.0509 5.04645C57.8592 5.04645 58.622 5.17738 59.3393 5.43924C60.0623 5.69541 60.6999 6.0939 61.252 6.6347C61.8099 7.1755 62.2483 7.86431 62.567 8.70113C62.8858 9.53225 63.0452 10.5228 63.0452 11.6727V12.6205H52.2947V10.537H60.0822C60.0765 9.94497 59.9484 9.4184 59.698 8.95729C59.4475 8.4905 59.0974 8.12332 58.6477 7.85577C58.2036 7.58822 57.6856 7.45444 57.0936 7.45444C56.4617 7.45444 55.9067 7.60814 55.4285 7.91554C54.9503 8.21725 54.5774 8.61574 54.3099 9.11099C54.048 9.60056 53.9142 10.1385 53.9085 10.7249V12.5437C53.9085 13.3065 54.048 13.9611 54.327 14.5076C54.6059 15.0484 54.9958 15.464 55.4968 15.7543C55.9977 16.0389 56.5841 16.1812 57.2558 16.1812C57.7055 16.1812 58.1126 16.1186 58.4769 15.9934C58.8412 15.8625 59.1572 15.6718 59.4247 15.4213C59.6923 15.1708 59.8944 14.8606 60.031 14.4905L62.9171 14.815C62.735 15.5778 62.3877 16.2439 61.8754 16.8131C61.3687 17.3767 60.7198 17.815 59.9285 18.1281C59.1372 18.4355 58.2321 18.5892 57.2131 18.5892Z" fill="black"/>
<path d="M40.4405 10.7559V18.4409H37.3494V5.3251H40.3039V7.55377H40.4576C40.7593 6.81942 41.2403 6.23593 41.9006 5.80329C42.5667 5.37065 43.3893 5.15432 44.3684 5.15432C45.2735 5.15432 46.062 5.34787 46.7337 5.73497C47.4111 6.12207 47.9348 6.6828 48.3048 7.41715C48.6806 8.1515 48.8656 9.04239 48.8599 10.0898V18.4409H45.7688V10.568C45.7688 9.69135 45.5411 9.00539 45.0857 8.51013C44.6359 8.01487 44.0126 7.76724 43.2156 7.76724C42.6748 7.76724 42.1938 7.88679 41.7726 8.12588C41.357 8.35928 41.0297 8.69799 40.7906 9.14202C40.5572 9.58604 40.4405 10.124 40.4405 10.7559Z" fill="black"/>
<path d="M33.9231 8.68405L31.1053 8.99145C31.0256 8.70682 30.8861 8.43926 30.6869 8.18879C30.4933 7.93831 30.2314 7.73622 29.9013 7.58252C29.5711 7.42882 29.1669 7.35197 28.6887 7.35197C28.0455 7.35197 27.5047 7.49144 27.0663 7.77038C26.6337 8.04932 26.4202 8.4108 26.4259 8.85483C26.4202 9.23623 26.5597 9.54648 26.8443 9.78557C27.1347 10.0247 27.6128 10.2211 28.2789 10.3748L30.5161 10.8529C31.7571 11.1205 32.6793 11.5446 33.2827 12.1252C33.8918 12.7059 34.1992 13.4659 34.2049 14.4051C34.1992 15.2306 33.9573 15.9592 33.4791 16.5911C33.0066 17.2173 32.3491 17.7069 31.5066 18.0598C30.6641 18.4128 29.6963 18.5892 28.6034 18.5892C26.998 18.5892 25.7058 18.2534 24.7267 17.5816C23.7475 16.9042 23.164 15.9621 22.9762 14.7552L25.9904 14.4649C26.1271 15.057 26.4174 15.5038 26.8614 15.8055C27.3054 16.1072 27.8832 16.2581 28.5948 16.2581C29.3292 16.2581 29.9183 16.1072 30.3624 15.8055C30.8121 15.5038 31.037 15.131 31.037 14.6869C31.037 14.3112 30.8918 14.001 30.6015 13.7562C30.3168 13.5114 29.8728 13.3235 29.2694 13.1926L27.0322 12.723C25.7741 12.4611 24.8434 12.0199 24.2399 11.3994C23.6365 10.7732 23.3377 9.98197 23.3434 9.02561C23.3377 8.21725 23.5568 7.51706 24.0009 6.92502C24.4506 6.3273 25.0739 5.86619 25.8709 5.54171C26.6735 5.21154 27.5986 5.04645 28.646 5.04645C30.1831 5.04645 31.3927 5.37378 32.2751 6.02843C33.1632 6.68309 33.7125 7.56829 33.9231 8.68405Z" fill="black"/>
<path d="M17.2871 18.3331V5.2173H20.3782V18.3331H17.2871ZM18.8412 3.35581C18.3516 3.35581 17.9304 3.19357 17.5774 2.86909C17.2245 2.53891 17.048 2.14328 17.048 1.68217C17.048 1.21538 17.2245 0.819739 17.5774 0.495259C17.9304 0.165086 18.3516 0 18.8412 0C19.3365 0 19.7577 0.165086 20.105 0.495259C20.4579 0.819739 20.6344 1.21538 20.6344 1.68217C20.6344 2.14328 20.4579 2.53891 20.105 2.86909C19.7577 3.19357 19.3365 3.35581 18.8412 3.35581Z" fill="black"/>
<path d="M5.92603 18.3331H0V0.845356H6.04558C7.78183 0.845356 9.2733 1.19545 10.52 1.89565C11.7724 2.59015 12.7344 3.58921 13.4062 4.89282C14.0779 6.19643 14.4138 7.75621 14.4138 9.57217C14.4138 11.3938 14.075 12.9593 13.3976 14.2686C12.7259 15.5779 11.7553 16.5826 10.4858 17.2828C9.22207 17.983 7.70213 18.3331 5.92603 18.3331ZM3.16795 15.5921H5.77233C6.99056 15.5921 8.00669 15.3701 8.82074 14.9261C9.63478 14.4764 10.2467 13.8075 10.6566 12.9194C11.0665 12.0257 11.2714 10.9099 11.2714 9.57217C11.2714 8.2344 11.0665 7.12433 10.6566 6.24197C10.2467 5.35392 9.64048 4.69073 8.83781 4.2524C8.04085 3.80837 7.05033 3.58636 5.86626 3.58636H3.16795V15.5921Z" fill="black"/>
</svg>
