<svg width="32" height="32" viewBox="0 0 32 32" fill="none" xmlns="http://www.w3.org/2000/svg">
<g clip-path="url(#clip0_630_4085)">
<path d="M27.3219 16.9227L24.1446 15.4844L15.3071 19.4902C14.8914 19.6734 14.4539 19.7719 14 19.7719C13.5461 19.7719 13.1141 19.6734 12.693 19.493L3.85549 15.4844L0.677053 16.9227C-0.225291 17.3328 -0.225291 18.7 0.677053 19.1102L13.4192 24.8852C13.7884 25.0561 14.2122 25.0561 14.5814 24.8852L27.3235 19.1102C28.2242 18.7 28.2242 17.3328 27.3219 16.9227ZM0.677053 12.0938L13.4192 17.8797C13.7884 18.0438 14.2122 18.0438 14.5814 17.8797L27.3219 12.0938C28.2242 11.6836 28.2242 10.3164 27.3219 9.90625L14.5797 4.12032C14.2106 3.95625 13.7867 3.95625 13.4176 4.12032L0.677053 9.90625C-0.225564 10.3164 -0.225564 11.6836 0.677053 12.0938ZM27.3219 23.9117L24.1566 22.4762L15.3027 26.4891C14.8914 26.6734 14.4539 26.7719 14 26.7719C13.5461 26.7719 13.1114 26.6762 12.6941 26.4916L3.84018 22.4786L0.674866 23.9142C-0.227478 24.3243 -0.227478 25.6915 0.674866 26.1017L13.4171 31.8767C13.7862 32.0407 14.21 32.0407 14.5792 31.8767L27.3214 26.1017C28.2242 25.6891 28.2242 24.3219 27.3219 23.9117Z" fill="#5E7077"/>
</g>
<circle cx="23" cy="9" r="8" fill="white" stroke="#5E7077" stroke-width="2"/>
<path d="M27.375 6.5C27.375 6.65992 27.314 6.81992 27.1919 6.9418L22.1919 11.9418C22.0703 12.0645 21.9102 12.125 21.75 12.125C21.5898 12.125 21.4301 12.064 21.3082 11.9419L18.8082 9.44189C18.6861 9.32031 18.625 9.16016 18.625 9C18.625 8.64297 18.917 8.375 19.25 8.375C19.4099 8.375 19.5699 8.43604 19.6918 8.55811L21.75 10.6172L26.3086 6.05859C26.4297 5.93613 26.5898 5.875 26.75 5.875C27.084 5.875 27.375 6.14258 27.375 6.5Z" fill="#5E7077"/>
<defs>
<clipPath id="clip0_630_4085">
<rect width="28" height="28" fill="white" transform="translate(0 4)"/>
</clipPath>
</defs>
</svg>
