<svg width="44" height="11" viewBox="0 0 44 11" fill="none" xmlns="http://www.w3.org/2000/svg">
<path d="M36.4099 10.3631H35.0942L38.8994 0H40.1948L44 10.3631H42.6844L39.5876 1.63947H39.5066L36.4099 10.3631ZM36.8956 6.31499H42.1986V7.42821H36.8956V6.31499Z" fill="white"/>
<path d="M26.8703 10.3631V0H30.3719C31.1815 0 31.8461 0.138309 32.3656 0.414927C32.8851 0.688172 33.2697 1.06431 33.5193 1.54333C33.7689 2.02235 33.8937 2.56715 33.8937 3.17774C33.8937 3.78832 33.7689 4.32975 33.5193 4.80202C33.2697 5.2743 32.8868 5.64537 32.3707 5.91524C31.8545 6.18174 31.195 6.31499 30.3922 6.31499H27.5585V5.18153H30.3517C30.9049 5.18153 31.3502 5.10057 31.6875 4.93865C32.0283 4.77672 32.2745 4.54733 32.4263 4.25047C32.5815 3.95024 32.6591 3.59266 32.6591 3.17774C32.6591 2.76281 32.5815 2.40017 32.4263 2.08982C32.2711 1.77946 32.0232 1.53995 31.6825 1.37128C31.3418 1.19924 30.8914 1.11322 30.3314 1.11322H28.1252V10.3631H26.8703ZM31.7483 5.70778L34.2985 10.3631H32.8412L30.3314 5.70778H31.7483Z" fill="white"/>
<path d="M17.1613 1.11322V0H24.9336V1.11322H21.6749V10.3631H20.42V1.11322H17.1613Z" fill="white"/>
<path d="M9.73434 10.3631H8.41872L12.2239 0H13.5193L17.3245 10.3631H16.0089L12.9121 1.63947H12.8311L9.73434 10.3631ZM10.2201 6.31499H15.5231V7.42821H10.2201V6.31499Z" fill="white"/>
<path d="M0 0H1.43707L4.3112 4.83745H4.43264L7.30677 0H8.74383L4.99937 6.09235V10.3631H3.74447V6.09235L0 0Z" fill="white"/>
</svg>
