<svg width="98" height="11" viewBox="0 0 98 11" fill="none" xmlns="http://www.w3.org/2000/svg">
<path d="M91.0711 10.2236V0H94.5256C95.3276 0 95.9832 0.144767 96.4924 0.434302C97.0049 0.720509 97.3843 1.10822 97.6306 1.59743C97.8769 2.08665 98 2.63244 98 3.2348C98 3.83717 97.8769 4.38462 97.6306 4.87716C97.3876 5.3697 97.0116 5.76241 96.5024 6.05527C95.9932 6.3448 95.3409 6.48957 94.5455 6.48957H92.0695V5.39134H94.5056C95.0547 5.39134 95.4957 5.29649 95.8285 5.10679C96.1613 4.9171 96.4026 4.66084 96.5523 4.33803C96.7054 4.01189 96.782 3.64414 96.782 3.2348C96.782 2.82546 96.7054 2.45938 96.5523 2.13657C96.4026 1.81375 96.1596 1.56083 95.8235 1.37779C95.4874 1.19142 95.0414 1.09823 94.4856 1.09823H92.3091V10.2236H91.0711Z" fill="white"/>
<path d="M88.5889 0V10.2236H87.3509V0H88.5889Z" fill="white"/>
<path d="M78.3591 10.2236V0H81.8135C82.6122 0 83.2678 0.136447 83.7803 0.409342C84.2929 0.678909 84.6722 1.04998 84.9185 1.52255C85.1648 1.99513 85.2879 2.5326 85.2879 3.13496C85.2879 3.73733 85.1648 4.27147 84.9185 4.73739C84.6722 5.2033 84.2945 5.56938 83.7853 5.83562C83.2762 6.09853 82.6255 6.22999 81.8335 6.22999H79.038V5.11178H81.7935C82.3393 5.11178 82.7786 5.03191 83.1114 4.87217C83.4476 4.71243 83.6905 4.48612 83.8403 4.19326C83.9933 3.89707 84.0699 3.5443 84.0699 3.13496C84.0699 2.72562 83.9933 2.36786 83.8403 2.06169C83.6872 1.75551 83.4426 1.51923 83.1064 1.35283C82.7703 1.1831 82.326 1.09823 81.7736 1.09823H79.5971V10.2236H78.3591ZM83.1713 5.63095L85.6873 10.2236H84.2496L81.7736 5.63095H83.1713Z" fill="white"/>
<path d="M68.7807 1.09823V0H76.4484V1.09823H73.2335V10.2236H71.9955V1.09823H68.7807Z" fill="white"/>
<path d="M55.1588 0H56.5766L59.412 4.77233H59.5318L62.3673 0H63.785L60.0909 6.01034V10.2236H58.8529V6.01034L55.1588 0Z" fill="white"/>
<path d="M43.5313 0H45.0089L48.4833 8.48636H48.6031L52.0776 0H53.5552V10.2236H52.397V2.45605H52.2972L49.1023 10.2236H47.9841L44.7893 2.45605H44.6894V10.2236H43.5313V0Z" fill="white"/>
<path d="M31.1761 10.2236V0H37.3462V1.09823H32.4142V4.55268H37.0267V5.65092H32.4142V9.12533H37.4261V10.2236H31.1761Z" fill="white"/>
<path d="M22.0059 10.2236V0H23.2439V5.07185H23.3637L27.9563 0H29.5737L25.2806 4.61259L29.5737 10.2236H28.0761L24.5218 5.47121L23.2439 6.9089V10.2236H22.0059Z" fill="white"/>
<path d="M12.9255 10.2236H11.6276L15.3815 0H16.6595L20.4134 10.2236H19.1155L16.0604 1.6174H15.9806L12.9255 10.2236ZM13.4047 6.22999H18.6363V7.32822H13.4047V6.22999Z" fill="white"/>
<path d="M0 0H1.47763L4.95204 8.48636H5.07185L8.54626 0H10.0239V10.2236H8.86575V2.45605H8.76591L5.57105 10.2236H4.45284L1.25798 2.45605H1.15814V10.2236H0V0Z" fill="white"/>
</svg>
