<svg width="163" height="22" viewBox="0 0 163 22" fill="none" xmlns="http://www.w3.org/2000/svg">
<path d="M162.742 7.95399L160.161 8.23554C160.088 7.97484 159.96 7.72978 159.778 7.50037C159.6 7.27095 159.361 7.08585 159.058 6.94507C158.756 6.80429 158.386 6.73391 157.948 6.73391C157.358 6.73391 156.863 6.86165 156.462 7.11713C156.065 7.37262 155.87 7.70371 155.875 8.11041C155.87 8.45975 155.998 8.74391 156.258 8.9629C156.524 9.18189 156.962 9.36177 157.572 9.50255L159.621 9.94053C160.758 10.1856 161.603 10.574 162.155 11.1059C162.713 11.6377 162.995 12.3338 163 13.1941C162.995 13.9501 162.773 14.6175 162.335 15.1963C161.902 15.7698 161.3 16.2182 160.529 16.5415C159.757 16.8647 158.87 17.0264 157.869 17.0264C156.399 17.0264 155.215 16.7188 154.319 16.1035C153.422 15.483 152.887 14.6201 152.715 13.5147L155.476 13.2488C155.601 13.7911 155.867 14.2004 156.274 14.4767C156.681 14.7531 157.21 14.8912 157.862 14.8912C158.534 14.8912 159.074 14.7531 159.481 14.4767C159.892 14.2004 160.098 13.8589 160.098 13.4522C160.098 13.108 159.965 12.8239 159.7 12.5997C159.439 12.3755 159.032 12.2034 158.479 12.0835L156.43 11.6533C155.278 11.4135 154.426 11.0094 153.873 10.4411C153.32 9.86753 153.046 9.14278 153.052 8.26683C153.046 7.52644 153.247 6.88511 153.654 6.34285C154.066 5.79538 154.637 5.37305 155.367 5.07585C156.102 4.77343 156.949 4.62223 157.909 4.62223C159.316 4.62223 160.424 4.92203 161.232 5.52165C162.046 6.12126 162.549 6.93204 162.742 7.95399Z" fill="black"/>
<path d="M143.833 17.0029C142.889 17.0029 142.044 16.7605 141.299 16.2756C140.553 15.7907 139.964 15.0868 139.531 14.1639C139.098 13.241 138.882 12.12 138.882 10.8008C138.882 9.46605 139.101 8.33982 139.539 7.42216C139.982 6.49928 140.579 5.8032 141.33 5.33394C142.081 4.85947 142.918 4.62223 143.84 4.62223C144.544 4.62223 145.123 4.74215 145.577 4.98199C146.03 5.21663 146.39 5.50079 146.656 5.83449C146.922 6.16297 147.128 6.4732 147.274 6.76519H147.391V0.774282H150.23V16.7917H147.446V14.8991H147.274C147.128 15.191 146.917 15.5013 146.64 15.8298C146.364 16.153 145.999 16.4294 145.545 16.6588C145.092 16.8882 144.521 17.0029 143.833 17.0029ZM144.623 14.6801C145.222 14.6801 145.733 14.5184 146.155 14.1952C146.578 13.8667 146.898 13.4105 147.117 12.8265C147.336 12.2425 147.446 11.5621 147.446 10.7852C147.446 10.0083 147.336 9.33309 147.117 8.75955C146.904 8.18601 146.586 7.74021 146.163 7.42216C145.746 7.1041 145.233 6.94507 144.623 6.94507C143.992 6.94507 143.465 7.10931 143.043 7.4378C142.62 7.76628 142.302 8.2199 142.089 8.79866C141.875 9.37741 141.768 10.0396 141.768 10.7852C141.768 11.536 141.875 12.206 142.089 12.7952C142.308 13.3792 142.628 13.8406 143.051 14.1795C143.478 14.5132 144.002 14.6801 144.623 14.6801Z" fill="black"/>
<path d="M128.785 9.75282V16.7917H125.954V4.77865H128.66V6.81994H128.801C129.077 6.14733 129.518 5.61289 130.122 5.21663C130.732 4.82036 131.486 4.62223 132.383 4.62223C133.212 4.62223 133.934 4.7995 134.549 5.15406C135.17 5.50861 135.649 6.02219 135.988 6.6948C136.332 7.36741 136.502 8.1834 136.496 9.14278V16.7917H133.665V9.58076C133.665 8.7778 133.457 8.14951 133.04 7.69589C132.628 7.24227 132.057 7.01546 131.327 7.01546C130.831 7.01546 130.391 7.12496 130.005 7.34395C129.624 7.55772 129.325 7.86795 129.106 8.27465C128.892 8.68134 128.785 9.17407 128.785 9.75282Z" fill="black"/>
<path d="M116.764 17.0342C116.003 17.0342 115.317 16.8986 114.707 16.6275C114.102 16.3512 113.623 15.9445 113.268 15.4074C112.919 14.8704 112.744 14.2082 112.744 13.4209C112.744 12.7431 112.869 12.1826 113.119 11.7394C113.37 11.2962 113.711 10.9416 114.144 10.6757C114.577 10.4098 115.064 10.209 115.607 10.0735C116.154 9.93271 116.72 9.83103 117.304 9.76846C118.008 9.69547 118.579 9.63029 119.016 9.57294C119.454 9.51037 119.773 9.41652 119.971 9.29138C120.174 9.16103 120.276 8.96029 120.276 8.68916V8.64224C120.276 8.05305 120.101 7.59683 119.752 7.27356C119.402 6.95029 118.899 6.78865 118.242 6.78865C117.549 6.78865 116.999 6.93986 116.592 7.24227C116.19 7.54468 115.919 7.90184 115.779 8.31375L113.135 7.93834C113.344 7.20838 113.688 6.59834 114.167 6.10822C114.647 5.61289 115.234 5.2427 115.927 4.99764C116.621 4.74736 117.387 4.62223 118.227 4.62223C118.805 4.62223 119.381 4.69001 119.955 4.82557C120.529 4.96114 121.053 5.18534 121.527 5.49818C122.002 5.80581 122.382 6.22554 122.669 6.75737C122.961 7.2892 123.107 7.95398 123.107 8.75173V16.7917H120.385V15.1415H120.291C120.119 15.4752 119.877 15.788 119.564 16.08C119.256 16.3668 118.868 16.5988 118.399 16.7761C117.935 16.9482 117.39 17.0342 116.764 17.0342ZM117.499 14.9538C118.068 14.9538 118.56 14.8417 118.977 14.6175C119.395 14.3881 119.715 14.0857 119.939 13.7103C120.169 13.3349 120.284 12.9256 120.284 12.4824V11.0668C120.195 11.1398 120.044 11.2075 119.83 11.2701C119.621 11.3327 119.387 11.3874 119.126 11.4343C118.865 11.4813 118.607 11.523 118.352 11.5595C118.096 11.596 117.875 11.6273 117.687 11.6533C117.265 11.7107 116.887 11.8045 116.553 11.9349C116.219 12.0652 115.956 12.2477 115.763 12.4824C115.57 12.7118 115.474 13.009 115.474 13.374C115.474 13.8954 115.664 14.289 116.045 14.5549C116.425 14.8208 116.91 14.9538 117.499 14.9538Z" fill="black"/>
<path d="M104.79 16.7917V4.77865H107.535V6.78083H107.66C107.879 6.08737 108.255 5.55293 108.787 5.17752C109.324 4.7969 109.936 4.60659 110.625 4.60659C110.781 4.60659 110.956 4.61441 111.149 4.63005C111.347 4.64048 111.511 4.65872 111.641 4.68479V7.2892C111.521 7.24749 111.331 7.21099 111.07 7.1797C110.815 7.1432 110.567 7.12496 110.327 7.12496C109.811 7.12496 109.347 7.23706 108.935 7.46126C108.528 7.68025 108.208 7.98527 107.973 8.37632C107.739 8.76737 107.621 9.21839 107.621 9.72936V16.7917H104.79Z" fill="black"/>
<path d="M90.4404 16.7917V0.774282H96.5721C97.7296 0.774282 98.6916 0.956772 99.4581 1.32175C100.23 1.68152 100.806 2.17425 101.187 2.79993C101.572 3.42561 101.765 4.13472 101.765 4.92725C101.765 5.579 101.64 6.1369 101.39 6.60095C101.14 7.05978 100.803 7.43258 100.381 7.71935C99.9586 8.00613 99.4867 8.21208 98.9653 8.33722V8.49364C99.5337 8.52492 100.079 8.69959 100.6 9.01765C101.127 9.33049 101.557 9.77368 101.89 10.3472C102.224 10.9208 102.391 11.6142 102.391 12.4276C102.391 13.2566 102.19 14.0022 101.789 14.6644C101.387 15.3214 100.782 15.8402 99.9742 16.2208C99.1661 16.6014 98.1493 16.7917 96.924 16.7917H90.4404ZM93.342 14.3672H96.4626C97.5158 14.3672 98.2745 14.1665 98.7385 13.765C99.2078 13.3583 99.4424 12.8369 99.4424 12.2008C99.4424 11.7263 99.3251 11.2988 99.0905 10.9182C98.8558 10.5323 98.5221 10.2299 98.0894 10.0109C97.6566 9.78671 97.1404 9.67461 96.5408 9.67461H93.342V14.3672ZM93.342 7.5864H96.2123C96.7129 7.5864 97.1639 7.49515 97.5654 7.31266C97.9668 7.12496 98.2823 6.86165 98.5117 6.52274C98.7463 6.17861 98.8637 5.77192 98.8637 5.30266C98.8637 4.68219 98.6447 4.17121 98.2067 3.76974C97.7739 3.36826 97.13 3.16752 96.2749 3.16752H93.342V7.5864Z" fill="black"/>
<path d="M76.3117 21.5469C75.295 21.5469 74.4216 21.4088 73.6917 21.1324C72.9617 20.8613 72.3751 20.4963 71.9319 20.0375C71.4888 19.5786 71.1811 19.0703 71.0091 18.5124L73.5587 17.8945C73.6734 18.1291 73.8403 18.3612 74.0593 18.5906C74.2783 18.8252 74.5729 19.0181 74.943 19.1693C75.3185 19.3258 75.7903 19.404 76.3587 19.404C77.1616 19.404 77.8264 19.2084 78.353 18.8174C78.8796 18.4316 79.1429 17.7954 79.1429 16.9091V14.6331H79.0022C78.8562 14.9251 78.6424 15.2249 78.3608 15.5326C78.0845 15.8402 77.7169 16.0983 77.2581 16.3068C76.8044 16.5154 76.2335 16.6197 75.5453 16.6197C74.6224 16.6197 73.7855 16.4033 73.0347 15.9705C72.2891 15.5326 71.6947 14.8808 71.2515 14.0153C70.8135 13.1445 70.5946 12.0548 70.5946 10.7461C70.5946 9.42695 70.8135 8.31375 71.2515 7.40651C71.6947 6.49406 72.2917 5.8032 73.0425 5.33394C73.7934 4.85947 74.6302 4.62223 75.5531 4.62223C76.257 4.62223 76.8357 4.74215 77.2894 4.98199C77.7482 5.21662 78.1132 5.50079 78.3843 5.83449C78.6554 6.16297 78.8614 6.4732 79.0022 6.76519H79.1586V4.77865H81.9507V16.9873C81.9507 18.0144 81.7056 18.8643 81.2155 19.5369C80.7254 20.2095 80.0554 20.7127 79.2055 21.0464C78.3556 21.3801 77.391 21.5469 76.3117 21.5469ZM76.3352 14.3985C76.9348 14.3985 77.4458 14.2525 77.8681 13.9605C78.2904 13.6685 78.6111 13.2488 78.8301 12.7013C79.0491 12.1539 79.1586 11.4969 79.1586 10.7305C79.1586 9.97442 79.0491 9.31224 78.8301 8.74391C78.6163 8.17558 78.2983 7.735 77.8759 7.42216C77.4588 7.1041 76.9452 6.94507 76.3352 6.94507C75.7043 6.94507 75.1777 7.10931 74.7553 7.4378C74.333 7.76628 74.015 8.21729 73.8012 8.79084C73.5874 9.35916 73.4805 10.0057 73.4805 10.7305C73.4805 11.4656 73.5874 12.1096 73.8012 12.6622C74.0202 13.2097 74.3408 13.6373 74.7632 13.9449C75.1907 14.2473 75.7147 14.3985 76.3352 14.3985Z" fill="black"/>
<path d="M60.4976 9.75282V16.7917H57.6664V4.77865H60.3725V6.81994H60.5132C60.7896 6.14733 61.2302 5.61289 61.835 5.21663C62.445 4.82036 63.1985 4.62223 64.0953 4.62223C64.9243 4.62223 65.6465 4.7995 66.2617 5.15406C66.8822 5.50861 67.3619 6.02219 67.7008 6.6948C68.0449 7.36741 68.2144 8.1834 68.2091 9.14278V16.7917H65.3779V9.58076C65.3779 8.7778 65.1694 8.14951 64.7522 7.69589C64.3403 7.24227 63.7694 7.01546 63.0394 7.01546C62.5441 7.01546 62.1035 7.12496 61.7177 7.34395C61.3371 7.55772 61.0373 7.86795 60.8183 8.27465C60.6045 8.68134 60.4976 9.17407 60.4976 9.75282Z" fill="black"/>
<path d="M51.9238 16.7917V4.77865H54.755V16.7917H51.9238ZM53.3472 3.07366C52.8988 3.07366 52.513 2.92506 52.1897 2.62787C51.8665 2.32545 51.7048 1.96308 51.7048 1.54074C51.7048 1.11319 51.8665 0.750819 52.1897 0.453619C52.513 0.151206 52.8988 0 53.3472 0C53.8009 0 54.1867 0.151206 54.5047 0.453619C54.828 0.750819 54.9896 1.11319 54.9896 1.54074C54.9896 1.96308 54.828 2.32545 54.5047 2.62787C54.1867 2.92506 53.8009 3.07366 53.3472 3.07366Z" fill="black"/>
<path d="M42.5092 17.0029C41.5655 17.0029 40.7208 16.7605 39.9752 16.2756C39.2296 15.7907 38.6404 15.0868 38.2077 14.1639C37.7749 13.241 37.5585 12.12 37.5585 10.8008C37.5585 9.46605 37.7775 8.33982 38.2155 7.42216C38.6587 6.49928 39.2557 5.8032 40.0065 5.33394C40.7573 4.85947 41.5942 4.62223 42.5171 4.62223C43.221 4.62223 43.7997 4.74215 44.2533 4.98199C44.707 5.21663 45.0667 5.50079 45.3326 5.83449C45.5985 6.16297 45.8045 6.4732 45.9505 6.76519H46.0678V0.774282H48.9068V16.7917H46.1226V14.8991H45.9505C45.8045 15.191 45.5933 15.5013 45.317 15.8298C45.0406 16.153 44.6757 16.4294 44.222 16.6588C43.7684 16.8882 43.1975 17.0029 42.5092 17.0029ZM43.2992 14.6801C43.8988 14.6801 44.4098 14.5184 44.8321 14.1952C45.2544 13.8667 45.5751 13.4105 45.7941 12.8265C46.0131 12.2425 46.1226 11.5621 46.1226 10.7852C46.1226 10.0083 46.0131 9.33309 45.7941 8.75955C45.5803 8.18601 45.2622 7.74021 44.8399 7.42216C44.4228 7.1041 43.9092 6.94507 43.2992 6.94507C42.6683 6.94507 42.1417 7.10931 41.7193 7.4378C41.297 7.76628 40.9789 8.2199 40.7652 8.79866C40.5514 9.37741 40.4445 10.0396 40.4445 10.7852C40.4445 11.536 40.5514 12.206 40.7652 12.7952C40.9841 13.3792 41.3048 13.8406 41.7271 14.1795C42.1547 14.5132 42.6787 14.6801 43.2992 14.6801Z" fill="black"/>
<path d="M28.8615 17.0342C28.1003 17.0342 27.4147 16.8986 26.8046 16.6275C26.1998 16.3512 25.7201 15.9445 25.3655 15.4074C25.0162 14.8704 24.8415 14.2082 24.8415 13.4209C24.8415 12.7431 24.9667 12.1826 25.2169 11.7394C25.4672 11.2962 25.8087 10.9416 26.2415 10.6757C26.6743 10.4098 27.1618 10.209 27.704 10.0735C28.2515 9.93271 28.8172 9.83103 29.4012 9.76846C30.1051 9.69547 30.676 9.63029 31.114 9.57294C31.552 9.51037 31.87 9.41652 32.0682 9.29138C32.2715 9.16103 32.3732 8.96029 32.3732 8.68916V8.64224C32.3732 8.05305 32.1985 7.59683 31.8492 7.27356C31.4998 6.95029 30.9967 6.78865 30.3397 6.78865C29.6463 6.78865 29.0962 6.93986 28.6895 7.24227C28.288 7.54468 28.0169 7.90184 27.8761 8.31375L25.2326 7.93834C25.4412 7.20838 25.7853 6.59834 26.265 6.10822C26.7447 5.61289 27.3312 5.2427 28.0247 4.99764C28.7182 4.74736 29.4846 4.62223 30.3241 4.62223C30.9028 4.62223 31.479 4.69001 32.0525 4.82557C32.6261 4.96114 33.1501 5.18534 33.6246 5.49818C34.099 5.80581 34.4797 6.22554 34.7664 6.75737C35.0584 7.2892 35.2044 7.95398 35.2044 8.75173V16.7917H32.4827V15.1415H32.3888C32.2168 15.4752 31.9743 15.788 31.6615 16.08C31.3538 16.3668 30.9654 16.5988 30.4961 16.7761C30.0321 16.9482 29.4872 17.0342 28.8615 17.0342ZM29.5967 14.9538C30.1651 14.9538 30.6578 14.8417 31.0749 14.6175C31.492 14.3881 31.8127 14.0857 32.0369 13.7103C32.2663 13.3349 32.381 12.9256 32.381 12.4824V11.0668C32.2924 11.1398 32.1412 11.2075 31.9274 11.2701C31.7188 11.3327 31.4842 11.3874 31.2235 11.4343C30.9628 11.4813 30.7047 11.523 30.4492 11.5595C30.1937 11.596 29.9721 11.6273 29.7844 11.6533C29.3621 11.7107 28.9841 11.8045 28.6504 11.9349C28.3167 12.0652 28.0534 12.2477 27.8605 12.4824C27.6675 12.7118 27.5711 13.009 27.5711 13.374C27.5711 13.8954 27.7614 14.289 28.142 14.5549C28.5226 14.8208 29.0075 14.9538 29.5967 14.9538Z" fill="black"/>
<path d="M17.6677 17.0264C16.4633 17.0264 15.4231 16.7761 14.5471 16.2756C13.6764 15.7698 13.0064 15.0555 12.5371 14.1326C12.0678 13.2045 11.8332 12.1122 11.8332 10.8556C11.8332 9.61986 12.0678 8.53535 12.5371 7.60204C13.0116 6.66352 13.6738 5.93355 14.5236 5.41215C15.3735 4.88554 16.372 4.62223 17.5191 4.62223C18.2595 4.62223 18.9582 4.74215 19.6151 4.98199C20.2773 5.21662 20.8613 5.58161 21.367 6.07694C21.878 6.57227 22.2795 7.20317 22.5715 7.96963C22.8635 8.73087 23.0095 9.63811 23.0095 10.6913V11.5595H13.1628V9.65115H20.2956C20.2904 9.10889 20.173 8.62659 19.9436 8.20426C19.7142 7.77671 19.3935 7.4404 18.9816 7.19535C18.5749 6.95029 18.1005 6.82776 17.5582 6.82776C16.9795 6.82776 16.4711 6.96854 16.0331 7.25009C15.5951 7.52644 15.2536 7.89142 15.0086 8.34504C14.7687 8.79344 14.6462 9.28617 14.641 9.82321V11.4891C14.641 12.1878 14.7687 12.7874 15.0242 13.2879C15.2797 13.7833 15.6368 14.1639 16.0957 14.4298C16.5545 14.6905 17.0916 14.8208 17.7068 14.8208C18.1187 14.8208 18.4915 14.7635 18.8252 14.6488C19.1589 14.5289 19.4483 14.3542 19.6933 14.1248C19.9384 13.8954 20.1235 13.6112 20.2486 13.2723L22.8921 13.5695C22.7253 14.2682 22.4072 14.8782 21.938 15.3996C21.4739 15.9158 20.8795 16.3173 20.1548 16.604C19.43 16.8856 18.601 17.0264 17.6677 17.0264Z" fill="black"/>
<path d="M0 16.7917V0.774282H2.9016V14.3594H9.95617V16.7917H0Z" fill="black"/>
</svg>
