<svg width="252" height="19" viewBox="0 0 252 19" fill="none" xmlns="http://www.w3.org/2000/svg">
<path d="M251.706 8.17771L248.766 8.49841C248.683 8.20147 248.538 7.92234 248.33 7.66103C248.128 7.39972 247.855 7.18889 247.51 7.02854C247.166 6.86819 246.744 6.78802 246.245 6.78802C245.574 6.78802 245.01 6.93352 244.553 7.22452C244.101 7.51553 243.879 7.89265 243.885 8.35588C243.879 8.75378 244.024 9.07745 244.321 9.32688C244.624 9.57631 245.123 9.7812 245.818 9.94155L248.152 10.4404C249.446 10.7195 250.408 11.162 251.038 11.7678C251.673 12.3735 251.994 13.1664 252 14.1463C251.994 15.0074 251.742 15.7676 251.243 16.4268C250.75 17.0801 250.064 17.5908 249.185 17.959C248.306 18.3272 247.296 18.5113 246.156 18.5113C244.481 18.5113 243.133 18.1609 242.112 17.4602C241.09 16.7534 240.482 15.7705 240.286 14.5115L243.43 14.2086C243.573 14.8263 243.876 15.2925 244.339 15.6072C244.802 15.922 245.405 16.0794 246.147 16.0794C246.913 16.0794 247.528 15.922 247.991 15.6072C248.46 15.2925 248.695 14.9035 248.695 14.4402C248.695 14.0483 248.544 13.7246 248.241 13.4692C247.944 13.2139 247.481 13.0179 246.851 12.8813L244.517 12.3913C243.205 12.1181 242.234 11.6579 241.604 11.0105C240.975 10.3573 240.663 9.53177 240.669 8.53404C240.663 7.69072 240.891 6.96024 241.355 6.3426C241.824 5.71902 242.474 5.23797 243.306 4.89946C244.143 4.55501 245.108 4.38278 246.201 4.38278C247.804 4.38278 249.066 4.72426 249.987 5.40723C250.913 6.0902 251.486 7.01369 251.706 8.17771Z" fill="black"/>
<path d="M222.721 18.2441L218.854 4.561H222.142L224.547 14.182H224.672L227.13 4.561H230.382L232.84 14.1285H232.974L235.344 4.561H238.64L234.765 18.2441H231.406L228.841 8.99733H228.654L226.088 18.2441H222.721Z" fill="black"/>
<path d="M211.158 18.5113C209.786 18.5113 208.601 18.2263 207.603 17.6561C206.611 17.0801 205.848 16.2664 205.314 15.2153C204.779 14.1581 204.512 12.914 204.512 11.4827C204.512 10.0752 204.779 8.83989 205.314 7.77684C205.854 6.70784 206.609 5.8764 207.577 5.28252C208.545 4.68269 209.682 4.38278 210.988 4.38278C211.832 4.38278 212.628 4.51937 213.376 4.79256C214.13 5.05981 214.795 5.47553 215.371 6.03972C215.953 6.60391 216.411 7.32251 216.743 8.19553C217.076 9.0626 217.242 10.096 217.242 11.2956V12.2844H206.027V10.1108H214.151C214.145 9.49317 214.011 8.94382 213.75 8.46278C213.489 7.97579 213.123 7.59273 212.654 7.31361C212.191 7.03448 211.651 6.89492 211.033 6.89492C210.374 6.89492 209.795 7.05527 209.296 7.37596C208.797 7.69072 208.408 8.10644 208.129 8.62312C207.856 9.13387 207.716 9.69509 207.71 10.3068V12.2043C207.71 13.0001 207.856 13.683 208.147 14.2532C208.438 14.8174 208.844 15.2509 209.367 15.5538C209.89 15.8507 210.501 15.9992 211.202 15.9992C211.671 15.9992 212.096 15.9339 212.476 15.8032C212.856 15.6666 213.186 15.4677 213.465 15.2064C213.744 14.945 213.955 14.6214 214.097 14.2353L217.108 14.5739C216.918 15.3697 216.556 16.0645 216.022 16.6584C215.493 17.2464 214.816 17.7036 213.991 18.0303C213.165 18.351 212.221 18.5113 211.158 18.5113Z" fill="black"/>
<path d="M195.717 18.2441V4.561H198.844V6.84152H198.987C199.236 6.05165 199.664 5.44292 200.27 5.01532C200.881 4.58179 201.579 4.36502 202.363 4.36502C202.541 4.36502 202.74 4.37393 202.96 4.39174C203.186 4.40362 203.373 4.42441 203.521 4.4541V7.42056C203.384 7.37305 203.168 7.33148 202.871 7.29585C202.58 7.25427 202.298 7.23349 202.024 7.23349C201.437 7.23349 200.908 7.36117 200.439 7.61654C199.976 7.86598 199.61 8.2134 199.343 8.65881C199.076 9.10423 198.942 9.61794 198.942 10.1999V18.2441H195.717Z" fill="black"/>
<path d="M179.373 18.2442V0H186.357C187.675 0 188.771 0.20786 189.644 0.62358C190.523 1.03336 191.179 1.59458 191.613 2.30725C192.052 3.01991 192.272 3.8276 192.272 4.7303C192.272 5.47266 192.13 6.10812 191.845 6.63668C191.559 7.1593 191.176 7.58393 190.695 7.91056C190.214 8.2372 189.677 8.47179 189.083 8.61432V8.79248C189.73 8.82812 190.351 9.02707 190.945 9.38934C191.545 9.74567 192.035 10.2505 192.415 10.9037C192.795 11.557 192.985 12.3469 192.985 13.2734C192.985 14.2176 192.756 15.0669 192.299 15.8211C191.842 16.5694 191.153 17.1603 190.232 17.5939C189.312 18.0274 188.154 18.2442 186.758 18.2442H179.373ZM182.678 15.4826H186.232C187.432 15.4826 188.296 15.254 188.825 14.7967C189.359 14.3334 189.626 13.7396 189.626 13.015C189.626 12.4746 189.493 11.9876 189.225 11.5541C188.958 11.1146 188.578 10.7701 188.085 10.5207C187.592 10.2653 187.004 10.1376 186.321 10.1376H182.678V15.4826ZM182.678 7.75912H185.947C186.517 7.75912 187.031 7.65519 187.488 7.44733C187.946 7.23353 188.305 6.93362 188.566 6.54759C188.834 6.15563 188.967 5.6924 188.967 5.1579C188.967 4.45118 188.718 3.86917 188.219 3.41187C187.726 2.95458 186.992 2.72594 186.018 2.72594H182.678V7.75912Z" fill="black"/>
<path d="M164.131 18.5113C162.795 18.5113 161.636 18.2174 160.657 17.6294C159.677 17.0415 158.917 16.2189 158.376 15.1618C157.842 14.1047 157.574 12.8694 157.574 11.456C157.574 10.0425 157.842 8.80426 158.376 7.7412C158.917 6.67815 159.677 5.85265 160.657 5.2647C161.636 4.67675 162.795 4.38278 164.131 4.38278C165.467 4.38278 166.625 4.67675 167.605 5.2647C168.585 5.85265 169.342 6.67815 169.877 7.7412C170.417 8.80426 170.687 10.0425 170.687 11.456C170.687 12.8694 170.417 14.1047 169.877 15.1618C169.342 16.2189 168.585 17.0415 167.605 17.6294C166.625 18.2174 165.467 18.5113 164.131 18.5113ZM164.149 15.9279C164.873 15.9279 165.479 15.729 165.966 15.3311C166.453 14.9272 166.815 14.3868 167.053 13.7098C167.296 13.0327 167.418 12.2785 167.418 11.4471C167.418 10.6097 167.296 9.85247 167.053 9.17544C166.815 8.49247 166.453 7.94906 165.966 7.54522C165.479 7.14138 164.873 6.93946 164.149 6.93946C163.406 6.93946 162.789 7.14138 162.296 7.54522C161.809 7.94906 161.443 8.49247 161.2 9.17544C160.962 9.85247 160.844 10.6097 160.844 11.4471C160.844 12.2785 160.962 13.0327 161.2 13.7098C161.443 14.3868 161.809 14.9272 162.296 15.3311C162.789 15.729 163.406 15.9279 164.149 15.9279Z" fill="black"/>
<path d="M155.612 4.56096V7.05528H147.746V4.56096H155.612ZM149.688 1.2827H152.913V14.1285C152.913 14.562 152.978 14.8946 153.109 15.1262C153.246 15.3519 153.424 15.5063 153.644 15.5894C153.863 15.6726 154.107 15.7141 154.374 15.7141C154.576 15.7141 154.76 15.6993 154.926 15.6696C155.099 15.6399 155.229 15.6132 155.318 15.5894L155.862 18.1105C155.689 18.1699 155.443 18.2352 155.122 18.3065C154.808 18.3777 154.422 18.4193 153.964 18.4312C153.157 18.4549 152.429 18.3332 151.782 18.0659C151.134 17.7927 150.621 17.3711 150.241 16.8009C149.866 16.2308 149.682 15.5182 149.688 14.663V1.2827Z" fill="black"/>
<path d="M139.604 8.17771L136.664 8.49841C136.581 8.20147 136.436 7.92234 136.228 7.66103C136.026 7.39972 135.753 7.18889 135.408 7.02854C135.064 6.86819 134.642 6.78802 134.143 6.78802C133.472 6.78802 132.908 6.93352 132.451 7.22452C131.999 7.51553 131.777 7.89265 131.783 8.35588C131.777 8.75378 131.922 9.07745 132.219 9.32688C132.522 9.57631 133.021 9.7812 133.716 9.94155L136.05 10.4404C137.344 10.7195 138.306 11.162 138.936 11.7678C139.571 12.3735 139.892 13.1664 139.898 14.1463C139.892 15.0074 139.64 15.7676 139.141 16.4268C138.648 17.0801 137.962 17.5908 137.083 17.959C136.204 18.3272 135.194 18.5113 134.054 18.5113C132.379 18.5113 131.031 18.1609 130.01 17.4602C128.988 16.7534 128.38 15.7705 128.184 14.5115L131.328 14.2086C131.471 14.8263 131.774 15.2925 132.237 15.6072C132.7 15.922 133.303 16.0794 134.045 16.0794C134.811 16.0794 135.426 15.922 135.889 15.6072C136.358 15.2925 136.593 14.9035 136.593 14.4402C136.593 14.0483 136.442 13.7246 136.139 13.4692C135.842 13.2139 135.379 13.0179 134.749 12.8813L132.415 12.3913C131.103 12.1181 130.132 11.6579 129.502 11.0105C128.873 10.3573 128.561 9.53177 128.567 8.53404C128.561 7.69072 128.789 6.96024 129.253 6.3426C129.722 5.71902 130.372 5.23797 131.204 4.89946C132.041 4.55501 133.006 4.38278 134.099 4.38278C135.702 4.38278 136.964 4.72426 137.885 5.40723C138.811 6.0902 139.384 7.01369 139.604 8.17771Z" fill="black"/>
<path d="M116.728 10.2266V18.2441H113.503V4.56094H116.585V6.88601H116.745C117.06 6.1199 117.562 5.51116 118.251 5.05981C118.946 4.60846 119.804 4.38278 120.825 4.38278C121.77 4.38278 122.592 4.5847 123.293 4.98854C124 5.39238 124.546 5.97736 124.932 6.74348C125.324 7.50959 125.517 8.43902 125.511 9.53177V18.2441H122.286V10.0306C122.286 9.11605 122.049 8.40042 121.574 7.88374C121.105 7.36706 120.454 7.10872 119.623 7.10872C119.059 7.10872 118.557 7.23343 118.117 7.48286C117.684 7.72636 117.342 8.07972 117.093 8.54295C116.849 9.00618 116.728 9.5674 116.728 10.2266Z" fill="black"/>
<path d="M103.036 18.5202C102.168 18.5202 101.387 18.3658 100.693 18.057C100.004 17.7422 99.4574 17.279 99.0535 16.6673C98.6556 16.0556 98.4567 15.3014 98.4567 14.4046C98.4567 13.6326 98.5992 12.9941 98.8843 12.4893C99.1693 11.9845 99.5583 11.5807 100.051 11.2778C100.544 10.9749 101.099 10.7463 101.717 10.5919C102.341 10.4315 102.985 10.3157 103.65 10.2444C104.452 10.1613 105.102 10.0871 105.601 10.0217C106.1 9.95046 106.462 9.84356 106.688 9.70103C106.92 9.55256 107.035 9.32391 107.035 9.01509V8.96164C107.035 8.29055 106.836 7.7709 106.438 7.40269C106.041 7.03448 105.467 6.85038 104.719 6.85038C103.929 6.85038 103.303 7.0226 102.84 7.36706C102.382 7.71151 102.073 8.11832 101.913 8.58749L98.9021 8.15989C99.1396 7.32845 99.5316 6.63361 100.078 6.07535C100.624 5.51116 101.292 5.0895 102.082 4.81038C102.872 4.52531 103.745 4.38278 104.701 4.38278C105.361 4.38278 106.017 4.45998 106.67 4.61439C107.323 4.7688 107.92 5.02418 108.461 5.38051C109.001 5.7309 109.435 6.20898 109.761 6.81474C110.094 7.42051 110.26 8.17771 110.26 9.08636V18.2441H107.16V16.3644H107.053C106.857 16.7445 106.581 17.1008 106.225 17.4334C105.874 17.7601 105.432 18.0243 104.897 18.2263C104.369 18.4222 103.748 18.5202 103.036 18.5202ZM103.873 16.1506C104.52 16.1506 105.081 16.0229 105.557 15.7676C106.032 15.5063 106.397 15.1618 106.652 14.7342C106.914 14.3066 107.044 13.8404 107.044 13.3356V11.7232C106.943 11.8064 106.771 11.8836 106.528 11.9548C106.29 12.0261 106.023 12.0885 105.726 12.1419C105.429 12.1953 105.135 12.2429 104.844 12.2844C104.553 12.326 104.301 12.3616 104.087 12.3913C103.606 12.4567 103.175 12.5636 102.795 12.712C102.415 12.8605 102.115 13.0684 101.895 13.3356C101.676 13.5969 101.566 13.9354 101.566 14.3512C101.566 14.945 101.782 15.3934 102.216 15.6963C102.649 15.9992 103.202 16.1506 103.873 16.1506Z" fill="black"/>
<path d="M90.2855 18.5113C88.9137 18.5113 87.7289 18.2263 86.7311 17.6561C85.7393 17.0801 84.9762 16.2664 84.4417 15.2153C83.9072 14.1581 83.6399 12.914 83.6399 11.4827C83.6399 10.0752 83.9072 8.83989 84.4417 7.77684C84.9821 6.70784 85.7364 5.8764 86.7044 5.28252C87.6724 4.68269 88.8097 4.38278 90.1163 4.38278C90.9596 4.38278 91.7554 4.51937 92.5037 4.79256C93.2579 5.05981 93.9231 5.47553 94.4992 6.03972C95.0812 6.60391 95.5385 7.32251 95.871 8.19553C96.2036 9.0626 96.3699 10.096 96.3699 11.2956V12.2844H85.1544V10.1108H93.2787C93.2728 9.49317 93.1392 8.94382 92.8778 8.46278C92.6165 7.97579 92.2513 7.59273 91.7821 7.31361C91.3189 7.03448 90.7785 6.89492 90.1608 6.89492C89.5016 6.89492 88.9226 7.05527 88.4237 7.37596C87.9248 7.69072 87.5358 8.10644 87.2567 8.62312C86.9835 9.13387 86.844 9.69509 86.838 10.3068V12.2043C86.838 13.0001 86.9835 13.683 87.2745 14.2532C87.5655 14.8174 87.9723 15.2509 88.495 15.5538C89.0176 15.8507 89.6293 15.9992 90.3301 15.9992C90.7992 15.9992 91.2239 15.9339 91.604 15.8032C91.984 15.6666 92.3137 15.4677 92.5928 15.2064C92.8719 14.945 93.0827 14.6214 93.2253 14.2353L96.2363 14.5739C96.0462 15.3697 95.684 16.0645 95.1495 16.6584C94.6209 17.2464 93.9439 17.7036 93.1184 18.0303C92.2929 18.351 91.3486 18.5113 90.2855 18.5113Z" fill="black"/>
<path d="M67.8834 18.2442V0H74.8675C76.1859 0 77.2816 0.20786 78.1547 0.62358C79.0336 1.03336 79.6899 1.59458 80.1234 2.30725C80.5629 3.01991 80.7826 3.8276 80.7826 4.7303C80.7826 5.47266 80.6401 6.10812 80.355 6.63668C80.07 7.1593 79.6869 7.58393 79.2058 7.91056C78.7248 8.2372 78.1873 8.47179 77.5934 8.61432V8.79248C78.2408 8.82812 78.8614 9.02707 79.4553 9.38934C80.0551 9.74567 80.5451 10.2505 80.9251 10.9037C81.3052 11.557 81.4953 12.3469 81.4953 13.2734C81.4953 14.2176 81.2666 15.0669 80.8093 15.8211C80.352 16.5694 79.6631 17.1603 78.7426 17.5939C77.8221 18.0274 76.664 18.2442 75.2684 18.2442H67.8834ZM71.1884 15.4826H74.7428C75.9424 15.4826 76.8065 15.254 77.3351 14.7967C77.8696 14.3334 78.1368 13.7396 78.1368 13.015C78.1368 12.4746 78.0032 11.9876 77.736 11.5541C77.4687 11.1146 77.0886 10.7701 76.5957 10.5207C76.1028 10.2653 75.5148 10.1376 74.8319 10.1376H71.1884V15.4826ZM71.1884 7.75912H74.4577C75.0279 7.75912 75.5416 7.65519 75.9989 7.44733C76.4561 7.23353 76.8154 6.93362 77.0768 6.54759C77.344 6.15563 77.4776 5.6924 77.4776 5.1579C77.4776 4.45118 77.2282 3.86917 76.7293 3.41187C76.2364 2.95458 75.503 2.72594 74.529 2.72594H71.1884V7.75912Z" fill="black"/>
<path d="M39.005 18.2441V4.56094H42.0872V6.88601H42.2476C42.5327 6.10208 43.0048 5.49038 43.664 5.0509C44.3232 4.60549 45.1101 4.38278 46.0247 4.38278C46.9512 4.38278 47.7321 4.60846 48.3676 5.05981C49.009 5.50522 49.4603 6.11396 49.7216 6.88601H49.8642C50.1671 6.12583 50.6778 5.52007 51.3964 5.06872C52.1209 4.61143 52.9791 4.38278 53.9709 4.38278C55.2299 4.38278 56.2574 4.78068 57.0532 5.57649C57.849 6.3723 58.2469 7.53334 58.2469 9.05963V18.2441H55.0132V9.5585C55.0132 8.70924 54.7875 8.08863 54.3361 7.69666C53.8848 7.29876 53.3325 7.09981 52.6792 7.09981C51.9012 7.09981 51.2925 7.3433 50.853 7.83029C50.4195 8.31134 50.2027 8.93788 50.2027 9.70994V18.2441H47.0402V9.42487C47.0402 8.71815 46.8264 8.15396 46.3989 7.7323C45.9772 7.31064 45.4249 7.09981 44.7419 7.09981C44.2787 7.09981 43.857 7.21858 43.4769 7.45614C43.0968 7.68775 42.794 8.01736 42.5683 8.44496C42.3426 8.86662 42.2298 9.35954 42.2298 9.92374V18.2441H39.005Z" fill="black"/>
<path d="M29.7114 18.5113C28.3751 18.5113 27.217 18.2174 26.2371 17.6294C25.2572 17.0415 24.497 16.2189 23.9566 15.1618C23.4221 14.1047 23.1549 12.8694 23.1549 11.456C23.1549 10.0425 23.4221 8.80426 23.9566 7.7412C24.497 6.67815 25.2572 5.85265 26.2371 5.2647C27.217 4.67675 28.3751 4.38278 29.7114 4.38278C31.0476 4.38278 32.2057 4.67675 33.1856 5.2647C34.1655 5.85265 34.9227 6.67815 35.4572 7.7412C35.9976 8.80426 36.2679 10.0425 36.2679 11.456C36.2679 12.8694 35.9976 14.1047 35.4572 15.1618C34.9227 16.2189 34.1655 17.0415 33.1856 17.6294C32.2057 18.2174 31.0476 18.5113 29.7114 18.5113ZM29.7292 15.9279C30.4537 15.9279 31.0595 15.729 31.5465 15.3311C32.0335 14.9272 32.3957 14.3868 32.6333 13.7098C32.8768 13.0327 32.9985 12.2785 32.9985 11.4471C32.9985 10.6097 32.8768 9.85247 32.6333 9.17544C32.3957 8.49247 32.0335 7.94906 31.5465 7.54522C31.0595 7.14138 30.4537 6.93946 29.7292 6.93946C28.9868 6.93946 28.3692 7.14138 27.8763 7.54522C27.3893 7.94906 27.024 8.49247 26.7805 9.17544C26.543 9.85247 26.4242 10.6097 26.4242 11.4471C26.4242 12.2785 26.543 13.0327 26.7805 13.7098C27.024 14.3868 27.3893 14.9272 27.8763 15.3311C28.3692 15.729 28.9868 15.9279 29.7292 15.9279Z" fill="black"/>
<path d="M14.3602 18.2441V4.561H17.487V6.84152H17.6295C17.879 6.05165 18.3066 5.44292 18.9123 5.01532C19.524 4.58179 20.2218 4.36502 21.0058 4.36502C21.1839 4.36502 21.3829 4.37393 21.6026 4.39174C21.8283 4.40362 22.0154 4.42441 22.1638 4.4541V7.42056C22.0273 7.37305 21.8105 7.33148 21.5135 7.29585C21.2225 7.25427 20.9404 7.23349 20.6673 7.23349C20.0793 7.23349 19.5507 7.36117 19.0816 7.61654C18.6183 7.86598 18.2531 8.2134 17.9859 8.65881C17.7186 9.10423 17.585 9.61794 17.585 10.1999V18.2441H14.3602Z" fill="black"/>
<path d="M0 18.2442V0H11.6877V2.77048H3.30498V7.72349H10.8859V10.494H3.30498V18.2442H0Z" fill="black"/>
</svg>
