<svg width="191" height="19" viewBox="0 0 191 19" fill="none" xmlns="http://www.w3.org/2000/svg">
<path d="M183.21 18.4776C182.17 18.4776 181.228 18.2102 180.384 17.6754C179.546 17.1347 178.881 16.3414 178.387 15.2955C177.9 14.2437 177.657 12.9542 177.657 11.4271C177.657 9.8583 177.909 8.55396 178.414 7.51405C178.919 6.46821 179.591 5.68679 180.429 5.16981C181.272 4.64689 182.196 4.38543 183.201 4.38543C183.967 4.38543 184.606 4.51616 185.117 4.77762C185.634 5.03314 186.05 5.35402 186.365 5.74027C186.686 6.12058 186.93 6.49495 187.096 6.86337H187.212V0H191V18.2548H187.256V16.0621H187.096C186.918 16.4424 186.665 16.8197 186.338 17.1941C186.017 17.5625 185.598 17.8685 185.081 18.1122C184.57 18.3558 183.946 18.4776 183.21 18.4776ZM184.413 15.456C185.025 15.456 185.542 15.2896 185.964 14.9568C186.392 14.6181 186.719 14.1457 186.944 13.5396C187.176 12.9334 187.292 12.2233 187.292 11.4092C187.292 10.5951 187.179 9.88801 186.953 9.28783C186.727 8.68766 186.401 8.22416 185.973 7.89733C185.545 7.57051 185.025 7.40709 184.413 7.40709C183.789 7.40709 183.263 7.57645 182.835 7.91516C182.407 8.25387 182.084 8.72331 181.864 9.32349C181.644 9.92366 181.534 10.6189 181.534 11.4092C181.534 12.2055 181.644 12.9097 181.864 13.5217C182.09 14.1278 182.413 14.6032 182.835 14.9479C183.263 15.2866 183.789 15.456 184.413 15.456Z" fill="white"/>
<path d="M175.123 0V18.2548H171.326V0H175.123Z" fill="white"/>
<path d="M161.055 18.2547V4.56365H164.736V6.95246H164.879C165.129 6.10271 165.548 5.46094 166.136 5.02715C166.724 4.58742 167.402 4.36755 168.168 4.36755C168.358 4.36755 168.563 4.37944 168.783 4.40321C169.003 4.42698 169.196 4.45966 169.363 4.50126V7.87055C169.184 7.81707 168.938 7.76953 168.623 7.72793C168.308 7.68634 168.02 7.66554 167.758 7.66554C167.2 7.66554 166.7 7.78736 166.261 8.03099C165.827 8.26868 165.482 8.60145 165.227 9.0293C164.977 9.45714 164.852 9.95036 164.852 10.5089V18.2547H161.055Z" fill="white"/>
<path d="M151.848 18.5222C150.463 18.5222 149.266 18.2281 148.255 17.6398C147.251 17.0455 146.476 16.2196 145.929 15.1618C145.382 14.0982 145.109 12.8651 145.109 11.4627C145.109 10.0485 145.382 8.81247 145.929 7.75474C146.476 6.69106 147.251 5.86508 148.255 5.27679C149.266 4.68256 150.463 4.38545 151.848 4.38545C153.232 4.38545 154.427 4.68256 155.431 5.27679C156.441 5.86508 157.219 6.69106 157.766 7.75474C158.313 8.81247 158.586 10.0485 158.586 11.4627C158.586 12.8651 158.313 14.0982 157.766 15.1618C157.219 16.2196 156.441 17.0455 155.431 17.6398C154.427 18.2281 153.232 18.5222 151.848 18.5222ZM151.865 15.5808C152.495 15.5808 153.021 15.4025 153.443 15.046C153.865 14.6835 154.183 14.1903 154.397 13.5663C154.617 12.9424 154.727 12.2323 154.727 11.436C154.727 10.6397 154.617 9.92962 154.397 9.30568C154.183 8.68174 153.865 8.18853 153.443 7.82605C153.021 7.46356 152.495 7.28232 151.865 7.28232C151.23 7.28232 150.695 7.46356 150.261 7.82605C149.833 8.18853 149.509 8.68174 149.289 9.30568C149.076 9.92962 148.969 10.6397 148.969 11.436C148.969 12.2323 149.076 12.9424 149.289 13.5663C149.509 14.1903 149.833 14.6835 150.261 15.046C150.695 15.4025 151.23 15.5808 151.865 15.5808Z" fill="white"/>
<path d="M125.306 18.2548L120.082 0H124.298L127.32 12.6839H127.471L130.805 0H134.415L137.74 12.7106H137.9L140.922 0H145.138L139.915 18.2548H136.153L132.677 6.31965H132.534L129.067 18.2548H125.306Z" fill="white"/>
<path d="M106.554 18.5222C105.145 18.5222 103.933 18.237 102.917 17.6665C101.907 17.0901 101.128 16.276 100.582 15.2242C100.035 14.1665 99.7617 12.9156 99.7617 11.4717C99.7617 10.0633 100.035 8.82733 100.582 7.76365C101.128 6.69998 101.898 5.87102 102.89 5.27679C103.889 4.68256 105.059 4.38545 106.402 4.38545C107.306 4.38545 108.146 4.53103 108.925 4.82221C109.709 5.10744 110.393 5.53826 110.975 6.11466C111.563 6.69106 112.021 7.41603 112.348 8.28955C112.674 9.15712 112.838 10.1733 112.838 11.338V12.3808H101.277V10.0277H109.264C109.264 9.48098 109.145 8.99668 108.907 8.57478C108.669 8.15287 108.339 7.82307 107.918 7.58538C107.502 7.34175 107.017 7.21993 106.465 7.21993C105.888 7.21993 105.377 7.35363 104.932 7.62104C104.492 7.8825 104.147 8.23607 103.898 8.68174C103.648 9.12147 103.52 9.61171 103.514 10.1525V12.3897C103.514 13.0672 103.639 13.6525 103.889 14.1457C104.144 14.6389 104.504 15.0192 104.967 15.2866C105.431 15.554 105.98 15.6877 106.616 15.6877C107.038 15.6877 107.424 15.6283 107.775 15.5095C108.126 15.3906 108.426 15.2123 108.675 14.9746C108.925 14.737 109.115 14.4458 109.246 14.1011L112.758 14.3329C112.579 15.1767 112.214 15.9135 111.661 16.5434C111.115 17.1674 110.407 17.6546 109.54 18.0052C108.678 18.3499 107.683 18.5222 106.554 18.5222Z" fill="white"/>
<path d="M88.4483 10.3396V18.2548H84.6512V0H88.3414V6.97925H88.5018C88.8108 6.17109 89.31 5.53823 89.9993 5.08068C90.6886 4.61718 91.5532 4.38543 92.5931 4.38543C93.5439 4.38543 94.3728 4.59341 95.08 5.00937C95.793 5.41939 96.3457 6.01065 96.7379 6.78315C97.136 7.54971 97.3321 8.46779 97.3261 9.53741V18.2548H93.529V10.2148C93.535 9.37103 93.321 8.7144 92.8872 8.24496C92.4594 7.77552 91.8592 7.54079 91.0867 7.54079C90.5697 7.54079 90.1122 7.65073 89.714 7.87059C89.3219 8.09046 89.0129 8.41134 88.787 8.83325C88.5672 9.24921 88.4543 9.75133 88.4483 10.3396Z" fill="white"/>
<path d="M81.8836 4.56385V7.41616H73.6386V4.56385H81.8836ZM75.5104 1.2837H79.3076V14.0478C79.3076 14.3984 79.361 14.6717 79.468 14.8678C79.575 15.058 79.7235 15.1917 79.9137 15.2689C80.1098 15.3462 80.3356 15.3848 80.5911 15.3848C80.7694 15.3848 80.9476 15.3699 81.1259 15.3402C81.3042 15.3046 81.4409 15.2778 81.5359 15.26L82.1331 18.0856C81.943 18.145 81.6756 18.2133 81.3309 18.2906C80.9863 18.3738 80.5673 18.4243 80.0741 18.4421C79.159 18.4778 78.3568 18.356 77.6675 18.0767C76.9841 17.7974 76.4523 17.3636 76.072 16.7753C75.6917 16.187 75.5045 15.4442 75.5104 14.5469V1.2837Z" fill="white"/>
<path d="M60.03 18.5222C58.6216 18.5222 57.4094 18.237 56.3933 17.6665C55.3831 17.0901 54.6046 16.276 54.0579 15.2242C53.5113 14.1665 53.2379 12.9156 53.2379 11.4717C53.2379 10.0633 53.5113 8.82733 54.0579 7.76365C54.6046 6.69998 55.3742 5.87102 56.3665 5.27679C57.3648 4.68256 58.5355 4.38545 59.8784 4.38545C60.7817 4.38545 61.6225 4.53103 62.401 4.82221C63.1853 5.10744 63.8687 5.53826 64.451 6.11466C65.0393 6.69106 65.4969 7.41603 65.8237 8.28955C66.1505 9.15712 66.314 10.1733 66.314 11.338V12.3808H54.7532V10.0277H62.7397C62.7397 9.48098 62.6208 8.99668 62.3831 8.57478C62.1454 8.15287 61.8156 7.82307 61.3937 7.58538C60.9778 7.34175 60.4935 7.21993 59.9408 7.21993C59.3644 7.21993 58.8534 7.35363 58.4077 7.62104C57.968 7.8825 57.6233 8.23607 57.3738 8.68174C57.1242 9.12147 56.9964 9.61171 56.9905 10.1525V12.3897C56.9905 13.0672 57.1153 13.6525 57.3648 14.1457C57.6204 14.6389 57.9799 15.0192 58.4434 15.2866C58.9069 15.554 59.4565 15.6877 60.0924 15.6877C60.5143 15.6877 60.9005 15.6283 61.2511 15.5095C61.6017 15.3906 61.9018 15.2123 62.1514 14.9746C62.4009 14.737 62.5911 14.4458 62.7218 14.1011L66.2337 14.3329C66.0555 15.1767 65.69 15.9135 65.1374 16.5434C64.5907 17.1674 63.8836 17.6546 63.016 18.0052C62.1543 18.3499 61.159 18.5222 60.03 18.5222Z" fill="white"/>
<path d="M51.4641 4.56385V7.41616H43.2192V4.56385H51.4641ZM45.091 1.2837H48.8881V14.0478C48.8881 14.3984 48.9416 14.6717 49.0486 14.8678C49.1555 15.058 49.3041 15.1917 49.4942 15.2689C49.6903 15.3462 49.9161 15.3848 50.1717 15.3848C50.3499 15.3848 50.5282 15.3699 50.7065 15.3402C50.8847 15.3046 51.0214 15.2778 51.1165 15.26L51.7137 18.0856C51.5235 18.145 51.2561 18.2133 50.9115 18.2906C50.5668 18.3738 50.1479 18.4243 49.6547 18.4421C48.7396 18.4778 47.9374 18.356 47.248 18.0767C46.5647 17.7974 46.0328 17.3636 45.6525 16.7753C45.2722 16.187 45.085 15.4442 45.091 14.5469V1.2837Z" fill="white"/>
<path d="M41.4788 8.46782L38.0026 8.68174C37.9432 8.38462 37.8154 8.11722 37.6193 7.87953C37.4232 7.63589 37.1647 7.44277 36.8438 7.30015C36.5289 7.15159 36.1515 7.07731 35.7118 7.07731C35.1235 7.07731 34.6273 7.2021 34.2233 7.45168C33.8192 7.69531 33.6171 8.02214 33.6171 8.43216C33.6171 8.75899 33.7479 9.03531 34.0093 9.26111C34.2708 9.48692 34.7194 9.66816 35.3553 9.80484L37.8332 10.304C39.1643 10.5773 40.1567 11.0171 40.8103 11.6232C41.464 12.2293 41.7908 13.0256 41.7908 14.012C41.7908 14.9093 41.5264 15.6966 40.9975 16.3741C40.4746 17.0515 39.7556 17.5804 38.8404 17.9607C37.9313 18.335 36.8824 18.5222 35.694 18.5222C33.8816 18.5222 32.4376 18.1449 31.362 17.3902C30.2924 16.6296 29.6655 15.5956 29.4813 14.2883L33.216 14.0922C33.3289 14.6448 33.6023 15.0668 34.0361 15.3579C34.4699 15.6432 35.0255 15.7858 35.7029 15.7858C36.3684 15.7858 36.9032 15.658 37.3073 15.4025C37.7173 15.141 37.9253 14.8053 37.9313 14.3953C37.9253 14.0506 37.7797 13.7684 37.4945 13.5485C37.2093 13.3227 36.7695 13.1504 36.1753 13.0315L33.8043 12.5591C32.4673 12.2917 31.472 11.8282 30.8183 11.1686C30.1706 10.509 29.8468 9.66816 29.8468 8.64609C29.8468 7.76662 30.0844 7.00898 30.5598 6.37315C31.0412 5.73732 31.7156 5.24708 32.5832 4.90243C33.4567 4.55777 34.4788 4.38545 35.6494 4.38545C37.3786 4.38545 38.7394 4.7509 39.7318 5.4818C40.7301 6.21271 41.3124 7.20805 41.4788 8.46782Z" fill="white"/>
<path d="M19.4314 18.5133C18.5578 18.5133 17.7794 18.3618 17.096 18.0587C16.4127 17.7497 15.8719 17.2951 15.4738 16.6949C15.0816 16.0888 14.8855 15.3342 14.8855 14.4309C14.8855 13.6703 15.0251 13.0315 15.3044 12.5145C15.5837 11.9975 15.964 11.5816 16.4453 11.2666C16.9267 10.9517 17.4734 10.714 18.0854 10.5536C18.7034 10.3931 19.3511 10.2802 20.0286 10.2149C20.8248 10.1317 21.4666 10.0544 21.9539 9.9831C22.4411 9.90585 22.7947 9.79295 23.0146 9.64439C23.2344 9.49584 23.3444 9.27597 23.3444 8.9848V8.93132C23.3444 8.3668 23.1661 7.93004 22.8096 7.62104C22.459 7.31204 21.9598 7.15754 21.3121 7.15754C20.6287 7.15754 20.085 7.30906 19.6809 7.61212C19.2769 7.90924 19.0094 8.2836 18.8787 8.73522L15.3668 8.44999C15.5451 7.61806 15.8957 6.89905 16.4186 6.29293C16.9415 5.68087 17.616 5.21143 18.442 4.8846C19.2739 4.55183 20.2365 4.38545 21.3299 4.38545C22.0905 4.38545 22.8185 4.47458 23.5137 4.65285C24.2149 4.83112 24.8359 5.10744 25.3766 5.4818C25.9233 5.85617 26.3541 6.3375 26.6691 6.92579C26.984 7.50813 27.1415 8.20635 27.1415 9.02045V18.2548H23.5405V16.3562H23.4335C23.2136 16.7841 22.9195 17.1614 22.5511 17.4882C22.1826 17.8091 21.7399 18.0617 21.223 18.2459C20.706 18.4242 20.1088 18.5133 19.4314 18.5133ZM20.5188 15.8927C21.0774 15.8927 21.5706 15.7828 21.9984 15.5629C22.4263 15.3371 22.762 15.0341 23.0057 14.6538C23.2493 14.2735 23.3711 13.8426 23.3711 13.3613V11.9084C23.2523 11.9857 23.0888 12.057 22.8809 12.1223C22.6788 12.1818 22.45 12.2382 22.1945 12.2917C21.939 12.3392 21.6835 12.3838 21.428 12.4254C21.1725 12.461 20.9407 12.4937 20.7327 12.5234C20.287 12.5888 19.8978 12.6928 19.5651 12.8354C19.2323 12.978 18.9738 13.1712 18.7896 13.4148C18.6054 13.6525 18.5133 13.9496 18.5133 14.3061C18.5133 14.8231 18.7004 15.2183 19.0748 15.4916C19.4551 15.759 19.9364 15.8927 20.5188 15.8927Z" fill="white"/>
<path d="M0 3.18211V0H14.9925V3.18211H9.40371V18.2548H5.58874V3.18211H0Z" fill="white"/>
</svg>
