<svg width="18" height="18" viewBox="0 0 18 18" fill="none" xmlns="http://www.w3.org/2000/svg">
<g clip-path="url(#clip0_607_2797)">
<path d="M0.75 6.74998V8.99998V10.5V15.75C0.75 16.575 1.42155 17.25 2.25 17.25H9H15.75C16.5787 17.25 17.25 16.575 17.25 15.75V10.5V8.99998V6.74998H0.75Z" fill="#F39C12"/>
<path d="M0.75 5.99999V8.24999V9.74999V15C0.75 15.825 1.42155 16.5 2.25 16.5H9H15.75C16.5787 16.5 17.25 15.825 17.25 15V9.74999V8.24999V5.99999H0.75Z" fill="#F1C40F"/>
<path d="M1.5 4.49997C0.67155 4.49997 0 5.17497 0 5.99997V7.49997H18V5.99997C18 5.17497 17.3287 4.49997 16.5 4.49997H15H9.75H8.25H3H1.5Z" fill="#F1C40F"/>
<path d="M11.25 3.74997H6.75V17.25H11.25V3.74997Z" fill="#E74C3C"/>
<path d="M5.9136 0.749952C5.16465 0.674952 4.43362 1.04992 4.03267 1.64992C3.44947 2.54992 3.798 3.67493 4.80817 4.19993C5.133 4.42493 5.48092 4.49995 5.8311 4.49995H6.00435H8.4795H9.519H11.9932H12.1665C12.5167 4.49995 12.873 4.42493 13.1977 4.19993C14.208 3.67493 14.5485 2.54992 13.965 1.64992C13.3822 0.749916 12.096 0.449898 11.0857 0.974897C10.761 1.1249 10.506 1.34992 10.3275 1.64992H10.311C10.287 1.72492 10.266 1.72497 10.245 1.79997L8.99925 3.67497L7.7535 1.79997C7.7325 1.72497 7.7115 1.72492 7.6875 1.64992H7.671C7.49205 1.34992 7.24492 1.1249 6.92002 0.974897C6.60435 0.824897 6.25402 0.749952 5.9136 0.749952ZM5.78985 1.64992C5.99272 1.64992 6.20265 1.72497 6.3921 1.79997C6.45562 1.79997 6.51277 1.87495 6.56527 1.87495C6.60225 1.94995 6.63292 1.94992 6.66427 2.02492H6.68902C6.7059 2.02492 6.72352 2.0999 6.73852 2.0999H6.76327H6.77152C6.78352 2.1749 6.80227 2.17497 6.81277 2.17497L7.6875 3.52491H5.93835H5.83935H5.7981H5.7156H5.67435C5.62635 3.52491 5.58127 3.52493 5.5341 3.44993C5.46705 3.44993 5.3997 3.44995 5.3361 3.37495C5.20987 3.37495 5.09707 3.22491 5.01435 3.14991C4.76632 2.84992 4.72965 2.4749 4.94835 2.0999C5.1306 1.8749 5.45167 1.64992 5.78985 1.64992ZM12.216 1.64992C12.5542 1.64992 12.8752 1.8749 13.0575 2.0999C13.2765 2.4749 13.2315 2.84992 12.9832 3.14991C12.9007 3.22491 12.7965 3.37495 12.6697 3.37495C12.6067 3.44995 12.5392 3.44993 12.4717 3.44993C12.4252 3.52493 12.3712 3.52491 12.3232 3.52491H12.282H12.1995H12.1582H12.0592H10.311L11.1847 2.17497C11.1952 2.17497 11.214 2.1749 11.226 2.0999H11.2342C11.2327 2.0999 11.2365 2.0999 11.2342 2.0999H11.259C11.274 2.0999 11.292 2.02492 11.3085 2.02492H11.3332C11.3647 1.94992 11.4037 1.94995 11.4405 1.87495C11.4937 1.87495 11.5507 1.79997 11.6137 1.79997C11.8035 1.72497 12.0135 1.64992 12.216 1.64992Z" fill="#C0392B"/>
<path d="M17.25 7.49998H0.75V8.24998H17.25V7.49998Z" fill="#F39C12"/>
<path d="M11.25 7.49998H6.75V8.24998H11.25V7.49998Z" fill="#C0392B"/>
<path d="M11.25 16.5H6.75V17.25H11.25V16.5Z" fill="#C0392B"/>
</g>
<defs>
<clipPath id="clip0_607_2797">
<rect width="17.88" height="17.88" fill="white" transform="scale(1.00671)"/>
</clipPath>
</defs>
</svg>
