<svg width="14" height="15" viewBox="0 0 14 15" fill="none" xmlns="http://www.w3.org/2000/svg">
<path d="M3.53449 3.98845L4.91958 1.14007C5.62565 -0.311936 7.66349 -0.395033 8.48544 0.994661L10.1474 3.80456C10.3415 4.13272 10.6242 4.39945 10.9631 4.5741L12.9021 5.57334C14.3664 6.32792 14.3659 8.42164 12.9014 9.17561L10.709 10.3043C10.3558 10.4861 10.0639 10.7678 9.86947 11.1142L8.46254 13.6214C7.66218 15.0477 5.58889 14.9867 4.87367 13.5159L3.59129 10.8788C3.36806 10.4197 2.97976 10.0618 2.50404 9.87666L1.2914 9.40475C-0.327387 8.77478 -0.454737 6.53321 1.08228 5.72394L2.65636 4.89517C3.03815 4.69415 3.3458 4.37649 3.53449 3.98845Z" fill="#34991B"/>
</svg>
