<svg width="18" height="18" viewBox="0 0 18 18" fill="none" xmlns="http://www.w3.org/2000/svg">
<path d="M15.75 13.875C15.75 14.5712 15.4734 15.2389 14.9812 15.7312C14.4889 16.2234 13.8212 16.5 13.125 16.5C12.4288 16.5 11.7611 16.2234 11.2688 15.7312C10.7766 15.2389 10.5 14.5712 10.5 13.875C10.5006 13.6648 10.5284 13.4556 10.5825 13.2525L6.6525 11.295C6.17134 11.7477 5.53564 11.9998 4.875 12C4.17881 12 3.51113 11.7234 3.01884 11.2312C2.52656 10.7389 2.25 10.0712 2.25 9.375C2.25 8.67881 2.52656 8.01113 3.01884 7.51885C3.51113 7.02656 4.17881 6.75 4.875 6.75C5.53564 6.75017 6.17134 7.00231 6.6525 7.455L10.5825 5.4975C10.5284 5.29441 10.5006 5.08519 10.5 4.875C10.5 4.35583 10.654 3.84831 10.9424 3.41663C11.2308 2.98495 11.6408 2.6485 12.1205 2.44982C12.6001 2.25114 13.1279 2.19915 13.6371 2.30044C14.1463 2.40173 14.614 2.65173 14.9812 3.01885C15.3483 3.38596 15.5983 3.85369 15.6996 4.36289C15.8008 4.87209 15.7489 5.39989 15.5502 5.87955C15.3515 6.3592 15.0151 6.76917 14.5834 7.05761C14.1517 7.34605 13.6442 7.5 13.125 7.5C12.4644 7.49983 11.8287 7.24769 11.3475 6.795L7.4175 8.7525C7.52737 9.16023 7.52737 9.58977 7.4175 9.9975L11.3475 11.955C11.8287 11.5023 12.4644 11.2502 13.125 11.25C13.8212 11.25 14.4889 11.5266 14.9812 12.0188C15.4734 12.5111 15.75 13.1788 15.75 13.875Z" fill="#0F7BD5"/>
</svg>
