<svg width="244" height="25" viewBox="0 0 244 25" fill="none" xmlns="http://www.w3.org/2000/svg">
<path d="M244 0.855365V19.1027H240.204V0.855365H244Z" fill="white"/>
<path d="M231.446 19.3699C230.038 19.3699 228.827 19.0848 227.811 18.5145C226.801 17.9384 226.023 17.1246 225.476 16.0732C224.93 15.0159 224.657 13.7656 224.657 12.3222C224.657 10.9145 224.93 9.67896 225.476 8.61572C226.023 7.55248 226.792 6.72387 227.784 6.12988C228.782 5.53589 229.952 5.2389 231.295 5.2389C232.197 5.2389 233.038 5.38443 233.816 5.67548C234.6 5.96059 235.283 6.39124 235.865 6.9674C236.453 7.54357 236.911 8.26824 237.237 9.1414C237.564 10.0086 237.727 11.0243 237.727 12.1886V13.231H226.171V10.8788H234.155C234.155 10.3323 234.036 9.84825 233.798 9.42652C233.561 9.00478 233.231 8.67512 232.809 8.43753C232.393 8.19399 231.909 8.07222 231.357 8.07222C230.781 8.07222 230.27 8.20587 229.824 8.47316C229.385 8.73452 229.04 9.08794 228.791 9.53343C228.541 9.97299 228.414 10.463 228.408 11.0036V13.2399C228.408 13.9171 228.533 14.5021 228.782 14.9952C229.037 15.4882 229.397 15.8683 229.86 16.1356C230.323 16.4029 230.873 16.5366 231.508 16.5366C231.93 16.5366 232.316 16.4772 232.667 16.3584C233.017 16.2396 233.317 16.0614 233.567 15.8238C233.816 15.5862 234.006 15.2951 234.137 14.9506L237.647 15.1823C237.469 16.0257 237.104 16.7623 236.551 17.3919C236.005 18.0156 235.298 18.5027 234.431 18.8531C233.57 19.1976 232.575 19.3699 231.446 19.3699Z" fill="white"/>
<path d="M223.708 5.41715L218.923 19.1026H214.647L209.862 5.41715H213.871L216.714 15.2091H216.856L219.69 5.41715H223.708Z" fill="white"/>
<path d="M200.787 19.361C199.914 19.361 199.136 19.2095 198.453 18.9066C197.77 18.5977 197.229 18.1433 196.831 17.5434C196.439 16.9375 196.243 16.1831 196.243 15.2803C196.243 14.52 196.383 13.8814 196.662 13.3647C196.941 12.8479 197.321 12.4321 197.803 12.1173C198.284 11.8025 198.83 11.5649 199.442 11.4045C200.06 11.2441 200.707 11.1313 201.384 11.0659C202.18 10.9828 202.822 10.9055 203.309 10.8343C203.796 10.757 204.149 10.6442 204.369 10.4957C204.589 10.3472 204.699 10.1274 204.699 9.83637V9.78291C204.699 9.21862 204.521 8.78204 204.164 8.47316C203.814 8.16429 203.315 8.00985 202.667 8.00985C201.984 8.00985 201.441 8.16132 201.037 8.46425C200.633 8.76125 200.366 9.13546 200.235 9.58689L196.724 9.30178C196.903 8.47019 197.253 7.75147 197.776 7.1456C198.299 6.53379 198.973 6.06454 199.798 5.73785C200.63 5.40521 201.592 5.2389 202.685 5.2389C203.445 5.2389 204.173 5.328 204.868 5.50619C205.569 5.68439 206.19 5.96059 206.73 6.33481C207.277 6.70902 207.707 7.19015 208.022 7.7782C208.337 8.36031 208.494 9.05824 208.494 9.87201V19.1026H204.895V17.2048H204.788C204.568 17.6325 204.274 18.0096 203.906 18.3363C203.538 18.6571 203.095 18.9095 202.578 19.0937C202.061 19.2719 201.464 19.361 200.787 19.361ZM201.874 16.7415C202.433 16.7415 202.926 16.6316 203.353 16.4118C203.781 16.1861 204.117 15.8832 204.36 15.503C204.604 15.1229 204.725 14.6922 204.725 14.2111V12.7588C204.607 12.836 204.443 12.9073 204.235 12.9726C204.034 13.032 203.805 13.0885 203.549 13.1419C203.294 13.1894 203.039 13.234 202.783 13.2756C202.528 13.3112 202.296 13.3439 202.088 13.3736C201.643 13.4389 201.254 13.5429 200.921 13.6854C200.588 13.828 200.33 14.021 200.146 14.2646C199.962 14.5021 199.87 14.7991 199.87 15.1555C199.87 15.6723 200.057 16.0673 200.431 16.3405C200.811 16.6078 201.292 16.7415 201.874 16.7415Z" fill="white"/>
<path d="M187.011 19.1026V5.41715H190.69V7.80499H190.833C191.082 6.95558 191.501 6.31407 192.089 5.88046C192.677 5.44091 193.354 5.22114 194.121 5.22114C194.311 5.22114 194.516 5.23301 194.735 5.25677C194.955 5.28053 195.148 5.3132 195.315 5.35478V8.7227C195.136 8.66924 194.89 8.62172 194.575 8.58014C194.26 8.53856 193.972 8.51777 193.711 8.51777C193.152 8.51777 192.653 8.63954 192.214 8.88307C191.78 9.12067 191.436 9.4533 191.18 9.88097C190.931 10.3086 190.806 10.8017 190.806 11.36V19.1026H187.011Z" fill="white"/>
<path d="M171.049 4.03617V0.855365H186.035V4.03617H180.448V19.1027H176.635V4.03617H171.049Z" fill="white"/>
<path d="M155.599 19.1026V5.41715H159.279V7.80499H159.421C159.671 6.95558 160.089 6.31407 160.678 5.88046C161.266 5.44091 161.943 5.22114 162.709 5.22114C162.899 5.22114 163.104 5.23301 163.324 5.25677C163.544 5.28053 163.737 5.3132 163.903 5.35478V8.7227C163.725 8.66924 163.478 8.62172 163.163 8.58014C162.849 8.53856 162.56 8.51777 162.299 8.51777C161.741 8.51777 161.242 8.63954 160.802 8.88307C160.369 9.12067 160.024 9.4533 159.769 9.88097C159.519 10.3086 159.395 10.8017 159.395 11.36V19.1026H155.599Z" fill="white"/>
<path d="M148.767 13.2756V5.41715H152.563V19.1026H148.919V16.6168H148.776C148.467 17.4187 147.954 18.0632 147.235 18.5502C146.522 19.0373 145.652 19.2808 144.624 19.2808C143.71 19.2808 142.905 19.0729 142.21 18.6572C141.515 18.2414 140.971 17.6503 140.579 16.8841C140.193 16.1179 139.997 15.2001 139.991 14.131V5.41715H143.787V13.4538C143.793 14.2616 144.009 14.9002 144.437 15.3694C144.865 15.8387 145.438 16.0733 146.157 16.0733C146.614 16.0733 147.042 15.9694 147.44 15.7615C147.838 15.5476 148.159 15.2328 148.402 14.817C148.652 14.4012 148.773 13.8874 148.767 13.2756Z" fill="white"/>
<path d="M130.787 19.3699C129.403 19.3699 128.206 19.0759 127.197 18.4878C126.193 17.8938 125.418 17.0682 124.871 16.0109C124.325 14.9476 124.051 13.7151 124.051 12.3133C124.051 10.8996 124.325 9.66411 124.871 8.60681C125.418 7.54357 126.193 6.71793 127.197 6.12988C128.206 5.53589 129.403 5.2389 130.787 5.2389C132.171 5.2389 133.365 5.53589 134.369 6.12988C135.379 6.71793 136.157 7.54357 136.703 8.60681C137.25 9.66411 137.523 10.8996 137.523 12.3133C137.523 13.7151 137.25 14.9476 136.703 16.0109C136.157 17.0682 135.379 17.8938 134.369 18.4878C133.365 19.0759 132.171 19.3699 130.787 19.3699ZM130.805 16.4296C131.435 16.4296 131.96 16.2514 132.382 15.8951C132.804 15.5327 133.122 15.0397 133.336 14.416C133.555 13.7923 133.665 13.0825 133.665 12.2866C133.665 11.4906 133.555 10.7808 133.336 10.1571C133.122 9.53343 132.804 9.04042 132.382 8.67809C131.96 8.31576 131.435 8.13459 130.805 8.13459C130.17 8.13459 129.635 8.31576 129.201 8.67809C128.774 9.04042 128.45 9.53343 128.23 10.1571C128.016 10.7808 127.909 11.4906 127.909 12.2866C127.909 13.0825 128.016 13.7923 128.23 14.416C128.45 15.0397 128.774 15.5327 129.201 15.8951C129.635 16.2514 130.17 16.4296 130.805 16.4296Z" fill="white"/>
<path d="M112.687 24.2347C112.206 24.2347 111.754 24.1961 111.333 24.1189C110.917 24.0476 110.572 23.9555 110.299 23.8427L111.155 21.0093C111.6 21.146 112.001 21.2202 112.357 21.2321C112.72 21.244 113.032 21.1608 113.293 20.9826C113.56 20.8044 113.777 20.5015 113.943 20.0738L114.166 19.4947L109.257 5.41715H113.248L116.082 15.4674H116.224L119.084 5.41715H123.103L117.783 20.5817C117.528 21.3182 117.181 21.9597 116.741 22.5062C116.307 23.0586 115.758 23.4833 115.093 23.7803C114.427 24.0832 113.626 24.2347 112.687 24.2347Z" fill="white"/>
<path d="M94.2704 19.1026V5.41715H97.9502V7.80499H98.0927C98.3422 6.95558 98.761 6.31407 99.349 5.88046C99.9371 5.44091 100.614 5.22114 101.38 5.22114C101.571 5.22114 101.775 5.23301 101.995 5.25677C102.215 5.28053 102.408 5.3132 102.574 5.35478V8.7227C102.396 8.66924 102.15 8.62172 101.835 8.58014C101.52 8.53856 101.232 8.51777 100.971 8.51777C100.412 8.51777 99.9133 8.63954 99.4737 8.88307C99.0401 9.12067 98.6956 9.4533 98.4402 9.88097C98.1907 10.3086 98.066 10.8017 98.066 11.36V19.1026H94.2704Z" fill="white"/>
<path d="M85.512 19.3699C84.1043 19.3699 82.8925 19.0848 81.8768 18.5145C80.867 17.9384 80.0889 17.1246 79.5425 16.0732C78.996 15.0159 78.7228 13.7656 78.7228 12.3222C78.7228 10.9145 78.996 9.67896 79.5425 8.61572C80.0889 7.55248 80.8581 6.72387 81.8501 6.12988C82.848 5.53589 84.0182 5.2389 85.3606 5.2389C86.2634 5.2389 87.1039 5.38443 87.882 5.67548C88.6661 5.96059 89.3492 6.39124 89.9313 6.9674C90.5194 7.54357 90.9767 8.26824 91.3034 9.1414C91.6301 10.0086 91.7935 11.0243 91.7935 12.1886V13.231H80.2374V10.8788H88.2206C88.2206 10.3323 88.1018 9.84825 87.8642 9.42652C87.6266 9.00478 87.297 8.67512 86.8752 8.43753C86.4594 8.19399 85.9753 8.07222 85.4229 8.07222C84.8468 8.07222 84.3359 8.20587 83.8904 8.47316C83.4509 8.73452 83.1064 9.08794 82.8569 9.53343C82.6074 9.97299 82.4797 10.463 82.4738 11.0036V13.2399C82.4738 13.9171 82.5985 14.5021 82.848 14.9952C83.1034 15.4882 83.4628 15.8683 83.9261 16.1356C84.3894 16.4029 84.9388 16.5366 85.5744 16.5366C85.9961 16.5366 86.3822 16.4772 86.7327 16.3584C87.0831 16.2396 87.3831 16.0614 87.6326 15.8238C87.882 15.5862 88.0721 15.2951 88.2028 14.9506L91.7133 15.1823C91.5351 16.0257 91.1698 16.7623 90.6174 17.3919C90.0709 18.0156 89.3641 18.5027 88.4968 18.8531C87.6355 19.1976 86.6406 19.3699 85.512 19.3699Z" fill="white"/>
<path d="M77.4464 5.41717V8.26832H68.9999V5.41717H77.4464ZM70.9334 19.1027V4.42818C70.9334 3.43622 71.1264 2.61355 71.5125 1.96016C71.9045 1.30677 72.4391 0.816734 73.1163 0.49004C73.7934 0.163347 74.5626 0 75.4239 0C76.006 0 76.5376 0.0445495 77.0188 0.133648C77.5058 0.222746 77.8682 0.302935 78.1058 0.374213L77.4286 3.22536C77.2801 3.17784 77.096 3.13329 76.8762 3.09171C76.6624 3.05013 76.4426 3.02934 76.2169 3.02934C75.6585 3.02934 75.2695 3.16002 75.0497 3.42137C74.8299 3.67679 74.72 4.03615 74.72 4.49946V19.1027H70.9334Z" fill="white"/>
<path d="M67.385 9.3196L63.9102 9.53343C63.8508 9.23644 63.7231 8.96915 63.5271 8.73155C63.331 8.48801 63.0727 8.29497 62.7519 8.15241C62.4371 8.00391 62.0599 7.92967 61.6204 7.92967C61.0323 7.92967 60.5363 8.0544 60.1324 8.30388C59.7285 8.54741 59.5265 8.87411 59.5265 9.28396C59.5265 9.61065 59.6572 9.88686 59.9186 10.1126C60.1799 10.3383 60.6284 10.5195 61.264 10.6561L63.7409 11.155C65.0714 11.4283 66.0634 11.8678 66.7168 12.4737C67.3702 13.0795 67.6969 13.8755 67.6969 14.8615C67.6969 15.7584 67.4325 16.5455 66.9039 17.2226C66.3812 17.8998 65.6624 18.4284 64.7477 18.8086C63.8389 19.1828 62.7905 19.3699 61.6025 19.3699C59.7909 19.3699 58.3475 18.9927 57.2724 18.2383C56.2032 17.478 55.5765 16.4445 55.3924 15.1377L59.1256 14.9417C59.2385 15.4941 59.5117 15.9158 59.9453 16.2069C60.3789 16.492 60.9343 16.6346 61.6114 16.6346C62.2767 16.6346 62.8113 16.5069 63.2152 16.2514C63.6251 15.9901 63.833 15.6545 63.8389 15.2446C63.833 14.9001 63.6874 14.618 63.4023 14.3982C63.1172 14.1725 62.6777 14.0002 62.0837 13.8814L59.7137 13.4092C58.3772 13.1419 57.3822 12.6786 56.7289 12.0193C56.0814 11.3599 55.7577 10.5195 55.7577 9.4978C55.7577 8.61869 55.9953 7.86136 56.4705 7.22579C56.9516 6.59022 57.6258 6.10018 58.493 5.75567C59.3662 5.41116 60.3878 5.2389 61.558 5.2389C63.2865 5.2389 64.6467 5.6042 65.6387 6.33481C66.6366 7.06541 67.2187 8.06034 67.385 9.3196Z" fill="white"/>
<path d="M44.186 11.1907V19.1026H40.3904V5.41709H44.0078V7.83166H44.1682C44.4711 7.03571 44.979 6.40609 45.6918 5.94277C46.4046 5.47352 47.2688 5.2389 48.2846 5.2389C49.2349 5.2389 50.0635 5.44679 50.7704 5.86259C51.4772 6.27838 52.0267 6.87237 52.4187 7.64455C52.8107 8.4108 53.0068 9.32554 53.0068 10.3888V19.1026H49.2112V11.0659C49.2171 10.2284 49.0033 9.57501 48.5697 9.10576C48.1361 8.63057 47.5391 8.39298 46.7788 8.39298C46.268 8.39298 45.8165 8.50286 45.4245 8.72264C45.0384 8.94242 44.7355 9.26317 44.5157 9.6849C44.3019 10.1007 44.192 10.6026 44.186 11.1907Z" fill="white"/>
<path d="M29.7388 19.361C28.8656 19.361 28.0875 19.2095 27.4044 18.9066C26.7213 18.5977 26.1808 18.1433 25.7828 17.5434C25.3908 16.9375 25.1948 16.1831 25.1948 15.2803C25.1948 14.52 25.3343 13.8814 25.6135 13.3647C25.8927 12.8479 26.2728 12.4321 26.754 12.1173C27.2351 11.8025 27.7816 11.5649 28.3934 11.4045C29.0111 11.2441 29.6586 11.1313 30.3357 11.0659C31.1317 10.9828 31.7732 10.9055 32.2602 10.8343C32.7473 10.757 33.1007 10.6442 33.3205 10.4957C33.5403 10.3472 33.6502 10.1274 33.6502 9.83637V9.78291C33.6502 9.21862 33.472 8.78204 33.1156 8.47316C32.7651 8.16429 32.2662 8.00985 31.6187 8.00985C30.9356 8.00985 30.3922 8.16132 29.9882 8.46425C29.5843 8.76125 29.317 9.13546 29.1864 9.58689L25.6759 9.30178C25.8541 8.47019 26.2045 7.75147 26.7272 7.1456C27.25 6.53379 27.9241 6.06454 28.7498 5.73785C29.5814 5.40521 30.5436 5.2389 31.6366 5.2389C32.3969 5.2389 33.1245 5.328 33.8195 5.50619C34.5204 5.68439 35.1411 5.96059 35.6816 6.33481C36.2281 6.70902 36.6587 7.19015 36.9735 7.7782C37.2884 8.36031 37.4458 9.05824 37.4458 9.87201V19.1026H33.8462V17.2048H33.7393C33.5195 17.6325 33.2255 18.0096 32.8572 18.3363C32.4889 18.6571 32.0464 18.9095 31.5296 19.0937C31.0129 19.2719 30.4159 19.361 29.7388 19.361ZM30.8258 16.7415C31.3841 16.7415 31.8771 16.6316 32.3048 16.4118C32.7325 16.1861 33.0681 15.8832 33.3116 15.503C33.5551 15.1229 33.6769 14.6922 33.6769 14.2111V12.7588C33.5581 12.836 33.3948 12.9073 33.1869 12.9726C32.9849 13.032 32.7562 13.0885 32.5008 13.1419C32.2454 13.1894 31.99 13.234 31.7346 13.2756C31.4791 13.3112 31.2475 13.3439 31.0396 13.3736C30.5941 13.4389 30.205 13.5429 29.8724 13.6854C29.5398 13.828 29.2814 14.021 29.0973 14.2646C28.9131 14.5021 28.8211 14.7991 28.8211 15.1555C28.8211 15.6723 29.0082 16.0673 29.3824 16.3405C29.7625 16.6078 30.2437 16.7415 30.8258 16.7415Z" fill="white"/>
<path d="M15.962 19.1026V5.41715H19.6417V7.80499H19.7843C20.0338 6.95558 20.4525 6.31407 21.0406 5.88046C21.6286 5.44091 22.3058 5.22114 23.072 5.22114C23.2621 5.22114 23.467 5.23301 23.6868 5.25677C23.9066 5.28053 24.0996 5.3132 24.2659 5.35478V8.7227C24.0877 8.66924 23.8412 8.62172 23.5264 8.58014C23.2116 8.53856 22.9235 8.51777 22.6622 8.51777C22.1038 8.51777 21.6049 8.63954 21.1653 8.88307C20.7317 9.12067 20.3872 9.4533 20.1318 9.88097C19.8823 10.3086 19.7575 10.8017 19.7575 11.36V19.1026H15.962Z" fill="white"/>
<path d="M0 4.03617V0.855365H14.9863V4.03617H9.39987V19.1027H5.58646V4.03617H0Z" fill="white"/>
</svg>
