<svg width="86" height="11" viewBox="0 0 86 11" fill="none" xmlns="http://www.w3.org/2000/svg">
<path d="M84.6553 2.70945C84.5951 2.20101 84.3509 1.8063 83.9227 1.52532C83.4946 1.24434 82.9694 1.10385 82.3473 1.10385C81.8923 1.10385 81.4943 1.17744 81.1531 1.32462C80.8152 1.4718 80.551 1.67417 80.3603 1.93174C80.173 2.1893 80.0793 2.48199 80.0793 2.8098C80.0793 3.08409 80.1446 3.31991 80.275 3.51727C80.4088 3.71128 80.5794 3.87351 80.7868 4.00397C80.9942 4.13108 81.2116 4.23644 81.4391 4.32007C81.6665 4.40035 81.8756 4.46558 82.0663 4.51575L83.1099 4.79673C83.3775 4.86698 83.6752 4.96398 84.003 5.08775C84.3342 5.21151 84.6503 5.38043 84.9513 5.59452C85.2557 5.80525 85.5066 6.0762 85.704 6.40735C85.9013 6.73851 86 7.14492 86 7.6266C86 8.18187 85.8545 8.68362 85.5635 9.13186C85.2758 9.58009 84.8543 9.93633 84.2991 10.2006C83.7471 10.4648 83.0765 10.597 82.287 10.597C81.5511 10.597 80.9139 10.4782 80.3754 10.2407C79.8402 10.0032 79.4187 9.67207 79.111 9.24726C78.8066 8.82244 78.6343 8.32905 78.5942 7.76709H79.8786C79.9121 8.15511 80.0425 8.47623 80.27 8.73045C80.5008 8.98133 80.7918 9.16865 81.143 9.29242C81.4976 9.41284 81.8789 9.47305 82.287 9.47305C82.762 9.47305 83.1885 9.39611 83.5665 9.24224C83.9445 9.08502 84.2439 8.8676 84.4646 8.58996C84.6854 8.30898 84.7958 7.98117 84.7958 7.60653C84.7958 7.26534 84.7005 6.98771 84.5098 6.77363C84.3191 6.55955 84.0683 6.38561 83.7572 6.25181C83.4461 6.11801 83.1099 6.00093 82.7487 5.90058L81.4842 5.53932C80.6814 5.30852 80.0459 4.97904 79.5776 4.55088C79.1093 4.12272 78.8751 3.56243 78.8751 2.87001C78.8751 2.29467 79.0307 1.79292 79.3418 1.36476C79.6562 0.933255 80.0777 0.598755 80.6062 0.36126C81.138 0.12042 81.7318 0 82.3874 0C83.0497 0 83.6384 0.118747 84.1536 0.356242C84.6687 0.590392 85.0768 0.911513 85.3778 1.3196C85.6822 1.72769 85.8428 2.19098 85.8595 2.70945H84.6553Z" fill="white"/>
<path d="M69.8185 10.4163V0.140445H71.0629V5.23823H71.1833L75.7994 0.140445H77.4251L73.11 4.77662L77.4251 10.4163H75.9198L72.3474 5.63963L71.0629 7.08467V10.4163H69.8185Z" fill="white"/>
<path d="M67.8078 3.35169H66.5634C66.4898 2.99378 66.3611 2.67935 66.1771 2.4084C65.9965 2.13746 65.7757 1.91 65.5148 1.72602C65.2572 1.5387 64.9712 1.39821 64.6568 1.30455C64.3424 1.21089 64.0145 1.16406 63.6734 1.16406C63.0512 1.16406 62.4875 1.32128 61.9825 1.63571C61.4807 1.95014 61.081 2.41342 60.7833 3.02555C60.4889 3.63769 60.3417 4.38864 60.3417 5.27841C60.3417 6.16818 60.4889 6.91914 60.7833 7.53127C61.081 8.14341 61.4807 8.60669 61.9825 8.92112C62.4875 9.23555 63.0512 9.39276 63.6734 9.39276C64.0145 9.39276 64.3424 9.34594 64.6568 9.25228C64.9712 9.15862 65.2572 9.0198 65.5148 8.83582C65.7757 8.6485 65.9965 8.41937 66.1771 8.14842C66.3611 7.87413 66.4898 7.5597 66.5634 7.20513H67.8078C67.7141 7.7303 67.5435 8.20027 67.296 8.61505C67.0485 9.02983 66.7407 9.38273 66.3728 9.67375C66.0048 9.96142 65.5917 10.1805 65.1334 10.331C64.6785 10.4816 64.1918 10.5568 63.6734 10.5568C62.797 10.5568 62.0176 10.3427 61.3352 9.91459C60.6528 9.48643 60.1159 8.87764 59.7246 8.08821C59.3332 7.29879 59.1375 6.36219 59.1375 5.27841C59.1375 4.19463 59.3332 3.25803 59.7246 2.46861C60.1159 1.67919 60.6528 1.0704 61.3352 0.642241C62.0176 0.21408 62.797 0 63.6734 0C64.1918 0 64.6785 0.0752624 65.1334 0.225788C65.5917 0.376313 66.0048 0.597083 66.3728 0.888098C66.7407 1.17577 67.0485 1.52699 67.296 1.94177C67.5435 2.35321 67.7141 2.82318 67.8078 3.35169Z" fill="white"/>
<path d="M55.8097 0.140445H57.054V6.94418C57.054 7.64663 56.8884 8.27382 56.5573 8.82574C56.2295 9.37432 55.7662 9.8075 55.1674 10.1253C54.5687 10.4397 53.8662 10.5969 53.0601 10.5969C52.2539 10.5969 51.5515 10.4397 50.9527 10.1253C50.354 9.8075 49.889 9.37432 49.5579 8.82574C49.2301 8.27382 49.0662 7.64663 49.0662 6.94418V0.140445H50.3105V6.84383C50.3105 7.34558 50.4209 7.79214 50.6417 8.1835C50.8624 8.57152 51.1769 8.87759 51.5849 9.1017C51.9964 9.32247 52.4881 9.43286 53.0601 9.43286C53.6321 9.43286 54.1238 9.32247 54.5352 9.1017C54.9467 8.87759 55.2611 8.57152 55.4785 8.1835C55.6993 7.79214 55.8097 7.34558 55.8097 6.84383V0.140445Z" fill="white"/>
<path d="M39.8766 10.4163V0.140445H43.4691C44.185 0.140445 44.7754 0.26421 45.2403 0.511741C45.7053 0.755925 46.0515 1.08541 46.2789 1.50019C46.5064 1.91162 46.6201 2.36822 46.6201 2.86997C46.6201 3.31151 46.5415 3.67611 46.3843 3.96378C46.2304 4.25145 46.0264 4.47891 45.7722 4.64616C45.5213 4.81341 45.2487 4.93718 44.9543 5.01746V5.11781C45.2687 5.13788 45.5848 5.24826 45.9026 5.44896C46.2204 5.64966 46.4863 5.93733 46.7004 6.31197C46.9145 6.68661 47.0215 7.14488 47.0215 7.68677C47.0215 8.2019 46.9044 8.66518 46.6703 9.07662C46.4361 9.48805 46.0665 9.81419 45.5614 10.055C45.0563 10.2959 44.399 10.4163 43.5896 10.4163H39.8766ZM41.1209 9.31244H43.5896C44.4024 9.31244 44.9794 9.15523 45.3206 8.8408C45.6651 8.52302 45.8374 8.13834 45.8374 7.68677C45.8374 7.33889 45.7487 7.01777 45.5715 6.72341C45.3942 6.4257 45.1416 6.18821 44.8138 6.01092C44.486 5.83029 44.098 5.73998 43.6498 5.73998H41.1209V9.31244ZM41.1209 4.6562H43.429C43.8036 4.6562 44.1415 4.58261 44.4425 4.43543C44.7469 4.28825 44.9878 4.08086 45.165 3.81326C45.3457 3.54566 45.436 3.23123 45.436 2.86997C45.436 2.41839 45.2788 2.03539 44.9643 1.72096C44.6499 1.40318 44.1515 1.2443 43.4691 1.2443H41.1209V4.6562Z" fill="white"/>
<path d="M26.865 10.4163V0.140445H30.3371C31.1399 0.140445 31.7988 0.27759 32.314 0.551881C32.8291 0.822826 33.2104 1.19579 33.458 1.67078C33.7055 2.14577 33.8293 2.68599 33.8293 3.29144C33.8293 3.89688 33.7055 4.43376 33.458 4.90206C33.2104 5.37036 32.8308 5.73831 32.319 6.00591C31.8072 6.27016 31.1533 6.40229 30.3571 6.40229H27.5473V5.27837H30.317C30.8656 5.27837 31.3071 5.19809 31.6416 5.03753C31.9795 4.87697 32.2237 4.64951 32.3742 4.35515C32.5281 4.05744 32.605 3.70287 32.605 3.29144C32.605 2.88 32.5281 2.52041 32.3742 2.21267C32.2203 1.90493 31.9745 1.66744 31.6366 1.50019C31.2988 1.32959 30.8522 1.2443 30.2969 1.2443H28.1093V10.4163H26.865ZM31.7018 5.80019L34.2307 10.4163H32.7856L30.2969 5.80019H31.7018Z" fill="white"/>
<path d="M17.7381 10.4163H16.4336L20.2067 0.140445H21.4912L25.2644 10.4163H23.9598L20.8891 1.76612H20.8088L17.7381 10.4163ZM18.2198 6.40229H23.4781V7.50614H18.2198V6.40229Z" fill="white"/>
<path d="M8.88975 1.2443V0.140445H16.5966V1.2443H13.3654V10.4163H12.121V1.2443H8.88975Z" fill="white"/>
<path d="M6.06114 2.70945C6.00093 2.20101 5.75675 1.8063 5.32859 1.52532C4.90043 1.24434 4.37526 1.10385 3.75309 1.10385C3.29817 1.10385 2.90012 1.17744 2.55893 1.32462C2.22108 1.4718 1.95683 1.67417 1.76616 1.93174C1.57884 2.1893 1.48518 2.48199 1.48518 2.8098C1.48518 3.08409 1.55041 3.31991 1.68086 3.51727C1.81466 3.71128 1.98526 3.87351 2.19265 4.00397C2.40004 4.13108 2.61746 4.23644 2.84492 4.32007C3.07238 4.40035 3.28145 4.46558 3.47211 4.51575L4.51575 4.79673C4.78335 4.86698 5.08106 4.96398 5.40887 5.08775C5.74002 5.21151 6.05613 5.38043 6.35718 5.59452C6.66157 5.80525 6.91245 6.0762 7.1098 6.40735C7.30716 6.73851 7.40583 7.14492 7.40583 7.6266C7.40583 8.18187 7.26033 8.68362 6.96931 9.13186C6.68164 9.58009 6.26017 9.93633 5.7049 10.2006C5.15298 10.4648 4.4823 10.597 3.69288 10.597C2.95698 10.597 2.31976 10.4782 1.78121 10.2407C1.24601 10.0032 0.824543 9.67207 0.516803 9.24726C0.212408 8.82244 0.04014 8.32905 0 7.76709H1.28448C1.31793 8.15511 1.44839 8.47623 1.67585 8.73045C1.90665 8.98133 2.19767 9.16865 2.54889 9.29242C2.90346 9.41284 3.28479 9.47305 3.69288 9.47305C4.16787 9.47305 4.59436 9.39611 4.97235 9.24224C5.35033 9.08502 5.64971 8.8676 5.87048 8.58996C6.09125 8.30898 6.20163 7.98117 6.20163 7.60653C6.20163 7.26534 6.1063 6.98771 5.91564 6.77363C5.72497 6.55955 5.4741 6.38561 5.16301 6.25181C4.85193 6.11801 4.51575 6.00093 4.15449 5.90058L2.89008 5.53932C2.08728 5.30852 1.45173 4.97904 0.983431 4.55088C0.51513 4.12272 0.28098 3.56243 0.28098 2.87001C0.28098 2.29467 0.436523 1.79292 0.747608 1.36476C1.06204 0.933255 1.48351 0.598755 2.01202 0.36126C2.54387 0.12042 3.13761 0 3.79323 0C4.45554 0 5.04426 0.118747 5.55939 0.356242C6.07452 0.590392 6.48261 0.911513 6.78366 1.3196C7.08806 1.72769 7.24862 2.19098 7.26534 2.70945H6.06114Z" fill="white"/>
</svg>
