<svg width="30" height="8" viewBox="0 0 30 8" fill="none" xmlns="http://www.w3.org/2000/svg">
<path d="M30 0V7.47642H28.8482V0H30Z" fill="black"/>
<path d="M27.7148 4.55656C27.7148 4.76536 27.7013 4.95396 27.6744 5.12235H23.4209C23.4546 5.56689 23.6196 5.92387 23.9159 6.19329C24.2123 6.46271 24.576 6.59742 25.0071 6.59742C25.6268 6.59742 26.0646 6.33811 26.3205 5.81947H27.5632C27.3948 6.33137 27.0884 6.75234 26.6438 7.08238C26.206 7.40568 25.6604 7.56734 25.0071 7.56734C24.475 7.56734 23.9968 7.44946 23.5724 7.21372C23.1548 6.97124 22.8248 6.63447 22.5823 6.20339C22.3466 5.76559 22.2287 5.26042 22.2287 4.6879C22.2287 4.11539 22.3432 3.61359 22.5722 3.18252C22.808 2.74471 23.1346 2.40793 23.5522 2.17219C23.9766 1.93645 24.4615 1.81858 25.0071 1.81858C25.5325 1.81858 26.0006 1.93308 26.4115 2.16209C26.8223 2.39109 27.1423 2.7144 27.3713 3.132C27.6003 3.54287 27.7148 4.01772 27.7148 4.55656ZM26.5125 4.19284C26.5058 3.76851 26.3542 3.42836 26.0578 3.17241C25.7615 2.91646 25.3944 2.78849 24.9566 2.78849C24.5592 2.78849 24.219 2.91646 23.9362 3.17241C23.6533 3.42163 23.4849 3.76177 23.431 4.19284H26.5125Z" fill="black"/>
<path d="M18.9434 6.4459L20.5195 1.90953H21.742L19.6203 7.47643H18.2463L16.1347 1.90953H17.3673L18.9434 6.4459Z" fill="black"/>
<path d="M9.56015 4.6677C9.56015 4.10865 9.67465 3.61359 9.90366 3.18252C10.1394 2.75144 10.456 2.41804 10.8534 2.18229C11.2575 1.93982 11.702 1.81858 12.187 1.81858C12.6248 1.81858 13.0054 1.90614 13.3287 2.08126C13.6587 2.24965 13.9214 2.46182 14.1167 2.71777V1.90951H15.2786V7.47641H14.1167V6.64794C13.9214 6.91062 13.6553 7.12953 13.3186 7.30465C12.9818 7.47977 12.5979 7.56734 12.1668 7.56734C11.6886 7.56734 11.2508 7.4461 10.8534 7.20362C10.456 6.9544 10.1394 6.61089 9.90366 6.17309C9.67465 5.72854 9.56015 5.22675 9.56015 4.6677ZM14.1167 4.6879C14.1167 4.30398 14.0359 3.97057 13.8742 3.68768C13.7193 3.40479 13.5139 3.18925 13.2579 3.04107C13.002 2.89289 12.7258 2.8188 12.4295 2.8188C12.1331 2.8188 11.857 2.89289 11.601 3.04107C11.3451 3.18252 11.1363 3.39469 10.9746 3.67758C10.8197 3.95373 10.7422 4.28377 10.7422 4.6677C10.7422 5.05162 10.8197 5.3884 10.9746 5.67802C11.1363 5.96765 11.3451 6.18992 11.601 6.34484C11.8637 6.49302 12.1399 6.56711 12.4295 6.56711C12.7258 6.56711 13.002 6.49302 13.2579 6.34484C13.5139 6.19666 13.7193 5.98112 13.8742 5.69823C14.0359 5.4086 14.1167 5.07183 14.1167 4.6879Z" fill="black"/>
<path d="M7.2183 2.71777C7.38669 2.43488 7.60896 2.21597 7.88511 2.06105C8.168 1.8994 8.50141 1.81858 8.88534 1.81858V3.01076H8.59234C8.14106 3.01076 7.79755 3.12527 7.56181 3.35427C7.3328 3.58328 7.2183 3.98068 7.2183 4.54646V7.47641H6.06652V1.90951H7.2183V2.71777Z" fill="black"/>
<path d="M4.90009 0.454659V1.39426H3.03098V7.47643H1.87921V1.39426H0V0.454659H4.90009Z" fill="black"/>
</svg>
