<svg width="169" height="121" viewBox="0 0 169 121" fill="none" xmlns="http://www.w3.org/2000/svg">
<path d="M164.196 7.65368L161.144 7.8415C161.092 7.58064 160.98 7.34587 160.808 7.13718C160.635 6.92327 160.408 6.75371 160.127 6.6285C159.85 6.49807 159.519 6.43285 159.133 6.43285C158.616 6.43285 158.181 6.54241 157.826 6.76154C157.471 6.97544 157.294 7.26239 157.294 7.62238C157.294 7.90933 157.409 8.15193 157.638 8.35019C157.868 8.54844 158.262 8.70757 158.82 8.82756L160.995 9.26581C162.164 9.5058 163.035 9.89188 163.609 10.424C164.183 10.9562 164.47 11.6553 164.47 12.5214C164.47 13.3092 164.238 14.0005 163.774 14.5952C163.314 15.19 162.683 15.6543 161.88 15.9882C161.081 16.3169 160.161 16.4812 159.117 16.4812C157.526 16.4812 156.258 16.15 155.314 15.4874C154.375 14.8196 153.824 13.9118 153.663 12.764L156.942 12.5918C157.041 13.077 157.281 13.4474 157.662 13.7031C158.042 13.9535 158.53 14.0787 159.125 14.0787C159.709 14.0787 160.179 13.9665 160.534 13.7422C160.894 13.5126 161.076 13.2179 161.081 12.8579C161.076 12.5553 160.948 12.3075 160.698 12.1144C160.448 11.9162 160.062 11.7649 159.54 11.6605L157.458 11.2458C156.284 11.011 155.41 10.604 154.836 10.0249C154.268 9.4458 153.983 8.70757 153.983 7.8102C153.983 7.03805 154.192 6.37285 154.61 5.81461C155.032 5.25637 155.624 4.82594 156.386 4.52334C157.153 4.22074 158.05 4.06944 159.078 4.06944C160.596 4.06944 161.791 4.3903 162.662 5.03202C163.539 5.67374 164.05 6.54763 164.196 7.65368Z" fill="black"/>
<path d="M151.524 0.219124V16.2465H148.19V0.219124H151.524Z" fill="black"/>
<path d="M138.835 16.4734C138.068 16.4734 137.384 16.3404 136.784 16.0743C136.184 15.803 135.709 15.4039 135.36 14.8769C135.016 14.3448 134.843 13.6822 134.843 12.8892C134.843 12.2214 134.966 11.6605 135.211 11.2066C135.456 10.7527 135.79 10.3875 136.213 10.111C136.635 9.83449 137.115 9.6258 137.653 9.48493C138.195 9.34407 138.764 9.24494 139.359 9.18755C140.058 9.11451 140.621 9.04669 141.049 8.98408C141.477 8.91626 141.788 8.81713 141.981 8.6867C142.174 8.55627 142.27 8.36323 142.27 8.10758V8.06063C142.27 7.56499 142.114 7.18152 141.801 6.91023C141.493 6.63893 141.054 6.50328 140.486 6.50328C139.886 6.50328 139.408 6.63632 139.054 6.9024C138.699 7.16326 138.464 7.49195 138.349 7.88846L135.266 7.63803C135.422 6.90762 135.73 6.27633 136.189 5.74418C136.649 5.2068 137.241 4.79464 137.966 4.50769C138.696 4.21553 139.541 4.06944 140.501 4.06944C141.169 4.06944 141.808 4.1477 142.419 4.30422C143.034 4.46074 143.58 4.70334 144.054 5.03202C144.534 5.36071 144.913 5.78331 145.189 6.29981C145.466 6.8111 145.604 7.42413 145.604 8.13889V16.2465H142.442V14.5796H142.348C142.155 14.9552 141.897 15.2865 141.574 15.5734C141.25 15.8552 140.861 16.0769 140.408 16.2386C139.954 16.3952 139.429 16.4734 138.835 16.4734ZM139.789 14.1726C140.28 14.1726 140.713 14.0761 141.088 13.8831C141.464 13.6848 141.759 13.4187 141.973 13.0848C142.187 12.7509 142.294 12.3727 142.294 11.9501V10.6745C142.189 10.7423 142.046 10.8049 141.863 10.8623C141.686 10.9145 141.485 10.964 141.261 11.011C141.036 11.0527 140.812 11.0918 140.588 11.1284C140.363 11.1597 140.16 11.1884 139.977 11.2144C139.586 11.2718 139.244 11.3631 138.952 11.4884C138.66 11.6136 138.433 11.7831 138.271 11.997C138.109 12.2057 138.028 12.4666 138.028 12.7796C138.028 13.2335 138.193 13.5805 138.522 13.8205C138.855 14.0552 139.278 14.1726 139.789 14.1726Z" fill="black"/>
<path d="M127.714 16.4812C126.478 16.4812 125.413 16.2308 124.521 15.73C123.634 15.2239 122.951 14.5091 122.471 13.5857C121.991 12.657 121.751 11.5588 121.751 10.291C121.751 9.05451 121.991 7.96933 122.471 7.03544C122.951 6.10156 123.626 5.37375 124.498 4.85203C125.374 4.33031 126.402 4.06944 127.581 4.06944C128.374 4.06944 129.112 4.19727 129.796 4.45291C130.484 4.70334 131.084 5.08159 131.596 5.58766C132.112 6.09373 132.514 6.73023 132.801 7.49717C133.088 8.25888 133.231 9.15103 133.231 10.1736V11.0892H123.081V9.02321H130.093C130.093 8.54322 129.989 8.11802 129.78 7.74759C129.571 7.37717 129.282 7.08761 128.911 6.87892C128.546 6.66502 128.121 6.55806 127.636 6.55806C127.13 6.55806 126.681 6.67545 126.29 6.91023C125.904 7.13979 125.601 7.45021 125.382 7.8415C125.163 8.22758 125.051 8.658 125.045 9.13277V11.0971C125.045 11.6918 125.155 12.2057 125.374 12.6388C125.598 13.0718 125.914 13.4057 126.321 13.6405C126.728 13.8752 127.211 13.9926 127.769 13.9926C128.139 13.9926 128.478 13.9405 128.786 13.8361C129.094 13.7318 129.357 13.5752 129.577 13.3666C129.796 13.1579 129.963 12.9022 130.077 12.5996L133.161 12.8031C133.004 13.5439 132.683 14.1909 132.198 14.7439C131.718 15.2917 131.097 15.7195 130.336 16.0273C129.579 16.3299 128.705 16.4812 127.714 16.4812Z" fill="black"/>
<path d="M111.947 16.2465H106.265V0.219124H111.994C113.606 0.219124 114.994 0.539984 116.157 1.1817C117.321 1.81821 118.215 2.73383 118.841 3.92858C119.473 5.12333 119.788 6.55285 119.788 8.21715C119.788 9.88666 119.473 11.3214 118.841 12.5214C118.215 13.7213 117.315 14.6422 116.142 15.2839C114.973 15.9256 113.575 16.2465 111.947 16.2465ZM109.654 13.3431H111.806C112.808 13.3431 113.65 13.1657 114.334 12.8109C115.022 12.4509 115.539 11.8953 115.883 11.144C116.233 10.3875 116.408 9.41189 116.408 8.21715C116.408 7.03283 116.233 6.06504 115.883 5.31375C115.539 4.56247 115.025 4.00945 114.342 3.65467C113.658 3.2999 112.816 3.12252 111.814 3.12252H109.654V13.3431Z" fill="black"/>
<path d="M91.7464 16.4734C90.9795 16.4734 90.296 16.3404 89.696 16.0743C89.096 15.803 88.6213 15.4039 88.2717 14.8769C87.9274 14.3448 87.7552 13.6822 87.7552 12.8892C87.7552 12.2214 87.8778 11.6605 88.123 11.2066C88.3682 10.7527 88.7021 10.3875 89.1247 10.111C89.5473 9.83449 90.0273 9.6258 90.5647 9.48493C91.1073 9.34407 91.676 9.24494 92.2707 9.18755C92.9698 9.11451 93.5333 9.04669 93.9611 8.98408C94.3889 8.91626 94.6993 8.81713 94.8924 8.6867C95.0854 8.55627 95.1819 8.36323 95.1819 8.10758V8.06063C95.1819 7.56499 95.0254 7.18152 94.7124 6.91023C94.4046 6.63893 93.9663 6.50328 93.3976 6.50328C92.7977 6.50328 92.3203 6.63632 91.9655 6.9024C91.6107 7.16326 91.376 7.49195 91.2612 7.88846L88.1778 7.63803C88.3343 6.90762 88.6421 6.27633 89.1013 5.74418C89.5604 5.2068 90.1525 4.79464 90.8777 4.50769C91.6081 4.21553 92.4533 4.06944 93.4133 4.06944C94.0811 4.06944 94.7202 4.1477 95.3306 4.30422C95.9463 4.46074 96.4915 4.70334 96.9662 5.03202C97.4462 5.36071 97.8245 5.78331 98.101 6.29981C98.3775 6.8111 98.5158 7.42413 98.5158 8.13889V16.2465H95.3541V14.5796H95.2602C95.0672 14.9552 94.8089 15.2865 94.4854 15.5734C94.162 15.8552 93.7733 16.0769 93.3194 16.2386C92.8655 16.3952 92.3412 16.4734 91.7464 16.4734ZM92.7011 14.1726C93.1916 14.1726 93.6246 14.0761 94.0002 13.8831C94.3759 13.6848 94.6706 13.4187 94.8846 13.0848C95.0985 12.7509 95.2054 12.3727 95.2054 11.9501V10.6745C95.1011 10.7423 94.9576 10.8049 94.775 10.8623C94.5976 10.9145 94.3967 10.964 94.1724 11.011C93.9481 11.0527 93.7237 11.0918 93.4994 11.1284C93.275 11.1597 93.0716 11.1884 92.889 11.2144C92.4977 11.2718 92.1559 11.3631 91.8638 11.4884C91.5716 11.6136 91.3447 11.7831 91.1829 11.997C91.0212 12.2057 90.9403 12.4666 90.9403 12.7796C90.9403 13.2335 91.1047 13.5805 91.4334 13.8205C91.7673 14.0552 92.1899 14.1726 92.7011 14.1726Z" fill="black"/>
<path d="M79.6457 16.2465V4.22596H82.8777V6.32329H83.003C83.2221 5.57722 83.5899 5.01376 84.1064 4.63291C84.6229 4.24683 85.2177 4.05379 85.8907 4.05379C86.0576 4.05379 86.2376 4.06423 86.4307 4.08509C86.6237 4.10596 86.7933 4.13466 86.9394 4.17118V7.12935C86.7828 7.0824 86.5663 7.04066 86.2898 7.00414C86.0133 6.96762 85.7603 6.94936 85.5307 6.94936C85.0403 6.94936 84.602 7.05631 84.216 7.27022C83.8351 7.47891 83.5325 7.77107 83.3082 8.14671C83.089 8.52235 82.9795 8.95538 82.9795 9.4458V16.2465H79.6457Z" fill="black"/>
<path d="M77.474 4.22596V6.73023H70.2351V4.22596H77.474ZM71.8785 1.34605H75.2123V12.5527C75.2123 12.8605 75.2593 13.1005 75.3532 13.2726C75.4471 13.4396 75.5775 13.557 75.7445 13.6248C75.9166 13.6926 76.1149 13.7265 76.3392 13.7265C76.4958 13.7265 76.6523 13.7135 76.8088 13.6874C76.9653 13.6561 77.0853 13.6326 77.1688 13.617L77.6931 16.0978C77.5262 16.15 77.2914 16.21 76.9888 16.2778C76.6862 16.3508 76.3184 16.3952 75.8853 16.4108C75.0819 16.4421 74.3776 16.3352 73.7724 16.09C73.1724 15.8447 72.7054 15.4639 72.3715 14.9474C72.0376 14.4309 71.8733 13.7787 71.8785 12.9909V1.34605Z" fill="black"/>
<path d="M61.2119 4.22596L63.4188 8.42844L65.6804 4.22596H69.1003L65.6178 10.2362L69.1942 16.2465H65.79L63.4188 12.0909L61.0867 16.2465H57.6433L61.2119 10.2362L57.7685 4.22596H61.2119Z" fill="black"/>
<path d="M44.9947 16.2465V0.219124H55.7944V3.01295H48.3833V6.83197H55.2388V9.6258H48.3833V13.4526H55.8257V16.2465H44.9947Z" fill="black"/>
<path d="M37.66 4.22596V6.73023H30.421V4.22596H37.66ZM32.0645 1.34605H35.3983V12.5527C35.3983 12.8605 35.4452 13.1005 35.5392 13.2726C35.6331 13.4396 35.7635 13.557 35.9304 13.6248C36.1026 13.6926 36.3009 13.7265 36.5252 13.7265C36.6817 13.7265 36.8382 13.7135 36.9948 13.6874C37.1513 13.6561 37.2713 13.6326 37.3548 13.617L37.8791 16.0978C37.7121 16.15 37.4774 16.21 37.1748 16.2778C36.8722 16.3508 36.5043 16.3952 36.0713 16.4108C35.2679 16.4421 34.5635 16.3352 33.9583 16.09C33.3584 15.8447 32.8914 15.4639 32.5575 14.9474C32.2236 14.4309 32.0593 13.7787 32.0645 12.9909V1.34605Z" fill="black"/>
<path d="M23.5734 16.4812C22.3369 16.4812 21.2726 16.2308 20.3805 15.73C19.4935 15.2239 18.8101 14.5091 18.3301 13.5857C17.8501 12.657 17.6101 11.5588 17.6101 10.291C17.6101 9.05451 17.8501 7.96933 18.3301 7.03544C18.8101 6.10156 19.4857 5.37375 20.357 4.85203C21.2335 4.33031 22.2613 4.06944 23.4404 4.06944C24.2334 4.06944 24.9716 4.19727 25.6551 4.45291C26.3438 4.70334 26.9438 5.08159 27.455 5.58766C27.9716 6.09373 28.3733 6.73023 28.6602 7.49717C28.9472 8.25888 29.0907 9.15103 29.0907 10.1736V11.0892H18.9405V9.02321H25.9525C25.9525 8.54322 25.8481 8.11802 25.6395 7.74759C25.4308 7.37717 25.1412 7.08761 24.7708 6.87892C24.4056 6.66502 23.9804 6.55806 23.4952 6.55806C22.9891 6.55806 22.5404 6.67545 22.1491 6.91023C21.763 7.13979 21.4604 7.45021 21.2413 7.8415C21.0222 8.22758 20.91 8.658 20.9048 9.13277V11.0971C20.9048 11.6918 21.0144 12.2057 21.2335 12.6388C21.4578 13.0718 21.7735 13.4057 22.1804 13.6405C22.5874 13.8752 23.07 13.9926 23.6282 13.9926C23.9986 13.9926 24.3378 13.9405 24.6456 13.8361C24.9534 13.7318 25.2169 13.5752 25.436 13.3666C25.6551 13.1579 25.8221 12.9022 25.9368 12.5996L29.0202 12.8031C28.8637 13.5439 28.5428 14.1909 28.0576 14.7439C27.5777 15.2917 26.9568 15.7195 26.1951 16.0273C25.4386 16.3299 24.5647 16.4812 23.5734 16.4812Z" fill="black"/>
<path d="M12.0205 5.39984C11.9109 5.01898 11.757 4.68247 11.5588 4.3903C11.3605 4.09292 11.1179 3.84249 10.831 3.63902C10.5492 3.43033 10.2258 3.27121 9.86057 3.16165C9.50059 3.05208 9.10147 2.9973 8.66322 2.9973C7.84411 2.9973 7.12414 3.20077 6.50328 3.60772C5.88765 4.01466 5.40766 4.60682 5.06333 5.38419C4.71899 6.15634 4.54682 7.10066 4.54682 8.21715C4.54682 9.33363 4.71638 10.2832 5.0555 11.0658C5.39462 11.8483 5.87461 12.4457 6.49546 12.8579C7.11631 13.2648 7.84933 13.4683 8.69452 13.4683C9.46146 13.4683 10.1162 13.3326 10.6588 13.0613C11.2066 12.7848 11.624 12.3962 11.9109 11.8953C12.2031 11.3944 12.3492 10.8023 12.3492 10.1188L13.0379 10.2206H8.90582V7.66934H15.6126V9.68841C15.6126 11.0971 15.3152 12.3075 14.7204 13.3196C14.1257 14.3265 13.3066 15.1039 12.2631 15.6517C11.2197 16.1943 10.0249 16.4656 8.67887 16.4656C7.17631 16.4656 5.85635 16.1343 4.71899 15.4717C3.58163 14.8039 2.6947 13.857 2.0582 12.6309C1.42691 11.3997 1.11127 9.93883 1.11127 8.24845C1.11127 6.94936 1.29909 5.79113 1.67473 4.77377C2.05559 3.75119 2.58775 2.88513 3.27121 2.17559C3.95466 1.46604 4.75029 0.926059 5.65809 0.555635C6.56589 0.185211 7.54934 0 8.60844 0C9.51624 0 10.3614 0.13304 11.144 0.399119C11.9266 0.659981 12.6205 1.0304 13.2257 1.51039C13.8361 1.99038 14.3344 2.56166 14.7204 3.22425C15.1065 3.88162 15.3543 4.60682 15.4639 5.39984H12.0205Z" fill="black"/>
<path d="M169 64.2374V77.3507H167.086V64.2374H169Z" fill="#FB5543"/>
<path d="M159.682 77.5684C159.059 77.5684 158.495 77.4532 157.992 77.2227C157.488 76.9879 157.089 76.6485 156.794 76.2046C156.504 75.7607 156.359 75.2164 156.359 74.5719C156.359 74.0169 156.466 73.5602 156.679 73.2016C156.893 72.843 157.181 72.5592 157.543 72.35C157.906 72.1409 158.312 71.9829 158.76 71.8762C159.208 71.7695 159.665 71.6884 160.13 71.6329C160.719 71.5646 161.197 71.5091 161.565 71.4664C161.932 71.4195 162.198 71.3448 162.365 71.2423C162.531 71.1399 162.615 70.9734 162.615 70.7429V70.6981C162.615 70.1389 162.457 69.7056 162.141 69.3983C161.829 69.0909 161.364 68.9372 160.745 68.9372C160.1 68.9372 159.592 69.0802 159.221 69.3662C158.854 69.648 158.6 69.9617 158.459 70.3075L156.66 69.8977C156.873 69.3001 157.185 68.8177 157.595 68.4506C158.009 68.0792 158.485 67.8103 159.023 67.6438C159.56 67.4731 160.126 67.3877 160.719 67.3877C161.112 67.3877 161.528 67.4347 161.968 67.5286C162.412 67.6182 162.826 67.7847 163.21 68.028C163.599 68.2713 163.917 68.6192 164.164 69.0717C164.412 69.5199 164.536 70.1026 164.536 70.8197V77.3507H162.666V76.0061H162.589C162.465 76.2537 162.28 76.497 162.032 76.7361C161.784 76.9751 161.466 77.1736 161.078 77.3315C160.689 77.4895 160.224 77.5684 159.682 77.5684ZM160.098 76.0317C160.628 76.0317 161.08 75.9271 161.456 75.718C161.836 75.5088 162.124 75.2356 162.32 74.8984C162.521 74.5569 162.621 74.1919 162.621 73.8035V72.5357C162.553 72.604 162.42 72.668 162.224 72.7278C162.032 72.7833 161.812 72.8324 161.565 72.8751C161.317 72.9135 161.076 72.9498 160.841 72.9839C160.606 73.0138 160.41 73.0394 160.252 73.0607C159.881 73.1077 159.541 73.1867 159.234 73.2977C158.931 73.4086 158.687 73.5687 158.504 73.7779C158.325 73.9828 158.235 74.256 158.235 74.5975C158.235 75.0713 158.41 75.4298 158.76 75.6732C159.11 75.9122 159.556 76.0317 160.098 76.0317Z" fill="#FB5543"/>
<path d="M155.302 67.5158L151.736 77.3507H149.687L146.114 67.5158H148.17L150.66 75.0841H150.763L153.247 67.5158H155.302Z" fill="#FB5543"/>
<path d="M142.399 77.3507V67.5158H144.313V77.3507H142.399ZM143.366 65.9983C143.033 65.9983 142.747 65.8873 142.508 65.6653C142.273 65.4391 142.156 65.1702 142.156 64.8585C142.156 64.5427 142.273 64.2737 142.508 64.0518C142.747 63.8255 143.033 63.7124 143.366 63.7124C143.699 63.7124 143.983 63.8255 144.217 64.0518C144.456 64.2737 144.576 64.5427 144.576 64.8585C144.576 65.1702 144.456 65.4391 144.217 65.6653C143.983 65.8873 143.699 65.9983 143.366 65.9983Z" fill="#FB5543"/>
<path d="M140.281 67.5158V69.0525H134.909V67.5158H140.281ZM136.35 65.1595H138.264V74.463C138.264 74.8344 138.32 75.114 138.431 75.3018C138.542 75.4853 138.685 75.6113 138.86 75.6796C139.039 75.7436 139.233 75.7756 139.442 75.7756C139.596 75.7756 139.73 75.7649 139.846 75.7436C139.961 75.7223 140.051 75.7052 140.115 75.6924L140.46 77.2739C140.349 77.3166 140.191 77.3593 139.987 77.402C139.782 77.4489 139.526 77.4745 139.218 77.4788C138.714 77.4873 138.245 77.3977 137.81 77.2099C137.374 77.0221 137.022 76.7318 136.753 76.3391C136.484 75.9464 136.35 75.4533 136.35 74.86V65.1595Z" fill="#FB5543"/>
<path d="M133.393 69.9169L131.658 70.2242C131.585 70.0023 131.47 69.791 131.312 69.5903C131.158 69.3897 130.949 69.2254 130.685 69.0973C130.42 68.9693 130.089 68.9052 129.692 68.9052C129.15 68.9052 128.698 69.0269 128.335 69.2702C127.972 69.5092 127.79 69.8187 127.79 70.1986C127.79 70.5273 127.912 70.792 128.155 70.9926C128.399 71.1932 128.791 71.3576 129.334 71.4856L130.896 71.8442C131.801 72.0533 132.475 72.3756 132.919 72.811C133.363 73.2464 133.585 73.812 133.585 74.5078C133.585 75.0969 133.414 75.6219 133.073 76.083C132.736 76.5397 132.264 76.8983 131.658 77.1587C131.056 77.419 130.358 77.5492 129.564 77.5492C128.463 77.5492 127.564 77.3145 126.868 76.8449C126.173 76.3711 125.746 75.6988 125.588 74.828L127.438 74.5462C127.554 75.0286 127.79 75.3936 128.149 75.6411C128.508 75.8845 128.975 76.0061 129.551 76.0061C130.179 76.0061 130.68 75.8759 131.056 75.6155C131.432 75.3509 131.619 75.0286 131.619 74.6487C131.619 74.3413 131.504 74.0831 131.274 73.8739C131.047 73.6648 130.7 73.5068 130.23 73.4001L128.565 73.0351C127.647 72.826 126.969 72.493 126.529 72.0363C126.094 71.5795 125.876 71.0011 125.876 70.3011C125.876 69.7205 126.038 69.2126 126.363 68.7772C126.687 68.3418 127.135 68.0024 127.707 67.7591C128.279 67.5115 128.934 67.3877 129.673 67.3877C130.736 67.3877 131.572 67.6182 132.183 68.0792C132.793 68.536 133.197 69.1485 133.393 69.9169Z" fill="#FB5543"/>
<path d="M119.68 77.5492C118.711 77.5492 117.876 77.3422 117.176 76.9281C116.48 76.5098 115.942 75.9229 115.562 75.1673C115.187 74.4075 114.999 73.5175 114.999 72.4973C114.999 71.4899 115.187 70.602 115.562 69.8337C115.942 69.0653 116.472 68.4656 117.15 68.0344C117.833 67.6033 118.632 67.3877 119.545 67.3877C120.1 67.3877 120.638 67.4795 121.159 67.663C121.679 67.8466 122.147 68.1347 122.561 68.5274C122.975 68.9202 123.301 69.4303 123.541 70.0578C123.78 70.681 123.899 71.4387 123.899 72.3308V73.0095H116.081V71.5753H122.023C122.023 71.0716 121.921 70.6255 121.716 70.237C121.511 69.8443 121.223 69.5348 120.851 69.3086C120.484 69.0824 120.053 68.9693 119.558 68.9693C119.02 68.9693 118.55 69.1016 118.149 69.3662C117.752 69.6266 117.445 69.9681 117.227 70.3907C117.014 70.809 116.907 71.2636 116.907 71.7545V72.8751C116.907 73.5324 117.022 74.0916 117.253 74.5526C117.488 75.0137 117.814 75.3658 118.232 75.6091C118.651 75.8482 119.14 75.9677 119.699 75.9677C120.062 75.9677 120.392 75.9165 120.691 75.814C120.99 75.7073 121.248 75.5494 121.466 75.3402C121.684 75.131 121.85 74.8728 121.965 74.5654L123.777 74.892C123.632 75.4256 123.372 75.893 122.996 76.2943C122.625 76.6912 122.157 77.0007 121.594 77.2227C121.035 77.4404 120.397 77.5492 119.68 77.5492Z" fill="#FB5543"/>
<path d="M105.751 77.3507V64.2374H113.883V65.9406H107.73V69.9361H113.301V71.6329H107.73V77.3507H105.751Z" fill="#FB5543"/>
<path d="M91.9643 71.5112V77.3507H90.0498V67.5158H91.8874V69.1165H92.0091C92.2353 68.5957 92.5896 68.1774 93.072 67.8615C93.5586 67.5457 94.1711 67.3877 94.9096 67.3877C95.5798 67.3877 96.1667 67.5286 96.6704 67.8103C97.1741 68.0878 97.5647 68.5018 97.8422 69.0525C98.1196 69.6031 98.2584 70.284 98.2584 71.095V77.3507H96.3439V71.3255C96.3439 70.6127 96.1582 70.0556 95.7868 69.6544C95.4155 69.2488 94.9054 69.0461 94.2565 69.0461C93.8126 69.0461 93.4177 69.1421 93.072 69.3342C92.7305 69.5263 92.4594 69.808 92.2588 70.1794C92.0624 70.5465 91.9643 70.9905 91.9643 71.5112Z" fill="black"/>
<path d="M83.3283 77.5492C82.4062 77.5492 81.6016 77.3379 80.9143 76.9153C80.2271 76.4927 79.6935 75.9015 79.3136 75.1417C78.9337 74.3819 78.7437 73.494 78.7437 72.4781C78.7437 71.4579 78.9337 70.5657 79.3136 69.8016C79.6935 69.0375 80.2271 68.4442 80.9143 68.0216C81.6016 67.599 82.4062 67.3877 83.3283 67.3877C84.2503 67.3877 85.0549 67.599 85.7422 68.0216C86.4294 68.4442 86.963 69.0375 87.3429 69.8016C87.7228 70.5657 87.9128 71.4579 87.9128 72.4781C87.9128 73.494 87.7228 74.3819 87.3429 75.1417C86.963 75.9015 86.4294 76.4927 85.7422 76.9153C85.0549 77.3379 84.2503 77.5492 83.3283 77.5492ZM83.3347 75.9421C83.9323 75.9421 84.4274 75.7841 84.8201 75.4683C85.2129 75.1524 85.5031 74.7319 85.691 74.2069C85.883 73.6818 85.9791 73.1034 85.9791 72.4717C85.9791 71.8442 85.883 71.2679 85.691 70.7429C85.5031 70.2136 85.2129 69.7888 84.8201 69.4687C84.4274 69.1485 83.9323 68.9885 83.3347 68.9885C82.7328 68.9885 82.2334 69.1485 81.8364 69.4687C81.4437 69.7888 81.1512 70.2136 80.9592 70.7429C80.7713 71.2679 80.6774 71.8442 80.6774 72.4717C80.6774 73.1034 80.7713 73.6818 80.9592 74.2069C81.1512 74.7319 81.4437 75.1524 81.8364 75.4683C82.2334 75.7841 82.7328 75.9421 83.3347 75.9421Z" fill="black"/>
<path d="M69.3137 77.3507V76.0381L74.641 69.2702V69.1805H69.4866V67.5158H77.0293V68.9116L71.907 75.5963V75.686H77.2086V77.3507H69.3137Z" fill="black"/>
<path d="M62.1152 77.5684C61.492 77.5684 60.9285 77.4532 60.4248 77.2227C59.9211 76.9879 59.522 76.6485 59.2275 76.2046C58.9372 75.7607 58.7921 75.2164 58.7921 74.5719C58.7921 74.0169 58.8988 73.5602 59.1122 73.2016C59.3257 72.843 59.6138 72.5592 59.9766 72.35C60.3395 72.1409 60.745 71.9829 61.1932 71.8762C61.6414 71.7695 62.0981 71.6884 62.5634 71.6329C63.1525 71.5646 63.6306 71.5091 63.9977 71.4664C64.3648 71.4195 64.6316 71.3448 64.7981 71.2423C64.9645 71.1399 65.0478 70.9734 65.0478 70.7429V70.6981C65.0478 70.1389 64.8898 69.7056 64.574 69.3983C64.2623 69.0909 63.7971 68.9372 63.1781 68.9372C62.5335 68.9372 62.0256 69.0802 61.6542 69.3662C61.2871 69.648 61.0331 69.9617 60.8922 70.3075L59.093 69.8977C59.3064 69.3001 59.6181 68.8177 60.0278 68.4506C60.4419 68.0792 60.9179 67.8103 61.4557 67.6438C61.9936 67.4731 62.5592 67.3877 63.1525 67.3877C63.5452 67.3877 63.9614 67.4347 64.4011 67.5286C64.845 67.6182 65.2591 67.7847 65.6433 68.028C66.0317 68.2713 66.3497 68.6192 66.5973 69.0717C66.8449 69.5199 66.9687 70.1026 66.9687 70.8197V77.3507H65.099V76.0061H65.0222C64.8984 76.2537 64.7127 76.497 64.4651 76.7361C64.2175 76.9751 63.8995 77.1736 63.5111 77.3315C63.1226 77.4895 62.6573 77.5684 62.1152 77.5684ZM62.5314 76.0317C63.0607 76.0317 63.5132 75.9271 63.8888 75.718C64.2687 75.5088 64.5569 75.2356 64.7532 74.8984C64.9539 74.5569 65.0542 74.1919 65.0542 73.8035V72.5357C64.9859 72.604 64.8536 72.668 64.6572 72.7278C64.4651 72.7833 64.2453 72.8324 63.9977 72.8751C63.7501 72.9135 63.5089 72.9498 63.2742 72.9839C63.0394 73.0138 62.843 73.0394 62.6851 73.0607C62.3137 73.1077 61.9744 73.1867 61.667 73.2977C61.3639 73.4086 61.1206 73.5687 60.9371 73.7779C60.7578 73.9828 60.6681 74.256 60.6681 74.5975C60.6681 75.0713 60.8432 75.4298 61.1932 75.6732C61.5432 75.9122 61.9893 76.0317 62.5314 76.0317Z" fill="black"/>
<path d="M43.3177 77.3507V67.5158H45.1553V69.1165H45.277C45.4819 68.5744 45.817 68.1518 46.2823 67.8487C46.7475 67.5414 47.3046 67.3877 47.9534 67.3877C48.6108 67.3877 49.1615 67.5414 49.6054 67.8487C50.0536 68.1561 50.3844 68.5787 50.5979 69.1165H50.7003C50.9351 68.5915 51.3086 68.1731 51.8208 67.8615C52.3331 67.5457 52.9435 67.3877 53.6521 67.3877C54.5442 67.3877 55.272 67.6673 55.8355 68.2265C56.4032 68.7857 56.6871 69.6288 56.6871 70.7557V77.3507H54.7726V70.935C54.7726 70.2691 54.5912 69.7867 54.2283 69.4879C53.8655 69.1891 53.4322 69.0397 52.9285 69.0397C52.3053 69.0397 51.8208 69.2318 51.4751 69.616C51.1293 69.9959 50.9564 70.4846 50.9564 71.0822V77.3507H49.0483V70.8133C49.0483 70.2797 48.8819 69.8507 48.5489 69.5263C48.216 69.2019 47.7827 69.0397 47.2491 69.0397C46.8863 69.0397 46.5512 69.1357 46.2438 69.3278C45.9408 69.5156 45.6953 69.7782 45.5075 70.1154C45.324 70.4526 45.2322 70.8432 45.2322 71.2871V77.3507H43.3177Z" fill="black"/>
<path d="M31.954 77.3507H29.8538L34.5728 64.2374H36.8587L41.5777 77.3507H39.4775L35.7702 66.6193H35.6677L31.954 77.3507ZM32.3062 72.2155H39.1189V73.8803H32.3062V72.2155Z" fill="black"/>
<path d="M17.0591 71.5112V77.3507H15.1446V67.5158H16.9823V69.1165H17.1039C17.3302 68.5957 17.6845 68.1774 18.1668 67.8615C18.6534 67.5457 19.266 67.3877 20.0045 67.3877C20.6746 67.3877 21.2616 67.5286 21.7653 67.8103C22.269 68.0878 22.6596 68.5018 22.937 69.0525C23.2145 69.6031 23.3532 70.284 23.3532 71.095V77.3507H21.4387V71.3255C21.4387 70.6127 21.253 70.0556 20.8817 69.6544C20.5103 69.2488 20.0002 69.0461 19.3514 69.0461C18.9074 69.0461 18.5126 69.1421 18.1668 69.3342C17.8253 69.5263 17.5543 69.808 17.3536 70.1794C17.1573 70.5465 17.0591 70.9905 17.0591 71.5112Z" fill="black"/>
<path d="M12.8315 70.7941C12.8315 72.1942 12.5754 73.398 12.0632 74.4054C11.551 75.4085 10.8488 76.1811 9.95661 76.7232C9.06873 77.2611 8.0592 77.53 6.92801 77.53C5.79255 77.53 4.77874 77.2611 3.8866 76.7232C2.99872 76.1811 2.29866 75.4064 1.78642 74.399C1.27418 73.3916 1.01806 72.1899 1.01806 70.7941C1.01806 69.394 1.27418 68.1924 1.78642 67.1892C2.29866 66.1818 2.99872 65.4092 3.8866 64.8713C4.77874 64.3292 5.79255 64.0582 6.92801 64.0582C8.0592 64.0582 9.06873 64.3292 9.95661 64.8713C10.8488 65.4092 11.551 66.1818 12.0632 67.1892C12.5754 68.1924 12.8315 69.394 12.8315 70.7941ZM10.8722 70.7941C10.8722 69.7269 10.6994 68.8284 10.3536 68.0984C10.0121 67.3642 9.54255 66.8093 8.94494 66.4337C8.3516 66.0538 7.67929 65.8638 6.92801 65.8638C6.17246 65.8638 5.49801 66.0538 4.90467 66.4337C4.31133 66.8093 3.84177 67.3642 3.49601 68.0984C3.15452 68.8284 2.98378 69.7269 2.98378 70.7941C2.98378 71.8613 3.15452 72.7619 3.49601 73.4961C3.84177 74.2261 4.31133 74.781 4.90467 75.1609C5.49801 75.5366 6.17246 75.7244 6.92801 75.7244C7.67929 75.7244 8.3516 75.5366 8.94494 75.1609C9.54255 74.781 10.0121 74.2261 10.3536 73.4961C10.6994 72.7619 10.8722 71.8613 10.8722 70.7941Z" fill="black"/>
<path d="M82.6976 50.3046V31.3632H94.8319V34.2395H86.1289V39.3818H93.9995V42.2582H86.1289V50.3046H82.6976Z" fill="#FB5543"/>
<path d="M67.4372 50.3046V31.3632H79.5715V34.2395H70.8685V39.3818H78.7391V42.2582H70.8685V50.3046H67.4372Z" fill="#FB5543"/>
<path d="M64.1932 40.8339C64.1932 42.8748 63.8109 44.6228 63.0463 46.0779C62.2879 47.5269 61.2521 48.6367 59.9388 49.4075C58.6316 50.1782 57.1487 50.5636 55.4901 50.5636C53.8315 50.5636 52.3456 50.1782 51.0322 49.4075C49.7251 48.6306 48.6892 47.5176 47.9247 46.0687C47.1663 44.6135 46.7871 42.8686 46.7871 40.8339C46.7871 38.793 47.1663 37.0481 47.9247 35.5991C48.6892 34.144 49.7251 33.031 51.0322 32.2603C52.3456 31.4896 53.8315 31.1042 55.4901 31.1042C57.1487 31.1042 58.6316 31.4896 59.9388 32.2603C61.2521 33.031 62.2879 34.144 63.0463 35.5991C63.8109 37.0481 64.1932 38.793 64.1932 40.8339ZM60.7434 40.8339C60.7434 39.3973 60.5183 38.1857 60.0682 37.1991C59.6243 36.2064 59.0077 35.4573 58.2185 34.9517C57.4293 34.4399 56.5198 34.184 55.4901 34.184C54.4604 34.184 53.551 34.4399 52.7617 34.9517C51.9725 35.4573 51.3529 36.2064 50.9027 37.1991C50.4588 38.1857 50.2368 39.3973 50.2368 40.8339C50.2368 42.2705 50.4588 43.4852 50.9027 44.4779C51.3529 45.4644 51.9725 46.2136 52.7617 46.7253C53.551 47.2309 54.4604 47.4837 55.4901 47.4837C56.5198 47.4837 57.4293 47.2309 58.2185 46.7253C59.0077 46.2136 59.6243 45.4644 60.0682 44.4779C60.5183 43.4852 60.7434 42.2705 60.7434 40.8339Z" fill="#FB5543"/>
<path d="M28.7751 46.7531V45.7542C28.7751 45.0205 28.9293 44.3453 29.2376 43.7287C29.552 43.1122 30.0083 42.6158 30.6064 42.2397C31.2045 41.8636 31.929 41.6755 32.7798 41.6755C33.6554 41.6755 34.3891 41.8636 34.981 42.2397C35.573 42.6096 36.02 43.1029 36.3221 43.7195C36.6304 44.3361 36.7845 45.0143 36.7845 45.7542V46.7531C36.7845 47.4868 36.6304 48.162 36.3221 48.7785C36.0138 49.3951 35.5606 49.8915 34.9625 50.2676C34.3706 50.6437 33.6431 50.8318 32.7798 50.8318C31.9166 50.8318 31.186 50.6437 30.5879 50.2676C29.9898 49.8915 29.5366 49.3951 29.2283 48.7785C28.9262 48.162 28.7751 47.4868 28.7751 46.7531ZM31.1891 45.7542V46.7531C31.1891 47.2402 31.3062 47.6872 31.5405 48.0941C31.7748 48.5011 32.1879 48.7046 32.7798 48.7046C33.3779 48.7046 33.788 48.5042 34.0099 48.1034C34.2381 47.6964 34.3521 47.2463 34.3521 46.7531V45.7542C34.3521 45.2609 34.2442 44.8108 34.0284 44.4039C33.8126 43.9908 33.3964 43.7842 32.7798 43.7842C32.2003 43.7842 31.7902 43.9908 31.5498 44.4039C31.3093 44.8108 31.1891 45.2609 31.1891 45.7542ZM19.1472 35.9136V34.9147C19.1472 34.1748 19.3044 33.4966 19.6189 32.88C19.9333 32.2634 20.3896 31.7701 20.9877 31.4002C21.5858 31.0241 22.3103 30.836 23.1612 30.836C24.0305 30.836 24.7612 31.0241 25.3531 31.4002C25.9512 31.7701 26.4013 32.2634 26.7034 32.88C27.0055 33.4966 27.1566 34.1748 27.1566 34.9147V35.9136C27.1566 36.6535 27.0025 37.3317 26.6942 37.9483C26.392 38.5587 25.9419 39.0489 25.3439 39.4188C24.7458 39.7888 24.0182 39.9738 23.1612 39.9738C22.2918 39.9738 21.558 39.7888 20.96 39.4188C20.368 39.0489 19.9179 38.5556 19.6096 37.939C19.3013 37.3224 19.1472 36.6473 19.1472 35.9136ZM21.5796 34.9147V35.9136C21.5796 36.4068 21.6937 36.8569 21.9218 37.2639C22.1561 37.6647 22.5692 37.865 23.1612 37.865C23.7531 37.865 24.16 37.6647 24.382 37.2639C24.6101 36.8569 24.7242 36.4068 24.7242 35.9136V34.9147C24.7242 34.4214 24.6163 33.9713 24.4005 33.5644C24.1847 33.1513 23.7716 32.9447 23.1612 32.9447C22.5754 32.9447 22.1654 33.1513 21.9311 33.5644C21.6968 33.9775 21.5796 34.4276 21.5796 34.9147ZM20.2016 50.3046L33.2238 31.3632H35.536L22.5137 50.3046H20.2016Z" fill="#FB5543"/>
<path d="M8.4811 50.5636C7.14929 50.5636 5.96545 50.3354 4.92959 49.8792C3.8999 49.4229 3.08601 48.7878 2.48792 47.9739C1.88984 47.16 1.5723 46.2197 1.5353 45.153H5.01283C5.04366 45.6648 5.21322 46.1118 5.52151 46.4941C5.8298 46.8702 6.23983 47.1631 6.75159 47.3727C7.26335 47.5824 7.83678 47.6872 8.47186 47.6872C9.1501 47.6872 9.75126 47.5701 10.2754 47.3357C10.7995 47.0953 11.2095 46.7623 11.5054 46.3369C11.8014 45.9114 11.9463 45.4213 11.9401 44.8663C11.9463 44.2929 11.7983 43.7873 11.4962 43.3495C11.1941 42.9118 10.7563 42.5696 10.1829 42.3229C9.61562 42.0763 8.93121 41.953 8.12965 41.953H6.45563V39.3078H8.12965C8.7894 39.3078 9.3659 39.1938 9.85917 38.9656C10.3586 38.7375 10.7501 38.4169 11.0338 38.0038C11.3174 37.5845 11.4561 37.1005 11.4499 36.5517C11.4561 36.0153 11.3359 35.5498 11.0892 35.1552C10.8488 34.7544 10.5066 34.443 10.0626 34.221C9.62487 33.9991 9.11002 33.8881 8.5181 33.8881C7.93851 33.8881 7.40209 33.9929 6.90882 34.2025C6.41555 34.4122 6.01786 34.7112 5.71573 35.0997C5.41361 35.482 5.2533 35.9382 5.2348 36.4685H1.933C1.95766 35.408 2.26287 34.4769 2.84862 33.6754C3.44054 32.8676 4.22977 32.2387 5.2163 31.7886C6.20283 31.3324 7.3096 31.1042 8.5366 31.1042C9.80059 31.1042 10.8981 31.3416 11.8291 31.8164C12.7664 32.285 13.4908 32.917 14.0026 33.7124C14.5144 34.5078 14.7702 35.3864 14.7702 36.3483C14.7764 37.4149 14.462 38.309 13.8269 39.0304C13.198 39.7518 12.3717 40.2235 11.3482 40.4454V40.5934C12.68 40.7784 13.7005 41.2717 14.4095 42.0732C15.1248 42.8686 15.4793 43.8582 15.4731 45.0421C15.4731 46.1026 15.171 47.0521 14.5668 47.8907C13.9687 48.7231 13.1425 49.3766 12.0881 49.8514C11.0399 50.3262 9.83759 50.5636 8.4811 50.5636Z" fill="#FB5543"/>
<path d="M0 106.4C0 98.6551 6.27873 92.3764 14.0239 92.3764H103.176C110.921 92.3764 117.2 98.6551 117.2 106.4C117.2 114.146 110.921 120.424 103.176 120.424H14.0239C6.27873 120.424 0 114.146 0 106.4Z" fill="#FB5543"/>
<path d="M86.0433 111.409L83.8129 103.213H86.1127L87.3826 108.72H87.4573L88.7806 103.213H91.0376L92.3822 108.688H92.4516L93.7002 103.213H95.9946L93.7695 111.409H91.3631L89.9544 106.254H89.8531L88.4444 111.409H86.0433Z" fill="white"/>
<path d="M79.1201 111.569C78.2913 111.569 77.5745 111.393 76.9698 111.041C76.3686 110.685 75.9044 110.19 75.5771 109.557C75.2499 108.921 75.0862 108.182 75.0862 107.343C75.0862 106.496 75.2499 105.756 75.5771 105.123C75.9044 104.487 76.3686 103.992 76.9698 103.64C77.5745 103.284 78.2913 103.106 79.1201 103.106C79.9489 103.106 80.6639 103.284 81.2651 103.64C81.8698 103.992 82.3358 104.487 82.6631 105.123C82.9903 105.756 83.154 106.496 83.154 107.343C83.154 108.182 82.9903 108.921 82.6631 109.557C82.3358 110.19 81.8698 110.685 81.2651 111.041C80.6639 111.393 79.9489 111.569 79.1201 111.569ZM79.1308 109.808C79.5078 109.808 79.8226 109.701 80.0752 109.488C80.3278 109.271 80.5181 108.976 80.6461 108.602C80.7777 108.229 80.8436 107.804 80.8436 107.327C80.8436 106.85 80.7777 106.425 80.6461 106.052C80.5181 105.678 80.3278 105.383 80.0752 105.166C79.8226 104.949 79.5078 104.84 79.1308 104.84C78.7501 104.84 78.43 104.949 78.1703 105.166C77.9142 105.383 77.7203 105.678 77.5887 106.052C77.4607 106.425 77.3966 106.85 77.3966 107.327C77.3966 107.804 77.4607 108.229 77.5887 108.602C77.7203 108.976 77.9142 109.271 78.1703 109.488C78.43 109.701 78.7501 109.808 79.1308 109.808Z" fill="white"/>
<path d="M73.5508 100.481V111.409H71.5552L66.801 104.531H66.721V111.409H64.4106V100.481H66.4382L71.1551 107.354H71.2511V100.481H73.5508Z" fill="white"/>
<path d="M51.3819 114.482V103.213H53.6229V104.59H53.7243C53.8239 104.369 53.968 104.145 54.1565 103.917C54.3486 103.686 54.5976 103.494 54.9035 103.341C55.213 103.185 55.5972 103.106 56.056 103.106C56.6537 103.106 57.205 103.263 57.7101 103.576C58.2153 103.885 58.619 104.353 58.9214 104.979C59.2237 105.602 59.3749 106.383 59.3749 107.322C59.3749 108.236 59.2273 109.008 58.932 109.637C58.6404 110.263 58.2419 110.738 57.7368 111.062C57.2353 111.382 56.6732 111.542 56.0507 111.542C55.6096 111.542 55.2343 111.469 54.9249 111.323C54.6189 111.178 54.3682 110.994 54.1725 110.774C53.9769 110.55 53.8275 110.324 53.7243 110.096H53.6549V114.482H51.3819ZM53.6069 107.311C53.6069 107.798 53.6745 108.223 53.8097 108.586C53.9448 108.949 54.1405 109.232 54.3966 109.435C54.6527 109.634 54.964 109.733 55.3304 109.733C55.7003 109.733 56.0134 109.632 56.2695 109.429C56.5256 109.223 56.7195 108.938 56.8511 108.576C56.9863 108.209 57.0538 107.788 57.0538 107.311C57.0538 106.838 56.988 106.422 56.8564 106.062C56.7248 105.703 56.5309 105.422 56.2748 105.219C56.0187 105.017 55.7039 104.915 55.3304 104.915C54.9604 104.915 54.6474 105.013 54.3913 105.209C54.1387 105.404 53.9448 105.682 53.8097 106.041C53.6745 106.4 53.6069 106.824 53.6069 107.311Z" fill="white"/>
<path d="M45.87 111.569C45.0412 111.569 44.3244 111.393 43.7197 111.041C43.1185 110.685 42.6543 110.19 42.327 109.557C41.9998 108.921 41.8361 108.182 41.8361 107.343C41.8361 106.496 41.9998 105.756 42.327 105.123C42.6543 104.487 43.1185 103.992 43.7197 103.64C44.3244 103.284 45.0412 103.106 45.87 103.106C46.6988 103.106 47.4138 103.284 48.015 103.64C48.6197 103.992 49.0857 104.487 49.413 105.123C49.7402 105.756 49.9039 106.496 49.9039 107.343C49.9039 108.182 49.7402 108.921 49.413 109.557C49.0857 110.19 48.6197 110.685 48.015 111.041C47.4138 111.393 46.6988 111.569 45.87 111.569ZM45.8807 109.808C46.2577 109.808 46.5725 109.701 46.8251 109.488C47.0777 109.271 47.268 108.976 47.396 108.602C47.5277 108.229 47.5935 107.804 47.5935 107.327C47.5935 106.85 47.5277 106.425 47.396 106.052C47.268 105.678 47.0777 105.383 46.8251 105.166C46.5725 104.949 46.2577 104.84 45.8807 104.84C45.5 104.84 45.1799 104.949 44.9202 105.166C44.6641 105.383 44.4702 105.678 44.3386 106.052C44.2106 106.425 44.1465 106.85 44.1465 107.327C44.1465 107.804 44.2106 108.229 44.3386 108.602C44.4702 108.976 44.6641 109.271 44.9202 109.488C45.1799 109.701 45.5 109.808 45.8807 109.808Z" fill="white"/>
<path d="M35.0636 106.671V111.409H32.7906V100.481H34.9996V104.659H35.0957C35.2806 104.175 35.5794 103.796 35.9921 103.523C36.4047 103.245 36.9223 103.106 37.5448 103.106C38.1139 103.106 38.6102 103.231 39.0335 103.48C39.4603 103.725 39.7912 104.079 40.0259 104.542C40.2643 105.001 40.3817 105.55 40.3781 106.19V111.409H38.1051V106.596C38.1086 106.091 37.9805 105.698 37.7209 105.417C37.4648 105.136 37.1055 104.995 36.643 104.995C36.3336 104.995 36.0597 105.061 35.8213 105.193C35.5865 105.324 35.4016 105.516 35.2664 105.769C35.1348 106.018 35.0672 106.318 35.0636 106.671Z" fill="white"/>
<path d="M28.9155 103.624C28.8728 103.193 28.6896 102.859 28.3659 102.621C28.0422 102.382 27.6028 102.263 27.0479 102.263C26.6709 102.263 26.3525 102.317 26.0928 102.423C25.8331 102.526 25.6339 102.671 25.4952 102.856C25.36 103.041 25.2924 103.25 25.2924 103.485C25.2853 103.681 25.3262 103.852 25.4152 103.997C25.5077 104.143 25.6339 104.27 25.794 104.376C25.9541 104.479 26.1391 104.57 26.3489 104.648C26.5588 104.723 26.7829 104.787 27.0212 104.84L28.003 105.075C28.4797 105.182 28.9172 105.324 29.3156 105.502C29.714 105.68 30.0591 105.899 30.3508 106.158C30.6425 106.418 30.8684 106.724 31.0284 107.076C31.1921 107.428 31.2757 107.832 31.2792 108.287C31.2757 108.956 31.1049 109.536 30.767 110.027C30.4326 110.514 29.9488 110.893 29.3156 111.163C28.686 111.43 27.9266 111.564 27.0373 111.564C26.1551 111.564 25.3867 111.428 24.7322 111.158C24.0812 110.888 23.5725 110.488 23.2061 109.958C22.8433 109.424 22.653 108.764 22.6352 107.978H24.8709C24.8958 108.344 25.0008 108.65 25.1857 108.896C25.3743 109.138 25.625 109.321 25.9381 109.445C26.2547 109.566 26.6122 109.627 27.0106 109.627C27.4019 109.627 27.7416 109.57 28.0297 109.456C28.3214 109.342 28.5473 109.184 28.7074 108.981C28.8674 108.778 28.9475 108.545 28.9475 108.282C28.9475 108.037 28.8745 107.83 28.7287 107.663C28.5864 107.496 28.3765 107.354 28.0991 107.236C27.8252 107.119 27.489 107.012 27.0906 106.916L25.9007 106.617C24.9794 106.393 24.252 106.043 23.7184 105.566C23.1848 105.089 22.9198 104.447 22.9233 103.64C22.9198 102.978 23.0959 102.4 23.4516 101.906C23.8109 101.411 24.3035 101.025 24.9296 100.748C25.5557 100.47 26.2671 100.332 27.0639 100.332C27.875 100.332 28.5829 100.47 29.1876 100.748C29.7959 101.025 30.269 101.411 30.6069 101.906C30.9448 102.4 31.1191 102.973 31.1298 103.624H28.9155Z" fill="white"/>
</svg>
