<svg width="62" height="11" viewBox="0 0 62 11" fill="none" xmlns="http://www.w3.org/2000/svg">
<path d="M55.7679 10.3337V0.139332H61.9204V1.23443H57.0024V4.67901H61.6018V5.77411H57.0024V9.23861H62V10.3337H55.7679Z" fill="white"/>
<path d="M47.541 10.3337V0.139332H53.6536V1.23443H48.7754V4.67901H53.1957V5.77411H48.7754V10.3337H47.541Z" fill="white"/>
<path d="M38.4865 10.3337H37.1923L40.9355 0.139332H42.2098L45.9531 10.3337H44.6589L41.6125 1.75211H41.5329L38.4865 10.3337ZM38.9644 6.35153H44.181V7.44663H38.9644V6.35153Z" fill="white"/>
<path d="M36.0735 3.32512H34.8391C34.7661 2.97004 34.6383 2.6581 34.4558 2.38931C34.2766 2.12051 34.0576 1.89485 33.7987 1.71234C33.5432 1.5265 33.2595 1.38713 32.9475 1.29421C32.6356 1.20129 32.3104 1.15483 31.9719 1.15483C31.3547 1.15483 30.7955 1.3108 30.2944 1.62274C29.7966 1.93467 29.4001 2.39428 29.1047 3.00157C28.8127 3.60885 28.6667 4.35385 28.6667 5.23656C28.6667 6.11928 28.8127 6.86428 29.1047 7.47156C29.4001 8.07884 29.7966 8.53845 30.2944 8.85039C30.7955 9.16233 31.3547 9.31829 31.9719 9.31829C32.3104 9.31829 32.6356 9.27183 32.9475 9.17892C33.2595 9.086 33.5432 8.94828 33.7987 8.76577C34.0576 8.57993 34.2766 8.35262 34.4558 8.08382C34.6383 7.8117 34.7661 7.49977 34.8391 7.14801H36.0735C35.9806 7.66901 35.8114 8.13525 35.5658 8.54675C35.3202 8.95824 35.0149 9.30834 34.6499 9.59705C34.2849 9.88244 33.875 10.0998 33.4204 10.2491C32.9691 10.3985 32.4863 10.4731 31.9719 10.4731C31.1025 10.4731 30.3293 10.2607 29.6523 9.83598C28.9753 9.41121 28.4427 8.80725 28.0544 8.02409C27.6662 7.24092 27.472 6.31175 27.472 5.23656C27.472 4.16138 27.6662 3.2322 28.0544 2.44904C28.4427 1.66588 28.9753 1.06191 29.6523 0.637149C30.3293 0.212383 31.1025 0 31.9719 0C32.4863 0 32.9691 0.0746656 33.4204 0.223997C33.875 0.373329 34.2849 0.592349 34.6499 0.881056C35.0149 1.16645 35.3202 1.51489 35.5658 1.92638C35.8114 2.33455 35.9806 2.8008 36.0735 3.32512Z" fill="white"/>
<path d="M24.5066 2.68797C24.4468 2.18356 24.2046 1.79198 23.7798 1.51323C23.3551 1.23447 22.8341 1.0951 22.2168 1.0951C21.7655 1.0951 21.3706 1.16811 21.0321 1.31412C20.6969 1.46013 20.4348 1.6609 20.2456 1.91642C20.0598 2.17195 19.9669 2.46231 19.9669 2.78752C19.9669 3.05964 20.0316 3.29359 20.161 3.48938C20.2938 3.68185 20.463 3.8428 20.6687 3.97222C20.8745 4.09832 21.0902 4.20286 21.3158 4.28582C21.5415 4.36546 21.7489 4.43017 21.9381 4.47995L22.9734 4.7587C23.2389 4.82839 23.5342 4.92463 23.8595 5.04741C24.188 5.17019 24.5016 5.33778 24.8003 5.55016C25.1022 5.75922 25.3511 6.02802 25.5469 6.35655C25.7427 6.68508 25.8406 7.08827 25.8406 7.56614C25.8406 8.117 25.6962 8.61478 25.4075 9.05945C25.1221 9.50413 24.704 9.85755 24.1531 10.1197C23.6056 10.3819 22.9402 10.5129 22.1571 10.5129C21.427 10.5129 20.7948 10.3951 20.2606 10.1595C19.7296 9.92392 19.3115 9.59539 19.0062 9.17394C18.7042 8.75249 18.5333 8.26302 18.4935 7.70551H19.7678C19.801 8.09046 19.9304 8.40903 20.156 8.66123C20.385 8.91012 20.6737 9.09596 21.0222 9.21874C21.3739 9.3382 21.7522 9.39794 22.1571 9.39794C22.6283 9.39794 23.0514 9.32161 23.4264 9.16896C23.8014 9.01299 24.0984 8.79729 24.3174 8.52186C24.5364 8.24311 24.6459 7.91789 24.6459 7.54622C24.6459 7.20774 24.5514 6.93231 24.3622 6.71992C24.1731 6.50754 23.9242 6.33498 23.6156 6.20224C23.3069 6.0695 22.9734 5.95335 22.615 5.8538L21.3606 5.4954C20.5642 5.26643 19.9337 4.93956 19.4691 4.51479C19.0045 4.09003 18.7722 3.53418 18.7722 2.84726C18.7722 2.27648 18.9265 1.77871 19.2352 1.35394C19.5471 0.925856 19.9652 0.594008 20.4895 0.358396C21.0172 0.119465 21.6062 0 22.2566 0C22.9137 0 23.4977 0.117806 24.0088 0.353418C24.5198 0.585711 24.9247 0.904285 25.2234 1.30914C25.5253 1.71399 25.6846 2.1736 25.7012 2.68797H24.5066Z" fill="white"/>
<path d="M10.554 10.3337V0.139332H16.7065V1.23443H11.7885V4.67901H16.3879V5.77411H11.7885V9.23861H16.7861V10.3337H10.554Z" fill="white"/>
<path d="M8.08382 0.139332V10.3337H6.88917L1.33403 2.32953H1.23447V10.3337H0V0.139332H1.19465L6.7697 8.16342H6.86925V0.139332H8.08382Z" fill="white"/>
</svg>
