<svg width="22" height="22" viewBox="0 0 22 22" fill="none" xmlns="http://www.w3.org/2000/svg">
<path d="M19.25 16.9583C19.25 17.8092 18.912 18.6253 18.3103 19.227C17.7086 19.8287 16.8926 20.1667 16.0417 20.1667C15.1908 20.1667 14.3747 19.8287 13.773 19.227C13.1714 18.6253 12.8333 17.8092 12.8333 16.9583C12.8341 16.7014 12.868 16.4457 12.9342 16.1975L8.13083 13.805C7.54275 14.3583 6.76578 14.6665 5.95833 14.6667C5.10743 14.6667 4.29138 14.3286 3.6897 13.727C3.08802 13.1253 2.75 12.3092 2.75 11.4583C2.75 10.6074 3.08802 9.79138 3.6897 9.1897C4.29138 8.58802 5.10743 8.25 5.95833 8.25C6.76578 8.25021 7.54275 8.55838 8.13083 9.11167L12.9342 6.71917C12.868 6.47095 12.8341 6.21523 12.8333 5.95834C12.8333 5.32379 13.0215 4.70349 13.374 4.17588C13.7266 3.64827 14.2276 3.23705 14.8139 2.99422C15.4001 2.75139 16.0452 2.68785 16.6676 2.81165C17.2899 2.93544 17.8616 3.24101 18.3103 3.6897C18.759 4.13839 19.0646 4.71006 19.1884 5.33242C19.3121 5.95478 19.2486 6.59986 19.0058 7.18611C18.7629 7.77236 18.3517 8.27343 17.8241 8.62597C17.2965 8.9785 16.6762 9.16667 16.0417 9.16667C15.2342 9.16646 14.4573 8.85829 13.8692 8.305L9.06583 10.6975C9.20012 11.1958 9.20012 11.7208 9.06583 12.2192L13.8692 14.6117C14.4573 14.0584 15.2342 13.7502 16.0417 13.75C16.8926 13.75 17.7086 14.088 18.3103 14.6897C18.912 15.2914 19.25 16.1074 19.25 16.9583Z" fill="#262834"/>
</svg>
