<svg width="30" height="70" viewBox="0 0 30 70" fill="none" xmlns="http://www.w3.org/2000/svg">
<path d="M8.07483 70C6.29939 69.1563 5.20031 68.9875 4.86213 68.397C3.59396 66.2033 2.15669 64.0098 1.48033 61.563C-0.548748 55.0666 -0.295112 48.4857 1.05761 41.9049C3.34032 30.6837 8.41301 20.728 14.7539 11.2786C15.4302 10.2662 16.0221 9.25375 16.6984 8.15694C16.6984 8.07257 16.6139 7.90383 16.4448 7.65072C14.5848 8.15694 12.6403 8.66317 10.7803 9.08502C9.76574 9.25375 8.5821 9.25374 7.56756 8.91627C6.97574 8.74753 6.13031 7.81946 6.13031 7.22887C6.13031 6.46954 6.72211 5.54148 7.22938 4.86653C7.65211 4.44468 8.41302 4.36032 9.08938 4.19158C14.1621 2.92603 19.2348 1.49174 24.392 0.310565C28.7884 -0.701873 30.2256 0.732419 29.972 5.03528C29.7183 9.50687 29.6338 13.9785 29.4647 18.3657C29.3802 19.7156 29.1265 21.1499 28.9575 22.6686C25.4066 21.0655 25.4066 21.0655 24.1384 7.39762C18.812 13.3035 15.2612 19.7156 11.9639 26.2964C8.66665 32.8773 6.46849 39.7956 5.28486 47.1358C4.10123 54.7291 5.53848 61.9005 8.07483 70Z" fill="#00623B"/>
</svg>
