<svg width="64" height="11" viewBox="0 0 64 11" fill="none" xmlns="http://www.w3.org/2000/svg">
<path d="M56.2806 1.10564V0H64V1.10564H60.7635V10.2925H59.5171V1.10564H56.2806Z" fill="white"/>
<path d="M47.7911 10.2925V0H51.2688C52.0729 0 52.733 0.137367 53.2489 0.412101C53.7649 0.683484 54.1469 1.05706 54.3948 1.53281C54.6427 2.00857 54.7667 2.54966 54.7667 3.15609C54.7667 3.76251 54.6427 4.30026 54.3948 4.76931C54.1469 5.23837 53.7666 5.60692 53.254 5.87495C52.7414 6.13963 52.0863 6.27197 51.289 6.27197H48.4746V5.14623H51.2487C51.7982 5.14623 52.2405 5.06582 52.5755 4.905C52.9139 4.74418 53.1585 4.51636 53.3093 4.22152C53.4634 3.92333 53.5404 3.56819 53.5404 3.15609C53.5404 2.74399 53.4634 2.38382 53.3093 2.07558C53.1551 1.76734 52.9089 1.52946 52.5705 1.36194C52.2321 1.19107 51.7848 1.10564 51.2286 1.10564H49.0375V10.2925H47.7911ZM52.6358 5.6689L55.1687 10.2925H53.7214L51.2286 5.6689H52.6358Z" fill="white"/>
<path d="M38.6495 10.2925H37.3429L41.1221 0H42.4087L46.188 10.2925H44.8813L41.8056 1.6283H41.7252L38.6495 10.2925ZM39.132 6.27197H44.3988V7.37761H39.132V6.27197Z" fill="white"/>
<path d="M28.9953 10.2925V0H30.2417V5.10603H30.3623L34.9858 0H36.6141L32.2921 4.64367L36.6141 10.2925H35.1065L31.5282 5.50808L30.2417 6.95546V10.2925H28.9953Z" fill="white"/>
<path d="M20.012 10.2925V0H23.4897C24.2972 0 24.9572 0.145743 25.4698 0.437228C25.9858 0.725364 26.3677 1.11569 26.6157 1.6082C26.8636 2.10071 26.9876 2.65018 26.9876 3.2566C26.9876 3.86303 26.8636 4.41417 26.6157 4.91003C26.3711 5.40589 25.9925 5.80124 25.4799 6.09608C24.9673 6.38756 24.3106 6.5333 23.5098 6.5333H21.0171V5.42767H23.4696C24.0225 5.42767 24.4664 5.33218 24.8014 5.14121C25.1365 4.95024 25.3794 4.69225 25.5301 4.36726C25.6843 4.03892 25.7613 3.6687 25.7613 3.2566C25.7613 2.8445 25.6843 2.47595 25.5301 2.15096C25.3794 1.82597 25.1348 1.57134 24.7964 1.38707C24.458 1.19945 24.0091 1.10564 23.4495 1.10564H21.2584V10.2925H20.012Z" fill="white"/>
<path d="M17.513 0V10.2925H16.2667V0H17.513Z" fill="white"/>
<path d="M8.30609 10.2925V0H9.55244V9.18683H14.3368V10.2925H8.30609Z" fill="white"/>
<path d="M0 10.2925V0H6.17146V1.10564H1.24635V4.58337H5.7091V5.689H1.24635V10.2925H0Z" fill="white"/>
</svg>
