<svg width="45" height="11" viewBox="0 0 45 11" fill="none" xmlns="http://www.w3.org/2000/svg">
<path d="M36.2467 0.141791H37.6853L40.5626 4.98448H40.6841L43.5614 0.141791H45L41.2515 6.24074V10.5161H39.9952V6.24074L36.2467 0.141791Z" fill="white"/>
<path d="M33.9494 3.3838C33.838 3.04272 33.6911 2.7371 33.5087 2.46693C33.3298 2.19339 33.1153 1.96038 32.8654 1.76788C32.6189 1.57539 32.3386 1.42849 32.0245 1.32718C31.7105 1.22587 31.366 1.17521 30.9912 1.17521C30.3765 1.17521 29.8176 1.33393 29.3144 1.65138C28.8113 1.96882 28.4111 2.43654 28.1139 3.05454C27.8167 3.67254 27.6681 4.43069 27.6681 5.32898C27.6681 6.22727 27.8184 6.98542 28.119 7.60342C28.4195 8.22142 28.8265 8.68914 29.3398 9.00659C29.8531 9.32403 30.4306 9.48275 31.0722 9.48275C31.6666 9.48275 32.19 9.35611 32.6425 9.10283C33.0984 8.84618 33.453 8.48483 33.7063 8.0188C33.963 7.54939 34.0913 6.99724 34.0913 6.36236L34.4763 6.44341H31.3559V5.32898H35.307V6.44341C35.307 7.2978 35.1247 8.04075 34.7599 8.67226C34.3986 9.30377 33.8988 9.79344 33.2605 10.1413C32.6256 10.4857 31.8962 10.658 31.0722 10.658C30.1536 10.658 29.3465 10.4418 28.6509 10.0096C27.9586 9.57731 27.4182 8.96268 27.0299 8.1657C26.6449 7.36872 26.4524 6.42314 26.4524 5.32898C26.4524 4.50836 26.5622 3.77047 26.7817 3.11533C27.0045 2.4568 27.3186 1.89621 27.7239 1.43356C28.1291 0.970901 28.6086 0.616312 29.1625 0.369787C29.7163 0.123262 30.3259 0 30.9912 0C31.5382 0 32.0482 0.0827375 32.521 0.248213C32.9971 0.410311 33.4209 0.641638 33.7924 0.942196C34.1673 1.23938 34.4796 1.59565 34.7295 2.01103C34.9794 2.42303 35.1517 2.88062 35.2462 3.3838H33.9494Z" fill="white"/>
<path d="M24.3388 0.141791V10.5161H23.0825V0.141791H24.3388Z" fill="white"/>
<path d="M11.4267 10.5161L8.58994 0.141791H9.86646L12.0345 8.59116H12.1358L14.3444 0.141791H15.7628L17.9714 8.59116H18.0727L20.2408 0.141791H21.5173L18.6806 10.5161H17.3838L15.0941 2.24907H15.0131L12.7234 10.5161H11.4267Z" fill="white"/>
<path d="M6.11921 2.73541C6.05842 2.2221 5.8119 1.82361 5.37964 1.53993C4.94737 1.25626 4.41718 1.11443 3.78905 1.11443C3.32977 1.11443 2.9279 1.18872 2.58344 1.33731C2.24236 1.4859 1.97557 1.69021 1.78308 1.95024C1.59397 2.21028 1.49941 2.50577 1.49941 2.83672C1.49941 3.11364 1.56526 3.35172 1.69697 3.55097C1.83205 3.74683 2.00428 3.91062 2.21365 4.04233C2.42303 4.17065 2.64254 4.27703 2.87218 4.36146C3.10182 4.44251 3.31288 4.50836 3.50538 4.55901L4.55901 4.84269C4.82918 4.9136 5.12973 5.01154 5.46069 5.13649C5.79501 5.26144 6.11414 5.43198 6.41808 5.64811C6.72539 5.86087 6.97867 6.13441 7.17791 6.46873C7.37716 6.80306 7.47678 7.21337 7.47678 7.69967C7.47678 8.26026 7.32988 8.76681 7.03608 9.21934C6.74565 9.67186 6.32014 10.0315 5.75955 10.2983C5.20234 10.5651 4.52524 10.6985 3.72826 10.6985C2.98531 10.6985 2.34198 10.5786 1.79828 10.3388C1.25795 10.0991 0.832442 9.76473 0.521754 9.33585C0.214442 8.90696 0.0405246 8.40885 0 7.8415H1.29679C1.33056 8.23324 1.46226 8.55744 1.6919 8.81409C1.92492 9.06737 2.21872 9.25649 2.57331 9.38144C2.93128 9.50301 3.31626 9.5638 3.72826 9.5638C4.2078 9.5638 4.63837 9.48613 5.01998 9.33078C5.40159 9.17206 5.70383 8.95255 5.92672 8.67226C6.1496 8.38859 6.26105 8.05763 6.26105 7.67941C6.26105 7.33495 6.1648 7.05465 5.97231 6.83852C5.77982 6.62239 5.52654 6.44678 5.21247 6.3117C4.89841 6.17662 4.55901 6.05842 4.19429 5.95711L2.91777 5.59239C2.10728 5.35937 1.46564 5.02674 0.992852 4.59447C0.520065 4.16221 0.283672 3.59656 0.283672 2.89751C0.283672 2.31665 0.440705 1.8101 0.75477 1.37784C1.07221 0.942196 1.49772 0.604491 2.03129 0.364721C2.56824 0.121574 3.16767 0 3.82957 0C4.49823 0 5.09259 0.119885 5.61265 0.359655C6.13272 0.596048 6.54472 0.920245 6.84865 1.33224C7.15596 1.74424 7.31806 2.21197 7.33495 2.73541H6.11921Z" fill="white"/>
</svg>
