<svg width="33" height="8" viewBox="0 0 33 8" fill="none" xmlns="http://www.w3.org/2000/svg">
<path d="M33 4.92646C33 5.13726 32.9864 5.32765 32.9592 5.49765H28.6651C28.6991 5.94643 28.8657 6.30682 29.1649 6.57882C29.4641 6.85081 29.8313 6.98681 30.2665 6.98681C30.8921 6.98681 31.3341 6.72501 31.5924 6.20143H32.847C32.677 6.71821 32.3676 7.1432 31.9188 7.47639C31.4768 7.80278 30.9261 7.96598 30.2665 7.96598C29.7293 7.96598 29.2465 7.84698 28.8181 7.60899C28.3965 7.36419 28.0633 7.0242 27.8185 6.58902C27.5806 6.14703 27.4616 5.63704 27.4616 5.05906C27.4616 4.48107 27.5772 3.97449 27.8083 3.5393C28.0463 3.09731 28.3761 2.75732 28.7977 2.51933C29.2261 2.28133 29.7157 2.16234 30.2665 2.16234C30.7969 2.16234 31.2695 2.27793 31.6842 2.50913C32.099 2.74032 32.422 3.06671 32.6532 3.4883C32.8844 3.90309 33 4.38248 33 4.92646ZM31.7862 4.55927C31.7794 4.13088 31.6264 3.78749 31.3273 3.5291C31.0281 3.27071 30.6575 3.14151 30.2155 3.14151C29.8143 3.14151 29.4709 3.27071 29.1853 3.5291C28.8997 3.78069 28.7297 4.12408 28.6753 4.55927H31.7862Z" fill="black"/>
<path d="M26.7049 4.92646C26.7049 5.13726 26.6913 5.32765 26.6641 5.49765H22.37C22.404 5.94643 22.5706 6.30682 22.8698 6.57882C23.169 6.85081 23.5362 6.98681 23.9713 6.98681C24.5969 6.98681 25.0389 6.72501 25.2973 6.20143H26.5519C26.3819 6.71821 26.0725 7.1432 25.6237 7.47639C25.1817 7.80278 24.6309 7.96598 23.9713 7.96598C23.4342 7.96598 22.9514 7.84698 22.523 7.60899C22.1014 7.36419 21.7682 7.0242 21.5234 6.58902C21.2854 6.14703 21.1664 5.63704 21.1664 5.05906C21.1664 4.48107 21.282 3.97449 21.5132 3.5393C21.7512 3.09731 22.081 2.75732 22.5026 2.51933C22.931 2.28133 23.4206 2.16234 23.9713 2.16234C24.5017 2.16234 24.9743 2.27793 25.3891 2.50913C25.8039 2.74032 26.1269 3.06671 26.3581 3.4883C26.5893 3.90309 26.7049 4.38248 26.7049 4.92646ZM25.4911 4.55927C25.4843 4.13088 25.3313 3.78749 25.0321 3.5291C24.7329 3.27071 24.3623 3.14151 23.9203 3.14151C23.5192 3.14151 23.1758 3.27071 22.8902 3.5291C22.6046 3.78069 22.4346 4.12408 22.3802 4.55927H25.4911Z" fill="black"/>
<path d="M20.5235 3.20271H19.4831V7.87419H18.3102V3.20271H17.6472V2.25414H18.3102V1.85635C18.3102 1.21037 18.4802 0.741179 18.8202 0.448787C19.1669 0.149596 19.7075 0 20.4419 0V0.968973C20.0883 0.968973 19.8401 1.03697 19.6973 1.17297C19.5545 1.30216 19.4831 1.52996 19.4831 1.85635V2.25414H20.5235V3.20271Z" fill="black"/>
<path d="M17.1369 3.20271H16.0965V7.87419H14.9235V3.20271H14.2606V2.25414H14.9235V1.85635C14.9235 1.21037 15.0935 0.741179 15.4335 0.448787C15.7803 0.149596 16.3209 0 17.0553 0V0.968973C16.7017 0.968973 16.4535 1.03697 16.3107 1.17297C16.1679 1.30216 16.0965 1.52996 16.0965 1.85635V2.25414H17.1369V3.20271Z" fill="black"/>
<path d="M10.7142 7.96598C10.1838 7.96598 9.70441 7.84698 9.27602 7.60899C8.84763 7.36419 8.51104 7.0242 8.26625 6.58902C8.02145 6.14703 7.89906 5.63704 7.89906 5.05906C7.89906 4.48787 8.02485 3.98129 8.27645 3.5393C8.52804 3.09731 8.87143 2.75732 9.30662 2.51933C9.74181 2.28133 10.228 2.16234 10.7652 2.16234C11.3024 2.16234 11.7886 2.28133 12.2237 2.51933C12.6589 2.75732 13.0023 3.09731 13.2539 3.5393C13.5055 3.98129 13.6313 4.48787 13.6313 5.05906C13.6313 5.63024 13.5021 6.13683 13.2437 6.57882C12.9853 7.0208 12.6317 7.36419 12.1829 7.60899C11.741 7.84698 11.2514 7.96598 10.7142 7.96598ZM10.7142 6.95621C11.0134 6.95621 11.2922 6.88481 11.5506 6.74201C11.8158 6.59922 12.0299 6.38502 12.1931 6.09943C12.3563 5.81384 12.4379 5.46705 12.4379 5.05906C12.4379 4.65107 12.3597 4.30768 12.2033 4.02889C12.0469 3.74329 11.8396 3.5291 11.5812 3.3863C11.3228 3.24351 11.044 3.17211 10.7448 3.17211C10.4456 3.17211 10.1668 3.24351 9.9084 3.3863C9.65681 3.5291 9.45622 3.74329 9.30662 4.02889C9.15702 4.30768 9.08223 4.65107 9.08223 5.05906C9.08223 5.66424 9.23522 6.13343 9.54121 6.46662C9.854 6.79301 10.245 6.95621 10.7142 6.95621Z" fill="black"/>
<path d="M0 4.31454C0 3.62096 0.159796 2.99877 0.479387 2.44799C0.805778 1.8972 1.24437 1.46882 1.79515 1.16282C2.35274 0.850032 2.96132 0.693636 3.6209 0.693636C4.37568 0.693636 5.04546 0.880631 5.63025 1.25462C6.22183 1.62181 6.65022 2.1454 6.91541 2.82538H5.51805C5.33446 2.45139 5.07946 2.1726 4.75307 1.989C4.42668 1.80541 4.04929 1.71361 3.6209 1.71361C3.15171 1.71361 2.73353 1.81901 2.36634 2.0298C1.99915 2.24059 1.71015 2.54319 1.49936 2.93758C1.29536 3.33196 1.19337 3.79095 1.19337 4.31454C1.19337 4.83812 1.29536 5.29711 1.49936 5.6915C1.71015 6.08589 1.99915 6.39188 2.36634 6.60948C2.73353 6.82027 3.15171 6.92567 3.6209 6.92567C4.04929 6.92567 4.42668 6.83387 4.75307 6.65027C5.07946 6.46668 5.33446 6.18789 5.51805 5.8139H6.91541C6.65022 6.49388 6.22183 7.01746 5.63025 7.38465C5.04546 7.75185 4.37568 7.93544 3.6209 7.93544C2.95452 7.93544 2.34594 7.78244 1.79515 7.47645C1.24437 7.16366 0.805778 6.73187 0.479387 6.18109C0.159796 5.6303 0 5.00812 0 4.31454Z" fill="black"/>
</svg>
