<svg width="341" height="16" viewBox="0 0 341 16" fill="none" xmlns="http://www.w3.org/2000/svg">
<path d="M336.997 12.3731C336.269 12.3731 335.627 12.1892 335.069 11.8215C334.512 11.45 334.076 10.9269 333.761 10.2521C333.447 9.57358 333.29 8.77183 333.29 7.84688C333.29 6.92951 333.447 6.13344 333.761 5.45868C334.076 4.78393 334.514 4.26269 335.075 3.89499C335.636 3.52728 336.284 3.34343 337.02 3.34343C337.588 3.34343 338.038 3.4382 338.367 3.62774C338.701 3.81348 338.955 4.02577 339.129 4.26459C339.307 4.49962 339.446 4.69295 339.544 4.84458H339.658V0.545828H341V12.1911H339.704V10.8492H339.544C339.446 11.0084 339.306 11.2093 339.124 11.4519C338.942 11.6907 338.682 11.9049 338.345 12.0945C338.007 12.2802 337.558 12.3731 336.997 12.3731ZM337.179 11.1676C337.717 11.1676 338.172 11.0273 338.544 10.7468C338.915 10.4625 339.197 10.0702 339.391 9.56979C339.584 9.06562 339.681 8.48373 339.681 7.82413C339.681 7.17212 339.586 6.60161 339.396 6.1126C339.207 5.61979 338.926 5.23692 338.555 4.96399C338.183 4.68726 337.725 4.5489 337.179 4.5489C336.61 4.5489 336.136 4.69484 335.757 4.98673C335.382 5.27483 335.1 5.66718 334.91 6.16377C334.724 6.65657 334.631 7.21003 334.631 7.82413C334.631 8.44582 334.726 9.01065 334.916 9.51861C335.109 10.0228 335.393 10.4246 335.769 10.7241C336.148 11.0198 336.618 11.1676 337.179 11.1676Z" fill="black"/>
<path d="M328.007 12.1911V3.45713H329.304V4.77632H329.395C329.554 4.34417 329.842 3.99352 330.259 3.72438C330.676 3.45523 331.146 3.32066 331.669 3.32066C331.768 3.32066 331.891 3.32256 332.039 3.32635C332.186 3.33014 332.298 3.33582 332.374 3.34341V4.70809C332.329 4.69672 332.224 4.67966 332.061 4.65691C331.902 4.63038 331.733 4.61711 331.555 4.61711C331.131 4.61711 330.752 4.70619 330.418 4.88436C330.088 5.05874 329.827 5.30135 329.633 5.61219C329.444 5.91924 329.349 6.26989 329.349 6.66413V12.1911H328.007Z" fill="black"/>
<path d="M321.555 12.3958C321.001 12.3958 320.499 12.2915 320.048 12.083C319.597 11.8708 319.239 11.5656 318.973 11.1676C318.708 10.7657 318.575 10.2805 318.575 9.7119C318.575 9.21152 318.674 8.8059 318.871 8.49506C319.068 8.18042 319.331 7.93402 319.661 7.75586C319.991 7.57769 320.355 7.44501 320.753 7.35782C321.155 7.26684 321.558 7.19482 321.964 7.14175C322.495 7.07351 322.925 7.02234 323.255 6.98822C323.588 6.95031 323.831 6.88777 323.983 6.80058C324.138 6.71339 324.216 6.56176 324.216 6.34568V6.30019C324.216 5.73916 324.062 5.30322 323.755 4.99237C323.452 4.68153 322.991 4.52611 322.374 4.52611C321.733 4.52611 321.231 4.66637 320.867 4.94688C320.503 5.2274 320.247 5.52687 320.099 5.8453L318.825 5.39041C319.053 4.8597 319.356 4.4465 319.735 4.15082C320.118 3.85135 320.535 3.64285 320.986 3.52534C321.441 3.40404 321.888 3.34338 322.328 3.34338C322.609 3.34338 322.931 3.3775 323.295 3.44573C323.662 3.51018 324.017 3.64475 324.358 3.84945C324.703 4.05415 324.989 4.3631 325.217 4.7763C325.444 5.18949 325.558 5.74295 325.558 6.43666V12.1911H324.216V11.0083H324.148C324.057 11.1979 323.905 11.4007 323.693 11.6168C323.48 11.8328 323.198 12.0167 322.845 12.1683C322.493 12.32 322.063 12.3958 321.555 12.3958ZM321.759 11.1903C322.29 11.1903 322.737 11.0861 323.101 10.8776C323.469 10.6691 323.746 10.3999 323.931 10.0701C324.121 9.74033 324.216 9.39347 324.216 9.02956V7.80134C324.159 7.86958 324.034 7.93213 323.841 7.98899C323.651 8.04206 323.431 8.08944 323.181 8.13114C322.935 8.16905 322.694 8.20317 322.459 8.23349C322.228 8.26003 322.04 8.28277 321.896 8.30173C321.547 8.34722 321.221 8.42114 320.918 8.52349C320.618 8.62205 320.376 8.77179 320.19 8.9727C320.008 9.16982 319.917 9.43896 319.917 9.78013C319.917 10.2464 320.09 10.5989 320.435 10.8378C320.783 11.0728 321.225 11.1903 321.759 11.1903Z" fill="black"/>
<path d="M316.888 4.18502H315.478C315.394 3.7794 315.248 3.42307 315.04 3.11601C314.835 2.80896 314.585 2.55119 314.289 2.34269C313.997 2.13041 313.673 1.9712 313.317 1.86505C312.961 1.75891 312.589 1.70584 312.202 1.70584C311.497 1.70584 310.859 1.88401 310.286 2.24034C309.718 2.59668 309.264 3.1217 308.927 3.81541C308.594 4.50913 308.427 5.36016 308.427 6.36851C308.427 7.37685 308.594 8.22789 308.927 8.9216C309.264 9.61531 309.718 10.1403 310.286 10.4967C310.859 10.853 311.497 11.0312 312.202 11.0312C312.589 11.0312 312.961 10.9781 313.317 10.872C313.673 10.7658 313.997 10.6085 314.289 10.4C314.585 10.1877 314.835 9.92805 315.04 9.621C315.248 9.31016 315.394 8.95382 315.478 8.552H316.888C316.782 9.14715 316.588 9.67976 316.308 10.1498C316.027 10.6199 315.679 11.0198 315.262 11.3496C314.845 11.6756 314.376 11.9239 313.857 12.0945C313.341 12.2651 312.79 12.3504 312.202 12.3504C311.209 12.3504 310.326 12.1078 309.553 11.6225C308.779 11.1373 308.171 10.4474 307.727 9.55277C307.284 8.65814 307.062 7.59672 307.062 6.36851C307.062 5.14029 307.284 4.07887 307.727 3.18425C308.171 2.28962 308.779 1.5997 309.553 1.11448C310.326 0.629259 311.209 0.386649 312.202 0.386649C312.79 0.386649 313.341 0.471942 313.857 0.642527C314.376 0.813112 314.845 1.0633 315.262 1.3931C315.679 1.71911 316.027 2.11714 316.308 2.5872C316.588 3.05347 316.782 3.58607 316.888 4.18502Z" fill="black"/>
<path d="M300.813 3.45708V4.59432H296.287V3.45708H300.813ZM297.606 1.36457H298.948V9.68913C298.948 10.0682 299.003 10.3525 299.113 10.5421C299.226 10.7278 299.371 10.8529 299.545 10.9173C299.723 10.978 299.911 11.0083 300.108 11.0083C300.256 11.0083 300.377 11.0007 300.472 10.9856C300.567 10.9666 300.642 10.9515 300.699 10.9401L300.972 12.1456C300.881 12.1797 300.754 12.2138 300.591 12.2479C300.428 12.2858 300.222 12.3048 299.971 12.3048C299.592 12.3048 299.221 12.2233 298.857 12.0603C298.497 11.8973 298.197 11.649 297.958 11.3154C297.723 10.9818 297.606 10.561 297.606 10.053V1.36457Z" fill="black"/>
<path d="M295.134 3.4572V4.59443H290.426V3.4572H295.134ZM291.836 12.1912V2.25173C291.836 1.75134 291.953 1.33436 292.188 1.00077C292.423 0.667178 292.729 0.416986 293.104 0.250192C293.479 0.0833972 293.875 0 294.292 0C294.622 0 294.891 0.0265357 295.1 0.079607C295.308 0.132678 295.464 0.181958 295.566 0.227447L295.179 1.38743C295.111 1.36468 295.016 1.33625 294.895 1.30213C294.778 1.26802 294.622 1.25096 294.429 1.25096C293.985 1.25096 293.665 1.36279 293.468 1.58644C293.274 1.8101 293.178 2.138 293.178 2.57015V12.1912H291.836Z" fill="black"/>
<path d="M287.445 12.1911V3.45714H288.787V12.1911H287.445ZM288.127 2.00148C287.866 2.00148 287.64 1.9124 287.45 1.73423C287.265 1.55606 287.172 1.34188 287.172 1.09169C287.172 0.841499 287.265 0.627319 287.45 0.449152C287.64 0.270985 287.866 0.181902 288.127 0.181902C288.389 0.181902 288.612 0.270985 288.798 0.449152C288.988 0.627319 289.082 0.841499 289.082 1.09169C289.082 1.34188 288.988 1.55606 288.798 1.73423C288.612 1.9124 288.389 2.00148 288.127 2.00148Z" fill="black"/>
<path d="M283.14 4.18502C283.015 3.80215 282.85 3.45908 282.646 3.15582C282.445 2.84876 282.204 2.5872 281.923 2.37112C281.647 2.15505 281.332 1.99015 280.98 1.87643C280.627 1.7627 280.24 1.70584 279.82 1.70584C279.13 1.70584 278.502 1.88401 277.937 2.24034C277.373 2.59668 276.923 3.1217 276.59 3.81541C276.256 4.50913 276.089 5.36016 276.089 6.36851C276.089 7.37685 276.258 8.22789 276.596 8.9216C276.933 9.61531 277.39 10.1403 277.966 10.4967C278.542 10.853 279.19 11.0312 279.911 11.0312C280.578 11.0312 281.165 10.889 281.673 10.6047C282.185 10.3166 282.583 9.91099 282.867 9.38787C283.155 8.86095 283.3 8.24115 283.3 7.52849L283.732 7.61947H280.229V6.36851H284.664V7.61947C284.664 8.57853 284.46 9.41251 284.05 10.1214C283.644 10.8303 283.083 11.3799 282.367 11.7704C281.654 12.157 280.835 12.3504 279.911 12.3504C278.879 12.3504 277.973 12.1078 277.193 11.6225C276.415 11.1373 275.809 10.4474 275.373 9.55277C274.941 8.65814 274.725 7.59672 274.725 6.36851C274.725 5.44735 274.848 4.61906 275.094 3.88365C275.345 3.14444 275.697 2.51517 276.152 1.99584C276.607 1.4765 277.145 1.07847 277.767 0.80174C278.389 0.525013 279.073 0.386649 279.82 0.386649C280.434 0.386649 281.006 0.479523 281.537 0.665271C282.071 0.847229 282.547 1.1069 282.964 1.44428C283.385 1.77787 283.735 2.17779 284.016 2.64406C284.297 3.10654 284.49 3.62019 284.596 4.18502H283.14Z" fill="black"/>
<path d="M262.376 6.93709V12.1911H261.034V0.545828H262.376V4.82183H262.49C262.694 4.37073 263.001 4.0125 263.411 3.74715C263.824 3.478 264.374 3.34343 265.06 3.34343C265.655 3.34343 266.176 3.46284 266.623 3.70166C267.071 3.93669 267.418 4.29871 267.664 4.78772C267.914 5.27294 268.039 5.89083 268.039 6.64141V12.1911H266.697V6.73239C266.697 6.03867 266.517 5.50228 266.157 5.1232C265.801 4.74033 265.306 4.5489 264.673 4.5489C264.233 4.5489 263.839 4.64177 263.49 4.82752C263.145 5.01327 262.872 5.28431 262.672 5.64064C262.474 5.99698 262.376 6.42913 262.376 6.93709Z" fill="black"/>
<path d="M258.828 3.45708V4.59432H254.301V3.45708H258.828ZM255.621 1.36457H256.963V9.68913C256.963 10.0682 257.018 10.3525 257.127 10.5421C257.241 10.7278 257.385 10.8529 257.56 10.9173C257.738 10.978 257.925 11.0083 258.123 11.0083C258.27 11.0083 258.392 11.0007 258.486 10.9856C258.581 10.9666 258.657 10.9515 258.714 10.9401L258.987 12.1456C258.896 12.1797 258.769 12.2138 258.606 12.2479C258.443 12.2858 258.236 12.3048 257.986 12.3048C257.607 12.3048 257.236 12.2233 256.872 12.0603C256.511 11.8973 256.212 11.649 255.973 11.3154C255.738 10.9818 255.621 10.561 255.621 10.053V1.36457Z" fill="black"/>
<path d="M251.229 12.1911V3.45714H252.571V12.1911H251.229ZM251.912 2.00148C251.65 2.00148 251.425 1.9124 251.235 1.73423C251.049 1.55606 250.957 1.34188 250.957 1.09169C250.957 0.841499 251.049 0.627319 251.235 0.449152C251.425 0.270985 251.65 0.181902 251.912 0.181902C252.173 0.181902 252.397 0.270985 252.583 0.449152C252.772 0.627319 252.867 0.841499 252.867 1.09169C252.867 1.34188 252.772 1.55606 252.583 1.73423C252.397 1.9124 252.173 2.00148 251.912 2.00148Z" fill="black"/>
<path d="M240.198 12.1911L237.537 3.45712H238.947L240.835 10.1441H240.926L242.791 3.45712H244.224L246.066 10.1213H246.157L248.045 3.45712H249.455L246.794 12.1911H245.475L243.565 5.4814H243.428L241.518 12.1911H240.198Z" fill="black"/>
<path d="M228.058 12.373C227.217 12.373 226.491 12.1873 225.881 11.8158C225.274 11.4405 224.806 10.9174 224.476 10.2464C224.15 9.57164 223.987 8.78695 223.987 7.89232C223.987 6.9977 224.15 6.20922 224.476 5.52687C224.806 4.84074 225.265 4.30624 225.852 3.92337C226.443 3.53671 227.133 3.34338 227.922 3.34338C228.377 3.34338 228.826 3.4192 229.269 3.57083C229.713 3.72246 230.117 3.96886 230.481 4.31003C230.845 4.64741 231.135 5.09472 231.351 5.65197C231.567 6.20922 231.675 6.89535 231.675 7.71037V8.27898H224.942V7.119H230.31C230.31 6.6262 230.211 6.18647 230.014 5.79981C229.821 5.41315 229.544 5.10799 229.184 4.88434C228.828 4.66068 228.407 4.54885 227.922 4.54885C227.387 4.54885 226.925 4.68153 226.534 4.94688C226.148 5.20845 225.85 5.54962 225.642 5.9704C225.433 6.39117 225.329 6.84228 225.329 7.32371V8.09703C225.329 8.75662 225.443 9.31576 225.67 9.77445C225.901 10.2293 226.222 10.5762 226.631 10.815C227.04 11.05 227.516 11.1676 228.058 11.1676C228.411 11.1676 228.729 11.1183 229.014 11.0197C229.302 10.9174 229.55 10.7657 229.758 10.5648C229.967 10.3601 230.128 10.1061 230.242 9.80288L231.538 10.1668C231.402 10.6065 231.172 10.9932 230.85 11.3268C230.528 11.6566 230.13 11.9143 229.656 12.1001C229.182 12.2821 228.65 12.373 228.058 12.373Z" fill="black"/>
<path d="M219 12.373C218.181 12.373 217.476 12.1797 216.885 11.793C216.294 11.4064 215.839 10.8738 215.52 10.1952C215.202 9.51667 215.043 8.74146 215.043 7.86958C215.043 6.98254 215.206 6.19974 215.532 5.52119C215.861 4.83885 216.32 4.30624 216.908 3.92337C217.499 3.53671 218.189 3.34338 218.977 3.34338C219.592 3.34338 220.145 3.45711 220.638 3.68455C221.131 3.912 221.534 4.23043 221.849 4.63983C222.164 5.04924 222.359 5.52687 222.435 6.07275H221.093C220.99 5.67472 220.763 5.32217 220.41 5.01512C220.062 4.70427 219.592 4.54885 219 4.54885C218.477 4.54885 218.018 4.68532 217.624 4.95826C217.234 5.2274 216.929 5.60838 216.709 6.10118C216.493 6.59019 216.385 7.16449 216.385 7.82409C216.385 8.49885 216.491 9.08642 216.703 9.5868C216.919 10.0872 217.222 10.4757 217.613 10.7525C218.007 11.0292 218.47 11.1676 219 11.1676C219.349 11.1676 219.666 11.1069 219.95 10.9856C220.234 10.8643 220.475 10.6899 220.672 10.4625C220.869 10.235 221.009 9.96209 221.093 9.64367H222.435C222.359 10.1592 222.171 10.6236 221.872 11.0368C221.576 11.4462 221.184 11.7722 220.695 12.0148C220.21 12.2536 219.645 12.373 219 12.373Z" fill="black"/>
<path d="M207.427 6.93705V12.1911H206.086V3.45711H207.382V4.82179H207.496C207.7 4.37827 208.011 4.02193 208.428 3.75279C208.845 3.47985 209.383 3.34338 210.043 3.34338C210.634 3.34338 211.152 3.46469 211.595 3.7073C212.039 3.94612 212.384 4.31003 212.63 4.79904C212.877 5.28426 213 5.89837 213 6.64137V12.1911H211.658V6.73234C211.658 6.04621 211.48 5.51171 211.123 5.12884C210.767 4.74218 210.278 4.54885 209.656 4.54885C209.228 4.54885 208.845 4.64173 208.508 4.82747C208.174 5.01322 207.911 5.28426 207.717 5.6406C207.524 5.99693 207.427 6.42908 207.427 6.93705Z" fill="black"/>
<path d="M200.428 12.373C199.586 12.373 198.86 12.1873 198.25 11.8158C197.643 11.4405 197.175 10.9174 196.845 10.2464C196.519 9.57164 196.356 8.78695 196.356 7.89232C196.356 6.9977 196.519 6.20922 196.845 5.52687C197.175 4.84074 197.634 4.30624 198.222 3.92337C198.813 3.53671 199.503 3.34338 200.291 3.34338C200.746 3.34338 201.195 3.4192 201.639 3.57083C202.082 3.72246 202.486 3.96886 202.85 4.31003C203.214 4.64741 203.504 5.09472 203.72 5.65197C203.936 6.20922 204.044 6.89535 204.044 7.71037V8.27898H197.312V7.119H202.679C202.679 6.6262 202.581 6.18647 202.384 5.79981C202.19 5.41315 201.914 5.10799 201.554 4.88434C201.197 4.66068 200.777 4.54885 200.291 4.54885C199.757 4.54885 199.294 4.68153 198.904 4.94688C198.517 5.20845 198.22 5.54962 198.011 5.9704C197.803 6.39117 197.698 6.84228 197.698 7.32371V8.09703C197.698 8.75662 197.812 9.31576 198.04 9.77445C198.271 10.2293 198.591 10.5762 199.001 10.815C199.41 11.05 199.886 11.1676 200.428 11.1676C200.78 11.1676 201.099 11.1183 201.383 11.0197C201.671 10.9174 201.919 10.7657 202.128 10.5648C202.336 10.3601 202.498 10.1061 202.611 9.80288L203.908 10.1668C203.771 10.6065 203.542 10.9932 203.22 11.3268C202.897 11.6566 202.499 11.9143 202.026 12.1001C201.552 12.2821 201.019 12.373 200.428 12.373Z" fill="black"/>
<path d="M192.966 12.1911V3.45714H194.308V12.1911H192.966ZM193.648 2.00148C193.387 2.00148 193.161 1.9124 192.972 1.73423C192.786 1.55606 192.693 1.34188 192.693 1.09169C192.693 0.841499 192.786 0.627319 192.972 0.449152C193.161 0.270985 193.387 0.181902 193.648 0.181902C193.91 0.181902 194.134 0.270985 194.319 0.449152C194.509 0.627319 194.604 0.841499 194.604 1.09169C194.604 1.34188 194.509 1.55606 194.319 1.73423C194.134 1.9124 193.91 2.00148 193.648 2.00148Z" fill="black"/>
<path d="M187.008 12.1911V3.45713H188.305V4.77632H188.396C188.555 4.34417 188.843 3.99352 189.26 3.72438C189.677 3.45523 190.147 3.32066 190.67 3.32066C190.769 3.32066 190.892 3.32256 191.04 3.32635C191.188 3.33014 191.3 3.33582 191.375 3.34341V4.70809C191.33 4.69672 191.226 4.67966 191.063 4.65691C190.903 4.63038 190.735 4.61711 190.557 4.61711C190.132 4.61711 189.753 4.70619 189.419 4.88436C189.09 5.05874 188.828 5.30135 188.635 5.61219C188.445 5.91924 188.35 6.26989 188.35 6.66413V12.1911H187.008Z" fill="black"/>
<path d="M181.351 12.373C180.509 12.373 179.783 12.1873 179.173 11.8158C178.566 11.4405 178.098 10.9174 177.768 10.2464C177.442 9.57164 177.279 8.78695 177.279 7.89232C177.279 6.9977 177.442 6.20922 177.768 5.52687C178.098 4.84074 178.557 4.30624 179.144 3.92337C179.736 3.53671 180.426 3.34338 181.214 3.34338C181.669 3.34338 182.118 3.4192 182.562 3.57083C183.005 3.72246 183.409 3.96886 183.773 4.31003C184.137 4.64741 184.427 5.09472 184.643 5.65197C184.859 6.20922 184.967 6.89535 184.967 7.71037V8.27898H178.235V7.119H183.602C183.602 6.6262 183.504 6.18647 183.307 5.79981C183.113 5.41315 182.837 5.10799 182.477 4.88434C182.12 4.66068 181.699 4.54885 181.214 4.54885C180.68 4.54885 180.217 4.68153 179.827 4.94688C179.44 5.20845 179.143 5.54962 178.934 5.9704C178.726 6.39117 178.621 6.84228 178.621 7.32371V8.09703C178.621 8.75662 178.735 9.31576 178.962 9.77445C179.194 10.2293 179.514 10.5762 179.923 10.815C180.333 11.05 180.809 11.1676 181.351 11.1676C181.703 11.1676 182.022 11.1183 182.306 11.0197C182.594 10.9174 182.842 10.7657 183.051 10.5648C183.259 10.3601 183.42 10.1061 183.534 9.80288L184.831 10.1668C184.694 10.6065 184.465 10.9932 184.143 11.3268C183.82 11.6566 183.422 11.9143 182.948 12.1001C182.475 12.2821 181.942 12.373 181.351 12.373Z" fill="black"/>
<path d="M167.931 15.4663V3.45711H169.228V4.84453H169.387C169.485 4.6929 169.622 4.49957 169.796 4.26454C169.975 4.02572 170.228 3.81344 170.558 3.62769C170.892 3.43815 171.343 3.34338 171.912 3.34338C172.647 3.34338 173.295 3.52724 173.856 3.89494C174.417 4.26265 174.855 4.78388 175.17 5.45864C175.484 6.1334 175.642 6.92946 175.642 7.84683C175.642 8.77179 175.484 9.57354 175.17 10.2521C174.855 10.9268 174.419 11.45 173.862 11.8215C173.305 12.1892 172.662 12.373 171.934 12.373C171.373 12.373 170.924 12.2802 170.587 12.0944C170.249 11.9049 169.99 11.6907 169.808 11.4519C169.626 11.2093 169.485 11.0083 169.387 10.8491H169.273V15.4663H167.931ZM169.25 7.82409C169.25 8.48369 169.347 9.06557 169.54 9.56975C169.734 10.0701 170.016 10.4625 170.388 10.7468C170.759 11.0273 171.214 11.1676 171.752 11.1676C172.313 11.1676 172.782 11.0197 173.157 10.724C173.536 10.4246 173.82 10.0227 174.01 9.51857C174.203 9.0106 174.3 8.44578 174.3 7.82409C174.3 7.20998 174.205 6.65653 174.015 6.16373C173.83 5.66713 173.547 5.27479 173.168 4.98669C172.793 4.6948 172.321 4.54885 171.752 4.54885C171.207 4.54885 170.748 4.68722 170.376 4.96394C170.005 5.23688 169.724 5.61975 169.535 6.11255C169.345 6.60156 169.25 7.17207 169.25 7.82409Z" fill="black"/>
<path d="M160.285 3.45712L162.377 7.02804L164.47 3.45712H166.016L163.196 7.8241L166.016 12.1911H164.47L162.377 8.80212L160.285 12.1911H158.738L161.513 7.8241L158.738 3.45712H160.285Z" fill="black"/>
<path d="M153.861 12.373C153.019 12.373 152.293 12.1873 151.683 11.8158C151.076 11.4405 150.608 10.9174 150.279 10.2464C149.953 9.57164 149.79 8.78695 149.79 7.89232C149.79 6.9977 149.953 6.20922 150.279 5.52687C150.608 4.84074 151.067 4.30624 151.655 3.92337C152.246 3.53671 152.936 3.34338 153.724 3.34338C154.179 3.34338 154.628 3.4192 155.072 3.57083C155.515 3.72246 155.919 3.96886 156.283 4.31003C156.647 4.64741 156.937 5.09472 157.153 5.65197C157.369 6.20922 157.477 6.89535 157.477 7.71037V8.27898H150.745V7.119H156.113C156.113 6.6262 156.014 6.18647 155.817 5.79981C155.624 5.41315 155.347 5.10799 154.987 4.88434C154.63 4.66068 154.21 4.54885 153.724 4.54885C153.19 4.54885 152.727 4.68153 152.337 4.94688C151.95 5.20845 151.653 5.54962 151.444 5.9704C151.236 6.39117 151.131 6.84228 151.131 7.32371V8.09703C151.131 8.75662 151.245 9.31576 151.473 9.77445C151.704 10.2293 152.024 10.5762 152.434 10.815C152.843 11.05 153.319 11.1676 153.861 11.1676C154.213 11.1676 154.532 11.1183 154.816 11.0197C155.104 10.9174 155.352 10.7657 155.561 10.5648C155.769 10.3601 155.931 10.1061 156.044 9.80288L157.341 10.1668C157.204 10.6065 156.975 10.9932 156.653 11.3268C156.331 11.6566 155.932 11.9143 155.459 12.1001C154.985 12.2821 154.452 12.373 153.861 12.373Z" fill="black"/>
<path d="M140.038 12.373C139.196 12.373 138.47 12.1873 137.86 11.8158C137.253 11.4405 136.785 10.9174 136.455 10.2464C136.129 9.57164 135.966 8.78695 135.966 7.89232C135.966 6.9977 136.129 6.20922 136.455 5.52687C136.785 4.84074 137.244 4.30624 137.831 3.92337C138.423 3.53671 139.113 3.34338 139.901 3.34338C140.356 3.34338 140.805 3.4192 141.249 3.57083C141.692 3.72246 142.096 3.96886 142.46 4.31003C142.824 4.64741 143.114 5.09472 143.33 5.65197C143.546 6.20922 143.654 6.89535 143.654 7.71037V8.27898H136.922V7.119H142.289C142.289 6.6262 142.191 6.18647 141.994 5.79981C141.8 5.41315 141.524 5.10799 141.164 4.88434C140.807 4.66068 140.386 4.54885 139.901 4.54885C139.367 4.54885 138.904 4.68153 138.514 4.94688C138.127 5.20845 137.83 5.54962 137.621 5.9704C137.413 6.39117 137.308 6.84228 137.308 7.32371V8.09703C137.308 8.75662 137.422 9.31576 137.65 9.77445C137.881 10.2293 138.201 10.5762 138.61 10.815C139.02 11.05 139.496 11.1676 140.038 11.1676C140.39 11.1676 140.709 11.1183 140.993 11.0197C141.281 10.9174 141.529 10.7657 141.738 10.5648C141.946 10.3601 142.107 10.1061 142.221 9.80288L143.518 10.1668C143.381 10.6065 143.152 10.9932 142.83 11.3268C142.507 11.6566 142.109 11.9143 141.636 12.1001C141.162 12.2821 140.629 12.373 140.038 12.373Z" fill="black"/>
<path d="M130.718 12.373C129.877 12.373 129.151 12.1873 128.54 11.8158C127.934 11.4405 127.466 10.9174 127.136 10.2464C126.81 9.57164 126.647 8.78695 126.647 7.89232C126.647 6.9977 126.81 6.20922 127.136 5.52687C127.466 4.84074 127.924 4.30624 128.512 3.92337C129.103 3.53671 129.793 3.34338 130.582 3.34338C131.037 3.34338 131.486 3.4192 131.929 3.57083C132.373 3.72246 132.776 3.96886 133.14 4.31003C133.504 4.64741 133.794 5.09472 134.01 5.65197C134.226 6.20922 134.334 6.89535 134.334 7.71037V8.27898H127.602V7.119H132.97C132.97 6.6262 132.871 6.18647 132.674 5.79981C132.481 5.41315 132.204 5.10799 131.844 4.88434C131.488 4.66068 131.067 4.54885 130.582 4.54885C130.047 4.54885 129.585 4.68153 129.194 4.94688C128.808 5.20845 128.51 5.54962 128.301 5.9704C128.093 6.39117 127.989 6.84228 127.989 7.32371V8.09703C127.989 8.75662 128.102 9.31576 128.33 9.77445C128.561 10.2293 128.881 10.5762 129.291 10.815C129.7 11.05 130.176 11.1676 130.718 11.1676C131.071 11.1676 131.389 11.1183 131.673 11.0197C131.961 10.9174 132.21 10.7657 132.418 10.5648C132.627 10.3601 132.788 10.1061 132.902 9.80288L134.198 10.1668C134.062 10.6065 133.832 10.9932 133.51 11.3268C133.188 11.6566 132.79 11.9143 132.316 12.1001C131.842 12.2821 131.309 12.373 130.718 12.373Z" fill="black"/>
<path d="M125.535 3.4572V4.59443H120.827V3.4572H125.535ZM122.237 12.1912V2.25173C122.237 1.75134 122.355 1.33436 122.59 1.00077C122.825 0.667178 123.13 0.416986 123.505 0.250192C123.88 0.0833972 124.277 0 124.694 0C125.023 0 125.293 0.0265357 125.501 0.079607C125.71 0.132678 125.865 0.181958 125.967 0.227447L125.581 1.38743C125.512 1.36468 125.418 1.33625 125.296 1.30213C125.179 1.26802 125.023 1.25096 124.83 1.25096C124.387 1.25096 124.066 1.36279 123.869 1.58644C123.676 1.8101 123.579 2.138 123.579 2.57015V12.1912H122.237Z" fill="black"/>
<path d="M119.765 3.4572V4.59443H115.057V3.4572H119.765ZM116.467 12.1912V2.25173C116.467 1.75134 116.585 1.33436 116.82 1.00077C117.055 0.667178 117.36 0.416986 117.735 0.250192C118.11 0.0833972 118.507 0 118.924 0C119.253 0 119.522 0.0265357 119.731 0.079607C119.939 0.132678 120.095 0.181958 120.197 0.227447L119.811 1.38743C119.742 1.36468 119.648 1.33625 119.526 1.30213C119.409 1.26802 119.253 1.25096 119.06 1.25096C118.616 1.25096 118.296 1.36279 118.099 1.58644C117.906 1.8101 117.809 2.138 117.809 2.57015V12.1912H116.467Z" fill="black"/>
<path d="M109.87 12.373C109.081 12.373 108.389 12.1854 107.794 11.8101C107.203 11.4348 106.74 10.9098 106.407 10.235C106.077 9.56027 105.912 8.77179 105.912 7.86958C105.912 6.95979 106.077 6.16562 106.407 5.48707C106.74 4.80852 107.203 4.2816 107.794 3.90631C108.389 3.53103 109.081 3.34338 109.87 3.34338C110.658 3.34338 111.348 3.53103 111.939 3.90631C112.535 4.2816 112.997 4.80852 113.327 5.48707C113.66 6.16562 113.827 6.95979 113.827 7.86958C113.827 8.77179 113.66 9.56027 113.327 10.235C112.997 10.9098 112.535 11.4348 111.939 11.8101C111.348 12.1854 110.658 12.373 109.87 12.373ZM109.87 11.1676C110.469 11.1676 110.961 11.014 111.348 10.707C111.735 10.3999 112.021 9.99621 112.207 9.49583C112.392 8.99544 112.485 8.45336 112.485 7.86958C112.485 7.2858 112.392 6.74182 112.207 6.23765C112.021 5.73347 111.735 5.32596 111.348 5.01512C110.961 4.70427 110.469 4.54885 109.87 4.54885C109.271 4.54885 108.778 4.70427 108.391 5.01512C108.005 5.32596 107.718 5.73347 107.533 6.23765C107.347 6.74182 107.254 7.2858 107.254 7.86958C107.254 8.45336 107.347 8.99544 107.533 9.49583C107.718 9.99621 108.005 10.3999 108.391 10.707C108.778 11.014 109.271 11.1676 109.87 11.1676Z" fill="black"/>
<path d="M100.925 12.373C100.107 12.373 99.4015 12.1797 98.8101 11.793C98.2187 11.4064 97.7638 10.8738 97.4454 10.1952C97.127 9.51667 96.9678 8.74146 96.9678 7.86958C96.9678 6.98254 97.1308 6.19974 97.4568 5.52119C97.7866 4.83885 98.2453 4.30624 98.8328 3.92337C99.4242 3.53671 100.114 3.34338 100.903 3.34338C101.517 3.34338 102.07 3.45711 102.563 3.68455C103.056 3.912 103.459 4.23043 103.774 4.63983C104.089 5.04924 104.284 5.52687 104.36 6.07275H103.018C102.916 5.67472 102.688 5.32217 102.336 5.01512C101.987 4.70427 101.517 4.54885 100.925 4.54885C100.402 4.54885 99.9435 4.68532 99.5493 4.95826C99.1589 5.2274 98.8537 5.60838 98.6338 6.10118C98.4178 6.59019 98.3097 7.16449 98.3097 7.82409C98.3097 8.49885 98.4159 9.08642 98.6281 9.5868C98.8442 10.0872 99.1475 10.4757 99.5379 10.7525C99.9322 11.0292 100.395 11.1676 100.925 11.1676C101.274 11.1676 101.591 11.1069 101.875 10.9856C102.159 10.8643 102.4 10.6899 102.597 10.4625C102.794 10.235 102.934 9.96209 103.018 9.64367H104.36C104.284 10.1592 104.096 10.6236 103.797 11.0368C103.501 11.4462 103.109 11.7722 102.62 12.0148C102.135 12.2536 101.57 12.373 100.925 12.373Z" fill="black"/>
<path d="M86.916 12.1911V3.45713H88.2125V4.77632H88.3035C88.4627 4.34417 88.7508 3.99352 89.1678 3.72438C89.5848 3.45523 90.0548 3.32066 90.5779 3.32066C90.6765 3.32066 90.7997 3.32256 90.9475 3.32635C91.0954 3.33014 91.2072 3.33582 91.283 3.34341V4.70809C91.2375 4.69672 91.1333 4.67966 90.9703 4.65691C90.8111 4.63038 90.6424 4.61711 90.4642 4.61711C90.0396 4.61711 89.6606 4.70619 89.327 4.88436C88.9972 5.05874 88.7356 5.30135 88.5423 5.61219C88.3527 5.91924 88.258 6.26989 88.258 6.66413V12.1911H86.916Z" fill="black"/>
<path d="M83.1163 8.62017V3.45712H84.4582V12.1911H83.1163V10.7127H83.0253C82.8206 11.1562 82.5021 11.5334 82.07 11.8442C81.6378 12.1513 81.092 12.3048 80.4324 12.3048C79.8865 12.3048 79.4013 12.1854 78.9767 11.9466C78.5522 11.704 78.2186 11.3401 77.976 10.8548C77.7333 10.3658 77.612 9.74982 77.612 9.00683V3.45712H78.954V8.91585C78.954 9.5527 79.1321 10.0607 79.4885 10.4397C79.8486 10.8188 80.3073 11.0084 80.8645 11.0084C81.1981 11.0084 81.5374 10.9231 81.8824 10.7525C82.2311 10.5819 82.523 10.3203 82.758 9.96779C82.9968 9.61525 83.1163 9.16604 83.1163 8.62017Z" fill="black"/>
<path d="M71.606 12.373C70.8175 12.373 70.1257 12.1854 69.5306 11.8101C68.9392 11.4348 68.4767 10.9098 68.1431 10.235C67.8133 9.56027 67.6484 8.77179 67.6484 7.86958C67.6484 6.95979 67.8133 6.16562 68.1431 5.48707C68.4767 4.80852 68.9392 4.2816 69.5306 3.90631C70.1257 3.53103 70.8175 3.34338 71.606 3.34338C72.3945 3.34338 73.0844 3.53103 73.6758 3.90631C74.2709 4.2816 74.7334 4.80852 75.0632 5.48707C75.3968 6.16562 75.5636 6.95979 75.5636 7.86958C75.5636 8.77179 75.3968 9.56027 75.0632 10.235C74.7334 10.9098 74.2709 11.4348 73.6758 11.8101C73.0844 12.1854 72.3945 12.373 71.606 12.373ZM71.606 11.1676C72.205 11.1676 72.6978 11.014 73.0844 10.707C73.4711 10.3999 73.7573 9.99621 73.943 9.49583C74.1288 8.99544 74.2217 8.45336 74.2217 7.86958C74.2217 7.2858 74.1288 6.74182 73.943 6.23765C73.7573 5.73347 73.4711 5.32596 73.0844 5.01512C72.6978 4.70427 72.205 4.54885 71.606 4.54885C71.0071 4.54885 70.5143 4.70427 70.1276 5.01512C69.7409 5.32596 69.4547 5.73347 69.269 6.23765C69.0832 6.74182 68.9904 7.2858 68.9904 7.86958C68.9904 8.45336 69.0832 8.99544 69.269 9.49583C69.4547 9.99621 69.7409 10.3999 70.1276 10.707C70.5143 11.014 71.0071 11.1676 71.606 11.1676Z" fill="black"/>
<path d="M60.3218 15.4663C60.0943 15.4663 59.8915 15.4474 59.7134 15.4095C59.5352 15.3753 59.412 15.3412 59.3438 15.3071L59.6849 14.1244C60.0109 14.2078 60.299 14.2381 60.5492 14.2154C60.7994 14.1926 61.0212 14.0808 61.2145 13.8799C61.4116 13.6828 61.5917 13.3624 61.7547 12.9189L62.0049 12.2366L58.7751 3.45712H60.2308L62.6417 10.417H62.7327L65.1437 3.45712H66.5993L62.8919 13.4648C62.7251 13.9159 62.5185 14.2893 62.2721 14.585C62.0257 14.8844 61.7395 15.1062 61.4135 15.2502C61.0913 15.3943 60.7274 15.4663 60.3218 15.4663Z" fill="black"/>
<path d="M49.2963 12.373C48.4547 12.373 47.7288 12.1873 47.1185 11.8158C46.512 11.4405 46.0438 10.9174 45.714 10.2464C45.388 9.57164 45.225 8.78695 45.225 7.89232C45.225 6.9977 45.388 6.20922 45.714 5.52687C46.0438 4.84074 46.5025 4.30624 47.0901 3.92337C47.6814 3.53671 48.3714 3.34338 49.1598 3.34338C49.6147 3.34338 50.0639 3.4192 50.5075 3.57083C50.951 3.72246 51.3547 3.96886 51.7186 4.31003C52.0825 4.64741 52.3725 5.09472 52.5886 5.65197C52.8047 6.20922 52.9127 6.89535 52.9127 7.71037V8.27898H46.1803V7.119H51.548C51.548 6.6262 51.4495 6.18647 51.2523 5.79981C51.059 5.41315 50.7823 5.10799 50.4222 4.88434C50.0658 4.66068 49.6451 4.54885 49.1598 4.54885C48.6253 4.54885 48.1629 4.68153 47.7724 4.94688C47.3857 5.20845 47.0882 5.54962 46.8797 5.9704C46.6712 6.39117 46.5669 6.84228 46.5669 7.32371V8.09703C46.5669 8.75662 46.6807 9.31576 46.9081 9.77445C47.1393 10.2293 47.4597 10.5762 47.8691 10.815C48.2785 11.05 48.7542 11.1676 49.2963 11.1676C49.6488 11.1676 49.9673 11.1183 50.2516 11.0197C50.5397 10.9174 50.788 10.7657 50.9965 10.5648C51.205 10.3601 51.3661 10.1061 51.4798 9.80288L52.7762 10.1668C52.6398 10.6065 52.4104 10.9932 52.0882 11.3268C51.766 11.6566 51.368 11.9143 50.8941 12.1001C50.4203 12.2821 49.8877 12.373 49.2963 12.373Z" fill="black"/>
<path d="M43.7096 3.45708V4.59432H39.1834V3.45708H43.7096ZM40.5026 1.36457H41.8446V9.68913C41.8446 10.0682 41.8995 10.3525 42.0095 10.5421C42.1232 10.7278 42.2672 10.8529 42.4416 10.9173C42.6198 10.978 42.8074 11.0083 43.0046 11.0083C43.1524 11.0083 43.2737 11.0007 43.3685 10.9856C43.4632 10.9666 43.5391 10.9515 43.5959 10.9401L43.8689 12.1456C43.7779 12.1797 43.6509 12.2138 43.4879 12.2479C43.3249 12.2858 43.1183 12.3048 42.8681 12.3048C42.489 12.3048 42.1175 12.2233 41.7536 12.0603C41.3935 11.8973 41.094 11.649 40.8552 11.3154C40.6202 10.9818 40.5026 10.561 40.5026 10.053V1.36457Z" fill="black"/>
<path d="M33.4589 12.3958C32.9054 12.3958 32.4031 12.2915 31.952 12.083C31.5009 11.8708 31.1427 11.5656 30.8774 11.1676C30.612 10.7657 30.4793 10.2805 30.4793 9.7119C30.4793 9.21152 30.5779 8.8059 30.775 8.49506C30.9721 8.18042 31.2356 7.93402 31.5654 7.75586C31.8952 7.57769 32.2591 7.44501 32.6571 7.35782C33.059 7.26684 33.4627 7.19482 33.8683 7.14175C34.399 7.07351 34.8292 7.02234 35.159 6.98822C35.4926 6.95031 35.7352 6.88777 35.8869 6.80058C36.0423 6.71339 36.12 6.56176 36.12 6.34568V6.30019C36.12 5.73916 35.9665 5.30322 35.6594 4.99237C35.3562 4.68153 34.8956 4.52611 34.2777 4.52611C33.637 4.52611 33.1348 4.66637 32.7709 4.94688C32.4069 5.2274 32.1511 5.52687 32.0032 5.8453L30.7295 5.39041C30.957 4.8597 31.2602 4.4465 31.6393 4.15082C32.0222 3.85135 32.4392 3.64285 32.8903 3.52534C33.3452 3.40404 33.7925 3.34338 34.2322 3.34338C34.5127 3.34338 34.8349 3.3775 35.1989 3.44573C35.5666 3.51018 35.921 3.64475 36.2622 3.84945C36.6071 4.05415 36.8933 4.3631 37.1208 4.7763C37.3482 5.18949 37.4619 5.74295 37.4619 6.43666V12.1911H36.12V11.0083H36.0518C35.9608 11.1979 35.8092 11.4007 35.5969 11.6168C35.3846 11.8328 35.1022 12.0167 34.7496 12.1683C34.3971 12.32 33.9668 12.3958 33.4589 12.3958ZM33.6636 11.1903C34.1943 11.1903 34.6416 11.0861 35.0055 10.8776C35.3732 10.6691 35.65 10.3999 35.8357 10.0701C36.0252 9.74033 36.12 9.39347 36.12 9.02956V7.80134C36.0631 7.86958 35.9381 7.93213 35.7447 7.98899C35.5552 8.04206 35.3353 8.08944 35.0851 8.13114C34.8387 8.16905 34.598 8.20317 34.363 8.23349C34.1317 8.26003 33.9441 8.28277 33.8001 8.30173C33.4513 8.34722 33.1253 8.42114 32.822 8.52349C32.5226 8.62205 32.2799 8.77179 32.0942 8.9727C31.9122 9.16982 31.8213 9.43896 31.8213 9.78013C31.8213 10.2464 31.9937 10.5989 32.3387 10.8378C32.6875 11.0728 33.1291 11.1903 33.6636 11.1903Z" fill="black"/>
<path d="M29.3833 3.45712L26.1536 12.1911H24.7889L21.5591 3.45712H23.0148L25.4257 10.417H25.5167L27.9276 3.45712H29.3833Z" fill="black"/>
<path d="M16.8496 12.373C16.008 12.373 15.2821 12.1873 14.6718 11.8158C14.0652 11.4405 13.5971 10.9174 13.2673 10.2464C12.9413 9.57164 12.7783 8.78695 12.7783 7.89232C12.7783 6.9977 12.9413 6.20922 13.2673 5.52687C13.5971 4.84074 14.0558 4.30624 14.6433 3.92337C15.2347 3.53671 15.9246 3.34338 16.7131 3.34338C17.168 3.34338 17.6172 3.4192 18.0607 3.57083C18.5042 3.72246 18.908 3.96886 19.2719 4.31003C19.6358 4.64741 19.9258 5.09472 20.1419 5.65197C20.3579 6.20922 20.466 6.89535 20.466 7.71037V8.27898H13.7335V7.119H19.1013C19.1013 6.6262 19.0027 6.18647 18.8056 5.79981C18.6123 5.41315 18.3355 5.10799 17.9754 4.88434C17.6191 4.66068 17.1983 4.54885 16.7131 4.54885C16.1786 4.54885 15.7161 4.68153 15.3257 4.94688C14.939 5.20845 14.6414 5.54962 14.4329 5.9704C14.2244 6.39117 14.1202 6.84228 14.1202 7.32371V8.09703C14.1202 8.75662 14.2339 9.31576 14.4614 9.77445C14.6926 10.2293 15.0129 10.5762 15.4223 10.815C15.8317 11.05 16.3075 11.1676 16.8496 11.1676C17.2021 11.1676 17.5205 11.1183 17.8048 11.0197C18.0929 10.9174 18.3412 10.7657 18.5497 10.5648C18.7582 10.3601 18.9193 10.1061 19.0331 9.80288L20.3295 10.1668C20.193 10.6065 19.9637 10.9932 19.6415 11.3268C19.3193 11.6566 18.9212 11.9143 18.4474 12.1001C17.9735 12.2821 17.4409 12.373 16.8496 12.373Z" fill="black"/>
<path d="M10.7298 0.545828V12.1911H9.38787V0.545828H10.7298Z" fill="black"/>
<path d="M0 12.1911V0.545828H7.02811V1.79679H1.41017V5.73162H6.6642V6.98258H1.41017V10.9402H7.11909V12.1911H0Z" fill="black"/>
</svg>
