<svg width="117" height="110" viewBox="0 0 117 110" fill="none" xmlns="http://www.w3.org/2000/svg">
<path fill-rule="evenodd" clip-rule="evenodd" d="M117 92.205C104.589 103.093 88.324 109.693 70.5171 109.693C31.5716 109.693 0 78.1212 0 39.1757C0 24.6796 4.37406 11.2051 11.8744 0H108.07C113.002 0 117 3.9983 117 8.93045V92.205Z" fill="white" fill-opacity="0.11"/>
<path d="M33.0313 49.6064C33.0313 33.2687 46.2757 20.0243 62.6134 20.0243H92.1955V49.6064C92.1955 65.9442 78.9512 79.1885 62.6134 79.1885C46.2757 79.1885 33.0313 65.9442 33.0313 49.6064Z" fill="#69696C"/>
<path d="M72.7739 56.8137C72.7739 57.9022 72.3415 58.9462 71.5717 59.716C70.802 60.4857 69.758 60.9181 68.6694 60.9181C67.5809 60.9181 66.5369 60.4857 65.7671 59.716C64.9974 58.9462 64.565 57.9022 64.565 56.8137C64.566 56.485 64.6093 56.1579 64.694 55.8403L58.549 52.7796C57.7967 53.4874 56.8027 53.8816 55.7697 53.8819C54.6812 53.8819 53.6372 53.4495 52.8674 52.6798C52.0977 51.91 51.6653 50.866 51.6653 49.7775C51.6653 48.6889 52.0977 47.6449 52.8674 46.8752C53.6372 46.1054 54.6812 45.673 55.7697 45.673C56.8027 45.6733 57.7967 46.0675 58.549 46.7753L64.694 43.7146C64.6093 43.397 64.566 43.0699 64.565 42.7413C64.565 41.9295 64.8057 41.1359 65.2567 40.4609C65.7077 39.786 66.3487 39.2599 67.0987 38.9492C67.8487 38.6386 68.674 38.5573 69.4702 38.7157C70.2664 38.874 70.9977 39.265 71.5717 39.839C72.1457 40.413 72.5367 41.1443 72.695 41.9405C72.8534 42.7367 72.7721 43.562 72.4615 44.312C72.1508 45.062 71.6247 45.703 70.9497 46.154C70.2748 46.605 69.4812 46.8457 68.6694 46.8457C67.6365 46.8454 66.6425 46.4512 65.8901 45.7434L59.7452 48.8041C59.917 49.4416 59.917 50.1133 59.7452 50.7508L65.8901 53.8116C66.6425 53.1037 67.6365 52.7095 68.6694 52.7092C69.758 52.7092 70.802 53.1416 71.5717 53.9114C72.3415 54.6811 72.7739 55.7251 72.7739 56.8137Z" fill="white"/>
</svg>
