<svg width="392" height="25" viewBox="0 0 392 25" fill="none" xmlns="http://www.w3.org/2000/svg">
<path d="M391.707 9.04256L388.772 9.36266C388.689 9.06628 388.544 8.78768 388.337 8.52686C388.135 8.26604 387.862 8.05561 387.519 7.89556C387.175 7.73551 386.754 7.65549 386.256 7.65549C385.586 7.65549 385.023 7.80072 384.567 8.09117C384.116 8.38163 383.894 8.75804 383.9 9.2204C383.894 9.61755 384.039 9.94061 384.336 10.1896C384.638 10.4385 385.136 10.643 385.829 10.8031L388.159 11.301C389.451 11.5796 390.411 12.0212 391.04 12.6258C391.674 13.2305 391.994 14.0218 392 14.9999C391.994 15.8594 391.742 16.6181 391.244 17.2761C390.752 17.9281 390.068 18.4379 389.19 18.8054C388.313 19.173 387.305 19.3567 386.167 19.3567C384.496 19.3567 383.15 19.007 382.13 18.3075C381.111 17.6021 380.503 16.6211 380.308 15.3644L383.446 15.0621C383.589 15.6786 383.891 16.1439 384.353 16.4581C384.816 16.7723 385.417 16.9293 386.158 16.9293C386.923 16.9293 387.536 16.7723 387.999 16.4581C388.467 16.1439 388.701 15.7557 388.701 15.2933C388.701 14.9021 388.55 14.579 388.248 14.3241C387.951 14.0692 387.489 13.8736 386.861 13.7373L384.531 13.2482C383.221 12.9756 382.252 12.5162 381.624 11.8701C380.995 11.218 380.684 10.3941 380.69 9.39823C380.684 8.5565 380.912 7.82739 381.375 7.21091C381.843 6.58851 382.492 6.10837 383.322 5.77049C384.158 5.42668 385.121 5.25478 386.212 5.25478C387.812 5.25478 389.072 5.59562 389.991 6.27731C390.915 6.95899 391.487 7.88074 391.707 9.04256Z" fill="black"/>
<path d="M370.209 19.3301C369.136 19.3301 368.176 19.0545 367.328 18.5032C366.481 17.952 365.811 17.1517 365.319 16.1025C364.827 15.0533 364.581 13.7789 364.581 12.2792C364.581 10.7617 364.83 9.48131 365.328 8.43804C365.832 7.38885 366.51 6.5975 367.364 6.06401C368.217 5.52459 369.169 5.25488 370.218 5.25488C371.018 5.25488 371.676 5.39122 372.192 5.66389C372.708 5.93064 373.117 6.2537 373.419 6.63307C373.721 7.00651 373.955 7.35921 374.121 7.69116H374.255V0.880259H377.482V19.0901H374.317V16.9383H374.121C373.955 17.2703 373.715 17.623 373.401 17.9964C373.087 18.3639 372.672 18.6781 372.156 18.9389C371.641 19.1997 370.992 19.3301 370.209 19.3301ZM371.107 16.6894C371.789 16.6894 372.37 16.5056 372.85 16.1381C373.33 15.7646 373.695 15.246 373.944 14.5821C374.193 13.9182 374.317 13.1446 374.317 12.2614C374.317 11.3782 374.193 10.6105 373.944 9.95849C373.701 9.30645 373.339 8.79963 372.859 8.43804C372.385 8.07646 371.801 7.89566 371.107 7.89566C370.39 7.89566 369.791 8.08238 369.311 8.45583C368.831 8.82927 368.469 9.34498 368.226 10.0029C367.983 10.6609 367.862 11.4137 367.862 12.2614C367.862 13.115 367.983 13.8767 368.226 14.5465C368.475 15.2104 368.84 15.735 369.32 16.1203C369.806 16.4997 370.402 16.6894 371.107 16.6894Z" fill="black"/>
<path d="M353.102 11.0876V19.09H349.883V5.43261H352.96V7.7533H353.12C353.434 6.98863 353.935 6.38104 354.622 5.93054C355.316 5.48003 356.172 5.25478 357.192 5.25478C358.134 5.25478 358.955 5.45632 359.655 5.8594C360.36 6.26249 360.906 6.84636 361.291 7.61103C361.682 8.3757 361.875 9.30338 361.869 10.3941V19.09H358.65V10.892C358.65 9.97914 358.413 9.26485 357.939 8.74915C357.471 8.23344 356.821 7.97558 355.992 7.97558C355.428 7.97558 354.928 8.10006 354.489 8.34903C354.056 8.59206 353.715 8.94476 353.466 9.40712C353.223 9.86948 353.102 10.4296 353.102 11.0876Z" fill="black"/>
<path d="M343.355 19.0901V5.43271H346.573V19.0901H343.355ZM344.973 3.49436C344.463 3.49436 344.024 3.32543 343.657 2.98755C343.289 2.64374 343.106 2.23177 343.106 1.75163C343.106 1.26556 343.289 0.853585 343.657 0.515707C344.024 0.171903 344.463 0 344.973 0C345.489 0 345.927 0.171903 346.289 0.515707C346.656 0.853585 346.84 1.26556 346.84 1.75163C346.84 2.23177 346.656 2.64374 346.289 2.98755C345.927 3.32543 345.489 3.49436 344.973 3.49436Z" fill="black"/>
<path d="M328.826 19.0901V0.880259H340.491V3.64552H332.125V8.5892H339.691V11.3545H332.125V19.0901H328.826Z" fill="black"/>
<path d="M310.434 11.0876V19.09H307.215V5.43261H310.291V7.7533H310.452C310.766 6.98863 311.267 6.38104 311.954 5.93054C312.648 5.48003 313.504 5.25478 314.524 5.25478C315.466 5.25478 316.287 5.45632 316.987 5.8594C317.692 6.26249 318.237 6.84636 318.623 7.61103C319.014 8.3757 319.207 9.30338 319.201 10.3941V19.09H315.982V10.892C315.982 9.97914 315.745 9.26485 315.271 8.74915C314.802 8.23344 314.153 7.97558 313.323 7.97558C312.76 7.97558 312.259 8.10006 311.821 8.34903C311.388 8.59206 311.047 8.94476 310.798 9.40712C310.555 9.86948 310.434 10.4296 310.434 11.0876Z" fill="black"/>
<path d="M297.939 19.3567C296.605 19.3567 295.449 19.0633 294.471 18.4765C293.493 17.8896 292.734 17.0686 292.195 16.0135C291.662 14.9584 291.395 13.7254 291.395 12.3146C291.395 10.9039 291.662 9.66793 292.195 8.60688C292.734 7.54583 293.493 6.72188 294.471 6.13504C295.449 5.5482 296.605 5.25478 297.939 5.25478C299.273 5.25478 300.429 5.5482 301.407 6.13504C302.385 6.72188 303.14 7.54583 303.674 8.60688C304.213 9.66793 304.483 10.9039 304.483 12.3146C304.483 13.7254 304.213 14.9584 303.674 16.0135C303.14 17.0686 302.385 17.8896 301.407 18.4765C300.429 19.0633 299.273 19.3567 297.939 19.3567ZM297.957 16.7782C298.68 16.7782 299.284 16.5796 299.771 16.1824C300.257 15.7794 300.618 15.2399 300.855 14.5642C301.098 13.8884 301.22 13.1356 301.22 12.3057C301.22 11.4699 301.098 10.7142 300.855 10.0384C300.618 9.35673 300.257 8.81435 299.771 8.41127C299.284 8.00819 298.68 7.80664 297.957 7.80664C297.216 7.80664 296.599 8.00819 296.107 8.41127C295.621 8.81435 295.257 9.35673 295.014 10.0384C294.777 10.7142 294.658 11.4699 294.658 12.3057C294.658 13.1356 294.777 13.8884 295.014 14.5642C295.257 15.2399 295.621 15.7794 296.107 16.1824C296.599 16.5796 297.216 16.7782 297.957 16.7782Z" fill="black"/>
<path d="M285.453 19.0901V5.43271H288.672V19.0901H285.453ZM287.071 3.49436C286.562 3.49436 286.123 3.32543 285.755 2.98755C285.388 2.64374 285.204 2.23177 285.204 1.75163C285.204 1.26556 285.388 0.853585 285.755 0.515707C286.123 0.171903 286.562 0 287.071 0C287.587 0 288.026 0.171903 288.387 0.515707C288.755 0.853585 288.938 1.26556 288.938 1.75163C288.938 2.23177 288.755 2.64374 288.387 2.98755C288.026 3.32543 287.587 3.49436 287.071 3.49436Z" fill="black"/>
<path d="M273.316 11.0877V19.0901H270.097V0.880259H273.245V7.7534H273.405C273.725 6.9828 274.22 6.37521 274.89 5.93064C275.566 5.48013 276.425 5.25488 277.468 5.25488C278.417 5.25488 279.244 5.45346 279.949 5.85061C280.655 6.24777 281.2 6.82868 281.585 7.59335C281.976 8.35802 282.172 9.29163 282.172 10.3942V19.0901H278.953V10.8921C278.953 9.97331 278.716 9.25903 278.242 8.74925C277.774 8.23354 277.116 7.97568 276.268 7.97568C275.699 7.97568 275.189 8.10017 274.739 8.34913C274.294 8.59216 273.944 8.94486 273.69 9.40722C273.441 9.86958 273.316 10.4297 273.316 11.0877Z" fill="black"/>
<path d="M267.15 9.04256L264.216 9.36266C264.133 9.06628 263.987 8.78768 263.78 8.52686C263.578 8.26604 263.306 8.05561 262.962 7.89556C262.618 7.73551 262.197 7.65549 261.699 7.65549C261.03 7.65549 260.466 7.80072 260.01 8.09117C259.559 8.38163 259.337 8.75804 259.343 9.2204C259.337 9.61755 259.482 9.94061 259.779 10.1896C260.081 10.4385 260.579 10.643 261.273 10.8031L263.602 11.301C264.894 11.5796 265.855 12.0212 266.483 12.6258C267.117 13.2305 267.437 14.0218 267.443 14.9999C267.437 15.8594 267.185 16.6181 266.687 17.2761C266.195 17.9281 265.511 18.4379 264.634 18.8054C263.756 19.173 262.749 19.3567 261.61 19.3567C259.939 19.3567 258.593 19.007 257.574 18.3075C256.554 17.6021 255.947 16.6211 255.751 15.3644L258.89 15.0621C259.032 15.6786 259.334 16.1439 259.797 16.4581C260.259 16.7723 260.861 16.9293 261.602 16.9293C262.366 16.9293 262.98 16.7723 263.442 16.4581C263.91 16.1439 264.145 15.7557 264.145 15.2933C264.145 14.9021 263.993 14.579 263.691 14.3241C263.395 14.0692 262.932 13.8736 262.304 13.7373L259.974 13.2482C258.664 12.9756 257.695 12.5162 257.067 11.8701C256.439 11.218 256.127 10.3941 256.133 9.39823C256.127 8.5565 256.356 7.82739 256.818 7.21091C257.286 6.58851 257.935 6.10837 258.765 5.77049C259.601 5.42668 260.564 5.25478 261.655 5.25478C263.255 5.25478 264.515 5.59562 265.434 6.27731C266.359 6.95899 266.931 7.88074 267.15 9.04256Z" fill="black"/>
<path d="M245.908 19.3656C245.043 19.3656 244.263 19.2115 243.57 18.9033C242.882 18.5891 242.337 18.1267 241.934 17.5162C241.536 16.9056 241.338 16.1528 241.338 15.2577C241.338 14.4871 241.48 13.8499 241.765 13.3461C242.049 12.8422 242.437 12.4391 242.929 12.1368C243.421 11.8345 243.976 11.6063 244.592 11.4522C245.215 11.2921 245.858 11.1765 246.522 11.1054C247.322 11.0224 247.971 10.9483 248.469 10.8831C248.967 10.812 249.328 10.7053 249.554 10.563C249.785 10.4148 249.9 10.1866 249.9 9.87837V9.82502C249.9 9.15519 249.702 8.63652 249.305 8.269C248.907 7.90149 248.335 7.71773 247.589 7.71773C246.8 7.71773 246.175 7.88963 245.712 8.23344C245.256 8.57724 244.948 8.98329 244.788 9.45157L241.782 9.02478C242.02 8.19491 242.411 7.50137 242.956 6.94417C243.501 6.38104 244.168 5.96017 244.957 5.68157C245.745 5.39705 246.616 5.25478 247.571 5.25478C248.229 5.25478 248.884 5.33184 249.536 5.48596C250.188 5.64008 250.784 5.89497 251.323 6.25063C251.862 6.60036 252.295 7.07754 252.621 7.68216C252.953 8.28679 253.119 9.04256 253.119 9.9495V19.09H250.025V17.2139H249.918C249.723 17.5932 249.447 17.9489 249.091 18.2808C248.741 18.6069 248.3 18.8706 247.766 19.0722C247.239 19.2678 246.619 19.3656 245.908 19.3656ZM246.744 17.0005C247.39 17.0005 247.95 16.873 248.424 16.6181C248.899 16.3573 249.263 16.0135 249.518 15.5867C249.779 15.1599 249.909 14.6946 249.909 14.1907V12.5814C249.808 12.6644 249.637 12.7414 249.394 12.8126C249.156 12.8837 248.89 12.9459 248.593 12.9993C248.297 13.0526 248.004 13.1001 247.713 13.1416C247.423 13.183 247.171 13.2186 246.957 13.2482C246.477 13.3135 246.047 13.4202 245.668 13.5683C245.289 13.7165 244.989 13.924 244.77 14.1907C244.551 14.4516 244.441 14.7894 244.441 15.2044C244.441 15.7971 244.657 16.2447 245.09 16.547C245.523 16.8493 246.074 17.0005 246.744 17.0005Z" fill="black"/>
<path d="M227.572 19.0901V0.880259H239.237V3.64552H230.87V8.5892H238.437V11.3545H230.87V19.0901H227.572Z" fill="black"/>
<path d="M218.175 16.6003L218.06 17.5784C217.977 18.3253 217.829 19.084 217.615 19.8546C217.408 20.6312 217.188 21.3455 216.957 21.9975C216.726 22.6495 216.539 23.1623 216.397 23.5357H214.228C214.311 23.1741 214.423 22.6821 214.565 22.0597C214.714 21.4373 214.856 20.7379 214.992 19.9613C215.129 19.1848 215.22 18.3964 215.268 17.5962L215.33 16.6003H218.175Z" fill="black"/>
<path d="M211.449 9.04256L208.515 9.36266C208.432 9.06628 208.287 8.78768 208.079 8.52686C207.878 8.26604 207.605 8.05561 207.261 7.89556C206.917 7.73551 206.496 7.65549 205.999 7.65549C205.329 7.65549 204.766 7.80072 204.309 8.09117C203.859 8.38163 203.636 8.75804 203.642 9.2204C203.636 9.61755 203.782 9.94061 204.078 10.1896C204.38 10.4385 204.878 10.643 205.572 10.8031L207.901 11.301C209.194 11.5796 210.154 12.0212 210.782 12.6258C211.416 13.2305 211.737 14.0218 211.742 14.9999C211.737 15.8594 211.485 16.6181 210.987 17.2761C210.495 17.9281 209.81 18.4379 208.933 18.8054C208.055 19.173 207.048 19.3567 205.91 19.3567C204.238 19.3567 202.892 19.007 201.873 18.3075C200.853 17.6021 200.246 16.6211 200.05 15.3644L203.189 15.0621C203.331 15.6786 203.633 16.1439 204.096 16.4581C204.558 16.7723 205.16 16.9293 205.901 16.9293C206.665 16.9293 207.279 16.7723 207.741 16.4581C208.21 16.1439 208.444 15.7557 208.444 15.2933C208.444 14.9021 208.293 14.579 207.99 14.3241C207.694 14.0692 207.231 13.8736 206.603 13.7373L204.274 13.2482C202.964 12.9756 201.994 12.5162 201.366 11.8701C200.738 11.218 200.426 10.3941 200.432 9.39823C200.426 8.5565 200.655 7.82739 201.117 7.21091C201.585 6.58851 202.234 6.10837 203.064 5.77049C203.9 5.42668 204.863 5.25478 205.954 5.25478C207.555 5.25478 208.814 5.59562 209.733 6.27731C210.658 6.95899 211.23 7.88074 211.449 9.04256Z" fill="black"/>
<path d="M197.345 0.880259V19.0901H194.126V0.880259H197.345Z" fill="black"/>
<path d="M183.679 19.3656C182.813 19.3656 182.034 19.2115 181.34 18.9033C180.653 18.5891 180.107 18.1267 179.704 17.5162C179.307 16.9056 179.108 16.1528 179.108 15.2577C179.108 14.4871 179.251 13.8499 179.535 13.3461C179.82 12.8422 180.208 12.4391 180.7 12.1368C181.192 11.8345 181.746 11.6063 182.363 11.4522C182.985 11.2921 183.628 11.1765 184.292 11.1054C185.092 11.0224 185.741 10.9483 186.239 10.8831C186.737 10.812 187.099 10.7053 187.324 10.563C187.555 10.4148 187.671 10.1866 187.671 9.87837V9.82502C187.671 9.15519 187.472 8.63652 187.075 8.269C186.678 7.90149 186.106 7.71773 185.359 7.71773C184.571 7.71773 183.945 7.88963 183.483 8.23344C183.027 8.57724 182.718 8.98329 182.558 9.45157L179.553 9.02478C179.79 8.19491 180.181 7.50137 180.727 6.94417C181.272 6.38104 181.939 5.96017 182.727 5.68157C183.516 5.39705 184.387 5.25478 185.341 5.25478C185.999 5.25478 186.654 5.33184 187.306 5.48596C187.958 5.64008 188.554 5.89497 189.094 6.25063C189.633 6.60036 190.066 7.07754 190.392 7.68216C190.724 8.28679 190.89 9.04256 190.89 9.9495V19.09H187.795V17.2139H187.689C187.493 17.5932 187.217 17.9489 186.862 18.2808C186.512 18.6069 186.07 18.8706 185.537 19.0722C185.009 19.2678 184.39 19.3656 183.679 19.3656ZM184.514 17.0005C185.161 17.0005 185.721 16.873 186.195 16.6181C186.669 16.3573 187.034 16.0135 187.289 15.5867C187.549 15.1599 187.68 14.6946 187.68 14.1907V12.5814C187.579 12.6644 187.407 12.7414 187.164 12.8126C186.927 12.8837 186.66 12.9459 186.364 12.9993C186.067 13.0526 185.774 13.1001 185.484 13.1416C185.193 13.183 184.941 13.2186 184.728 13.2482C184.248 13.3135 183.818 13.4202 183.439 13.5683C183.059 13.7165 182.76 13.924 182.54 14.1907C182.321 14.4516 182.211 14.7894 182.211 15.2044C182.211 15.7971 182.428 16.2447 182.861 16.547C183.293 16.8493 183.845 17.0005 184.514 17.0005Z" fill="black"/>
<path d="M173.22 19.0901V5.43271H176.439V19.0901H173.22ZM174.838 3.49436C174.328 3.49436 173.89 3.32543 173.522 2.98755C173.155 2.64374 172.971 2.23177 172.971 1.75163C172.971 1.26556 173.155 0.853585 173.522 0.515707C173.89 0.171903 174.328 0 174.838 0C175.354 0 175.793 0.171903 176.154 0.515707C176.522 0.853585 176.705 1.26556 176.705 1.75163C176.705 2.23177 176.522 2.64374 176.154 2.98755C175.793 3.32543 175.354 3.49436 174.838 3.49436Z" fill="black"/>
<path d="M170.528 5.43262V7.92225H162.677V5.43262H170.528ZM164.615 2.16055H167.834V14.9821C167.834 15.4148 167.899 15.7468 168.03 15.978C168.166 16.2032 168.344 16.3573 168.563 16.4403C168.782 16.5233 169.025 16.5648 169.292 16.5648C169.494 16.5648 169.677 16.55 169.843 16.5203C170.015 16.4907 170.146 16.464 170.235 16.4403L170.777 18.9566C170.605 19.0159 170.359 19.0811 170.039 19.1522C169.725 19.2234 169.34 19.2648 168.883 19.2767C168.077 19.3004 167.351 19.1789 166.705 18.9122C166.059 18.6395 165.546 18.2186 165.166 17.6496C164.793 17.0805 164.609 16.3692 164.615 15.5156V2.16055Z" fill="black"/>
<path d="M151.669 11.0876V19.09H148.45V5.43261H151.527V7.7533H151.687C152.001 6.98863 152.502 6.38104 153.19 5.93054C153.883 5.48003 154.74 5.25478 155.759 5.25478C156.702 5.25478 157.523 5.45632 158.222 5.8594C158.928 6.26249 159.473 6.84636 159.858 7.61103C160.249 8.3757 160.442 9.30338 160.436 10.3941V19.09H157.217V10.892C157.217 9.97914 156.98 9.26485 156.506 8.74915C156.038 8.23344 155.389 7.97558 154.559 7.97558C153.996 7.97558 153.495 8.10006 153.056 8.34903C152.624 8.59206 152.283 8.94476 152.034 9.40712C151.791 9.86948 151.669 10.4296 151.669 11.0876Z" fill="black"/>
<path d="M139.655 19.3567C138.285 19.3567 137.103 19.0722 136.107 18.5031C135.117 17.9281 134.355 17.1161 133.822 16.0669C133.288 15.0117 133.021 13.7699 133.021 12.3413C133.021 10.9365 133.288 9.7035 133.822 8.64245C134.361 7.57547 135.114 6.74559 136.08 6.15282C137.046 5.55413 138.181 5.25478 139.486 5.25478C140.327 5.25478 141.122 5.39112 141.868 5.66379C142.621 5.93054 143.285 6.34547 143.86 6.9086C144.441 7.47173 144.898 8.18898 145.229 9.06035C145.561 9.92579 145.727 10.9572 145.727 12.1546V13.1416H134.533V10.972H142.642C142.636 10.3555 142.503 9.80723 142.242 9.32709C141.981 8.84102 141.617 8.45869 141.148 8.18009C140.686 7.90149 140.147 7.76219 139.53 7.76219C138.872 7.76219 138.294 7.92224 137.796 8.24233C137.298 8.5565 136.91 8.97143 136.631 9.48714C136.359 9.99692 136.219 10.5571 136.213 11.1676V13.0615C136.213 13.8558 136.359 14.5375 136.649 15.1066C136.94 15.6697 137.346 16.1024 137.867 16.4047C138.389 16.7011 139 16.8493 139.699 16.8493C140.167 16.8493 140.591 16.7841 140.97 16.6537C141.35 16.5174 141.679 16.3188 141.957 16.058C142.236 15.7971 142.446 15.4741 142.589 15.0888L145.594 15.4267C145.404 16.221 145.043 16.9145 144.509 17.5073C143.982 18.0941 143.306 18.5506 142.482 18.8766C141.658 19.1967 140.716 19.3567 139.655 19.3567Z" fill="black"/>
<path d="M130.661 9.04256L127.727 9.36266C127.644 9.06628 127.498 8.78768 127.291 8.52686C127.089 8.26604 126.817 8.05561 126.473 7.89556C126.129 7.73551 125.708 7.65549 125.21 7.65549C124.54 7.65549 123.977 7.80072 123.521 8.09117C123.07 8.38163 122.848 8.75804 122.854 9.2204C122.848 9.61755 122.993 9.94061 123.29 10.1896C123.592 10.4385 124.09 10.643 124.783 10.8031L127.113 11.301C128.405 11.5796 129.366 12.0212 129.994 12.6258C130.628 13.2305 130.948 14.0218 130.954 14.9999C130.948 15.8594 130.696 16.6181 130.198 17.2761C129.706 17.9281 129.022 18.4379 128.144 18.8054C127.267 19.173 126.259 19.3567 125.121 19.3567C123.45 19.3567 122.104 19.007 121.085 18.3075C120.065 17.6021 119.457 16.6211 119.262 15.3644L122.401 15.0621C122.543 15.6786 122.845 16.1439 123.307 16.4581C123.77 16.7723 124.371 16.9293 125.112 16.9293C125.877 16.9293 126.491 16.7723 126.953 16.4581C127.421 16.1439 127.655 15.7557 127.655 15.2933C127.655 14.9021 127.504 14.579 127.202 14.3241C126.906 14.0692 126.443 13.8736 125.815 13.7373L123.485 13.2482C122.175 12.9756 121.206 12.5162 120.578 11.8701C119.949 11.218 119.638 10.3941 119.644 9.39823C119.638 8.5565 119.866 7.82739 120.329 7.21091C120.797 6.58851 121.446 6.10837 122.276 5.77049C123.112 5.42668 124.075 5.25478 125.166 5.25478C126.766 5.25478 128.026 5.59562 128.945 6.27731C129.869 6.95899 130.441 7.88074 130.661 9.04256Z" fill="black"/>
<path d="M116.919 9.04256L113.985 9.36266C113.902 9.06628 113.756 8.78768 113.549 8.52686C113.347 8.26604 113.075 8.05561 112.731 7.89556C112.387 7.73551 111.966 7.65549 111.468 7.65549C110.799 7.65549 110.235 7.80072 109.779 8.09117C109.329 8.38163 109.106 8.75804 109.112 9.2204C109.106 9.61755 109.251 9.94061 109.548 10.1896C109.85 10.4385 110.348 10.643 111.042 10.8031L113.371 11.301C114.663 11.5796 115.624 12.0212 116.252 12.6258C116.886 13.2305 117.206 14.0218 117.212 14.9999C117.206 15.8594 116.954 16.6181 116.457 17.2761C115.965 17.9281 115.28 18.4379 114.403 18.8054C113.525 19.173 112.518 19.3567 111.38 19.3567C109.708 19.3567 108.362 19.007 107.343 18.3075C106.323 17.6021 105.716 16.6211 105.52 15.3644L108.659 15.0621C108.801 15.6786 109.103 16.1439 109.566 16.4581C110.028 16.7723 110.63 16.9293 111.371 16.9293C112.135 16.9293 112.749 16.7723 113.211 16.4581C113.679 16.1439 113.914 15.7557 113.914 15.2933C113.914 14.9021 113.762 14.579 113.46 14.3241C113.164 14.0692 112.701 13.8736 112.073 13.7373L109.743 13.2482C108.433 12.9756 107.464 12.5162 106.836 11.8701C106.208 11.218 105.896 10.3941 105.902 9.39823C105.896 8.5565 106.125 7.82739 106.587 7.21091C107.055 6.58851 107.704 6.10837 108.534 5.77049C109.37 5.42668 110.333 5.25478 111.424 5.25478C113.024 5.25478 114.284 5.59562 115.203 6.27731C116.128 6.95899 116.7 7.88074 116.919 9.04256Z" fill="black"/>
<path d="M91.058 19.0901V0.880259H102.901V3.64552H94.3567V8.5892H102.288V11.3545H94.3567V16.3248H102.973V19.0901H91.058Z" fill="black"/>
<path d="M72.2791 24.2115C71.8404 24.2115 71.4344 24.176 71.0609 24.1048C70.6934 24.0396 70.4 23.9626 70.1807 23.8737L70.9276 21.3663C71.3959 21.5026 71.8138 21.5678 72.1813 21.5619C72.5488 21.5559 72.8718 21.4403 73.1505 21.2151C73.435 20.9958 73.675 20.6283 73.8707 20.1126L74.1463 19.3746L69.1937 5.43267H72.6081L75.7557 15.7468H75.8979L79.0544 5.43267H82.4776L77.0094 20.7438C76.7545 21.467 76.4166 22.0865 75.9957 22.6022C75.5749 23.1238 75.0592 23.521 74.4486 23.7936C73.844 24.0722 73.1208 24.2115 72.2791 24.2115Z" fill="black"/>
<path d="M67.5866 5.43262V7.92225H59.7354V5.43262H67.5866ZM61.6737 2.16055H64.8925V14.9821C64.8925 15.4148 64.9577 15.7468 65.0881 15.978C65.2244 16.2032 65.4022 16.3573 65.6216 16.4403C65.8409 16.5233 66.0839 16.5648 66.3507 16.5648C66.5522 16.5648 66.736 16.55 66.9019 16.5203C67.0739 16.4907 67.2043 16.464 67.2932 16.4403L67.8356 18.9566C67.6636 19.0159 67.4177 19.0811 67.0976 19.1522C66.7834 19.2234 66.3981 19.2648 65.9417 19.2767C65.1355 19.3004 64.4094 19.1789 63.7632 18.9122C63.1171 18.6395 62.6044 18.2186 62.225 17.6496C61.8516 17.0805 61.6678 16.3692 61.6737 15.5156V2.16055Z" fill="black"/>
<path d="M54.2382 13.3461V5.43267H57.4569V19.09H54.336V16.6626H54.1937C53.8855 17.4273 53.3787 18.0527 52.6733 18.5388C51.9738 19.0248 51.1113 19.2679 50.0859 19.2679C49.1908 19.2679 48.3994 19.0693 47.7118 18.6721C47.0301 18.269 46.4967 17.6852 46.1114 16.9205C45.7261 16.1499 45.5334 15.2193 45.5334 14.1286V5.43267H48.7521V13.6306C48.7521 14.4961 48.9892 15.1837 49.4635 15.6935C49.9377 16.2033 50.5601 16.4581 51.3307 16.4581C51.8049 16.4581 52.2643 16.3426 52.7089 16.1114C53.1534 15.8802 53.518 15.5364 53.8025 15.08C54.093 14.6176 54.2382 14.0396 54.2382 13.3461Z" fill="black"/>
<path d="M35.0859 19.3656C34.2205 19.3656 33.441 19.2115 32.7474 18.9033C32.0598 18.5891 31.5145 18.1267 31.1114 17.5162C30.7142 16.9056 30.5157 16.1528 30.5157 15.2577C30.5157 14.4871 30.6579 13.8499 30.9425 13.3461C31.227 12.8422 31.6152 12.4391 32.1072 12.1368C32.5992 11.8345 33.1535 11.6063 33.77 11.4522C34.3924 11.2921 35.0355 11.1765 35.6994 11.1054C36.4996 11.0224 37.1487 10.9483 37.6467 10.8831C38.1446 10.812 38.5062 10.7053 38.7314 10.563C38.9626 10.4148 39.0782 10.1866 39.0782 9.87837V9.82502C39.0782 9.15519 38.8796 8.63652 38.4825 8.269C38.0853 7.90149 37.5133 7.71773 36.7664 7.71773C35.978 7.71773 35.3526 7.88963 34.8903 8.23344C34.4339 8.57724 34.1256 8.98329 33.9656 9.45157L30.9602 9.02478C31.1973 8.19491 31.5886 7.50137 32.1339 6.94417C32.6793 6.38104 33.3461 5.96017 34.1345 5.68157C34.9229 5.39705 35.7943 5.25478 36.7486 5.25478C37.4066 5.25478 38.0616 5.33184 38.7136 5.48596C39.3657 5.64008 39.9614 5.89497 40.5008 6.25063C41.0402 6.60036 41.473 7.07754 41.799 7.68216C42.1309 8.28679 42.2969 9.04256 42.2969 9.9495V19.09H39.2027V17.2139H39.096C38.9004 17.5932 38.6247 17.9489 38.2691 18.2808C37.9193 18.6069 37.4777 18.8706 36.9442 19.0722C36.4167 19.2678 35.7972 19.3656 35.0859 19.3656ZM35.9217 17.0005C36.5678 17.0005 37.128 16.873 37.6022 16.6181C38.0764 16.3573 38.441 16.0135 38.6959 15.5867C38.9567 15.1599 39.0871 14.6946 39.0871 14.1907V12.5814C38.9863 12.6644 38.8144 12.7414 38.5714 12.8126C38.3343 12.8837 38.0675 12.9459 37.7711 12.9993C37.4748 13.0526 37.1813 13.1001 36.8909 13.1416C36.6004 13.183 36.3485 13.2186 36.1351 13.2482C35.655 13.3135 35.2252 13.4202 34.8458 13.5683C34.4665 13.7165 34.1671 13.924 33.9478 14.1907C33.7285 14.4516 33.6188 14.7894 33.6188 15.2044C33.6188 15.7971 33.8352 16.2447 34.2679 16.547C34.7006 16.8493 35.2519 17.0005 35.9217 17.0005Z" fill="black"/>
<path d="M22.3599 19.3567C20.9906 19.3567 19.808 19.0722 18.8122 18.5031C17.8223 17.9281 17.0606 17.1161 16.5271 16.0669C15.9936 15.0117 15.7268 13.7699 15.7268 12.3413C15.7268 10.9365 15.9936 9.7035 16.5271 8.64245C17.0665 7.57547 17.8193 6.74559 18.7855 6.15282C19.7517 5.55413 20.8869 5.25478 22.191 5.25478C23.0327 5.25478 23.827 5.39112 24.5739 5.66379C25.3267 5.93054 25.9906 6.34547 26.5656 6.9086C27.1465 7.47173 27.6029 8.18898 27.9349 9.06035C28.2668 9.92579 28.4328 10.9572 28.4328 12.1546V13.1416H17.2384V10.972H25.3475C25.3415 10.3555 25.2082 9.80723 24.9473 9.32709C24.6865 8.84102 24.322 8.45869 23.8537 8.18009C23.3913 7.90149 22.8519 7.76219 22.2354 7.76219C21.5775 7.76219 20.9995 7.92224 20.5016 8.24233C20.0037 8.5565 19.6154 8.97143 19.3368 9.48714C19.0641 9.99692 18.9248 10.5571 18.9189 11.1676V13.0615C18.9189 13.8558 19.0641 14.5375 19.3546 15.1066C19.645 15.6697 20.0511 16.1024 20.5727 16.4047C21.0944 16.7011 21.7049 16.8493 22.4044 16.8493C22.8727 16.8493 23.2965 16.7841 23.6759 16.6537C24.0552 16.5174 24.3842 16.3188 24.6628 16.058C24.9414 15.7971 25.1518 15.4741 25.2941 15.0888L28.2994 15.4267C28.1098 16.221 27.7482 16.9145 27.2147 17.5073C26.6871 18.0941 26.0114 18.5506 25.1874 18.8766C24.3635 19.1967 23.421 19.3567 22.3599 19.3567Z" fill="black"/>
<path d="M0 19.0901V0.880259H6.97094C8.28689 0.880259 9.38054 1.08773 10.2519 1.50266C11.1292 1.91167 11.7842 2.47184 12.2169 3.18316C12.6556 3.89448 12.8749 4.70064 12.8749 5.60165C12.8749 6.34261 12.7326 6.97687 12.4481 7.50443C12.1636 8.02607 11.7813 8.4499 11.3011 8.77592C10.821 9.10194 10.2845 9.33609 9.69175 9.47835V9.65618C10.3379 9.69175 10.9573 9.89032 11.5501 10.2519C12.1488 10.6076 12.6378 11.1114 13.0172 11.7635C13.3965 12.4155 13.5862 13.2039 13.5862 14.1286C13.5862 15.0711 13.358 15.9188 12.9016 16.6716C12.4452 17.4185 11.7575 18.0083 10.8388 18.441C9.91996 18.8737 8.76407 19.0901 7.37106 19.0901H0ZM3.29875 16.3337H6.84646C8.04385 16.3337 8.90633 16.1055 9.43389 15.6491C9.96738 15.1867 10.2341 14.5939 10.2341 13.8708C10.2341 13.3313 10.1008 12.8453 9.83401 12.4125C9.56726 11.9739 9.18789 11.6301 8.6959 11.3811C8.2039 11.1262 7.61706 10.9988 6.93538 10.9988H3.29875V16.3337ZM3.29875 8.62477H6.56193C7.13099 8.62477 7.64374 8.52103 8.10017 8.31356C8.5566 8.10017 8.91522 7.80082 9.17604 7.41552C9.44278 7.02429 9.57616 6.56193 9.57616 6.02844C9.57616 5.32305 9.32719 4.74214 8.82927 4.28571C8.33727 3.82928 7.60521 3.60106 6.63307 3.60106H3.29875V8.62477Z" fill="black"/>
</svg>
