<svg width="14" height="20" viewBox="0 0 14 20" fill="none" xmlns="http://www.w3.org/2000/svg">
<path d="M13.7824 0V19.6447H7.698L7.80163 18.0163C7.38712 18.6775 6.87392 19.1759 6.26203 19.5115C5.66 19.8372 4.96422 20 4.17469 20C3.27659 20 2.53146 19.8421 1.9393 19.5263C1.34715 19.2105 0.907969 18.791 0.621762 18.2679C0.345423 17.7449 0.172712 17.2021 0.103627 16.6395C0.0345423 16.0671 0 14.9371 0 13.2494V0H5.98075V13.3679C5.98075 14.8976 6.02517 15.8056 6.11399 16.0918C6.21268 16.378 6.46928 16.5211 6.88379 16.5211C7.32791 16.5211 7.58944 16.3731 7.66839 16.077C7.75722 15.7809 7.80163 14.8285 7.80163 13.2198V0H13.7824Z" fill="white"/>
</svg>
