<svg width="72" height="80" viewBox="0 0 72 80" fill="none" xmlns="http://www.w3.org/2000/svg">
<path d="M0 0H72V44C72 63.8823 55.8823 80 36 80C16.1178 80 0 63.8823 0 44V0Z" fill="white"/>
<g clip-path="url(#clip0_272_694)">
<path fill-rule="evenodd" clip-rule="evenodd" d="M33.7736 16.3364L30.3112 19.7988C30.0306 20.0794 29.6501 20.237 29.2533 20.237H23.7999C21.2799 20.237 19.237 22.2799 19.237 24.7999V30.2533C19.237 30.6501 19.0794 31.0306 18.7988 31.3112L15.3364 34.7736C13.5545 36.5555 13.5545 39.4445 15.3364 41.2264L18.7988 44.6888C19.0794 44.9694 19.237 45.3499 19.237 45.7467V51.2002C19.237 53.72 21.2799 55.7631 23.7999 55.7631H29.2533C29.6501 55.7631 30.0306 55.9207 30.3112 56.2013L33.7736 59.6635C35.5555 61.4456 38.4445 61.4456 40.2264 59.6635L43.6888 56.2013C43.9694 55.9207 44.3499 55.7631 44.7467 55.7631H50.2002C52.72 55.7631 54.7631 53.72 54.7631 51.2002V45.7467C54.7631 45.3499 54.9207 44.9694 55.2013 44.6888L58.6635 41.2264C60.4456 39.4445 60.4456 36.5555 58.6635 34.7736L55.2013 31.3112C54.9207 31.0306 54.7631 30.6501 54.7631 30.2533V24.7999C54.7631 22.2799 52.72 20.237 50.2002 20.237H44.7467C44.3499 20.237 43.9694 20.0794 43.6888 19.7988L40.2264 16.3364C38.4445 14.5545 35.5555 14.5545 33.7736 16.3364ZM28.2492 44.5824L43.5825 29.2491L45.751 31.4176L30.4177 46.751L28.2492 44.5824ZM29.3333 30.3333V33.4H32.4V30.3333H29.3333ZM41.6 45.6667H44.6667V42.6H41.6V45.6667Z" fill="#262834"/>
</g>
<g clip-path="url(#clip1_272_694)">
<path d="M37 8C20.4297 8 7 21.4297 7 38C7 54.5703 20.4297 68 37 68C53.5703 68 67 54.5703 67 38C67 21.4297 53.5703 8 37 8ZM14.5 38C14.5 33.1484 16.0586 28.6625 18.6812 24.9805L50.0172 56.3164C46.3398 58.9414 41.8516 60.5 37 60.5C24.5898 60.5 14.5 50.4102 14.5 38ZM55.3164 51.0195L23.9805 19.6812C27.6602 17.0586 32.1484 15.5 37 15.5C49.4102 15.5 59.5 25.5934 59.5 38C59.5 42.8516 57.9414 47.3398 55.3164 51.0195Z" fill="#FF2020"/>
</g>
<defs>
<clipPath id="clip0_272_694">
<rect width="46" height="46" fill="white" transform="translate(14 15)"/>
</clipPath>
<clipPath id="clip1_272_694">
<rect width="60" height="60" fill="white" transform="translate(7 8)"/>
</clipPath>
</defs>
</svg>
