<svg width="234" height="16" viewBox="0 0 234 16" fill="none" xmlns="http://www.w3.org/2000/svg">
<path d="M233.841 5.42294L232.633 5.76471C232.557 5.56345 232.445 5.36788 232.297 5.178C232.153 4.98433 231.955 4.82484 231.704 4.69952C231.454 4.57421 231.133 4.51155 230.742 4.51155C230.206 4.51155 229.76 4.63497 229.403 4.8818C229.05 5.12484 228.873 5.43433 228.873 5.81028C228.873 6.14446 228.995 6.40838 229.238 6.60205C229.481 6.79573 229.861 6.95712 230.377 7.08623L231.676 7.40522C232.458 7.59509 233.041 7.8856 233.425 8.27674C233.808 8.66408 234 9.16345 234 9.77484C234 10.2761 233.856 10.7242 233.567 11.1191C233.282 11.5141 232.884 11.8255 232.371 12.0533C231.858 12.2812 231.262 12.3951 230.582 12.3951C229.69 12.3951 228.951 12.2014 228.366 11.8141C227.782 11.4267 227.411 10.8609 227.256 10.1166L228.532 9.79762C228.653 10.2685 228.883 10.6217 229.221 10.8571C229.563 11.0926 230.009 11.2103 230.56 11.2103C231.186 11.2103 231.684 11.0774 232.052 10.8115C232.424 10.5419 232.61 10.2191 232.61 9.84319C232.61 9.5394 232.504 9.28497 232.291 9.0799C232.078 8.87104 231.752 8.71535 231.311 8.61281L229.853 8.27104C229.052 8.08117 228.463 7.78686 228.087 7.38813C227.715 6.9856 227.529 6.48243 227.529 5.87864C227.529 5.38497 227.668 4.94826 227.945 4.56851C228.226 4.18876 228.608 3.89066 229.09 3.67421C229.576 3.45775 230.127 3.34952 230.742 3.34952C231.608 3.34952 232.287 3.5394 232.781 3.91914C233.278 4.29889 233.632 4.80016 233.841 5.42294Z" fill="black"/>
<path d="M220.984 12.3949C220.255 12.3949 219.611 12.2107 219.053 11.8424C218.495 11.4702 218.058 10.9462 217.743 10.2702C217.428 9.59046 217.27 8.7873 217.27 7.86072C217.27 6.94173 217.428 6.14426 217.743 5.46831C218.058 4.79236 218.497 4.27021 219.059 3.90185C219.621 3.5335 220.27 3.34932 221.007 3.34932C221.577 3.34932 222.027 3.44426 222.357 3.63413C222.691 3.82021 222.946 4.03287 223.12 4.27211C223.299 4.50755 223.437 4.70122 223.536 4.85312H223.65V0.546791H224.994V12.2126H223.696V10.8683H223.536C223.437 11.0278 223.297 11.2291 223.115 11.4721C222.932 11.7113 222.672 11.9259 222.334 12.1158C221.996 12.3019 221.546 12.3949 220.984 12.3949ZM221.166 11.1873C221.706 11.1873 222.161 11.0468 222.534 10.7658C222.906 10.481 223.189 10.0879 223.382 9.58666C223.576 9.0816 223.673 8.49869 223.673 7.83793C223.673 7.18477 223.578 6.61325 223.388 6.12337C223.198 5.6297 222.917 5.24616 222.545 4.97274C222.173 4.69553 221.713 4.55692 221.166 4.55692C220.597 4.55692 220.122 4.70312 219.742 4.99553C219.366 5.28413 219.084 5.67717 218.894 6.17464C218.708 6.66831 218.615 7.22274 218.615 7.83793C218.615 8.46072 218.709 9.02654 218.899 9.5354C219.093 10.0405 219.378 10.443 219.754 10.743C220.134 11.0392 220.604 11.1873 221.166 11.1873Z" fill="black"/>
<path d="M211.978 12.2128V3.46347H213.277V4.78499H213.368C213.528 4.35208 213.816 4.00081 214.234 3.73119C214.652 3.46157 215.123 3.32676 215.647 3.32676C215.746 3.32676 215.869 3.32866 216.017 3.33246C216.165 3.33625 216.277 3.34195 216.353 3.34955V4.71663C216.308 4.70524 216.203 4.68815 216.04 4.66537C215.88 4.63879 215.711 4.62549 215.533 4.62549C215.108 4.62549 214.728 4.71474 214.394 4.89322C214.063 5.0679 213.801 5.31094 213.608 5.62233C213.418 5.92993 213.323 6.28119 213.323 6.67613V12.2128H211.978Z" fill="black"/>
<path d="M205.515 12.4179C204.96 12.4179 204.457 12.3134 204.005 12.1046C203.553 11.8919 203.194 11.5862 202.929 11.1875C202.663 10.785 202.53 10.2989 202.53 9.72927C202.53 9.228 202.629 8.82167 202.826 8.51028C203.024 8.19509 203.288 7.94826 203.618 7.76978C203.948 7.59129 204.313 7.45838 204.712 7.37104C205.114 7.2799 205.519 7.20775 205.925 7.15459C206.456 7.08623 206.888 7.03497 207.218 7.00079C207.552 6.96281 207.795 6.90016 207.947 6.81281C208.103 6.72547 208.181 6.57357 208.181 6.35712V6.31155C208.181 5.74952 208.027 5.31281 207.719 5.00142C207.415 4.69003 206.954 4.53433 206.335 4.53433C205.693 4.53433 205.19 4.67484 204.825 4.95585C204.461 5.23686 204.205 5.53686 204.056 5.85585L202.781 5.40016C203.008 4.86851 203.312 4.45459 203.692 4.15838C204.075 3.85838 204.493 3.64952 204.945 3.5318C205.401 3.41028 205.849 3.34952 206.289 3.34952C206.57 3.34952 206.893 3.3837 207.258 3.45205C207.626 3.51661 207.981 3.65142 208.323 3.85648C208.669 4.06155 208.955 4.37104 209.183 4.78497C209.411 5.19889 209.525 5.75332 209.525 6.44826V12.2128H208.181V11.028H208.112C208.021 11.2179 207.869 11.421 207.656 11.6375C207.444 11.854 207.161 12.0381 206.808 12.19C206.455 12.3419 206.024 12.4179 205.515 12.4179ZM205.72 11.2103C206.251 11.2103 206.7 11.1059 207.064 10.897C207.432 10.6881 207.71 10.4185 207.896 10.0881C208.086 9.75775 208.181 9.41028 208.181 9.04573V7.81535C208.124 7.8837 207.998 7.94636 207.805 8.00332C207.615 8.05648 207.394 8.10395 207.144 8.14573C206.897 8.1837 206.656 8.21788 206.42 8.24826C206.189 8.27484 206.001 8.29762 205.856 8.31661C205.507 8.36218 205.181 8.43623 204.877 8.53876C204.577 8.6375 204.334 8.7875 204.148 8.98876C203.965 9.18623 203.874 9.45585 203.874 9.79762C203.874 10.2647 204.047 10.6179 204.393 10.8571C204.742 11.0926 205.184 11.2103 205.72 11.2103Z" fill="black"/>
<path d="M197.534 12.3951C196.714 12.3951 196.008 12.2014 195.415 11.8141C194.823 11.4267 194.367 10.8932 194.048 10.2134C193.729 9.5337 193.57 8.75712 193.57 7.8837C193.57 6.99509 193.733 6.21091 194.06 5.53117C194.39 4.84762 194.85 4.31408 195.438 3.93054C196.031 3.54319 196.722 3.34952 197.512 3.34952C198.127 3.34952 198.681 3.46345 199.175 3.69129C199.669 3.91914 200.073 4.23813 200.388 4.64826C200.703 5.05838 200.899 5.53686 200.975 6.0837H199.631C199.528 5.68497 199.3 5.3318 198.947 5.02421C198.598 4.71281 198.127 4.55712 197.534 4.55712C197.01 4.55712 196.551 4.69383 196.156 4.96724C195.765 5.23686 195.459 5.61851 195.239 6.11218C195.022 6.60205 194.914 7.17737 194.914 7.83813C194.914 8.51408 195.02 9.10269 195.233 9.60395C195.45 10.1052 195.753 10.4945 196.144 10.7717C196.539 11.0489 197.003 11.1875 197.534 11.1875C197.884 11.1875 198.201 11.1267 198.486 11.0052C198.77 10.8837 199.012 10.709 199.209 10.4812C199.406 10.2533 199.547 9.9799 199.631 9.66092H200.975C200.899 10.1774 200.711 10.6426 200.411 11.0565C200.115 11.4666 199.722 11.7932 199.232 12.0362C198.746 12.2755 198.18 12.3951 197.534 12.3951Z" fill="black"/>
<path d="M187.446 3.46342V4.60266H182.912V3.46342H187.446ZM184.234 1.36722H185.578V9.70646C185.578 10.0862 185.633 10.371 185.743 10.5609C185.857 10.747 186.001 10.8723 186.176 10.9368C186.355 10.9976 186.543 11.028 186.74 11.028C186.888 11.028 187.01 11.0204 187.105 11.0052C187.2 10.9862 187.275 10.971 187.332 10.9596L187.606 12.1672C187.515 12.2014 187.388 12.2356 187.224 12.2698C187.061 12.3077 186.854 12.3267 186.603 12.3267C186.224 12.3267 185.851 12.2451 185.487 12.0818C185.126 11.9185 184.826 11.6698 184.587 11.3356C184.351 11.0014 184.234 10.5799 184.234 10.071V1.36722Z" fill="black"/>
<path d="M181.757 3.46329V4.60253H177.041V3.46329H181.757ZM178.453 12.2127V2.2557C178.453 1.75443 178.571 1.33671 178.807 1.00253C179.042 0.668354 179.348 0.417722 179.724 0.250633C180.1 0.0835443 180.497 0 180.914 0C181.245 0 181.514 0.0265825 181.723 0.0797474C181.932 0.132912 182.088 0.182279 182.19 0.227848L181.803 1.38987C181.734 1.36709 181.64 1.33861 181.518 1.30443C181.4 1.27025 181.245 1.25316 181.051 1.25316C180.607 1.25316 180.286 1.36519 180.088 1.58924C179.895 1.81329 179.798 2.14177 179.798 2.57468V12.2127H178.453Z" fill="black"/>
<path d="M174.055 12.2127V3.46336H175.399V12.2127H174.055ZM174.738 2.00513C174.476 2.00513 174.25 1.91589 174.06 1.73741C173.874 1.55893 173.781 1.34437 173.781 1.09374C173.781 0.843105 173.874 0.628548 174.06 0.450066C174.25 0.271586 174.476 0.182345 174.738 0.182345C175 0.182345 175.224 0.271586 175.41 0.450066C175.6 0.628548 175.695 0.843105 175.695 1.09374C175.695 1.34437 175.6 1.55893 175.41 1.73741C175.224 1.91589 175 2.00513 174.738 2.00513Z" fill="black"/>
<path d="M169.743 4.19252C169.617 3.80897 169.452 3.4653 169.247 3.1615C169.046 2.85391 168.805 2.59188 168.524 2.37543C168.246 2.15897 167.931 1.99378 167.578 1.87986C167.225 1.76593 166.838 1.70897 166.416 1.70897C165.725 1.70897 165.096 1.88745 164.531 2.24442C163.965 2.60138 163.515 3.12733 163.181 3.82226C162.846 4.5172 162.679 5.36973 162.679 6.37986C162.679 7.38998 162.848 8.24252 163.186 8.93745C163.524 9.63239 163.982 10.1583 164.559 10.5153C165.136 10.8723 165.786 11.0507 166.507 11.0507C167.175 11.0507 167.764 10.9083 168.273 10.6235C168.786 10.3349 169.184 9.92859 169.469 9.40454C169.758 8.87669 169.902 8.25581 169.902 7.54188L170.335 7.63302H166.826V6.37986H171.269V7.63302C171.269 8.59378 171.064 9.42923 170.654 10.1394C170.248 10.8495 169.686 11.4001 168.968 11.7913C168.254 12.1786 167.434 12.3723 166.507 12.3723C165.474 12.3723 164.567 12.1292 163.784 11.6431C163.006 11.1571 162.398 10.4659 161.962 9.56973C161.529 8.67353 161.312 7.61024 161.312 6.37986C161.312 5.45707 161.436 4.62733 161.682 3.89062C161.933 3.15011 162.286 2.51973 162.742 1.99948C163.198 1.47923 163.737 1.08049 164.36 0.803276C164.982 0.526061 165.668 0.387453 166.416 0.387453C167.031 0.387453 167.605 0.480491 168.136 0.666567C168.672 0.848845 169.148 1.10897 169.566 1.44695C169.988 1.78112 170.339 2.18176 170.62 2.64885C170.901 3.11214 171.094 3.62669 171.201 4.19252H169.743Z" fill="black"/>
<path d="M148.941 6.94932V12.2126H147.597V0.546791H148.941V4.83034H149.055C149.26 4.37844 149.568 4.01958 149.978 3.75375C150.392 3.48413 150.943 3.34932 151.63 3.34932C152.226 3.34932 152.748 3.46894 153.197 3.70818C153.645 3.94363 153.992 4.30628 154.239 4.79616C154.49 5.28223 154.615 5.90122 154.615 6.65312V12.2126H153.271V6.74426C153.271 6.04932 153.09 5.51198 152.729 5.13223C152.372 4.74869 151.877 4.55692 151.243 4.55692C150.802 4.55692 150.407 4.64996 150.058 4.83603C149.712 5.02211 149.439 5.29363 149.238 5.65059C149.04 6.00755 148.941 6.44046 148.941 6.94932Z" fill="black"/>
<path d="M145.387 3.46342V4.60266H140.853V3.46342H145.387ZM142.174 1.36722H143.519V9.70646C143.519 10.0862 143.574 10.371 143.684 10.5609C143.798 10.747 143.942 10.8723 144.117 10.9368C144.295 10.9976 144.483 11.028 144.681 11.028C144.829 11.028 144.95 11.0204 145.045 11.0052C145.14 10.9862 145.216 10.971 145.273 10.9596L145.547 12.1672C145.455 12.2014 145.328 12.2356 145.165 12.2698C145.002 12.3077 144.795 12.3267 144.544 12.3267C144.164 12.3267 143.792 12.2451 143.428 12.0818C143.067 11.9185 142.767 11.6698 142.528 11.3356C142.292 11.0014 142.174 10.5799 142.174 10.071V1.36722Z" fill="black"/>
<path d="M137.775 12.2127V3.46336H139.12V12.2127H137.775ZM138.459 2.00513C138.197 2.00513 137.971 1.91589 137.781 1.73741C137.595 1.55893 137.502 1.34437 137.502 1.09374C137.502 0.843105 137.595 0.628548 137.781 0.450066C137.971 0.271586 138.197 0.182345 138.459 0.182345C138.721 0.182345 138.945 0.271586 139.131 0.450066C139.321 0.628548 139.416 0.843105 139.416 1.09374C139.416 1.34437 139.321 1.55893 139.131 1.73741C138.945 1.91589 138.721 2.00513 138.459 2.00513Z" fill="black"/>
<path d="M126.725 12.2127L124.059 3.46334H125.472L127.363 10.1621H127.454L129.322 3.46334H130.758L132.603 10.1393H132.694L134.586 3.46334H135.998L133.332 12.2127H132.011L130.097 5.49118H129.96L128.046 12.2127H126.725Z" fill="black"/>
<path d="M114.825 12.3951C114.005 12.3951 113.299 12.2014 112.706 11.8141C112.114 11.4267 111.658 10.8932 111.339 10.2134C111.02 9.5337 110.861 8.75712 110.861 7.8837C110.861 6.99509 111.024 6.21091 111.351 5.53117C111.681 4.84762 112.141 4.31408 112.729 3.93054C113.322 3.54319 114.013 3.34952 114.803 3.34952C115.418 3.34952 115.972 3.46345 116.466 3.69129C116.96 3.91914 117.364 4.23813 117.679 4.64826C117.994 5.05838 118.19 5.53686 118.266 6.0837H116.922C116.819 5.68497 116.591 5.3318 116.238 5.02421C115.889 4.71281 115.418 4.55712 114.825 4.55712C114.301 4.55712 113.842 4.69383 113.447 4.96724C113.056 5.23686 112.75 5.61851 112.53 6.11218C112.313 6.60205 112.205 7.17737 112.205 7.83813C112.205 8.51408 112.312 9.10269 112.524 9.60395C112.741 10.1052 113.044 10.4945 113.436 10.7717C113.831 11.0489 114.294 11.1875 114.825 11.1875C115.175 11.1875 115.492 11.1267 115.777 11.0052C116.062 10.8837 116.303 10.709 116.5 10.4812C116.698 10.2533 116.838 9.9799 116.922 9.66092H118.266C118.19 10.1774 118.002 10.6426 117.702 11.0565C117.406 11.4666 117.013 11.7932 116.523 12.0362C116.037 12.2755 115.471 12.3951 114.825 12.3951Z" fill="black"/>
<path d="M107.465 12.2127V3.46336H108.809V12.2127H107.465ZM108.148 2.00513C107.886 2.00513 107.66 1.91589 107.47 1.73741C107.284 1.55893 107.191 1.34437 107.191 1.09374C107.191 0.843105 107.284 0.628548 107.47 0.450066C107.66 0.271586 107.886 0.182345 108.148 0.182345C108.41 0.182345 108.634 0.271586 108.82 0.450066C109.01 0.628548 109.105 0.843105 109.105 1.09374C109.105 1.34437 109.01 1.55893 108.82 1.73741C108.634 1.91589 108.41 2.00513 108.148 2.00513Z" fill="black"/>
<path d="M99.4258 6.94952V12.2128H98.0815V3.46345H99.3802V4.83054H99.4941C99.6992 4.38623 100.011 4.02927 100.428 3.75965C100.846 3.48623 101.385 3.34952 102.046 3.34952C102.638 3.34952 103.157 3.47104 103.601 3.71408C104.045 3.95332 104.391 4.31788 104.638 4.80775C104.885 5.29383 105.008 5.90902 105.008 6.65332V12.2128H103.664V6.74446C103.664 6.05712 103.485 5.52167 103.128 5.13813C102.771 4.75079 102.281 4.55712 101.659 4.55712C101.23 4.55712 100.846 4.65016 100.508 4.83623C100.174 5.02231 99.91 5.29383 99.7163 5.65079C99.5226 6.00775 99.4258 6.44066 99.4258 6.94952Z" fill="black"/>
<path d="M92.0649 12.3951C91.275 12.3951 90.582 12.2071 89.9858 11.8312C89.3933 11.4552 88.9301 10.9293 88.5959 10.2533C88.2655 9.57737 88.1003 8.7875 88.1003 7.8837C88.1003 6.97231 88.2655 6.17674 88.5959 5.49699C88.9301 4.81724 89.3933 4.2894 89.9858 3.91345C90.582 3.5375 91.275 3.34952 92.0649 3.34952C92.8547 3.34952 93.5459 3.5375 94.1383 3.91345C94.7345 4.2894 95.1978 4.81724 95.5282 5.49699C95.8623 6.17674 96.0294 6.97231 96.0294 7.8837C96.0294 8.7875 95.8623 9.57737 95.5282 10.2533C95.1978 10.9293 94.7345 11.4552 94.1383 11.8312C93.5459 12.2071 92.8547 12.3951 92.0649 12.3951ZM92.0649 11.1875C92.6649 11.1875 93.1585 11.0337 93.5459 10.7261C93.9332 10.4185 94.2199 10.0141 94.406 9.51281C94.5921 9.01155 94.6851 8.46851 94.6851 7.8837C94.6851 7.29889 94.5921 6.75395 94.406 6.24889C94.2199 5.74383 93.9332 5.3356 93.5459 5.02421C93.1585 4.71281 92.6649 4.55712 92.0649 4.55712C91.4649 4.55712 90.9712 4.71281 90.5839 5.02421C90.1965 5.3356 89.9098 5.74383 89.7237 6.24889C89.5377 6.75395 89.4446 7.29889 89.4446 7.8837C89.4446 8.46851 89.5377 9.01155 89.7237 9.51281C89.9098 10.0141 90.1965 10.4185 90.5839 10.7261C90.9712 11.0337 91.4649 11.1875 92.0649 11.1875Z" fill="black"/>
<path d="M82.8085 12.2128V3.46347H84.1073V4.78499H84.1984C84.3579 4.35208 84.6465 4.00081 85.0642 3.73119C85.482 3.46157 85.9528 3.32676 86.4769 3.32676C86.5756 3.32676 86.699 3.32866 86.8472 3.33246C86.9953 3.33625 87.1073 3.34195 87.1832 3.34955V4.71663C87.1377 4.70524 87.0332 4.68815 86.8699 4.66537C86.7104 4.63879 86.5415 4.62549 86.363 4.62549C85.9377 4.62549 85.5579 4.71474 85.2237 4.89322C84.8933 5.0679 84.6313 5.31094 84.4377 5.62233C84.2478 5.92993 84.1528 6.28119 84.1528 6.67613V12.2128H82.8085Z" fill="black"/>
<path d="M80.7864 3.46342V4.60266H76.2522V3.46342H80.7864ZM77.5737 1.36722H78.918V9.70646C78.918 10.0862 78.9731 10.371 79.0832 10.5609C79.1972 10.747 79.3415 10.8723 79.5161 10.9368C79.6946 10.9976 79.8826 11.028 80.0801 11.028C80.2282 11.028 80.3497 11.0204 80.4446 11.0052C80.5396 10.9862 80.6155 10.971 80.6725 10.9596L80.9459 12.1672C80.8547 12.2014 80.7275 12.2356 80.5642 12.2698C80.401 12.3077 80.194 12.3267 79.9434 12.3267C79.5636 12.3267 79.1915 12.2451 78.8269 12.0818C78.4661 11.9185 78.1661 11.6698 77.9269 11.3356C77.6915 11.0014 77.5737 10.5799 77.5737 10.071V1.36722Z" fill="black"/>
<path d="M71.5756 12.3951C70.7554 12.3951 70.049 12.2014 69.4566 11.8141C68.8642 11.4267 68.4085 10.8932 68.0896 10.2134C67.7706 9.5337 67.6111 8.75712 67.6111 7.8837C67.6111 6.99509 67.7744 6.21091 68.1009 5.53117C68.4313 4.84762 68.8908 4.31408 69.4794 3.93054C70.0718 3.54319 70.763 3.34952 71.5528 3.34952C72.168 3.34952 72.7225 3.46345 73.2161 3.69129C73.7098 3.91914 74.1142 4.23813 74.4294 4.64826C74.7446 5.05838 74.9402 5.53686 75.0161 6.0837H73.6718C73.5693 5.68497 73.3414 5.3318 72.9883 5.02421C72.6389 4.71281 72.168 4.55712 71.5756 4.55712C71.0516 4.55712 70.5921 4.69383 70.1971 4.96724C69.806 5.23686 69.5003 5.61851 69.2801 6.11218C69.0636 6.60205 68.9554 7.17737 68.9554 7.83813C68.9554 8.51408 69.0617 9.10269 69.2744 9.60395C69.4908 10.1052 69.7946 10.4945 70.1858 10.7717C70.5807 11.0489 71.044 11.1875 71.5756 11.1875C71.925 11.1875 72.2421 11.1267 72.5269 11.0052C72.8117 10.8837 73.0528 10.709 73.2503 10.4812C73.4478 10.2533 73.5883 9.9799 73.6718 9.66092H75.0161C74.9402 10.1774 74.7522 10.6426 74.4522 11.0565C74.156 11.4666 73.763 11.7932 73.2731 12.0362C72.787 12.2755 72.2212 12.3951 71.5756 12.3951Z" fill="black"/>
<path d="M62.3535 12.3951C61.5104 12.3951 60.7832 12.209 60.1718 11.8369C59.5642 11.4609 59.0953 10.9369 58.7649 10.2647C58.4383 9.58876 58.275 8.80269 58.275 7.90649C58.275 7.01028 58.4383 6.22041 58.7649 5.53686C59.0953 4.84952 59.5547 4.31408 60.1434 3.93054C60.7358 3.54319 61.4269 3.34952 62.2168 3.34952C62.6725 3.34952 63.1225 3.42547 63.5668 3.57737C64.0111 3.72927 64.4155 3.9761 64.7801 4.31788C65.1446 4.65585 65.4351 5.10395 65.6516 5.66218C65.868 6.22041 65.9763 6.90775 65.9763 7.72421V8.29383H59.232V7.1318H64.6092C64.6092 6.63813 64.5104 6.19762 64.313 5.81028C64.1193 5.42294 63.8421 5.11724 63.4813 4.89319C63.1244 4.66914 62.7028 4.55712 62.2168 4.55712C61.6813 4.55712 61.218 4.69003 60.8269 4.95585C60.4396 5.21788 60.1415 5.55965 59.9326 5.98117C59.7237 6.40269 59.6193 6.85459 59.6193 7.33686V8.11155C59.6193 8.77231 59.7332 9.33243 59.9611 9.79193C60.1927 10.2476 60.5136 10.5951 60.9237 10.8343C61.3339 11.0698 61.8104 11.1875 62.3535 11.1875C62.7066 11.1875 63.0256 11.1381 63.3104 11.0394C63.5991 10.9369 63.8478 10.785 64.0566 10.5837C64.2655 10.3786 64.4269 10.1242 64.5408 9.82041L65.8396 10.185C65.7029 10.6255 65.4731 11.0128 65.1503 11.347C64.8275 11.6774 64.4288 11.9356 63.9541 12.1217C63.4794 12.304 62.9459 12.3951 62.3535 12.3951Z" fill="black"/>
<path d="M56.2229 0.546791V12.2126H54.8786V0.546791H56.2229Z" fill="black"/>
<path d="M45.4742 12.2126V0.546791H52.5147V1.79996H46.8869V5.74173H52.1502V6.99489H46.8869V10.9594H52.6059V12.2126H45.4742Z" fill="black"/>
<path d="M32.7176 15.4937C32.4897 15.4937 32.2865 15.4747 32.1081 15.4368C31.9296 15.4026 31.8062 15.3684 31.7378 15.3342L32.0796 14.1494C32.4062 14.233 32.6948 14.2633 32.9454 14.2406C33.196 14.2178 33.4182 14.1057 33.6119 13.9045C33.8093 13.707 33.9897 13.3861 34.153 12.9418L34.4036 12.2583L31.1682 3.46334H32.6264L35.0416 10.4355H35.1327L37.5479 3.46334H39.0062L35.2922 13.4887C35.1251 13.9406 34.9182 14.3146 34.6713 14.6108C34.4245 14.9108 34.1378 15.133 33.8112 15.2773C33.4884 15.4216 33.1239 15.4937 32.7176 15.4937Z" fill="black"/>
<path d="M26.1484 12.3951C25.3585 12.3951 24.6655 12.2071 24.0693 11.8312C23.4769 11.4552 23.0136 10.9293 22.6794 10.2533C22.349 9.57737 22.1839 8.7875 22.1839 7.8837C22.1839 6.97231 22.349 6.17674 22.6794 5.49699C23.0136 4.81724 23.4769 4.2894 24.0693 3.91345C24.6655 3.5375 25.3585 3.34952 26.1484 3.34952C26.9383 3.34952 27.6294 3.5375 28.2218 3.91345C28.818 4.2894 29.2813 4.81724 29.6117 5.49699C29.9459 6.17674 30.113 6.97231 30.113 7.8837C30.113 8.7875 29.9459 9.57737 29.6117 10.2533C29.2813 10.9293 28.818 11.4552 28.2218 11.8312C27.6294 12.2071 26.9383 12.3951 26.1484 12.3951ZM26.1484 11.1875C26.7484 11.1875 27.2421 11.0337 27.6294 10.7261C28.0168 10.4185 28.3035 10.0141 28.4896 9.51281C28.6756 9.01155 28.7687 8.46851 28.7687 7.8837C28.7687 7.29889 28.6756 6.75395 28.4896 6.24889C28.3035 5.74383 28.0168 5.3356 27.6294 5.02421C27.2421 4.71281 26.7484 4.55712 26.1484 4.55712C25.5484 4.55712 25.0547 4.71281 24.6674 5.02421C24.2801 5.3356 23.9934 5.74383 23.8073 6.24889C23.6212 6.75395 23.5282 7.29889 23.5282 7.8837C23.5282 8.46851 23.6212 9.01155 23.8073 9.51281C23.9934 10.0141 24.2801 10.4185 24.6674 10.7261C25.0547 11.0337 25.5484 11.1875 26.1484 11.1875Z" fill="black"/>
<path d="M18.7875 3.46336H20.1318V12.8507C20.1318 13.3899 20.0388 13.857 19.8527 14.252C19.6704 14.6469 19.3932 14.9526 19.021 15.1691C18.6527 15.3855 18.1875 15.4937 17.6255 15.4937C17.5799 15.4937 17.5343 15.4937 17.4888 15.4937C17.4432 15.4937 17.3976 15.4937 17.352 15.4937V14.2406C17.3976 14.2406 17.4394 14.2406 17.4774 14.2406C17.5153 14.2406 17.5571 14.2406 17.6027 14.2406C18.0128 14.2406 18.3128 14.1191 18.5027 13.876C18.6926 13.6368 18.7875 13.295 18.7875 12.8507V3.46336ZM19.4482 2.00513C19.1862 2.00513 18.9603 1.91589 18.7704 1.73741C18.5843 1.55893 18.4913 1.34437 18.4913 1.09374C18.4913 0.843105 18.5843 0.628548 18.7704 0.450066C18.9603 0.271586 19.1862 0.182345 19.4482 0.182345C19.7103 0.182345 19.9343 0.271586 20.1204 0.450066C20.3103 0.628548 20.4052 0.843105 20.4052 1.09374C20.4052 1.34437 20.3103 1.55893 20.1204 1.73741C19.9343 1.91589 19.7103 2.00513 19.4482 2.00513Z" fill="black"/>
<path d="M10.7487 6.94952V12.2128H9.40442V3.46345H10.7032V4.83054H10.8171C11.0221 4.38623 11.3335 4.02927 11.7513 3.75965C12.169 3.48623 12.7082 3.34952 13.369 3.34952C13.9614 3.34952 14.4797 3.47104 14.924 3.71408C15.3683 3.95332 15.7139 4.31788 15.9608 4.80775C16.2076 5.29383 16.331 5.90902 16.331 6.65332V12.2128H14.9867V6.74446C14.9867 6.05712 14.8082 5.52167 14.4513 5.13813C14.0943 4.75079 13.6044 4.55712 12.9816 4.55712C12.5525 4.55712 12.169 4.65016 11.831 4.83623C11.4968 5.02231 11.2329 5.29383 11.0392 5.65079C10.8456 6.00775 10.7487 6.44066 10.7487 6.94952Z" fill="black"/>
<path d="M0 12.2126V0.546791H7.04051V1.79996H1.41266V5.74173H6.67595V6.99489H1.41266V10.9594H7.13165V12.2126H0Z" fill="black"/>
</svg>
