<svg width="60" height="11" viewBox="0 0 60 11" fill="none" xmlns="http://www.w3.org/2000/svg">
<path d="M60 0.140895V10.4496H58.7919L53.1745 2.35566H53.0738V10.4496H51.8255V0.140895H53.0336L58.6711 8.25499H58.7718V0.140895H60Z" fill="white"/>
<path d="M49.7265 5.2953C49.7265 6.38255 49.5302 7.32215 49.1376 8.11409C48.745 8.90604 48.2064 9.51678 47.5218 9.94631C46.8372 10.3758 46.0554 10.5906 45.1762 10.5906C44.297 10.5906 43.5151 10.3758 42.8305 9.94631C42.146 9.51678 41.6074 8.90604 41.2148 8.11409C40.8221 7.32215 40.6258 6.38255 40.6258 5.2953C40.6258 4.20805 40.8221 3.26846 41.2148 2.47651C41.6074 1.68456 42.146 1.07383 42.8305 0.644296C43.5151 0.214765 44.297 0 45.1762 0C46.0554 0 46.8372 0.214765 47.5218 0.644296C48.2064 1.07383 48.745 1.68456 49.1376 2.47651C49.5302 3.26846 49.7265 4.20805 49.7265 5.2953ZM48.5184 5.2953C48.5184 4.40268 48.3691 3.64933 48.0705 3.03523C47.7752 2.42114 47.3741 1.95638 46.8674 1.64094C46.3641 1.3255 45.8003 1.16779 45.1762 1.16779C44.552 1.16779 43.9866 1.3255 43.4799 1.64094C42.9765 1.95638 42.5755 2.42114 42.2768 3.03523C41.9815 3.64933 41.8339 4.40268 41.8339 5.2953C41.8339 6.18792 41.9815 6.94128 42.2768 7.55537C42.5755 8.16946 42.9765 8.63423 43.4799 8.94966C43.9866 9.2651 44.552 9.42282 45.1762 9.42282C45.8003 9.42282 46.3641 9.2651 46.8674 8.94966C47.3741 8.63423 47.7752 8.16946 48.0705 7.55537C48.3691 6.94128 48.5184 6.18792 48.5184 5.2953Z" fill="white"/>
<path d="M32.3116 10.4496V9.54358L37.8687 1.24828H32.2512V0.140895H39.3586V1.04693L33.8016 9.34224H39.419V10.4496H32.3116Z" fill="white"/>
<path d="M23.4979 10.4496H22.1892L25.9744 0.140895H27.263L31.0482 10.4496H29.7395L26.659 1.77177H26.5784L23.4979 10.4496ZM23.9811 6.42277H29.2563V7.53016H23.9811V6.42277Z" fill="white"/>
<path d="M10.4648 0.140895H11.9547L15.4581 8.69794H15.5789L19.0822 0.140895H20.5721V10.4496H19.4044V2.6174H19.3037L16.0822 10.4496H14.9547L11.7332 2.6174H11.6325V10.4496H10.4648V0.140895Z" fill="white"/>
<path d="M1.30872 10.4496H0L3.78523 0.140895H5.07383L8.85906 10.4496H7.55034L4.4698 1.77177H4.38926L1.30872 10.4496ZM1.79195 6.42277H7.06711V7.53016H1.79195V6.42277Z" fill="white"/>
</svg>
