<svg width="58" height="11" viewBox="0 0 58 11" fill="none" xmlns="http://www.w3.org/2000/svg">
<path d="M58 5.3024C58 6.3911 57.8034 7.33196 57.4103 8.12497C57.0171 8.91797 56.4778 9.52953 55.7924 9.95964C55.1069 10.3897 54.3239 10.6048 53.4436 10.6048C52.5632 10.6048 51.7803 10.3897 51.0948 9.95964C50.4093 9.52953 49.87 8.91797 49.4769 8.12497C49.0837 7.33196 48.8871 6.3911 48.8871 5.3024C48.8871 4.21369 49.0837 3.27284 49.4769 2.47983C49.87 1.68682 50.4093 1.07526 51.0948 0.645159C51.7803 0.215053 52.5632 0 53.4436 0C54.3239 0 55.1069 0.215053 55.7924 0.645159C56.4778 1.07526 57.0171 1.68682 57.4103 2.47983C57.8034 3.27284 58 4.21369 58 5.3024ZM56.7903 5.3024C56.7903 4.40858 56.6408 3.65422 56.3417 3.0393C56.046 2.42438 55.6445 1.959 55.1371 1.64314C54.6331 1.32728 54.0686 1.16935 53.4436 1.16935C52.8186 1.16935 52.2524 1.32728 51.745 1.64314C51.241 1.959 50.8394 2.42438 50.5404 3.0393C50.2447 3.65422 50.0968 4.40858 50.0968 5.3024C50.0968 6.19621 50.2447 6.95058 50.5404 7.56549C50.8394 8.18041 51.241 8.6458 51.745 8.96166C52.2524 9.27751 52.8186 9.43544 53.4436 9.43544C54.0686 9.43544 54.6331 9.27751 55.1371 8.96166C55.6445 8.6458 56.046 8.18041 56.3417 7.56549C56.6408 6.95058 56.7903 6.19621 56.7903 5.3024Z" fill="white"/>
<path d="M40.049 1.24995V0.141083H47.7909V1.24995H44.5449V10.4636H43.2949V1.24995H40.049Z" fill="white"/>
<path d="M32.6511 10.4636H31.3406L35.1309 0.141083H36.4212L40.2115 10.4636H38.901L35.8164 1.77414H35.7357L32.6511 10.4636ZM33.1349 6.43138H38.4172V7.54025H33.1349V6.43138Z" fill="white"/>
<path d="M19.6005 0.141083H21.0924L24.6005 8.70959H24.7214L28.2295 0.141083H29.7214V10.4636H28.5521V2.62091H28.4512L25.2255 10.4636H24.0964L20.8706 2.62091H20.7698V10.4636H19.6005V0.141083Z" fill="white"/>
<path d="M17.4987 5.3024C17.4987 6.3911 17.3021 7.33196 16.909 8.12497C16.5158 8.91797 15.9765 9.52953 15.291 9.95964C14.6055 10.3897 13.8226 10.6048 12.9422 10.6048C12.0619 10.6048 11.2789 10.3897 10.5935 9.95964C9.90797 9.52953 9.36866 8.91797 8.97552 8.12497C8.58237 7.33196 8.3858 6.3911 8.3858 5.3024C8.3858 4.21369 8.58237 3.27284 8.97552 2.47983C9.36866 1.68682 9.90797 1.07526 10.5935 0.645159C11.2789 0.215053 12.0619 0 12.9422 0C13.8226 0 14.6055 0.215053 15.291 0.645159C15.9765 1.07526 16.5158 1.68682 16.909 2.47983C17.3021 3.27284 17.4987 4.21369 17.4987 5.3024ZM16.289 5.3024C16.289 4.40858 16.1395 3.65422 15.8404 3.0393C15.5447 2.42438 15.1432 1.959 14.6358 1.64314C14.1317 1.32728 13.5672 1.16935 12.9422 1.16935C12.3172 1.16935 11.751 1.32728 11.2437 1.64314C10.7396 1.959 10.3381 2.42438 10.039 3.0393C9.74332 3.65422 9.59547 4.40858 9.59547 5.3024C9.59547 6.19621 9.74332 6.95058 10.039 7.56549C10.3381 8.18041 10.7396 8.6458 11.2437 8.96166C11.751 9.27751 12.3172 9.43544 12.9422 9.43544C13.5672 9.43544 14.1317 9.27751 14.6358 8.96166C15.1432 8.6458 15.5447 8.18041 15.8404 7.56549C16.1395 6.95058 16.289 6.19621 16.289 5.3024Z" fill="white"/>
<path d="M0.0604836 10.4636V9.55637L5.62498 1.24995H0V0.141083H7.11691V1.04834L1.55241 9.35475H7.17739V10.4636H0.0604836Z" fill="white"/>
</svg>
