<svg width="51" height="11" viewBox="0 0 51 11" fill="none" xmlns="http://www.w3.org/2000/svg">
<path d="M49.6497 2.72081C49.5892 2.21024 49.344 1.81387 48.914 1.53171C48.4841 1.24956 47.9567 1.10848 47.332 1.10848C46.8751 1.10848 46.4754 1.18238 46.1328 1.33017C45.7935 1.47797 45.5282 1.68119 45.3367 1.93983C45.1486 2.19848 45.0545 2.49239 45.0545 2.82158C45.0545 3.09702 45.12 3.33383 45.251 3.53201C45.3854 3.72683 45.5567 3.88975 45.765 4.02075C45.9732 4.14839 46.1916 4.2542 46.42 4.33817C46.6484 4.41879 46.8583 4.48429 47.0498 4.53468L48.0978 4.81683C48.3665 4.88737 48.6655 4.98479 48.9947 5.10907C49.3272 5.23335 49.6446 5.40298 49.9469 5.61796C50.2526 5.82958 50.5045 6.10166 50.7027 6.4342C50.9009 6.76675 51 7.17487 51 7.65857C51 8.21616 50.8539 8.72002 50.5617 9.17013C50.2728 9.62023 49.8495 9.97797 49.2919 10.2433C48.7377 10.5087 48.0642 10.6414 47.2715 10.6414C46.5325 10.6414 45.8926 10.5221 45.3518 10.2836C44.8144 10.0452 44.3911 9.71261 44.0821 9.28601C43.7764 8.85942 43.6034 8.36396 43.5631 7.79964H44.853C44.8866 8.18929 45.0176 8.51176 45.246 8.76704C45.4778 9.01897 45.77 9.20707 46.1227 9.33136C46.4788 9.45228 46.8617 9.51275 47.2715 9.51275C47.7485 9.51275 48.1767 9.43549 48.5563 9.28097C48.9359 9.1231 49.2365 8.90476 49.4582 8.62596C49.6799 8.34381 49.7908 8.01462 49.7908 7.63841C49.7908 7.29579 49.695 7.01699 49.5036 6.80202C49.3121 6.58704 49.0602 6.41237 48.7478 6.27801C48.4354 6.14365 48.0978 6.02608 47.735 5.92531L46.4653 5.56254C45.6592 5.33076 45.0209 4.9999 44.5507 4.56995C44.0804 4.13999 43.8453 3.57736 43.8453 2.88204C43.8453 2.30429 44.0015 1.80043 44.3139 1.37048C44.6296 0.937167 45.0529 0.601265 45.5836 0.362774C46.1177 0.120925 46.7139 0 47.3723 0C48.0373 0 48.6285 0.119245 49.1458 0.357735C49.6631 0.592866 50.0729 0.915333 50.3752 1.32513C50.6809 1.73493 50.8421 2.20016 50.8589 2.72081H49.6497Z" fill="white"/>
<path d="M35.0001 10.4599V0.141034H38.4868C39.2963 0.141034 39.9581 0.287151 40.472 0.579386C40.9893 0.868262 41.3722 1.25959 41.6208 1.75336C41.8693 2.24714 41.9936 2.79802 41.9936 3.406C41.9936 4.01398 41.8693 4.56654 41.6208 5.06368C41.3756 5.56081 40.996 5.95718 40.4821 6.25277C39.9681 6.54501 39.3098 6.69112 38.507 6.69112H36.0079V5.58265H38.4667C39.0209 5.58265 39.466 5.48691 39.8019 5.29545C40.1378 5.10399 40.3813 4.84534 40.5325 4.51952C40.687 4.19033 40.7642 3.81916 40.7642 3.406C40.7642 2.99284 40.687 2.62335 40.5325 2.29752C40.3813 1.9717 40.1361 1.71641 39.7968 1.53167C39.4576 1.34356 39.0075 1.24951 38.4465 1.24951H36.2497V10.4599H35.0001Z" fill="white"/>
<path d="M32.4947 0.141034V10.4599H31.2452V0.141034H32.4947Z" fill="white"/>
<path d="M23.2642 10.4599V0.141034H24.5137V9.35147H29.3104V10.4599H23.2642Z" fill="white"/>
<path d="M20.7587 0.141034V10.4599H19.5092V0.141034H20.7587Z" fill="white"/>
<path d="M9.00637 10.4599V0.141034H10.2559V4.73617H15.758V0.141034H17.0076V10.4599H15.758V5.84465H10.2559V10.4599H9.00637Z" fill="white"/>
<path d="M0 10.4599V0.141034H3.48666C4.29619 0.141034 4.95791 0.287151 5.47184 0.579386C5.98913 0.868262 6.37206 1.25959 6.62063 1.75336C6.8692 2.24714 6.99348 2.79802 6.99348 3.406C6.99348 4.01398 6.8692 4.56654 6.62063 5.06368C6.37542 5.56081 5.99585 5.95718 5.48192 6.25277C4.96799 6.54501 4.30962 6.69112 3.50682 6.69112H1.00771V5.58265H3.46651C4.02075 5.58265 4.46582 5.48691 4.80172 5.29545C5.13762 5.10399 5.38115 4.84534 5.53231 4.51952C5.68682 4.19033 5.76408 3.81916 5.76408 3.406C5.76408 2.99284 5.68682 2.62335 5.53231 2.29752C5.38115 1.9717 5.13594 1.71641 4.79668 1.53167C4.45742 1.34356 4.00731 1.24951 3.44635 1.24951H1.24956V10.4599H0Z" fill="white"/>
</svg>
